<?xml version="1.0" encoding="UTF-8" standalone="no"?>
<!DOCTYPE svg PUBLIC "-//W3C//DTD SVG 1.1//EN"
 "http://www.w3.org/Graphics/SVG/1.1/DTD/svg11.dtd">
<!-- Generated by graphviz version 12.1.2 (0)
 -->
<!-- Pages: 1 -->
<svg width="1717pt" height="268pt"
 viewBox="0.00 0.00 1716.75 268.00" xmlns="http://www.w3.org/2000/svg" xmlns:xlink="http://www.w3.org/1999/xlink">
<g id="graph0" class="graph" transform="scale(1 1) rotate(0) translate(4 264)">
<polygon fill="white" stroke="none" points="-4,4 -4,-264 1712.75,-264 1712.75,4 -4,4"/>
<!-- node_0x57520d457a10 -->
<g id="node1" class="node">
<title>node_0x57520d457a10</title>
<polygon fill="#bdef9e" stroke="black" points="629.25,-222.5 629.25,-259.5 1064.75,-259.5 1064.75,-222.5 629.25,-222.5"/>
<text text-anchor="middle" x="847" y="-246.95" font-family="Times,serif" font-size="9.00">/</text>
<polyline fill="none" stroke="black" points="629.25,-241 1064.75,-241"/>
<text text-anchor="middle" x="662" y="-228.45" font-family="Times,serif" font-size="9.00">type = 3 (OP)</text>
<polyline fill="none" stroke="black" points="694.75,-222.5 694.75,-241"/>
<text text-anchor="middle" x="744.38" y="-228.45" font-family="Times,serif" font-size="9.00">left = 0x57520d457e60</text>
<polyline fill="none" stroke="black" points="794,-222.5 794,-241"/>
<text text-anchor="middle" x="846.62" y="-228.45" font-family="Times,serif" font-size="9.00">node = 0x57520d457a10</text>
<polyline fill="none" stroke="black" points="899.25,-222.5 899.25,-241"/>
<text text-anchor="middle" x="930.5" y="-228.45" font-family="Times,serif" font-size="9.00">parent = (nil)</text>
<polyline fill="none" stroke="black" points="961.75,-222.5 961.75,-241"/>
<text text-anchor="middle" x="1013.25" y="-228.45" font-family="Times,serif" font-size="9.00">right = 0x57520d457f20</text>
</g>
<!-- node_0x57520d457e60 -->
<g id="node2" class="node">
<title>node_0x57520d457e60</title>
<polygon fill="#bdef9e" stroke="black" points="357,-148.5 357,-185.5 839,-185.5 839,-148.5 357,-148.5"/>
<text text-anchor="middle" x="598" y="-172.95" font-family="Times,serif" font-size="9.00">+</text>
<polyline fill="none" stroke="black" points="357,-167 839,-167"/>
<text text-anchor="middle" x="389.75" y="-154.45" font-family="Times,serif" font-size="9.00">type = 3 (OP)</text>
<polyline fill="none" stroke="black" points="422.5,-148.5 422.5,-167"/>
<text text-anchor="middle" x="471.75" y="-154.45" font-family="Times,serif" font-size="9.00">left = 0x57520d457ea0</text>
<polyline fill="none" stroke="black" points="521,-148.5 521,-167"/>
<text text-anchor="middle" x="573.62" y="-154.45" font-family="Times,serif" font-size="9.00">node = 0x57520d457e60</text>
<polyline fill="none" stroke="black" points="626.25,-148.5 626.25,-167"/>
<text text-anchor="middle" x="681.12" y="-154.45" font-family="Times,serif" font-size="9.00">parent = 0x57520d457a10</text>
<polyline fill="none" stroke="black" points="736,-148.5 736,-167"/>
<text text-anchor="middle" x="787.5" y="-154.45" font-family="Times,serif" font-size="9.00">right = 0x57520d457ee0</text>
</g>
<!-- node_0x57520d457a10&#45;&gt;node_0x57520d457e60 -->
<g id="edge1" class="edge">
<title>node_0x57520d457a10&#45;&gt;node_0x57520d457e60</title>
<path fill="none" stroke="black" d="M784.81,-222.02C750.22,-212.01 706.97,-199.51 670.81,-189.05"/>
<polygon fill="black" stroke="black" points="671.86,-185.71 661.28,-186.3 669.92,-192.44 671.86,-185.71"/>
</g>
<!-- node_0x57520d457f20 -->
<g id="node5" class="node">
<title>node_0x57520d457f20</title>
<polygon fill="#bdef9e" stroke="black" points="856.75,-148.5 856.75,-185.5 1337.25,-185.5 1337.25,-148.5 856.75,-148.5"/>
<text text-anchor="middle" x="1097" y="-172.95" font-family="Times,serif" font-size="9.00">+</text>
<polyline fill="none" stroke="black" points="856.75,-167 1337.25,-167"/>
<text text-anchor="middle" x="889.5" y="-154.45" font-family="Times,serif" font-size="9.00">type = 3 (OP)</text>
<polyline fill="none" stroke="black" points="922.25,-148.5 922.25,-167"/>
<text text-anchor="middle" x="971.5" y="-154.45" font-family="Times,serif" font-size="9.00">left = 0x57520d457f60</text>
<polyline fill="none" stroke="black" points="1020.75,-148.5 1020.75,-167"/>
<text text-anchor="middle" x="1073" y="-154.45" font-family="Times,serif" font-size="9.00">node = 0x57520d457f20</text>
<polyline fill="none" stroke="black" points="1125.25,-148.5 1125.25,-167"/>
<text text-anchor="middle" x="1180.12" y="-154.45" font-family="Times,serif" font-size="9.00">parent = 0x57520d457a10</text>
<polyline fill="none" stroke="black" points="1235,-148.5 1235,-167"/>
<text text-anchor="middle" x="1286.12" y="-154.45" font-family="Times,serif" font-size="9.00">right = 0x57520d457fe0</text>
</g>
<!-- node_0x57520d457a10&#45;&gt;node_0x57520d457f20 -->
<g id="edge4" class="edge">
<title>node_0x57520d457a10&#45;&gt;node_0x57520d457f20</title>
<path fill="none" stroke="black" d="M909.44,-222.02C944.17,-212.01 987.59,-199.51 1023.9,-189.05"/>
<polygon fill="black" stroke="black" points="1024.83,-192.43 1033.47,-186.3 1022.89,-185.7 1024.83,-192.43"/>
</g>
<!-- node_0x57520d457ea0 -->
<g id="node3" class="node">
<title>node_0x57520d457ea0</title>
<polygon fill="blue" stroke="black" points="0,-74.5 0,-111.5 398,-111.5 398,-74.5 0,-74.5"/>
<text text-anchor="middle" x="199" y="-98.95" font-family="Times,serif" font-size="9.00">30</text>
<polyline fill="none" stroke="black" points="0,-93 398,-93"/>
<text text-anchor="middle" x="37.62" y="-80.45" font-family="Times,serif" font-size="9.00">type = 1 (NUM)</text>
<polyline fill="none" stroke="black" points="75.25,-74.5 75.25,-93"/>
<text text-anchor="middle" x="101.25" y="-80.45" font-family="Times,serif" font-size="9.00">left = (nil)</text>
<polyline fill="none" stroke="black" points="127.25,-74.5 127.25,-93"/>
<text text-anchor="middle" x="179.5" y="-80.45" font-family="Times,serif" font-size="9.00">node = 0x57520d457ea0</text>
<polyline fill="none" stroke="black" points="231.75,-74.5 231.75,-93"/>
<text text-anchor="middle" x="286.62" y="-80.45" font-family="Times,serif" font-size="9.00">parent = 0x57520d457e60</text>
<polyline fill="none" stroke="black" points="341.5,-74.5 341.5,-93"/>
<text text-anchor="middle" x="369.75" y="-80.45" font-family="Times,serif" font-size="9.00">right = (nil)</text>
</g>
<!-- node_0x57520d457e60&#45;&gt;node_0x57520d457ea0 -->
<g id="edge2" class="edge">
<title>node_0x57520d457e60&#45;&gt;node_0x57520d457ea0</title>
<path fill="none" stroke="black" d="M498.34,-148.02C440.99,-137.67 368.8,-124.64 309.68,-113.97"/>
<polygon fill="black" stroke="black" points="310.37,-110.54 299.91,-112.21 309.13,-117.43 310.37,-110.54"/>
</g>
<!-- node_0x57520d457ee0 -->
<g id="node4" class="node">
<title>node_0x57520d457ee0</title>
<polygon fill="blue" stroke="black" points="416,-74.5 416,-111.5 814,-111.5 814,-74.5 416,-74.5"/>
<text text-anchor="middle" x="615" y="-98.95" font-family="Times,serif" font-size="9.00">50</text>
<polyline fill="none" stroke="black" points="416,-93 814,-93"/>
<text text-anchor="middle" x="453.62" y="-80.45" font-family="Times,serif" font-size="9.00">type = 1 (NUM)</text>
<polyline fill="none" stroke="black" points="491.25,-74.5 491.25,-93"/>
<text text-anchor="middle" x="517.25" y="-80.45" font-family="Times,serif" font-size="9.00">left = (nil)</text>
<polyline fill="none" stroke="black" points="543.25,-74.5 543.25,-93"/>
<text text-anchor="middle" x="595.5" y="-80.45" font-family="Times,serif" font-size="9.00">node = 0x57520d457ee0</text>
<polyline fill="none" stroke="black" points="647.75,-74.5 647.75,-93"/>
<text text-anchor="middle" x="702.62" y="-80.45" font-family="Times,serif" font-size="9.00">parent = 0x57520d457e60</text>
<polyline fill="none" stroke="black" points="757.5,-74.5 757.5,-93"/>
<text text-anchor="middle" x="785.75" y="-80.45" font-family="Times,serif" font-size="9.00">right = (nil)</text>
</g>
<!-- node_0x57520d457e60&#45;&gt;node_0x57520d457ee0 -->
<g id="edge3" class="edge">
<title>node_0x57520d457e60&#45;&gt;node_0x57520d457ee0</title>
<path fill="none" stroke="black" d="M602.2,-148.2C604,-140.59 606.15,-131.5 608.16,-122.96"/>
<polygon fill="black" stroke="black" points="611.55,-123.85 610.44,-113.32 604.74,-122.24 611.55,-123.85"/>
</g>
<!-- node_0x57520d457f60 -->
<g id="node6" class="node">
<title>node_0x57520d457f60</title>
<polygon fill="#bdef9e" stroke="black" points="864.38,-74.5 864.38,-111.5 1297.62,-111.5 1297.62,-74.5 864.38,-74.5"/>
<text text-anchor="middle" x="1081" y="-98.95" font-family="Times,serif" font-size="9.00">sin</text>
<polyline fill="none" stroke="black" points="864.38,-93 1297.62,-93"/>
<text text-anchor="middle" x="897.12" y="-80.45" font-family="Times,serif" font-size="9.00">type = 3 (OP)</text>
<polyline fill="none" stroke="black" points="929.88,-74.5 929.88,-93"/>
<text text-anchor="middle" x="955.88" y="-80.45" font-family="Times,serif" font-size="9.00">left = (nil)</text>
<polyline fill="none" stroke="black" points="981.88,-74.5 981.88,-93"/>
<text text-anchor="middle" x="1034.12" y="-80.45" font-family="Times,serif" font-size="9.00">node = 0x57520d457f60</text>
<polyline fill="none" stroke="black" points="1086.38,-74.5 1086.38,-93"/>
<text text-anchor="middle" x="1140.88" y="-80.45" font-family="Times,serif" font-size="9.00">parent = 0x57520d457f20</text>
<polyline fill="none" stroke="black" points="1195.38,-74.5 1195.38,-93"/>
<text text-anchor="middle" x="1246.5" y="-80.45" font-family="Times,serif" font-size="9.00">right = 0x57520d457fa0</text>
</g>
<!-- node_0x57520d457f20&#45;&gt;node_0x57520d457f60 -->
<g id="edge5" class="edge">
<title>node_0x57520d457f20&#45;&gt;node_0x57520d457f60</title>
<path fill="none" stroke="black" d="M1093.04,-148.2C1091.35,-140.59 1089.33,-131.5 1087.43,-122.96"/>
<polygon fill="black" stroke="black" points="1090.88,-122.32 1085.29,-113.32 1084.05,-123.84 1090.88,-122.32"/>
</g>
<!-- node_0x57520d457fe0 -->
<g id="node8" class="node">
<title>node_0x57520d457fe0</title>
<polygon fill="yellow" stroke="black" points="1315.25,-74.5 1315.25,-111.5 1708.75,-111.5 1708.75,-74.5 1315.25,-74.5"/>
<text text-anchor="middle" x="1512" y="-98.95" font-family="Times,serif" font-size="9.00">x</text>
<polyline fill="none" stroke="black" points="1315.25,-93 1708.75,-93"/>
<text text-anchor="middle" x="1351.38" y="-80.45" font-family="Times,serif" font-size="9.00">type = 2 (VAR)</text>
<polyline fill="none" stroke="black" points="1387.5,-74.5 1387.5,-93"/>
<text text-anchor="middle" x="1413.5" y="-80.45" font-family="Times,serif" font-size="9.00">left = (nil)</text>
<polyline fill="none" stroke="black" points="1439.5,-74.5 1439.5,-93"/>
<text text-anchor="middle" x="1491.38" y="-80.45" font-family="Times,serif" font-size="9.00">node = 0x57520d457fe0</text>
<polyline fill="none" stroke="black" points="1543.25,-74.5 1543.25,-93"/>
<text text-anchor="middle" x="1597.75" y="-80.45" font-family="Times,serif" font-size="9.00">parent = 0x57520d457f20</text>
<polyline fill="none" stroke="black" points="1652.25,-74.5 1652.25,-93"/>
<text text-anchor="middle" x="1680.5" y="-80.45" font-family="Times,serif" font-size="9.00">right = (nil)</text>
</g>
<!-- node_0x57520d457f20&#45;&gt;node_0x57520d457fe0 -->
<g id="edge7" class="edge">
<title>node_0x57520d457f20&#45;&gt;node_0x57520d457fe0</title>
<path fill="none" stroke="black" d="M1200.65,-148.02C1260.43,-137.65 1335.71,-124.59 1397.26,-113.91"/>
<polygon fill="black" stroke="black" points="1397.85,-117.36 1407.1,-112.2 1396.65,-110.46 1397.85,-117.36"/>
</g>
<!-- node_0x57520d457fa0 -->
<g id="node7" class="node">
<title>node_0x57520d457fa0</title>
<polygon fill="yellow" stroke="black" points="884.25,-0.5 884.25,-37.5 1277.75,-37.5 1277.75,-0.5 884.25,-0.5"/>
<text text-anchor="middle" x="1081" y="-24.95" font-family="Times,serif" font-size="9.00">x</text>
<polyline fill="none" stroke="black" points="884.25,-19 1277.75,-19"/>
<text text-anchor="middle" x="920.38" y="-6.45" font-family="Times,serif" font-size="9.00">type = 2 (VAR)</text>
<polyline fill="none" stroke="black" points="956.5,-0.5 956.5,-19"/>
<text text-anchor="middle" x="982.5" y="-6.45" font-family="Times,serif" font-size="9.00">left = (nil)</text>
<polyline fill="none" stroke="black" points="1008.5,-0.5 1008.5,-19"/>
<text text-anchor="middle" x="1060.38" y="-6.45" font-family="Times,serif" font-size="9.00">node = 0x57520d457fa0</text>
<polyline fill="none" stroke="black" points="1112.25,-0.5 1112.25,-19"/>
<text text-anchor="middle" x="1166.75" y="-6.45" font-family="Times,serif" font-size="9.00">parent = 0x57520d457f60</text>
<polyline fill="none" stroke="black" points="1221.25,-0.5 1221.25,-19"/>
<text text-anchor="middle" x="1249.5" y="-6.45" font-family="Times,serif" font-size="9.00">right = (nil)</text>
</g>
<!-- node_0x57520d457f60&#45;&gt;node_0x57520d457fa0 -->
<g id="edge6" class="edge">
<title>node_0x57520d457f60&#45;&gt;node_0x57520d457fa0</title>
<path fill="none" stroke="black" d="M1081,-74.2C1081,-66.67 1081,-57.7 1081,-49.25"/>
<polygon fill="black" stroke="black" points="1084.5,-49.36 1081,-39.36 1077.5,-49.36 1084.5,-49.36"/>
</g>
</g>
</svg>
