<?xml version="1.0" encoding="UTF-8" standalone="no"?>
<!DOCTYPE svg PUBLIC "-//W3C//DTD SVG 1.1//EN"
 "http://www.w3.org/Graphics/SVG/1.1/DTD/svg11.dtd">
<!-- Generated by graphviz version 12.1.2 (0)
 -->
<!-- Pages: 1 -->
<svg width="1654pt" height="268pt"
 viewBox="0.00 0.00 1653.75 268.00" xmlns="http://www.w3.org/2000/svg" xmlns:xlink="http://www.w3.org/1999/xlink">
<g id="graph0" class="graph" transform="scale(1 1) rotate(0) translate(4 264)">
<polygon fill="white" stroke="none" points="-4,4 -4,-264 1649.75,-264 1649.75,4 -4,4"/>
<!-- node_0x5fcf43f3d310 -->
<g id="node1" class="node">
<title>node_0x5fcf43f3d310</title>
<polygon fill="#bdef9e" stroke="black" points="610.5,-222.5 610.5,-259.5 1033.25,-259.5 1033.25,-222.5 610.5,-222.5"/>
<text text-anchor="middle" x="821.88" y="-246.95" font-family="Times,serif" font-size="9.00">+</text>
<polyline fill="none" stroke="black" points="610.5,-241 1033.25,-241"/>
<text text-anchor="middle" x="643.25" y="-228.45" font-family="Times,serif" font-size="9.00">type = 3 (OP)</text>
<polyline fill="none" stroke="black" points="676,-222.5 676,-241"/>
<text text-anchor="middle" x="723.38" y="-228.45" font-family="Times,serif" font-size="9.00">left = 0x5fcf43f3d1d0</text>
<polyline fill="none" stroke="black" points="770.75,-222.5 770.75,-241"/>
<text text-anchor="middle" x="821.12" y="-228.45" font-family="Times,serif" font-size="9.00">node = 0x5fcf43f3d310</text>
<polyline fill="none" stroke="black" points="871.5,-222.5 871.5,-241"/>
<text text-anchor="middle" x="902.75" y="-228.45" font-family="Times,serif" font-size="9.00">parent = (nil)</text>
<polyline fill="none" stroke="black" points="934,-222.5 934,-241"/>
<text text-anchor="middle" x="983.62" y="-228.45" font-family="Times,serif" font-size="9.00">right = 0x5fcf43f3d2d0</text>
</g>
<!-- node_0x5fcf43f3d1d0 -->
<g id="node2" class="node">
<title>node_0x5fcf43f3d1d0</title>
<polygon fill="#bdef9e" stroke="black" points="390.5,-148.5 390.5,-185.5 813.25,-185.5 813.25,-148.5 390.5,-148.5"/>
<text text-anchor="middle" x="601.88" y="-172.95" font-family="Times,serif" font-size="9.00">sin</text>
<polyline fill="none" stroke="black" points="390.5,-167 813.25,-167"/>
<text text-anchor="middle" x="423.25" y="-154.45" font-family="Times,serif" font-size="9.00">type = 3 (OP)</text>
<polyline fill="none" stroke="black" points="456,-148.5 456,-167"/>
<text text-anchor="middle" x="482" y="-154.45" font-family="Times,serif" font-size="9.00">left = (nil)</text>
<polyline fill="none" stroke="black" points="508,-148.5 508,-167"/>
<text text-anchor="middle" x="558.38" y="-154.45" font-family="Times,serif" font-size="9.00">node = 0x5fcf43f3d1d0</text>
<polyline fill="none" stroke="black" points="608.75,-148.5 608.75,-167"/>
<text text-anchor="middle" x="661.38" y="-154.45" font-family="Times,serif" font-size="9.00">parent = 0x5fcf43f3d310</text>
<polyline fill="none" stroke="black" points="714,-148.5 714,-167"/>
<text text-anchor="middle" x="763.62" y="-154.45" font-family="Times,serif" font-size="9.00">right = 0x5fcf43f3d190</text>
</g>
<!-- node_0x5fcf43f3d310&#45;&gt;node_0x5fcf43f3d1d0 -->
<g id="edge1" class="edge">
<title>node_0x5fcf43f3d310&#45;&gt;node_0x5fcf43f3d1d0</title>
<path fill="none" stroke="black" d="M766.93,-222.02C736.63,-212.1 698.82,-199.73 667.03,-189.32"/>
<polygon fill="black" stroke="black" points="668.53,-186.13 657.94,-186.35 666.36,-192.79 668.53,-186.13"/>
</g>
<!-- node_0x5fcf43f3d2d0 -->
<g id="node6" class="node">
<title>node_0x5fcf43f3d2d0</title>
<polygon fill="#bdef9e" stroke="black" points="842.5,-148.5 842.5,-185.5 1265.25,-185.5 1265.25,-148.5 842.5,-148.5"/>
<text text-anchor="middle" x="1053.88" y="-172.95" font-family="Times,serif" font-size="9.00">cos</text>
<polyline fill="none" stroke="black" points="842.5,-167 1265.25,-167"/>
<text text-anchor="middle" x="875.25" y="-154.45" font-family="Times,serif" font-size="9.00">type = 3 (OP)</text>
<polyline fill="none" stroke="black" points="908,-148.5 908,-167"/>
<text text-anchor="middle" x="934" y="-154.45" font-family="Times,serif" font-size="9.00">left = (nil)</text>
<polyline fill="none" stroke="black" points="960,-148.5 960,-167"/>
<text text-anchor="middle" x="1010.38" y="-154.45" font-family="Times,serif" font-size="9.00">node = 0x5fcf43f3d2d0</text>
<polyline fill="none" stroke="black" points="1060.75,-148.5 1060.75,-167"/>
<text text-anchor="middle" x="1113.38" y="-154.45" font-family="Times,serif" font-size="9.00">parent = 0x5fcf43f3d310</text>
<polyline fill="none" stroke="black" points="1166,-148.5 1166,-167"/>
<text text-anchor="middle" x="1215.62" y="-154.45" font-family="Times,serif" font-size="9.00">right = 0x5fcf43f3d290</text>
</g>
<!-- node_0x5fcf43f3d310&#45;&gt;node_0x5fcf43f3d2d0 -->
<g id="edge5" class="edge">
<title>node_0x5fcf43f3d310&#45;&gt;node_0x5fcf43f3d2d0</title>
<path fill="none" stroke="black" d="M879.82,-222.02C911.91,-212.06 951.99,-199.62 985.6,-189.19"/>
<polygon fill="black" stroke="black" points="986.31,-192.63 994.82,-186.33 984.23,-185.95 986.31,-192.63"/>
</g>
<!-- node_0x5fcf43f3d190 -->
<g id="node3" class="node">
<title>node_0x5fcf43f3d190</title>
<polygon fill="#bdef9e" stroke="black" points="348.12,-74.5 348.12,-111.5 813.62,-111.5 813.62,-74.5 348.12,-74.5"/>
<text text-anchor="middle" x="580.88" y="-98.95" font-family="Times,serif" font-size="9.00">*</text>
<polyline fill="none" stroke="black" points="348.12,-93 813.62,-93"/>
<text text-anchor="middle" x="380.88" y="-80.45" font-family="Times,serif" font-size="9.00">type = 3 (OP)</text>
<polyline fill="none" stroke="black" points="413.62,-74.5 413.62,-93"/>
<text text-anchor="middle" x="461" y="-80.45" font-family="Times,serif" font-size="9.00">left = 0x5fcf43f3d110</text>
<polyline fill="none" stroke="black" points="508.38,-74.5 508.38,-93"/>
<text text-anchor="middle" x="558.75" y="-80.45" font-family="Times,serif" font-size="9.00">node = 0x5fcf43f3d190</text>
<polyline fill="none" stroke="black" points="609.12,-74.5 609.12,-93"/>
<text text-anchor="middle" x="661.75" y="-80.45" font-family="Times,serif" font-size="9.00">parent = 0x5fcf43f3d1d0</text>
<polyline fill="none" stroke="black" points="714.38,-74.5 714.38,-93"/>
<text text-anchor="middle" x="764" y="-80.45" font-family="Times,serif" font-size="9.00">right = 0x5fcf43f3d150</text>
</g>
<!-- node_0x5fcf43f3d1d0&#45;&gt;node_0x5fcf43f3d190 -->
<g id="edge2" class="edge">
<title>node_0x5fcf43f3d1d0&#45;&gt;node_0x5fcf43f3d190</title>
<path fill="none" stroke="black" d="M596.68,-148.2C594.44,-140.5 591.75,-131.29 589.24,-122.67"/>
<polygon fill="black" stroke="black" points="592.66,-121.92 586.5,-113.3 585.94,-123.88 592.66,-121.92"/>
</g>
<!-- node_0x5fcf43f3d110 -->
<g id="node4" class="node">
<title>node_0x5fcf43f3d110</title>
<polygon fill="blue" stroke="black" points="0,-0.5 0,-37.5 389.75,-37.5 389.75,-0.5 0,-0.5"/>
<text text-anchor="middle" x="194.88" y="-24.95" font-family="Times,serif" font-size="9.00">2</text>
<polyline fill="none" stroke="black" points="0,-19 389.75,-19"/>
<text text-anchor="middle" x="37.62" y="-6.45" font-family="Times,serif" font-size="9.00">type = 1 (NUM)</text>
<polyline fill="none" stroke="black" points="75.25,-0.5 75.25,-19"/>
<text text-anchor="middle" x="101.25" y="-6.45" font-family="Times,serif" font-size="9.00">left = (nil)</text>
<polyline fill="none" stroke="black" points="127.25,-0.5 127.25,-19"/>
<text text-anchor="middle" x="177.62" y="-6.45" font-family="Times,serif" font-size="9.00">node = 0x5fcf43f3d110</text>
<polyline fill="none" stroke="black" points="228,-0.5 228,-19"/>
<text text-anchor="middle" x="280.62" y="-6.45" font-family="Times,serif" font-size="9.00">parent = 0x5fcf43f3d190</text>
<polyline fill="none" stroke="black" points="333.25,-0.5 333.25,-19"/>
<text text-anchor="middle" x="361.5" y="-6.45" font-family="Times,serif" font-size="9.00">right = (nil)</text>
</g>
<!-- node_0x5fcf43f3d190&#45;&gt;node_0x5fcf43f3d110 -->
<g id="edge3" class="edge">
<title>node_0x5fcf43f3d190&#45;&gt;node_0x5fcf43f3d110</title>
<path fill="none" stroke="black" d="M484.47,-74.02C429.09,-63.69 359.43,-50.69 302.31,-40.04"/>
<polygon fill="black" stroke="black" points="303.02,-36.61 292.55,-38.22 301.73,-43.49 303.02,-36.61"/>
</g>
<!-- node_0x5fcf43f3d150 -->
<g id="node5" class="node">
<title>node_0x5fcf43f3d150</title>
<polygon fill="yellow" stroke="black" points="407.5,-0.5 407.5,-37.5 794.25,-37.5 794.25,-0.5 407.5,-0.5"/>
<text text-anchor="middle" x="600.88" y="-24.95" font-family="Times,serif" font-size="9.00">x</text>
<polyline fill="none" stroke="black" points="407.5,-19 794.25,-19"/>
<text text-anchor="middle" x="443.62" y="-6.45" font-family="Times,serif" font-size="9.00">type = 2 (VAR)</text>
<polyline fill="none" stroke="black" points="479.75,-0.5 479.75,-19"/>
<text text-anchor="middle" x="505.75" y="-6.45" font-family="Times,serif" font-size="9.00">left = (nil)</text>
<polyline fill="none" stroke="black" points="531.75,-0.5 531.75,-19"/>
<text text-anchor="middle" x="582.12" y="-6.45" font-family="Times,serif" font-size="9.00">node = 0x5fcf43f3d150</text>
<polyline fill="none" stroke="black" points="632.5,-0.5 632.5,-19"/>
<text text-anchor="middle" x="685.12" y="-6.45" font-family="Times,serif" font-size="9.00">parent = 0x5fcf43f3d190</text>
<polyline fill="none" stroke="black" points="737.75,-0.5 737.75,-19"/>
<text text-anchor="middle" x="766" y="-6.45" font-family="Times,serif" font-size="9.00">right = (nil)</text>
</g>
<!-- node_0x5fcf43f3d190&#45;&gt;node_0x5fcf43f3d150 -->
<g id="edge4" class="edge">
<title>node_0x5fcf43f3d190&#45;&gt;node_0x5fcf43f3d150</title>
<path fill="none" stroke="black" d="M585.82,-74.2C587.96,-66.5 590.52,-57.29 592.91,-48.67"/>
<polygon fill="black" stroke="black" points="596.21,-49.87 595.51,-39.3 589.46,-48 596.21,-49.87"/>
</g>
<!-- node_0x5fcf43f3d290 -->
<g id="node7" class="node">
<title>node_0x5fcf43f3d290</title>
<polygon fill="#bdef9e" stroke="black" points="832.12,-74.5 832.12,-111.5 1297.62,-111.5 1297.62,-74.5 832.12,-74.5"/>
<text text-anchor="middle" x="1064.88" y="-98.95" font-family="Times,serif" font-size="9.00">^</text>
<polyline fill="none" stroke="black" points="832.12,-93 1297.62,-93"/>
<text text-anchor="middle" x="864.88" y="-80.45" font-family="Times,serif" font-size="9.00">type = 3 (OP)</text>
<polyline fill="none" stroke="black" points="897.62,-74.5 897.62,-93"/>
<text text-anchor="middle" x="945" y="-80.45" font-family="Times,serif" font-size="9.00">left = 0x5fcf43f3d210</text>
<polyline fill="none" stroke="black" points="992.38,-74.5 992.38,-93"/>
<text text-anchor="middle" x="1042.75" y="-80.45" font-family="Times,serif" font-size="9.00">node = 0x5fcf43f3d290</text>
<polyline fill="none" stroke="black" points="1093.12,-74.5 1093.12,-93"/>
<text text-anchor="middle" x="1145.75" y="-80.45" font-family="Times,serif" font-size="9.00">parent = 0x5fcf43f3d2d0</text>
<polyline fill="none" stroke="black" points="1198.38,-74.5 1198.38,-93"/>
<text text-anchor="middle" x="1248" y="-80.45" font-family="Times,serif" font-size="9.00">right = 0x5fcf43f3d250</text>
</g>
<!-- node_0x5fcf43f3d2d0&#45;&gt;node_0x5fcf43f3d290 -->
<g id="edge6" class="edge">
<title>node_0x5fcf43f3d2d0&#45;&gt;node_0x5fcf43f3d290</title>
<path fill="none" stroke="black" d="M1056.59,-148.2C1057.76,-140.59 1059.15,-131.5 1060.45,-122.96"/>
<polygon fill="black" stroke="black" points="1063.87,-123.75 1061.92,-113.34 1056.95,-122.7 1063.87,-123.75"/>
</g>
<!-- node_0x5fcf43f3d210 -->
<g id="node8" class="node">
<title>node_0x5fcf43f3d210</title>
<polygon fill="yellow" stroke="black" points="851.5,-0.5 851.5,-37.5 1238.25,-37.5 1238.25,-0.5 851.5,-0.5"/>
<text text-anchor="middle" x="1044.88" y="-24.95" font-family="Times,serif" font-size="9.00">x</text>
<polyline fill="none" stroke="black" points="851.5,-19 1238.25,-19"/>
<text text-anchor="middle" x="887.62" y="-6.45" font-family="Times,serif" font-size="9.00">type = 2 (VAR)</text>
<polyline fill="none" stroke="black" points="923.75,-0.5 923.75,-19"/>
<text text-anchor="middle" x="949.75" y="-6.45" font-family="Times,serif" font-size="9.00">left = (nil)</text>
<polyline fill="none" stroke="black" points="975.75,-0.5 975.75,-19"/>
<text text-anchor="middle" x="1026.12" y="-6.45" font-family="Times,serif" font-size="9.00">node = 0x5fcf43f3d210</text>
<polyline fill="none" stroke="black" points="1076.5,-0.5 1076.5,-19"/>
<text text-anchor="middle" x="1129.12" y="-6.45" font-family="Times,serif" font-size="9.00">parent = 0x5fcf43f3d290</text>
<polyline fill="none" stroke="black" points="1181.75,-0.5 1181.75,-19"/>
<text text-anchor="middle" x="1210" y="-6.45" font-family="Times,serif" font-size="9.00">right = (nil)</text>
</g>
<!-- node_0x5fcf43f3d290&#45;&gt;node_0x5fcf43f3d210 -->
<g id="edge7" class="edge">
<title>node_0x5fcf43f3d290&#45;&gt;node_0x5fcf43f3d210</title>
<path fill="none" stroke="black" d="M1059.93,-74.2C1057.79,-66.5 1055.23,-57.29 1052.84,-48.67"/>
<polygon fill="black" stroke="black" points="1056.29,-48 1050.24,-39.3 1049.54,-49.87 1056.29,-48"/>
</g>
<!-- node_0x5fcf43f3d250 -->
<g id="node9" class="node">
<title>node_0x5fcf43f3d250</title>
<polygon fill="blue" stroke="black" points="1256,-0.5 1256,-37.5 1645.75,-37.5 1645.75,-0.5 1256,-0.5"/>
<text text-anchor="middle" x="1450.88" y="-24.95" font-family="Times,serif" font-size="9.00">2</text>
<polyline fill="none" stroke="black" points="1256,-19 1645.75,-19"/>
<text text-anchor="middle" x="1293.62" y="-6.45" font-family="Times,serif" font-size="9.00">type = 1 (NUM)</text>
<polyline fill="none" stroke="black" points="1331.25,-0.5 1331.25,-19"/>
<text text-anchor="middle" x="1357.25" y="-6.45" font-family="Times,serif" font-size="9.00">left = (nil)</text>
<polyline fill="none" stroke="black" points="1383.25,-0.5 1383.25,-19"/>
<text text-anchor="middle" x="1433.62" y="-6.45" font-family="Times,serif" font-size="9.00">node = 0x5fcf43f3d250</text>
<polyline fill="none" stroke="black" points="1484,-0.5 1484,-19"/>
<text text-anchor="middle" x="1536.62" y="-6.45" font-family="Times,serif" font-size="9.00">parent = 0x5fcf43f3d290</text>
<polyline fill="none" stroke="black" points="1589.25,-0.5 1589.25,-19"/>
<text text-anchor="middle" x="1617.5" y="-6.45" font-family="Times,serif" font-size="9.00">right = (nil)</text>
</g>
<!-- node_0x5fcf43f3d290&#45;&gt;node_0x5fcf43f3d250 -->
<g id="edge8" class="edge">
<title>node_0x5fcf43f3d290&#45;&gt;node_0x5fcf43f3d250</title>
<path fill="none" stroke="black" d="M1161.28,-74.02C1216.66,-63.69 1286.32,-50.69 1343.44,-40.04"/>
<polygon fill="black" stroke="black" points="1344.02,-43.49 1353.2,-38.22 1342.73,-36.61 1344.02,-43.49"/>
</g>
</g>
</svg>
