<?xml version="1.0" encoding="UTF-8" standalone="no"?>
<!DOCTYPE svg PUBLIC "-//W3C//DTD SVG 1.1//EN"
 "http://www.w3.org/Graphics/SVG/1.1/DTD/svg11.dtd">
<!-- Generated by graphviz version 12.1.2 (0)
 -->
<!-- Pages: 1 -->
<svg width="2424pt" height="342pt"
 viewBox="0.00 0.00 2423.75 342.00" xmlns="http://www.w3.org/2000/svg" xmlns:xlink="http://www.w3.org/1999/xlink">
<g id="graph0" class="graph" transform="scale(1 1) rotate(0) translate(4 338)">
<polygon fill="white" stroke="none" points="-4,4 -4,-338 2419.75,-338 2419.75,4 -4,4"/>
<!-- node_0x5830f2a104d0 -->
<g id="node1" class="node">
<title>node_0x5830f2a104d0</title>
<polygon fill="#bdef9e" stroke="black" points="628.5,-296.5 628.5,-333.5 1060.25,-333.5 1060.25,-296.5 628.5,-296.5"/>
<text text-anchor="middle" x="844.38" y="-320.95" font-family="Times,serif" font-size="9.00">*</text>
<polyline fill="none" stroke="black" points="628.5,-315 1060.25,-315"/>
<text text-anchor="middle" x="661.25" y="-302.45" font-family="Times,serif" font-size="9.00">type = 3 (OP)</text>
<polyline fill="none" stroke="black" points="694,-296.5 694,-315"/>
<text text-anchor="middle" x="742.88" y="-302.45" font-family="Times,serif" font-size="9.00">left = 0x5830f2a10490</text>
<polyline fill="none" stroke="black" points="791.75,-296.5 791.75,-315"/>
<text text-anchor="middle" x="843.62" y="-302.45" font-family="Times,serif" font-size="9.00">node = 0x5830f2a104d0</text>
<polyline fill="none" stroke="black" points="895.5,-296.5 895.5,-315"/>
<text text-anchor="middle" x="926.75" y="-302.45" font-family="Times,serif" font-size="9.00">parent = (nil)</text>
<polyline fill="none" stroke="black" points="958,-296.5 958,-315"/>
<text text-anchor="middle" x="1009.12" y="-302.45" font-family="Times,serif" font-size="9.00">right = 0x5830f2a103d0</text>
</g>
<!-- node_0x5830f2a10490 -->
<g id="node2" class="node">
<title>node_0x5830f2a10490</title>
<polygon fill="#bdef9e" stroke="black" points="357.62,-222.5 357.62,-259.5 835.12,-259.5 835.12,-222.5 357.62,-222.5"/>
<text text-anchor="middle" x="596.38" y="-246.95" font-family="Times,serif" font-size="9.00">^</text>
<polyline fill="none" stroke="black" points="357.62,-241 835.12,-241"/>
<text text-anchor="middle" x="390.38" y="-228.45" font-family="Times,serif" font-size="9.00">type = 3 (OP)</text>
<polyline fill="none" stroke="black" points="423.12,-222.5 423.12,-241"/>
<text text-anchor="middle" x="472" y="-228.45" font-family="Times,serif" font-size="9.00">left = 0x5830f2a10450</text>
<polyline fill="none" stroke="black" points="520.88,-222.5 520.88,-241"/>
<text text-anchor="middle" x="572.75" y="-228.45" font-family="Times,serif" font-size="9.00">node = 0x5830f2a10490</text>
<polyline fill="none" stroke="black" points="624.62,-222.5 624.62,-241"/>
<text text-anchor="middle" x="678.75" y="-228.45" font-family="Times,serif" font-size="9.00">parent = 0x5830f2a104d0</text>
<polyline fill="none" stroke="black" points="732.88,-222.5 732.88,-241"/>
<text text-anchor="middle" x="784" y="-228.45" font-family="Times,serif" font-size="9.00">right = 0x5830f2a10410</text>
</g>
<!-- node_0x5830f2a104d0&#45;&gt;node_0x5830f2a10490 -->
<g id="edge1" class="edge">
<title>node_0x5830f2a104d0&#45;&gt;node_0x5830f2a10490</title>
<path fill="none" stroke="black" d="M782.43,-296.02C747.98,-286.01 704.91,-273.51 668.89,-263.05"/>
<polygon fill="black" stroke="black" points="669.99,-259.73 659.41,-260.3 668.04,-266.45 669.99,-259.73"/>
</g>
<!-- node_0x5830f2a103d0 -->
<g id="node5" class="node">
<title>node_0x5830f2a103d0</title>
<polygon fill="#bdef9e" stroke="black" points="853.62,-222.5 853.62,-259.5 1331.12,-259.5 1331.12,-222.5 853.62,-222.5"/>
<text text-anchor="middle" x="1092.38" y="-246.95" font-family="Times,serif" font-size="9.00">+</text>
<polyline fill="none" stroke="black" points="853.62,-241 1331.12,-241"/>
<text text-anchor="middle" x="886.38" y="-228.45" font-family="Times,serif" font-size="9.00">type = 3 (OP)</text>
<polyline fill="none" stroke="black" points="919.12,-222.5 919.12,-241"/>
<text text-anchor="middle" x="968" y="-228.45" font-family="Times,serif" font-size="9.00">left = 0x5830f2a10390</text>
<polyline fill="none" stroke="black" points="1016.88,-222.5 1016.88,-241"/>
<text text-anchor="middle" x="1068.75" y="-228.45" font-family="Times,serif" font-size="9.00">node = 0x5830f2a103d0</text>
<polyline fill="none" stroke="black" points="1120.62,-222.5 1120.62,-241"/>
<text text-anchor="middle" x="1174.75" y="-228.45" font-family="Times,serif" font-size="9.00">parent = 0x5830f2a104d0</text>
<polyline fill="none" stroke="black" points="1228.88,-222.5 1228.88,-241"/>
<text text-anchor="middle" x="1280" y="-228.45" font-family="Times,serif" font-size="9.00">right = 0x5830f2a10290</text>
</g>
<!-- node_0x5830f2a104d0&#45;&gt;node_0x5830f2a103d0 -->
<g id="edge4" class="edge">
<title>node_0x5830f2a104d0&#45;&gt;node_0x5830f2a103d0</title>
<path fill="none" stroke="black" d="M906.32,-296.02C940.77,-286.01 983.84,-273.51 1019.86,-263.05"/>
<polygon fill="black" stroke="black" points="1020.71,-266.45 1029.34,-260.3 1018.76,-259.73 1020.71,-266.45"/>
</g>
<!-- node_0x5830f2a10450 -->
<g id="node3" class="node">
<title>node_0x5830f2a10450</title>
<polygon fill="yellow" stroke="black" points="0,-148.5 0,-185.5 392.75,-185.5 392.75,-148.5 0,-148.5"/>
<text text-anchor="middle" x="196.38" y="-172.95" font-family="Times,serif" font-size="9.00">x</text>
<polyline fill="none" stroke="black" points="0,-167 392.75,-167"/>
<text text-anchor="middle" x="36.12" y="-154.45" font-family="Times,serif" font-size="9.00">type = 2 (VAR)</text>
<polyline fill="none" stroke="black" points="72.25,-148.5 72.25,-167"/>
<text text-anchor="middle" x="98.25" y="-154.45" font-family="Times,serif" font-size="9.00">left = (nil)</text>
<polyline fill="none" stroke="black" points="124.25,-148.5 124.25,-167"/>
<text text-anchor="middle" x="176.12" y="-154.45" font-family="Times,serif" font-size="9.00">node = 0x5830f2a10450</text>
<polyline fill="none" stroke="black" points="228,-148.5 228,-167"/>
<text text-anchor="middle" x="282.12" y="-154.45" font-family="Times,serif" font-size="9.00">parent = 0x5830f2a10490</text>
<polyline fill="none" stroke="black" points="336.25,-148.5 336.25,-167"/>
<text text-anchor="middle" x="364.5" y="-154.45" font-family="Times,serif" font-size="9.00">right = (nil)</text>
</g>
<!-- node_0x5830f2a10490&#45;&gt;node_0x5830f2a10450 -->
<g id="edge2" class="edge">
<title>node_0x5830f2a10490&#45;&gt;node_0x5830f2a10450</title>
<path fill="none" stroke="black" d="M496.47,-222.02C438.97,-211.67 366.6,-198.64 307.33,-187.97"/>
<polygon fill="black" stroke="black" points="308,-184.54 297.54,-186.21 306.76,-191.43 308,-184.54"/>
</g>
<!-- node_0x5830f2a10410 -->
<g id="node4" class="node">
<title>node_0x5830f2a10410</title>
<polygon fill="yellow" stroke="black" points="411,-148.5 411,-185.5 803.75,-185.5 803.75,-148.5 411,-148.5"/>
<text text-anchor="middle" x="607.38" y="-172.95" font-family="Times,serif" font-size="9.00">x</text>
<polyline fill="none" stroke="black" points="411,-167 803.75,-167"/>
<text text-anchor="middle" x="447.12" y="-154.45" font-family="Times,serif" font-size="9.00">type = 2 (VAR)</text>
<polyline fill="none" stroke="black" points="483.25,-148.5 483.25,-167"/>
<text text-anchor="middle" x="509.25" y="-154.45" font-family="Times,serif" font-size="9.00">left = (nil)</text>
<polyline fill="none" stroke="black" points="535.25,-148.5 535.25,-167"/>
<text text-anchor="middle" x="587.12" y="-154.45" font-family="Times,serif" font-size="9.00">node = 0x5830f2a10410</text>
<polyline fill="none" stroke="black" points="639,-148.5 639,-167"/>
<text text-anchor="middle" x="693.12" y="-154.45" font-family="Times,serif" font-size="9.00">parent = 0x5830f2a10490</text>
<polyline fill="none" stroke="black" points="747.25,-148.5 747.25,-167"/>
<text text-anchor="middle" x="775.5" y="-154.45" font-family="Times,serif" font-size="9.00">right = (nil)</text>
</g>
<!-- node_0x5830f2a10490&#45;&gt;node_0x5830f2a10410 -->
<g id="edge3" class="edge">
<title>node_0x5830f2a10490&#45;&gt;node_0x5830f2a10410</title>
<path fill="none" stroke="black" d="M599.09,-222.2C600.26,-214.59 601.65,-205.5 602.95,-196.96"/>
<polygon fill="black" stroke="black" points="606.37,-197.75 604.42,-187.34 599.45,-196.7 606.37,-197.75"/>
</g>
<!-- node_0x5830f2a10390 -->
<g id="node6" class="node">
<title>node_0x5830f2a10390</title>
<polygon fill="#bdef9e" stroke="black" points="842.62,-148.5 842.62,-185.5 1320.12,-185.5 1320.12,-148.5 842.62,-148.5"/>
<text text-anchor="middle" x="1081.38" y="-172.95" font-family="Times,serif" font-size="9.00">*</text>
<polyline fill="none" stroke="black" points="842.62,-167 1320.12,-167"/>
<text text-anchor="middle" x="875.38" y="-154.45" font-family="Times,serif" font-size="9.00">type = 3 (OP)</text>
<polyline fill="none" stroke="black" points="908.12,-148.5 908.12,-167"/>
<text text-anchor="middle" x="957" y="-154.45" font-family="Times,serif" font-size="9.00">left = 0x5830f2a10350</text>
<polyline fill="none" stroke="black" points="1005.88,-148.5 1005.88,-167"/>
<text text-anchor="middle" x="1057.75" y="-154.45" font-family="Times,serif" font-size="9.00">node = 0x5830f2a10390</text>
<polyline fill="none" stroke="black" points="1109.62,-148.5 1109.62,-167"/>
<text text-anchor="middle" x="1163.75" y="-154.45" font-family="Times,serif" font-size="9.00">parent = 0x5830f2a103d0</text>
<polyline fill="none" stroke="black" points="1217.88,-148.5 1217.88,-167"/>
<text text-anchor="middle" x="1269" y="-154.45" font-family="Times,serif" font-size="9.00">right = 0x5830f2a10310</text>
</g>
<!-- node_0x5830f2a103d0&#45;&gt;node_0x5830f2a10390 -->
<g id="edge5" class="edge">
<title>node_0x5830f2a103d0&#45;&gt;node_0x5830f2a10390</title>
<path fill="none" stroke="black" d="M1089.66,-222.2C1088.49,-214.59 1087.1,-205.5 1085.8,-196.96"/>
<polygon fill="black" stroke="black" points="1089.3,-196.7 1084.33,-187.34 1082.38,-197.75 1089.3,-196.7"/>
</g>
<!-- node_0x5830f2a10290 -->
<g id="node10" class="node">
<title>node_0x5830f2a10290</title>
<polygon fill="#bdef9e" stroke="black" points="1338.62,-148.5 1338.62,-185.5 1816.12,-185.5 1816.12,-148.5 1338.62,-148.5"/>
<text text-anchor="middle" x="1577.38" y="-172.95" font-family="Times,serif" font-size="9.00">*</text>
<polyline fill="none" stroke="black" points="1338.62,-167 1816.12,-167"/>
<text text-anchor="middle" x="1371.38" y="-154.45" font-family="Times,serif" font-size="9.00">type = 3 (OP)</text>
<polyline fill="none" stroke="black" points="1404.12,-148.5 1404.12,-167"/>
<text text-anchor="middle" x="1453" y="-154.45" font-family="Times,serif" font-size="9.00">left = 0x5830f2a10250</text>
<polyline fill="none" stroke="black" points="1501.88,-148.5 1501.88,-167"/>
<text text-anchor="middle" x="1553.75" y="-154.45" font-family="Times,serif" font-size="9.00">node = 0x5830f2a10290</text>
<polyline fill="none" stroke="black" points="1605.62,-148.5 1605.62,-167"/>
<text text-anchor="middle" x="1659.75" y="-154.45" font-family="Times,serif" font-size="9.00">parent = 0x5830f2a103d0</text>
<polyline fill="none" stroke="black" points="1713.88,-148.5 1713.88,-167"/>
<text text-anchor="middle" x="1765" y="-154.45" font-family="Times,serif" font-size="9.00">right = 0x5830f2a10210</text>
</g>
<!-- node_0x5830f2a103d0&#45;&gt;node_0x5830f2a10290 -->
<g id="edge9" class="edge">
<title>node_0x5830f2a103d0&#45;&gt;node_0x5830f2a10290</title>
<path fill="none" stroke="black" d="M1213.51,-222.02C1284.1,-211.54 1373.17,-198.31 1445.52,-187.57"/>
<polygon fill="black" stroke="black" points="1445.65,-191.09 1455.03,-186.16 1444.62,-184.17 1445.65,-191.09"/>
</g>
<!-- node_0x5830f2a10350 -->
<g id="node7" class="node">
<title>node_0x5830f2a10350</title>
<polygon fill="blue" stroke="black" points="467.5,-74.5 467.5,-111.5 863.25,-111.5 863.25,-74.5 467.5,-74.5"/>
<text text-anchor="middle" x="665.38" y="-98.95" font-family="Times,serif" font-size="9.00">1</text>
<polyline fill="none" stroke="black" points="467.5,-93 863.25,-93"/>
<text text-anchor="middle" x="505.12" y="-80.45" font-family="Times,serif" font-size="9.00">type = 1 (NUM)</text>
<polyline fill="none" stroke="black" points="542.75,-74.5 542.75,-93"/>
<text text-anchor="middle" x="568.75" y="-80.45" font-family="Times,serif" font-size="9.00">left = (nil)</text>
<polyline fill="none" stroke="black" points="594.75,-74.5 594.75,-93"/>
<text text-anchor="middle" x="646.62" y="-80.45" font-family="Times,serif" font-size="9.00">node = 0x5830f2a10350</text>
<polyline fill="none" stroke="black" points="698.5,-74.5 698.5,-93"/>
<text text-anchor="middle" x="752.62" y="-80.45" font-family="Times,serif" font-size="9.00">parent = 0x5830f2a10390</text>
<polyline fill="none" stroke="black" points="806.75,-74.5 806.75,-93"/>
<text text-anchor="middle" x="835" y="-80.45" font-family="Times,serif" font-size="9.00">right = (nil)</text>
</g>
<!-- node_0x5830f2a10390&#45;&gt;node_0x5830f2a10350 -->
<g id="edge6" class="edge">
<title>node_0x5830f2a10390&#45;&gt;node_0x5830f2a10350</title>
<path fill="none" stroke="black" d="M977.47,-148.02C917.43,-137.62 841.78,-124.53 780,-113.84"/>
<polygon fill="black" stroke="black" points="780.97,-110.46 770.52,-112.2 779.78,-117.35 780.97,-110.46"/>
</g>
<!-- node_0x5830f2a10310 -->
<g id="node8" class="node">
<title>node_0x5830f2a10310</title>
<polygon fill="#bdef9e" stroke="black" points="881.5,-74.5 881.5,-111.5 1313.25,-111.5 1313.25,-74.5 881.5,-74.5"/>
<text text-anchor="middle" x="1097.38" y="-98.95" font-family="Times,serif" font-size="9.00">ln</text>
<polyline fill="none" stroke="black" points="881.5,-93 1313.25,-93"/>
<text text-anchor="middle" x="914.25" y="-80.45" font-family="Times,serif" font-size="9.00">type = 3 (OP)</text>
<polyline fill="none" stroke="black" points="947,-74.5 947,-93"/>
<text text-anchor="middle" x="973" y="-80.45" font-family="Times,serif" font-size="9.00">left = (nil)</text>
<polyline fill="none" stroke="black" points="999,-74.5 999,-93"/>
<text text-anchor="middle" x="1050.88" y="-80.45" font-family="Times,serif" font-size="9.00">node = 0x5830f2a10310</text>
<polyline fill="none" stroke="black" points="1102.75,-74.5 1102.75,-93"/>
<text text-anchor="middle" x="1156.88" y="-80.45" font-family="Times,serif" font-size="9.00">parent = 0x5830f2a10390</text>
<polyline fill="none" stroke="black" points="1211,-74.5 1211,-93"/>
<text text-anchor="middle" x="1262.12" y="-80.45" font-family="Times,serif" font-size="9.00">right = 0x5830f2a102d0</text>
</g>
<!-- node_0x5830f2a10390&#45;&gt;node_0x5830f2a10310 -->
<g id="edge7" class="edge">
<title>node_0x5830f2a10390&#45;&gt;node_0x5830f2a10310</title>
<path fill="none" stroke="black" d="M1085.33,-148.2C1087.02,-140.59 1089.04,-131.5 1090.94,-122.96"/>
<polygon fill="black" stroke="black" points="1094.33,-123.84 1093.08,-113.32 1087.5,-122.32 1094.33,-123.84"/>
</g>
<!-- node_0x5830f2a102d0 -->
<g id="node9" class="node">
<title>node_0x5830f2a102d0</title>
<polygon fill="yellow" stroke="black" points="901,-0.5 901,-37.5 1293.75,-37.5 1293.75,-0.5 901,-0.5"/>
<text text-anchor="middle" x="1097.38" y="-24.95" font-family="Times,serif" font-size="9.00">x</text>
<polyline fill="none" stroke="black" points="901,-19 1293.75,-19"/>
<text text-anchor="middle" x="937.12" y="-6.45" font-family="Times,serif" font-size="9.00">type = 2 (VAR)</text>
<polyline fill="none" stroke="black" points="973.25,-0.5 973.25,-19"/>
<text text-anchor="middle" x="999.25" y="-6.45" font-family="Times,serif" font-size="9.00">left = (nil)</text>
<polyline fill="none" stroke="black" points="1025.25,-0.5 1025.25,-19"/>
<text text-anchor="middle" x="1077.12" y="-6.45" font-family="Times,serif" font-size="9.00">node = 0x5830f2a102d0</text>
<polyline fill="none" stroke="black" points="1129,-0.5 1129,-19"/>
<text text-anchor="middle" x="1183.12" y="-6.45" font-family="Times,serif" font-size="9.00">parent = 0x5830f2a10310</text>
<polyline fill="none" stroke="black" points="1237.25,-0.5 1237.25,-19"/>
<text text-anchor="middle" x="1265.5" y="-6.45" font-family="Times,serif" font-size="9.00">right = (nil)</text>
</g>
<!-- node_0x5830f2a10310&#45;&gt;node_0x5830f2a102d0 -->
<g id="edge8" class="edge">
<title>node_0x5830f2a10310&#45;&gt;node_0x5830f2a102d0</title>
<path fill="none" stroke="black" d="M1097.38,-74.2C1097.38,-66.67 1097.38,-57.7 1097.38,-49.25"/>
<polygon fill="black" stroke="black" points="1100.88,-49.36 1097.38,-39.36 1093.88,-49.36 1100.88,-49.36"/>
</g>
<!-- node_0x5830f2a10250 -->
<g id="node11" class="node">
<title>node_0x5830f2a10250</title>
<polygon fill="yellow" stroke="black" points="1364,-74.5 1364,-111.5 1756.75,-111.5 1756.75,-74.5 1364,-74.5"/>
<text text-anchor="middle" x="1560.38" y="-98.95" font-family="Times,serif" font-size="9.00">x</text>
<polyline fill="none" stroke="black" points="1364,-93 1756.75,-93"/>
<text text-anchor="middle" x="1400.12" y="-80.45" font-family="Times,serif" font-size="9.00">type = 2 (VAR)</text>
<polyline fill="none" stroke="black" points="1436.25,-74.5 1436.25,-93"/>
<text text-anchor="middle" x="1462.25" y="-80.45" font-family="Times,serif" font-size="9.00">left = (nil)</text>
<polyline fill="none" stroke="black" points="1488.25,-74.5 1488.25,-93"/>
<text text-anchor="middle" x="1540.12" y="-80.45" font-family="Times,serif" font-size="9.00">node = 0x5830f2a10250</text>
<polyline fill="none" stroke="black" points="1592,-74.5 1592,-93"/>
<text text-anchor="middle" x="1646.12" y="-80.45" font-family="Times,serif" font-size="9.00">parent = 0x5830f2a10290</text>
<polyline fill="none" stroke="black" points="1700.25,-74.5 1700.25,-93"/>
<text text-anchor="middle" x="1728.5" y="-80.45" font-family="Times,serif" font-size="9.00">right = (nil)</text>
</g>
<!-- node_0x5830f2a10290&#45;&gt;node_0x5830f2a10250 -->
<g id="edge10" class="edge">
<title>node_0x5830f2a10290&#45;&gt;node_0x5830f2a10250</title>
<path fill="none" stroke="black" d="M1573.17,-148.2C1571.37,-140.59 1569.23,-131.5 1567.21,-122.96"/>
<polygon fill="black" stroke="black" points="1570.64,-122.24 1564.94,-113.32 1563.83,-123.85 1570.64,-122.24"/>
</g>
<!-- node_0x5830f2a10210 -->
<g id="node12" class="node">
<title>node_0x5830f2a10210</title>
<polygon fill="#bdef9e" stroke="black" points="1774.62,-74.5 1774.62,-111.5 2252.12,-111.5 2252.12,-74.5 1774.62,-74.5"/>
<text text-anchor="middle" x="2013.38" y="-98.95" font-family="Times,serif" font-size="9.00">/</text>
<polyline fill="none" stroke="black" points="1774.62,-93 2252.12,-93"/>
<text text-anchor="middle" x="1807.38" y="-80.45" font-family="Times,serif" font-size="9.00">type = 3 (OP)</text>
<polyline fill="none" stroke="black" points="1840.12,-74.5 1840.12,-93"/>
<text text-anchor="middle" x="1889" y="-80.45" font-family="Times,serif" font-size="9.00">left = 0x5830f2a101d0</text>
<polyline fill="none" stroke="black" points="1937.88,-74.5 1937.88,-93"/>
<text text-anchor="middle" x="1989.75" y="-80.45" font-family="Times,serif" font-size="9.00">node = 0x5830f2a10210</text>
<polyline fill="none" stroke="black" points="2041.62,-74.5 2041.62,-93"/>
<text text-anchor="middle" x="2095.75" y="-80.45" font-family="Times,serif" font-size="9.00">parent = 0x5830f2a10290</text>
<polyline fill="none" stroke="black" points="2149.88,-74.5 2149.88,-93"/>
<text text-anchor="middle" x="2201" y="-80.45" font-family="Times,serif" font-size="9.00">right = 0x5830f2a10190</text>
</g>
<!-- node_0x5830f2a10290&#45;&gt;node_0x5830f2a10210 -->
<g id="edge11" class="edge">
<title>node_0x5830f2a10290&#45;&gt;node_0x5830f2a10210</title>
<path fill="none" stroke="black" d="M1686.27,-148.02C1749.34,-137.6 1828.82,-124.48 1893.64,-113.77"/>
<polygon fill="black" stroke="black" points="1893.94,-117.27 1903.24,-112.19 1892.8,-110.36 1893.94,-117.27"/>
</g>
<!-- node_0x5830f2a101d0 -->
<g id="node13" class="node">
<title>node_0x5830f2a101d0</title>
<polygon fill="blue" stroke="black" points="1609.5,-0.5 1609.5,-37.5 2005.25,-37.5 2005.25,-0.5 1609.5,-0.5"/>
<text text-anchor="middle" x="1807.38" y="-24.95" font-family="Times,serif" font-size="9.00">1</text>
<polyline fill="none" stroke="black" points="1609.5,-19 2005.25,-19"/>
<text text-anchor="middle" x="1647.12" y="-6.45" font-family="Times,serif" font-size="9.00">type = 1 (NUM)</text>
<polyline fill="none" stroke="black" points="1684.75,-0.5 1684.75,-19"/>
<text text-anchor="middle" x="1710.75" y="-6.45" font-family="Times,serif" font-size="9.00">left = (nil)</text>
<polyline fill="none" stroke="black" points="1736.75,-0.5 1736.75,-19"/>
<text text-anchor="middle" x="1788.62" y="-6.45" font-family="Times,serif" font-size="9.00">node = 0x5830f2a101d0</text>
<polyline fill="none" stroke="black" points="1840.5,-0.5 1840.5,-19"/>
<text text-anchor="middle" x="1894.62" y="-6.45" font-family="Times,serif" font-size="9.00">parent = 0x5830f2a10210</text>
<polyline fill="none" stroke="black" points="1948.75,-0.5 1948.75,-19"/>
<text text-anchor="middle" x="1977" y="-6.45" font-family="Times,serif" font-size="9.00">right = (nil)</text>
</g>
<!-- node_0x5830f2a10210&#45;&gt;node_0x5830f2a101d0 -->
<g id="edge12" class="edge">
<title>node_0x5830f2a10210&#45;&gt;node_0x5830f2a101d0</title>
<path fill="none" stroke="black" d="M1961.92,-74.02C1933.8,-64.19 1898.76,-51.94 1869.16,-41.6"/>
<polygon fill="black" stroke="black" points="1870.55,-38.37 1859.96,-38.38 1868.24,-44.98 1870.55,-38.37"/>
</g>
<!-- node_0x5830f2a10190 -->
<g id="node14" class="node">
<title>node_0x5830f2a10190</title>
<polygon fill="yellow" stroke="black" points="2023,-0.5 2023,-37.5 2415.75,-37.5 2415.75,-0.5 2023,-0.5"/>
<text text-anchor="middle" x="2219.38" y="-24.95" font-family="Times,serif" font-size="9.00">x</text>
<polyline fill="none" stroke="black" points="2023,-19 2415.75,-19"/>
<text text-anchor="middle" x="2059.12" y="-6.45" font-family="Times,serif" font-size="9.00">type = 2 (VAR)</text>
<polyline fill="none" stroke="black" points="2095.25,-0.5 2095.25,-19"/>
<text text-anchor="middle" x="2121.25" y="-6.45" font-family="Times,serif" font-size="9.00">left = (nil)</text>
<polyline fill="none" stroke="black" points="2147.25,-0.5 2147.25,-19"/>
<text text-anchor="middle" x="2199.12" y="-6.45" font-family="Times,serif" font-size="9.00">node = 0x5830f2a10190</text>
<polyline fill="none" stroke="black" points="2251,-0.5 2251,-19"/>
<text text-anchor="middle" x="2305.12" y="-6.45" font-family="Times,serif" font-size="9.00">parent = 0x5830f2a10210</text>
<polyline fill="none" stroke="black" points="2359.25,-0.5 2359.25,-19"/>
<text text-anchor="middle" x="2387.5" y="-6.45" font-family="Times,serif" font-size="9.00">right = (nil)</text>
</g>
<!-- node_0x5830f2a10210&#45;&gt;node_0x5830f2a10190 -->
<g id="edge13" class="edge">
<title>node_0x5830f2a10210&#45;&gt;node_0x5830f2a10190</title>
<path fill="none" stroke="black" d="M2064.83,-74.02C2092.95,-64.19 2127.99,-51.94 2157.59,-41.6"/>
<polygon fill="black" stroke="black" points="2158.51,-44.98 2166.79,-38.38 2156.2,-38.37 2158.51,-44.98"/>
</g>
</g>
</svg>
