<?xml version="1.0" encoding="UTF-8" standalone="no"?>
<!DOCTYPE svg PUBLIC "-//W3C//DTD SVG 1.1//EN"
 "http://www.w3.org/Graphics/SVG/1.1/DTD/svg11.dtd">
<!-- Generated by graphviz version 12.1.2 (0)
 -->
<!-- Pages: 1 -->
<svg width="812pt" height="120pt"
 viewBox="0.00 0.00 811.75 120.00" xmlns="http://www.w3.org/2000/svg" xmlns:xlink="http://www.w3.org/1999/xlink">
<g id="graph0" class="graph" transform="scale(1 1) rotate(0) translate(4 116)">
<polygon fill="white" stroke="none" points="-4,4 -4,-116 807.75,-116 807.75,4 -4,4"/>
<!-- node_0x5f6ec50152d0 -->
<g id="node1" class="node">
<title>node_0x5f6ec50152d0</title>
<polygon fill="#bdef9e" stroke="black" points="187.38,-74.5 187.38,-111.5 616.88,-111.5 616.88,-74.5 187.38,-74.5"/>
<text text-anchor="middle" x="402.12" y="-98.95" font-family="Times,serif" font-size="9.00">log</text>
<polyline fill="none" stroke="black" points="187.38,-93 616.88,-93"/>
<text text-anchor="middle" x="220.12" y="-80.45" font-family="Times,serif" font-size="9.00">type = 3 (OP)</text>
<polyline fill="none" stroke="black" points="252.88,-74.5 252.88,-93"/>
<text text-anchor="middle" x="301.38" y="-80.45" font-family="Times,serif" font-size="9.00">left = 0x5f6ec5015310</text>
<polyline fill="none" stroke="black" points="349.88,-74.5 349.88,-93"/>
<text text-anchor="middle" x="401.38" y="-80.45" font-family="Times,serif" font-size="9.00">node = 0x5f6ec50152d0</text>
<polyline fill="none" stroke="black" points="452.88,-74.5 452.88,-93"/>
<text text-anchor="middle" x="484.12" y="-80.45" font-family="Times,serif" font-size="9.00">parent = (nil)</text>
<polyline fill="none" stroke="black" points="515.38,-74.5 515.38,-93"/>
<text text-anchor="middle" x="566.12" y="-80.45" font-family="Times,serif" font-size="9.00">right = 0x5f6ec5015350</text>
</g>
<!-- node_0x5f6ec5015310 -->
<g id="node2" class="node">
<title>node_0x5f6ec5015310</title>
<polygon fill="blue" stroke="black" points="0,-0.5 0,-37.5 394.25,-37.5 394.25,-0.5 0,-0.5"/>
<text text-anchor="middle" x="197.12" y="-24.95" font-family="Times,serif" font-size="9.00">3</text>
<polyline fill="none" stroke="black" points="0,-19 394.25,-19"/>
<text text-anchor="middle" x="37.62" y="-6.45" font-family="Times,serif" font-size="9.00">type = 1 (NUM)</text>
<polyline fill="none" stroke="black" points="75.25,-0.5 75.25,-19"/>
<text text-anchor="middle" x="101.25" y="-6.45" font-family="Times,serif" font-size="9.00">left = (nil)</text>
<polyline fill="none" stroke="black" points="127.25,-0.5 127.25,-19"/>
<text text-anchor="middle" x="178.75" y="-6.45" font-family="Times,serif" font-size="9.00">node = 0x5f6ec5015310</text>
<polyline fill="none" stroke="black" points="230.25,-0.5 230.25,-19"/>
<text text-anchor="middle" x="284" y="-6.45" font-family="Times,serif" font-size="9.00">parent = 0x5f6ec50152d0</text>
<polyline fill="none" stroke="black" points="337.75,-0.5 337.75,-19"/>
<text text-anchor="middle" x="366" y="-6.45" font-family="Times,serif" font-size="9.00">right = (nil)</text>
</g>
<!-- node_0x5f6ec50152d0&#45;&gt;node_0x5f6ec5015310 -->
<g id="edge1" class="edge">
<title>node_0x5f6ec50152d0&#45;&gt;node_0x5f6ec5015310</title>
<path fill="none" stroke="black" d="M350.92,-74.02C322.93,-64.19 288.07,-51.94 258.61,-41.6"/>
<polygon fill="black" stroke="black" points="260.05,-38.39 249.46,-38.38 257.73,-45 260.05,-38.39"/>
</g>
<!-- node_0x5f6ec5015350 -->
<g id="node3" class="node">
<title>node_0x5f6ec5015350</title>
<polygon fill="yellow" stroke="black" points="412.5,-0.5 412.5,-37.5 803.75,-37.5 803.75,-0.5 412.5,-0.5"/>
<text text-anchor="middle" x="608.12" y="-24.95" font-family="Times,serif" font-size="9.00">x</text>
<polyline fill="none" stroke="black" points="412.5,-19 803.75,-19"/>
<text text-anchor="middle" x="448.62" y="-6.45" font-family="Times,serif" font-size="9.00">type = 2 (VAR)</text>
<polyline fill="none" stroke="black" points="484.75,-0.5 484.75,-19"/>
<text text-anchor="middle" x="510.75" y="-6.45" font-family="Times,serif" font-size="9.00">left = (nil)</text>
<polyline fill="none" stroke="black" points="536.75,-0.5 536.75,-19"/>
<text text-anchor="middle" x="588.25" y="-6.45" font-family="Times,serif" font-size="9.00">node = 0x5f6ec5015350</text>
<polyline fill="none" stroke="black" points="639.75,-0.5 639.75,-19"/>
<text text-anchor="middle" x="693.5" y="-6.45" font-family="Times,serif" font-size="9.00">parent = 0x5f6ec50152d0</text>
<polyline fill="none" stroke="black" points="747.25,-0.5 747.25,-19"/>
<text text-anchor="middle" x="775.5" y="-6.45" font-family="Times,serif" font-size="9.00">right = (nil)</text>
</g>
<!-- node_0x5f6ec50152d0&#45;&gt;node_0x5f6ec5015350 -->
<g id="edge2" class="edge">
<title>node_0x5f6ec50152d0&#45;&gt;node_0x5f6ec5015350</title>
<path fill="none" stroke="black" d="M453.58,-74.02C481.7,-64.19 516.74,-51.94 546.34,-41.6"/>
<polygon fill="black" stroke="black" points="547.26,-44.98 555.54,-38.38 544.95,-38.37 547.26,-44.98"/>
</g>
</g>
</svg>
