<?xml version="1.0" encoding="UTF-8" standalone="no"?>
<!DOCTYPE svg PUBLIC "-//W3C//DTD SVG 1.1//EN"
 "http://www.w3.org/Graphics/SVG/1.1/DTD/svg11.dtd">
<!-- Generated by graphviz version 12.1.2 (0)
 -->
<!-- Pages: 1 -->
<svg width="1732pt" height="268pt"
 viewBox="0.00 0.00 1731.75 268.00" xmlns="http://www.w3.org/2000/svg" xmlns:xlink="http://www.w3.org/1999/xlink">
<g id="graph0" class="graph" transform="scale(1 1) rotate(0) translate(4 264)">
<polygon fill="white" stroke="none" points="-4,4 -4,-264 1727.75,-264 1727.75,4 -4,4"/>
<!-- node_0x57520d459210 -->
<g id="node1" class="node">
<title>node_0x57520d459210</title>
<polygon fill="#bdef9e" stroke="black" points="633.88,-222.5 633.88,-259.5 1072.38,-259.5 1072.38,-222.5 633.88,-222.5"/>
<text text-anchor="middle" x="853.12" y="-246.95" font-family="Times,serif" font-size="9.00">/</text>
<polyline fill="none" stroke="black" points="633.88,-241 1072.38,-241"/>
<text text-anchor="middle" x="666.62" y="-228.45" font-family="Times,serif" font-size="9.00">type = 3 (OP)</text>
<polyline fill="none" stroke="black" points="699.38,-222.5 699.38,-241"/>
<text text-anchor="middle" x="749.38" y="-228.45" font-family="Times,serif" font-size="9.00">left = 0x57520d459250</text>
<polyline fill="none" stroke="black" points="799.38,-222.5 799.38,-241"/>
<text text-anchor="middle" x="852.38" y="-228.45" font-family="Times,serif" font-size="9.00">node = 0x57520d459210</text>
<polyline fill="none" stroke="black" points="905.38,-222.5 905.38,-241"/>
<text text-anchor="middle" x="936.62" y="-228.45" font-family="Times,serif" font-size="9.00">parent = (nil)</text>
<polyline fill="none" stroke="black" points="967.88,-222.5 967.88,-241"/>
<text text-anchor="middle" x="1020.12" y="-228.45" font-family="Times,serif" font-size="9.00">right = 0x57520d459310</text>
</g>
<!-- node_0x57520d459250 -->
<g id="node2" class="node">
<title>node_0x57520d459250</title>
<polygon fill="#bdef9e" stroke="black" points="357.88,-148.5 357.88,-185.5 844.38,-185.5 844.38,-148.5 357.88,-148.5"/>
<text text-anchor="middle" x="601.12" y="-172.95" font-family="Times,serif" font-size="9.00">+</text>
<polyline fill="none" stroke="black" points="357.88,-167 844.38,-167"/>
<text text-anchor="middle" x="390.62" y="-154.45" font-family="Times,serif" font-size="9.00">type = 3 (OP)</text>
<polyline fill="none" stroke="black" points="423.38,-148.5 423.38,-167"/>
<text text-anchor="middle" x="473.38" y="-154.45" font-family="Times,serif" font-size="9.00">left = 0x57520d459290</text>
<polyline fill="none" stroke="black" points="523.38,-148.5 523.38,-167"/>
<text text-anchor="middle" x="576.38" y="-154.45" font-family="Times,serif" font-size="9.00">node = 0x57520d459250</text>
<polyline fill="none" stroke="black" points="629.38,-148.5 629.38,-167"/>
<text text-anchor="middle" x="684.62" y="-154.45" font-family="Times,serif" font-size="9.00">parent = 0x57520d459210</text>
<polyline fill="none" stroke="black" points="739.88,-148.5 739.88,-167"/>
<text text-anchor="middle" x="792.12" y="-154.45" font-family="Times,serif" font-size="9.00">right = 0x57520d4592d0</text>
</g>
<!-- node_0x57520d459210&#45;&gt;node_0x57520d459250 -->
<g id="edge1" class="edge">
<title>node_0x57520d459210&#45;&gt;node_0x57520d459250</title>
<path fill="none" stroke="black" d="M790.18,-222.02C755.02,-211.97 711.03,-199.4 674.34,-188.92"/>
<polygon fill="black" stroke="black" points="675.73,-185.68 665.15,-186.29 673.81,-192.41 675.73,-185.68"/>
</g>
<!-- node_0x57520d459310 -->
<g id="node5" class="node">
<title>node_0x57520d459310</title>
<polygon fill="#bdef9e" stroke="black" points="862.88,-148.5 862.88,-185.5 1349.38,-185.5 1349.38,-148.5 862.88,-148.5"/>
<text text-anchor="middle" x="1106.12" y="-172.95" font-family="Times,serif" font-size="9.00">+</text>
<polyline fill="none" stroke="black" points="862.88,-167 1349.38,-167"/>
<text text-anchor="middle" x="895.62" y="-154.45" font-family="Times,serif" font-size="9.00">type = 3 (OP)</text>
<polyline fill="none" stroke="black" points="928.38,-148.5 928.38,-167"/>
<text text-anchor="middle" x="978.38" y="-154.45" font-family="Times,serif" font-size="9.00">left = 0x57520d459350</text>
<polyline fill="none" stroke="black" points="1028.38,-148.5 1028.38,-167"/>
<text text-anchor="middle" x="1081.38" y="-154.45" font-family="Times,serif" font-size="9.00">node = 0x57520d459310</text>
<polyline fill="none" stroke="black" points="1134.38,-148.5 1134.38,-167"/>
<text text-anchor="middle" x="1189.62" y="-154.45" font-family="Times,serif" font-size="9.00">parent = 0x57520d459210</text>
<polyline fill="none" stroke="black" points="1244.88,-148.5 1244.88,-167"/>
<text text-anchor="middle" x="1297.12" y="-154.45" font-family="Times,serif" font-size="9.00">right = 0x57520d4593d0</text>
</g>
<!-- node_0x57520d459210&#45;&gt;node_0x57520d459310 -->
<g id="edge4" class="edge">
<title>node_0x57520d459210&#45;&gt;node_0x57520d459310</title>
<path fill="none" stroke="black" d="M916.31,-222.02C951.62,-211.97 995.78,-199.4 1032.62,-188.92"/>
<polygon fill="black" stroke="black" points="1033.19,-192.4 1041.85,-186.29 1031.27,-185.66 1033.19,-192.4"/>
</g>
<!-- node_0x57520d459290 -->
<g id="node3" class="node">
<title>node_0x57520d459290</title>
<polygon fill="blue" stroke="black" points="0,-74.5 0,-111.5 400.25,-111.5 400.25,-74.5 0,-74.5"/>
<text text-anchor="middle" x="200.12" y="-98.95" font-family="Times,serif" font-size="9.00">30</text>
<polyline fill="none" stroke="black" points="0,-93 400.25,-93"/>
<text text-anchor="middle" x="37.62" y="-80.45" font-family="Times,serif" font-size="9.00">type = 1 (NUM)</text>
<polyline fill="none" stroke="black" points="75.25,-74.5 75.25,-93"/>
<text text-anchor="middle" x="101.25" y="-80.45" font-family="Times,serif" font-size="9.00">left = (nil)</text>
<polyline fill="none" stroke="black" points="127.25,-74.5 127.25,-93"/>
<text text-anchor="middle" x="180.25" y="-80.45" font-family="Times,serif" font-size="9.00">node = 0x57520d459290</text>
<polyline fill="none" stroke="black" points="233.25,-74.5 233.25,-93"/>
<text text-anchor="middle" x="288.5" y="-80.45" font-family="Times,serif" font-size="9.00">parent = 0x57520d459250</text>
<polyline fill="none" stroke="black" points="343.75,-74.5 343.75,-93"/>
<text text-anchor="middle" x="372" y="-80.45" font-family="Times,serif" font-size="9.00">right = (nil)</text>
</g>
<!-- node_0x57520d459250&#45;&gt;node_0x57520d459290 -->
<g id="edge2" class="edge">
<title>node_0x57520d459250&#45;&gt;node_0x57520d459290</title>
<path fill="none" stroke="black" d="M500.97,-148.02C443.33,-137.67 370.77,-124.64 311.36,-113.97"/>
<polygon fill="black" stroke="black" points="312,-110.53 301.53,-112.21 310.76,-117.42 312,-110.53"/>
</g>
<!-- node_0x57520d4592d0 -->
<g id="node4" class="node">
<title>node_0x57520d4592d0</title>
<polygon fill="blue" stroke="black" points="418,-74.5 418,-111.5 818.25,-111.5 818.25,-74.5 418,-74.5"/>
<text text-anchor="middle" x="618.12" y="-98.95" font-family="Times,serif" font-size="9.00">50</text>
<polyline fill="none" stroke="black" points="418,-93 818.25,-93"/>
<text text-anchor="middle" x="455.62" y="-80.45" font-family="Times,serif" font-size="9.00">type = 1 (NUM)</text>
<polyline fill="none" stroke="black" points="493.25,-74.5 493.25,-93"/>
<text text-anchor="middle" x="519.25" y="-80.45" font-family="Times,serif" font-size="9.00">left = (nil)</text>
<polyline fill="none" stroke="black" points="545.25,-74.5 545.25,-93"/>
<text text-anchor="middle" x="598.25" y="-80.45" font-family="Times,serif" font-size="9.00">node = 0x57520d4592d0</text>
<polyline fill="none" stroke="black" points="651.25,-74.5 651.25,-93"/>
<text text-anchor="middle" x="706.5" y="-80.45" font-family="Times,serif" font-size="9.00">parent = 0x57520d459250</text>
<polyline fill="none" stroke="black" points="761.75,-74.5 761.75,-93"/>
<text text-anchor="middle" x="790" y="-80.45" font-family="Times,serif" font-size="9.00">right = (nil)</text>
</g>
<!-- node_0x57520d459250&#45;&gt;node_0x57520d4592d0 -->
<g id="edge3" class="edge">
<title>node_0x57520d459250&#45;&gt;node_0x57520d4592d0</title>
<path fill="none" stroke="black" d="M605.33,-148.2C607.13,-140.59 609.27,-131.5 611.29,-122.96"/>
<polygon fill="black" stroke="black" points="614.67,-123.85 613.56,-113.32 607.86,-122.24 614.67,-123.85"/>
</g>
<!-- node_0x57520d459350 -->
<g id="node6" class="node">
<title>node_0x57520d459350</title>
<polygon fill="#bdef9e" stroke="black" points="869.88,-74.5 869.88,-111.5 1308.38,-111.5 1308.38,-74.5 869.88,-74.5"/>
<text text-anchor="middle" x="1089.12" y="-98.95" font-family="Times,serif" font-size="9.00">sin</text>
<polyline fill="none" stroke="black" points="869.88,-93 1308.38,-93"/>
<text text-anchor="middle" x="902.62" y="-80.45" font-family="Times,serif" font-size="9.00">type = 3 (OP)</text>
<polyline fill="none" stroke="black" points="935.38,-74.5 935.38,-93"/>
<text text-anchor="middle" x="961.38" y="-80.45" font-family="Times,serif" font-size="9.00">left = (nil)</text>
<polyline fill="none" stroke="black" points="987.38,-74.5 987.38,-93"/>
<text text-anchor="middle" x="1040.38" y="-80.45" font-family="Times,serif" font-size="9.00">node = 0x57520d459350</text>
<polyline fill="none" stroke="black" points="1093.38,-74.5 1093.38,-93"/>
<text text-anchor="middle" x="1148.62" y="-80.45" font-family="Times,serif" font-size="9.00">parent = 0x57520d459310</text>
<polyline fill="none" stroke="black" points="1203.88,-74.5 1203.88,-93"/>
<text text-anchor="middle" x="1256.12" y="-80.45" font-family="Times,serif" font-size="9.00">right = 0x57520d459390</text>
</g>
<!-- node_0x57520d459310&#45;&gt;node_0x57520d459350 -->
<g id="edge5" class="edge">
<title>node_0x57520d459310&#45;&gt;node_0x57520d459350</title>
<path fill="none" stroke="black" d="M1101.92,-148.2C1100.12,-140.59 1097.98,-131.5 1095.96,-122.96"/>
<polygon fill="black" stroke="black" points="1099.39,-122.24 1093.69,-113.32 1092.58,-123.85 1099.39,-122.24"/>
</g>
<!-- node_0x57520d4593d0 -->
<g id="node8" class="node">
<title>node_0x57520d4593d0</title>
<polygon fill="yellow" stroke="black" points="1326.5,-74.5 1326.5,-111.5 1723.75,-111.5 1723.75,-74.5 1326.5,-74.5"/>
<text text-anchor="middle" x="1525.12" y="-98.95" font-family="Times,serif" font-size="9.00">x</text>
<polyline fill="none" stroke="black" points="1326.5,-93 1723.75,-93"/>
<text text-anchor="middle" x="1362.62" y="-80.45" font-family="Times,serif" font-size="9.00">type = 2 (VAR)</text>
<polyline fill="none" stroke="black" points="1398.75,-74.5 1398.75,-93"/>
<text text-anchor="middle" x="1424.75" y="-80.45" font-family="Times,serif" font-size="9.00">left = (nil)</text>
<polyline fill="none" stroke="black" points="1450.75,-74.5 1450.75,-93"/>
<text text-anchor="middle" x="1503.75" y="-80.45" font-family="Times,serif" font-size="9.00">node = 0x57520d4593d0</text>
<polyline fill="none" stroke="black" points="1556.75,-74.5 1556.75,-93"/>
<text text-anchor="middle" x="1612" y="-80.45" font-family="Times,serif" font-size="9.00">parent = 0x57520d459310</text>
<polyline fill="none" stroke="black" points="1667.25,-74.5 1667.25,-93"/>
<text text-anchor="middle" x="1695.5" y="-80.45" font-family="Times,serif" font-size="9.00">right = (nil)</text>
</g>
<!-- node_0x57520d459310&#45;&gt;node_0x57520d4593d0 -->
<g id="edge7" class="edge">
<title>node_0x57520d459310&#45;&gt;node_0x57520d4593d0</title>
<path fill="none" stroke="black" d="M1210.78,-148.02C1271.26,-137.62 1347.45,-124.53 1409.67,-113.84"/>
<polygon fill="black" stroke="black" points="1409.97,-117.34 1419.23,-112.2 1408.78,-110.44 1409.97,-117.34"/>
</g>
<!-- node_0x57520d459390 -->
<g id="node7" class="node">
<title>node_0x57520d459390</title>
<polygon fill="yellow" stroke="black" points="890.5,-0.5 890.5,-37.5 1287.75,-37.5 1287.75,-0.5 890.5,-0.5"/>
<text text-anchor="middle" x="1089.12" y="-24.95" font-family="Times,serif" font-size="9.00">x</text>
<polyline fill="none" stroke="black" points="890.5,-19 1287.75,-19"/>
<text text-anchor="middle" x="926.62" y="-6.45" font-family="Times,serif" font-size="9.00">type = 2 (VAR)</text>
<polyline fill="none" stroke="black" points="962.75,-0.5 962.75,-19"/>
<text text-anchor="middle" x="988.75" y="-6.45" font-family="Times,serif" font-size="9.00">left = (nil)</text>
<polyline fill="none" stroke="black" points="1014.75,-0.5 1014.75,-19"/>
<text text-anchor="middle" x="1067.75" y="-6.45" font-family="Times,serif" font-size="9.00">node = 0x57520d459390</text>
<polyline fill="none" stroke="black" points="1120.75,-0.5 1120.75,-19"/>
<text text-anchor="middle" x="1176" y="-6.45" font-family="Times,serif" font-size="9.00">parent = 0x57520d459350</text>
<polyline fill="none" stroke="black" points="1231.25,-0.5 1231.25,-19"/>
<text text-anchor="middle" x="1259.5" y="-6.45" font-family="Times,serif" font-size="9.00">right = (nil)</text>
</g>
<!-- node_0x57520d459350&#45;&gt;node_0x57520d459390 -->
<g id="edge6" class="edge">
<title>node_0x57520d459350&#45;&gt;node_0x57520d459390</title>
<path fill="none" stroke="black" d="M1089.12,-74.2C1089.12,-66.67 1089.12,-57.7 1089.12,-49.25"/>
<polygon fill="black" stroke="black" points="1092.63,-49.36 1089.13,-39.36 1085.63,-49.36 1092.63,-49.36"/>
</g>
</g>
</svg>
