<?xml version="1.0" encoding="UTF-8" standalone="no"?>
<!DOCTYPE svg PUBLIC "-//W3C//DTD SVG 1.1//EN"
 "http://www.w3.org/Graphics/SVG/1.1/DTD/svg11.dtd">
<!-- Generated by graphviz version 12.1.2 (0)
 -->
<!-- Pages: 1 -->
<svg width="2508pt" height="342pt"
 viewBox="0.00 0.00 2507.50 342.00" xmlns="http://www.w3.org/2000/svg" xmlns:xlink="http://www.w3.org/1999/xlink">
<g id="graph0" class="graph" transform="scale(1 1) rotate(0) translate(4 338)">
<polygon fill="white" stroke="none" points="-4,4 -4,-338 2503.5,-338 2503.5,4 -4,4"/>
<!-- node_0x60e0b16607d0 -->
<g id="node1" class="node">
<title>node_0x60e0b16607d0</title>
<polygon fill="#bdef9e" stroke="black" points="1256,-296.5 1256,-333.5 1692.25,-333.5 1692.25,-296.5 1256,-296.5"/>
<text text-anchor="middle" x="1474.12" y="-320.95" font-family="Times,serif" font-size="9.00">/</text>
<polyline fill="none" stroke="black" points="1256,-315 1692.25,-315"/>
<text text-anchor="middle" x="1288.75" y="-302.45" font-family="Times,serif" font-size="9.00">type = 3 (OP)</text>
<polyline fill="none" stroke="black" points="1321.5,-296.5 1321.5,-315"/>
<text text-anchor="middle" x="1371.12" y="-302.45" font-family="Times,serif" font-size="9.00">left = 0x60e0b1660790</text>
<polyline fill="none" stroke="black" points="1420.75,-296.5 1420.75,-315"/>
<text text-anchor="middle" x="1473.38" y="-302.45" font-family="Times,serif" font-size="9.00">node = 0x60e0b16607d0</text>
<polyline fill="none" stroke="black" points="1526,-296.5 1526,-315"/>
<text text-anchor="middle" x="1557.25" y="-302.45" font-family="Times,serif" font-size="9.00">parent = (nil)</text>
<polyline fill="none" stroke="black" points="1588.5,-296.5 1588.5,-315"/>
<text text-anchor="middle" x="1640.38" y="-302.45" font-family="Times,serif" font-size="9.00">right = 0x60e0b1660450</text>
</g>
<!-- node_0x60e0b1660790 -->
<g id="node2" class="node">
<title>node_0x60e0b1660790</title>
<polygon fill="#bdef9e" stroke="black" points="981.38,-222.5 981.38,-259.5 1464.88,-259.5 1464.88,-222.5 981.38,-222.5"/>
<text text-anchor="middle" x="1223.12" y="-246.95" font-family="Times,serif" font-size="9.00">&#45;</text>
<polyline fill="none" stroke="black" points="981.38,-241 1464.88,-241"/>
<text text-anchor="middle" x="1014.12" y="-228.45" font-family="Times,serif" font-size="9.00">type = 3 (OP)</text>
<polyline fill="none" stroke="black" points="1046.88,-222.5 1046.88,-241"/>
<text text-anchor="middle" x="1096.5" y="-228.45" font-family="Times,serif" font-size="9.00">left = 0x60e0b1660750</text>
<polyline fill="none" stroke="black" points="1146.12,-222.5 1146.12,-241"/>
<text text-anchor="middle" x="1198.75" y="-228.45" font-family="Times,serif" font-size="9.00">node = 0x60e0b1660790</text>
<polyline fill="none" stroke="black" points="1251.38,-222.5 1251.38,-241"/>
<text text-anchor="middle" x="1306.25" y="-228.45" font-family="Times,serif" font-size="9.00">parent = 0x60e0b16607d0</text>
<polyline fill="none" stroke="black" points="1361.12,-222.5 1361.12,-241"/>
<text text-anchor="middle" x="1413" y="-228.45" font-family="Times,serif" font-size="9.00">right = 0x60e0b16605d0</text>
</g>
<!-- node_0x60e0b16607d0&#45;&gt;node_0x60e0b1660790 -->
<g id="edge1" class="edge">
<title>node_0x60e0b16607d0&#45;&gt;node_0x60e0b1660790</title>
<path fill="none" stroke="black" d="M1411.43,-296.02C1376.41,-285.97 1332.6,-273.4 1296.05,-262.92"/>
<polygon fill="black" stroke="black" points="1297.48,-259.69 1286.91,-260.3 1295.55,-266.42 1297.48,-259.69"/>
</g>
<!-- node_0x60e0b1660450 -->
<g id="node11" class="node">
<title>node_0x60e0b1660450</title>
<polygon fill="#bdef9e" stroke="black" points="1622.38,-222.5 1622.38,-259.5 2105.88,-259.5 2105.88,-222.5 1622.38,-222.5"/>
<text text-anchor="middle" x="1864.12" y="-246.95" font-family="Times,serif" font-size="9.00">^</text>
<polyline fill="none" stroke="black" points="1622.38,-241 2105.88,-241"/>
<text text-anchor="middle" x="1655.12" y="-228.45" font-family="Times,serif" font-size="9.00">type = 3 (OP)</text>
<polyline fill="none" stroke="black" points="1687.88,-222.5 1687.88,-241"/>
<text text-anchor="middle" x="1737.5" y="-228.45" font-family="Times,serif" font-size="9.00">left = 0x60e0b1660410</text>
<polyline fill="none" stroke="black" points="1787.12,-222.5 1787.12,-241"/>
<text text-anchor="middle" x="1839.75" y="-228.45" font-family="Times,serif" font-size="9.00">node = 0x60e0b1660450</text>
<polyline fill="none" stroke="black" points="1892.38,-222.5 1892.38,-241"/>
<text text-anchor="middle" x="1947.25" y="-228.45" font-family="Times,serif" font-size="9.00">parent = 0x60e0b16607d0</text>
<polyline fill="none" stroke="black" points="2002.12,-222.5 2002.12,-241"/>
<text text-anchor="middle" x="2054" y="-228.45" font-family="Times,serif" font-size="9.00">right = 0x60e0b1660390</text>
</g>
<!-- node_0x60e0b16607d0&#45;&gt;node_0x60e0b1660450 -->
<g id="edge10" class="edge">
<title>node_0x60e0b16607d0&#45;&gt;node_0x60e0b1660450</title>
<path fill="none" stroke="black" d="M1571.53,-296.02C1627.59,-285.67 1698.16,-272.64 1755.94,-261.97"/>
<polygon fill="black" stroke="black" points="1756.26,-265.47 1765.46,-260.22 1754.99,-258.59 1756.26,-265.47"/>
</g>
<!-- node_0x60e0b1660750 -->
<g id="node3" class="node">
<title>node_0x60e0b1660750</title>
<polygon fill="#bdef9e" stroke="black" points="410.38,-148.5 410.38,-185.5 893.88,-185.5 893.88,-148.5 410.38,-148.5"/>
<text text-anchor="middle" x="652.12" y="-172.95" font-family="Times,serif" font-size="9.00">/</text>
<polyline fill="none" stroke="black" points="410.38,-167 893.88,-167"/>
<text text-anchor="middle" x="443.12" y="-154.45" font-family="Times,serif" font-size="9.00">type = 3 (OP)</text>
<polyline fill="none" stroke="black" points="475.88,-148.5 475.88,-167"/>
<text text-anchor="middle" x="525.5" y="-154.45" font-family="Times,serif" font-size="9.00">left = 0x60e0b1660710</text>
<polyline fill="none" stroke="black" points="575.12,-148.5 575.12,-167"/>
<text text-anchor="middle" x="627.75" y="-154.45" font-family="Times,serif" font-size="9.00">node = 0x60e0b1660750</text>
<polyline fill="none" stroke="black" points="680.38,-148.5 680.38,-167"/>
<text text-anchor="middle" x="735.25" y="-154.45" font-family="Times,serif" font-size="9.00">parent = 0x60e0b1660790</text>
<polyline fill="none" stroke="black" points="790.12,-148.5 790.12,-167"/>
<text text-anchor="middle" x="842" y="-154.45" font-family="Times,serif" font-size="9.00">right = 0x60e0b1660610</text>
</g>
<!-- node_0x60e0b1660790&#45;&gt;node_0x60e0b1660750 -->
<g id="edge2" class="edge">
<title>node_0x60e0b1660790&#45;&gt;node_0x60e0b1660750</title>
<path fill="none" stroke="black" d="M1080.51,-222.02C996.89,-211.47 891.25,-198.15 805.79,-187.38"/>
<polygon fill="black" stroke="black" points="806.27,-183.91 795.91,-186.13 805.39,-190.85 806.27,-183.91"/>
</g>
<!-- node_0x60e0b16605d0 -->
<g id="node7" class="node">
<title>node_0x60e0b16605d0</title>
<polygon fill="#bdef9e" stroke="black" points="981.38,-148.5 981.38,-185.5 1464.88,-185.5 1464.88,-148.5 981.38,-148.5"/>
<text text-anchor="middle" x="1223.12" y="-172.95" font-family="Times,serif" font-size="9.00">/</text>
<polyline fill="none" stroke="black" points="981.38,-167 1464.88,-167"/>
<text text-anchor="middle" x="1014.12" y="-154.45" font-family="Times,serif" font-size="9.00">type = 3 (OP)</text>
<polyline fill="none" stroke="black" points="1046.88,-148.5 1046.88,-167"/>
<text text-anchor="middle" x="1096.5" y="-154.45" font-family="Times,serif" font-size="9.00">left = 0x60e0b1660590</text>
<polyline fill="none" stroke="black" points="1146.12,-148.5 1146.12,-167"/>
<text text-anchor="middle" x="1198.75" y="-154.45" font-family="Times,serif" font-size="9.00">node = 0x60e0b16605d0</text>
<polyline fill="none" stroke="black" points="1251.38,-148.5 1251.38,-167"/>
<text text-anchor="middle" x="1306.25" y="-154.45" font-family="Times,serif" font-size="9.00">parent = 0x60e0b1660790</text>
<polyline fill="none" stroke="black" points="1361.12,-148.5 1361.12,-167"/>
<text text-anchor="middle" x="1413" y="-154.45" font-family="Times,serif" font-size="9.00">right = 0x60e0b1660490</text>
</g>
<!-- node_0x60e0b1660790&#45;&gt;node_0x60e0b16605d0 -->
<g id="edge6" class="edge">
<title>node_0x60e0b1660790&#45;&gt;node_0x60e0b16605d0</title>
<path fill="none" stroke="black" d="M1223.12,-222.2C1223.12,-214.67 1223.12,-205.7 1223.12,-197.25"/>
<polygon fill="black" stroke="black" points="1226.63,-197.36 1223.13,-187.36 1219.63,-197.36 1226.63,-197.36"/>
</g>
<!-- node_0x60e0b1660710 -->
<g id="node4" class="node">
<title>node_0x60e0b1660710</title>
<polygon fill="#bdef9e" stroke="black" points="0,-74.5 0,-111.5 436.25,-111.5 436.25,-74.5 0,-74.5"/>
<text text-anchor="middle" x="218.12" y="-98.95" font-family="Times,serif" font-size="9.00">ln</text>
<polyline fill="none" stroke="black" points="0,-93 436.25,-93"/>
<text text-anchor="middle" x="32.75" y="-80.45" font-family="Times,serif" font-size="9.00">type = 3 (OP)</text>
<polyline fill="none" stroke="black" points="65.5,-74.5 65.5,-93"/>
<text text-anchor="middle" x="91.5" y="-80.45" font-family="Times,serif" font-size="9.00">left = (nil)</text>
<polyline fill="none" stroke="black" points="117.5,-74.5 117.5,-93"/>
<text text-anchor="middle" x="170.12" y="-80.45" font-family="Times,serif" font-size="9.00">node = 0x60e0b1660710</text>
<polyline fill="none" stroke="black" points="222.75,-74.5 222.75,-93"/>
<text text-anchor="middle" x="277.62" y="-80.45" font-family="Times,serif" font-size="9.00">parent = 0x60e0b1660750</text>
<polyline fill="none" stroke="black" points="332.5,-74.5 332.5,-93"/>
<text text-anchor="middle" x="384.38" y="-80.45" font-family="Times,serif" font-size="9.00">right = 0x60e0b1660810</text>
</g>
<!-- node_0x60e0b1660750&#45;&gt;node_0x60e0b1660710 -->
<g id="edge3" class="edge">
<title>node_0x60e0b1660750&#45;&gt;node_0x60e0b1660710</title>
<path fill="none" stroke="black" d="M543.73,-148.02C480.95,-137.6 401.84,-124.48 337.31,-113.77"/>
<polygon fill="black" stroke="black" points="338.2,-110.37 327.76,-112.19 337.05,-117.28 338.2,-110.37"/>
</g>
<!-- node_0x60e0b1660610 -->
<g id="node6" class="node">
<title>node_0x60e0b1660610</title>
<polygon fill="yellow" stroke="black" points="454.25,-74.5 454.25,-111.5 850,-111.5 850,-74.5 454.25,-74.5"/>
<text text-anchor="middle" x="652.12" y="-98.95" font-family="Times,serif" font-size="9.00">x</text>
<polyline fill="none" stroke="black" points="454.25,-93 850,-93"/>
<text text-anchor="middle" x="490.38" y="-80.45" font-family="Times,serif" font-size="9.00">type = 2 (VAR)</text>
<polyline fill="none" stroke="black" points="526.5,-74.5 526.5,-93"/>
<text text-anchor="middle" x="552.5" y="-80.45" font-family="Times,serif" font-size="9.00">left = (nil)</text>
<polyline fill="none" stroke="black" points="578.5,-74.5 578.5,-93"/>
<text text-anchor="middle" x="631.12" y="-80.45" font-family="Times,serif" font-size="9.00">node = 0x60e0b1660610</text>
<polyline fill="none" stroke="black" points="683.75,-74.5 683.75,-93"/>
<text text-anchor="middle" x="738.62" y="-80.45" font-family="Times,serif" font-size="9.00">parent = 0x60e0b1660750</text>
<polyline fill="none" stroke="black" points="793.5,-74.5 793.5,-93"/>
<text text-anchor="middle" x="821.75" y="-80.45" font-family="Times,serif" font-size="9.00">right = (nil)</text>
</g>
<!-- node_0x60e0b1660750&#45;&gt;node_0x60e0b1660610 -->
<g id="edge5" class="edge">
<title>node_0x60e0b1660750&#45;&gt;node_0x60e0b1660610</title>
<path fill="none" stroke="black" d="M652.12,-148.2C652.12,-140.67 652.12,-131.7 652.12,-123.25"/>
<polygon fill="black" stroke="black" points="655.63,-123.36 652.13,-113.36 648.63,-123.36 655.63,-123.36"/>
</g>
<!-- node_0x60e0b1660810 -->
<g id="node5" class="node">
<title>node_0x60e0b1660810</title>
<polygon fill="yellow" stroke="black" points="20.25,-0.5 20.25,-37.5 416,-37.5 416,-0.5 20.25,-0.5"/>
<text text-anchor="middle" x="218.12" y="-24.95" font-family="Times,serif" font-size="9.00">x</text>
<polyline fill="none" stroke="black" points="20.25,-19 416,-19"/>
<text text-anchor="middle" x="56.38" y="-6.45" font-family="Times,serif" font-size="9.00">type = 2 (VAR)</text>
<polyline fill="none" stroke="black" points="92.5,-0.5 92.5,-19"/>
<text text-anchor="middle" x="118.5" y="-6.45" font-family="Times,serif" font-size="9.00">left = (nil)</text>
<polyline fill="none" stroke="black" points="144.5,-0.5 144.5,-19"/>
<text text-anchor="middle" x="197.12" y="-6.45" font-family="Times,serif" font-size="9.00">node = 0x60e0b1660810</text>
<polyline fill="none" stroke="black" points="249.75,-0.5 249.75,-19"/>
<text text-anchor="middle" x="304.62" y="-6.45" font-family="Times,serif" font-size="9.00">parent = 0x60e0b1660710</text>
<polyline fill="none" stroke="black" points="359.5,-0.5 359.5,-19"/>
<text text-anchor="middle" x="387.75" y="-6.45" font-family="Times,serif" font-size="9.00">right = (nil)</text>
</g>
<!-- node_0x60e0b1660710&#45;&gt;node_0x60e0b1660810 -->
<g id="edge4" class="edge">
<title>node_0x60e0b1660710&#45;&gt;node_0x60e0b1660810</title>
<path fill="none" stroke="black" d="M218.12,-74.2C218.12,-66.67 218.12,-57.7 218.12,-49.25"/>
<polygon fill="black" stroke="black" points="221.63,-49.36 218.13,-39.36 214.63,-49.36 221.63,-49.36"/>
</g>
<!-- node_0x60e0b1660590 -->
<g id="node8" class="node">
<title>node_0x60e0b1660590</title>
<polygon fill="#bdef9e" stroke="black" points="868,-74.5 868,-111.5 1304.25,-111.5 1304.25,-74.5 868,-74.5"/>
<text text-anchor="middle" x="1086.12" y="-98.95" font-family="Times,serif" font-size="9.00">ln</text>
<polyline fill="none" stroke="black" points="868,-93 1304.25,-93"/>
<text text-anchor="middle" x="900.75" y="-80.45" font-family="Times,serif" font-size="9.00">type = 3 (OP)</text>
<polyline fill="none" stroke="black" points="933.5,-74.5 933.5,-93"/>
<text text-anchor="middle" x="959.5" y="-80.45" font-family="Times,serif" font-size="9.00">left = (nil)</text>
<polyline fill="none" stroke="black" points="985.5,-74.5 985.5,-93"/>
<text text-anchor="middle" x="1038.12" y="-80.45" font-family="Times,serif" font-size="9.00">node = 0x60e0b1660590</text>
<polyline fill="none" stroke="black" points="1090.75,-74.5 1090.75,-93"/>
<text text-anchor="middle" x="1145.62" y="-80.45" font-family="Times,serif" font-size="9.00">parent = 0x60e0b16605d0</text>
<polyline fill="none" stroke="black" points="1200.5,-74.5 1200.5,-93"/>
<text text-anchor="middle" x="1252.38" y="-80.45" font-family="Times,serif" font-size="9.00">right = 0x60e0b1660850</text>
</g>
<!-- node_0x60e0b16605d0&#45;&gt;node_0x60e0b1660590 -->
<g id="edge7" class="edge">
<title>node_0x60e0b16605d0&#45;&gt;node_0x60e0b1660590</title>
<path fill="none" stroke="black" d="M1188.91,-148.02C1171.04,-138.63 1148.97,-127.03 1129.87,-116.99"/>
<polygon fill="black" stroke="black" points="1131.73,-114.01 1121.25,-112.46 1128.47,-120.21 1131.73,-114.01"/>
</g>
<!-- node_0x60e0b1660490 -->
<g id="node10" class="node">
<title>node_0x60e0b1660490</title>
<polygon fill="yellow" stroke="black" points="1322.25,-74.5 1322.25,-111.5 1718,-111.5 1718,-74.5 1322.25,-74.5"/>
<text text-anchor="middle" x="1520.12" y="-98.95" font-family="Times,serif" font-size="9.00">x</text>
<polyline fill="none" stroke="black" points="1322.25,-93 1718,-93"/>
<text text-anchor="middle" x="1358.38" y="-80.45" font-family="Times,serif" font-size="9.00">type = 2 (VAR)</text>
<polyline fill="none" stroke="black" points="1394.5,-74.5 1394.5,-93"/>
<text text-anchor="middle" x="1420.5" y="-80.45" font-family="Times,serif" font-size="9.00">left = (nil)</text>
<polyline fill="none" stroke="black" points="1446.5,-74.5 1446.5,-93"/>
<text text-anchor="middle" x="1499.12" y="-80.45" font-family="Times,serif" font-size="9.00">node = 0x60e0b1660490</text>
<polyline fill="none" stroke="black" points="1551.75,-74.5 1551.75,-93"/>
<text text-anchor="middle" x="1606.62" y="-80.45" font-family="Times,serif" font-size="9.00">parent = 0x60e0b16605d0</text>
<polyline fill="none" stroke="black" points="1661.5,-74.5 1661.5,-93"/>
<text text-anchor="middle" x="1689.75" y="-80.45" font-family="Times,serif" font-size="9.00">right = (nil)</text>
</g>
<!-- node_0x60e0b16605d0&#45;&gt;node_0x60e0b1660490 -->
<g id="edge9" class="edge">
<title>node_0x60e0b16605d0&#45;&gt;node_0x60e0b1660490</title>
<path fill="none" stroke="black" d="M1297.3,-148.02C1339.11,-137.88 1391.5,-125.18 1434.98,-114.64"/>
<polygon fill="black" stroke="black" points="1435.75,-118.05 1444.65,-112.3 1434.11,-111.25 1435.75,-118.05"/>
</g>
<!-- node_0x60e0b1660850 -->
<g id="node9" class="node">
<title>node_0x60e0b1660850</title>
<polygon fill="yellow" stroke="black" points="888.25,-0.5 888.25,-37.5 1284,-37.5 1284,-0.5 888.25,-0.5"/>
<text text-anchor="middle" x="1086.12" y="-24.95" font-family="Times,serif" font-size="9.00">x</text>
<polyline fill="none" stroke="black" points="888.25,-19 1284,-19"/>
<text text-anchor="middle" x="924.38" y="-6.45" font-family="Times,serif" font-size="9.00">type = 2 (VAR)</text>
<polyline fill="none" stroke="black" points="960.5,-0.5 960.5,-19"/>
<text text-anchor="middle" x="986.5" y="-6.45" font-family="Times,serif" font-size="9.00">left = (nil)</text>
<polyline fill="none" stroke="black" points="1012.5,-0.5 1012.5,-19"/>
<text text-anchor="middle" x="1065.12" y="-6.45" font-family="Times,serif" font-size="9.00">node = 0x60e0b1660850</text>
<polyline fill="none" stroke="black" points="1117.75,-0.5 1117.75,-19"/>
<text text-anchor="middle" x="1172.62" y="-6.45" font-family="Times,serif" font-size="9.00">parent = 0x60e0b1660590</text>
<polyline fill="none" stroke="black" points="1227.5,-0.5 1227.5,-19"/>
<text text-anchor="middle" x="1255.75" y="-6.45" font-family="Times,serif" font-size="9.00">right = (nil)</text>
</g>
<!-- node_0x60e0b1660590&#45;&gt;node_0x60e0b1660850 -->
<g id="edge8" class="edge">
<title>node_0x60e0b1660590&#45;&gt;node_0x60e0b1660850</title>
<path fill="none" stroke="black" d="M1086.12,-74.2C1086.12,-66.67 1086.12,-57.7 1086.12,-49.25"/>
<polygon fill="black" stroke="black" points="1089.63,-49.36 1086.13,-39.36 1082.63,-49.36 1089.63,-49.36"/>
</g>
<!-- node_0x60e0b1660410 -->
<g id="node12" class="node">
<title>node_0x60e0b1660410</title>
<polygon fill="#bdef9e" stroke="black" points="1646,-148.5 1646,-185.5 2082.25,-185.5 2082.25,-148.5 1646,-148.5"/>
<text text-anchor="middle" x="1864.12" y="-172.95" font-family="Times,serif" font-size="9.00">ln</text>
<polyline fill="none" stroke="black" points="1646,-167 2082.25,-167"/>
<text text-anchor="middle" x="1678.75" y="-154.45" font-family="Times,serif" font-size="9.00">type = 3 (OP)</text>
<polyline fill="none" stroke="black" points="1711.5,-148.5 1711.5,-167"/>
<text text-anchor="middle" x="1737.5" y="-154.45" font-family="Times,serif" font-size="9.00">left = (nil)</text>
<polyline fill="none" stroke="black" points="1763.5,-148.5 1763.5,-167"/>
<text text-anchor="middle" x="1816.12" y="-154.45" font-family="Times,serif" font-size="9.00">node = 0x60e0b1660410</text>
<polyline fill="none" stroke="black" points="1868.75,-148.5 1868.75,-167"/>
<text text-anchor="middle" x="1923.62" y="-154.45" font-family="Times,serif" font-size="9.00">parent = 0x60e0b1660450</text>
<polyline fill="none" stroke="black" points="1978.5,-148.5 1978.5,-167"/>
<text text-anchor="middle" x="2030.38" y="-154.45" font-family="Times,serif" font-size="9.00">right = 0x60e0b16603d0</text>
</g>
<!-- node_0x60e0b1660450&#45;&gt;node_0x60e0b1660410 -->
<g id="edge11" class="edge">
<title>node_0x60e0b1660450&#45;&gt;node_0x60e0b1660410</title>
<path fill="none" stroke="black" d="M1864.12,-222.2C1864.12,-214.67 1864.12,-205.7 1864.12,-197.25"/>
<polygon fill="black" stroke="black" points="1867.63,-197.36 1864.13,-187.36 1860.63,-197.36 1867.63,-197.36"/>
</g>
<!-- node_0x60e0b1660390 -->
<g id="node14" class="node">
<title>node_0x60e0b1660390</title>
<polygon fill="blue" stroke="black" points="2100.75,-148.5 2100.75,-185.5 2499.5,-185.5 2499.5,-148.5 2100.75,-148.5"/>
<text text-anchor="middle" x="2300.12" y="-172.95" font-family="Times,serif" font-size="9.00">2</text>
<polyline fill="none" stroke="black" points="2100.75,-167 2499.5,-167"/>
<text text-anchor="middle" x="2138.38" y="-154.45" font-family="Times,serif" font-size="9.00">type = 1 (NUM)</text>
<polyline fill="none" stroke="black" points="2176,-148.5 2176,-167"/>
<text text-anchor="middle" x="2202" y="-154.45" font-family="Times,serif" font-size="9.00">left = (nil)</text>
<polyline fill="none" stroke="black" points="2228,-148.5 2228,-167"/>
<text text-anchor="middle" x="2280.62" y="-154.45" font-family="Times,serif" font-size="9.00">node = 0x60e0b1660390</text>
<polyline fill="none" stroke="black" points="2333.25,-148.5 2333.25,-167"/>
<text text-anchor="middle" x="2388.12" y="-154.45" font-family="Times,serif" font-size="9.00">parent = 0x60e0b1660450</text>
<polyline fill="none" stroke="black" points="2443,-148.5 2443,-167"/>
<text text-anchor="middle" x="2471.25" y="-154.45" font-family="Times,serif" font-size="9.00">right = (nil)</text>
</g>
<!-- node_0x60e0b1660450&#45;&gt;node_0x60e0b1660390 -->
<g id="edge13" class="edge">
<title>node_0x60e0b1660450&#45;&gt;node_0x60e0b1660390</title>
<path fill="none" stroke="black" d="M1973.02,-222.02C2036.09,-211.6 2115.57,-198.48 2180.39,-187.77"/>
<polygon fill="black" stroke="black" points="2180.69,-191.27 2189.99,-186.19 2179.55,-184.36 2180.69,-191.27"/>
</g>
<!-- node_0x60e0b16603d0 -->
<g id="node13" class="node">
<title>node_0x60e0b16603d0</title>
<polygon fill="yellow" stroke="black" points="1736.25,-74.5 1736.25,-111.5 2132,-111.5 2132,-74.5 1736.25,-74.5"/>
<text text-anchor="middle" x="1934.12" y="-98.95" font-family="Times,serif" font-size="9.00">x</text>
<polyline fill="none" stroke="black" points="1736.25,-93 2132,-93"/>
<text text-anchor="middle" x="1772.38" y="-80.45" font-family="Times,serif" font-size="9.00">type = 2 (VAR)</text>
<polyline fill="none" stroke="black" points="1808.5,-74.5 1808.5,-93"/>
<text text-anchor="middle" x="1834.5" y="-80.45" font-family="Times,serif" font-size="9.00">left = (nil)</text>
<polyline fill="none" stroke="black" points="1860.5,-74.5 1860.5,-93"/>
<text text-anchor="middle" x="1913.12" y="-80.45" font-family="Times,serif" font-size="9.00">node = 0x60e0b16603d0</text>
<polyline fill="none" stroke="black" points="1965.75,-74.5 1965.75,-93"/>
<text text-anchor="middle" x="2020.62" y="-80.45" font-family="Times,serif" font-size="9.00">parent = 0x60e0b1660410</text>
<polyline fill="none" stroke="black" points="2075.5,-74.5 2075.5,-93"/>
<text text-anchor="middle" x="2103.75" y="-80.45" font-family="Times,serif" font-size="9.00">right = (nil)</text>
</g>
<!-- node_0x60e0b1660410&#45;&gt;node_0x60e0b16603d0 -->
<g id="edge12" class="edge">
<title>node_0x60e0b1660410&#45;&gt;node_0x60e0b16603d0</title>
<path fill="none" stroke="black" d="M1881.43,-148.2C1889.67,-139.72 1899.7,-129.41 1908.78,-120.07"/>
<polygon fill="black" stroke="black" points="1911.26,-122.54 1915.72,-112.93 1906.24,-117.66 1911.26,-122.54"/>
</g>
</g>
</svg>
