<?xml version="1.0" encoding="UTF-8" standalone="no"?>
<!DOCTYPE svg PUBLIC "-//W3C//DTD SVG 1.1//EN"
 "http://www.w3.org/Graphics/SVG/1.1/DTD/svg11.dtd">
<!-- Generated by graphviz version 12.1.2 (0)
 -->
<!-- Pages: 1 -->
<svg width="4717pt" height="490pt"
 viewBox="0.00 0.00 4717.25 490.00" xmlns="http://www.w3.org/2000/svg" xmlns:xlink="http://www.w3.org/1999/xlink">
<g id="graph0" class="graph" transform="scale(1 1) rotate(0) translate(4 486)">
<polygon fill="white" stroke="none" points="-4,4 -4,-486 4713.25,-486 4713.25,4 -4,4"/>
<!-- node_0x5fcf43f3ee80 -->
<g id="node1" class="node">
<title>node_0x5fcf43f3ee80</title>
<polygon fill="#bdef9e" stroke="black" points="1698.62,-444.5 1698.62,-481.5 2117.62,-481.5 2117.62,-444.5 1698.62,-444.5"/>
<text text-anchor="middle" x="1908.12" y="-468.95" font-family="Times,serif" font-size="9.00">+</text>
<polyline fill="none" stroke="black" points="1698.62,-463 2117.62,-463"/>
<text text-anchor="middle" x="1731.38" y="-450.45" font-family="Times,serif" font-size="9.00">type = 3 (OP)</text>
<polyline fill="none" stroke="black" points="1764.12,-444.5 1764.12,-463"/>
<text text-anchor="middle" x="1810.75" y="-450.45" font-family="Times,serif" font-size="9.00">left = 0x5fcf43f3ee40</text>
<polyline fill="none" stroke="black" points="1857.38,-444.5 1857.38,-463"/>
<text text-anchor="middle" x="1907" y="-450.45" font-family="Times,serif" font-size="9.00">node = 0x5fcf43f3ee80</text>
<polyline fill="none" stroke="black" points="1956.62,-444.5 1956.62,-463"/>
<text text-anchor="middle" x="1987.88" y="-450.45" font-family="Times,serif" font-size="9.00">parent = (nil)</text>
<polyline fill="none" stroke="black" points="2019.12,-444.5 2019.12,-463"/>
<text text-anchor="middle" x="2068.38" y="-450.45" font-family="Times,serif" font-size="9.00">right = 0x5fcf43f3eb40</text>
</g>
<!-- node_0x5fcf43f3ee40 -->
<g id="node2" class="node">
<title>node_0x5fcf43f3ee40</title>
<polygon fill="#bdef9e" stroke="black" points="1237,-370.5 1237,-407.5 1697.25,-407.5 1697.25,-370.5 1237,-370.5"/>
<text text-anchor="middle" x="1467.12" y="-394.95" font-family="Times,serif" font-size="9.00">*</text>
<polyline fill="none" stroke="black" points="1237,-389 1697.25,-389"/>
<text text-anchor="middle" x="1269.75" y="-376.45" font-family="Times,serif" font-size="9.00">type = 3 (OP)</text>
<polyline fill="none" stroke="black" points="1302.5,-370.5 1302.5,-389"/>
<text text-anchor="middle" x="1349.12" y="-376.45" font-family="Times,serif" font-size="9.00">left = 0x5fcf43f3ee00</text>
<polyline fill="none" stroke="black" points="1395.75,-370.5 1395.75,-389"/>
<text text-anchor="middle" x="1445.38" y="-376.45" font-family="Times,serif" font-size="9.00">node = 0x5fcf43f3ee40</text>
<polyline fill="none" stroke="black" points="1495,-370.5 1495,-389"/>
<text text-anchor="middle" x="1546.88" y="-376.45" font-family="Times,serif" font-size="9.00">parent = 0x5fcf43f3ee80</text>
<polyline fill="none" stroke="black" points="1598.75,-370.5 1598.75,-389"/>
<text text-anchor="middle" x="1648" y="-376.45" font-family="Times,serif" font-size="9.00">right = 0x5fcf43f3ed00</text>
</g>
<!-- node_0x5fcf43f3ee80&#45;&gt;node_0x5fcf43f3ee40 -->
<g id="edge1" class="edge">
<title>node_0x5fcf43f3ee80&#45;&gt;node_0x5fcf43f3ee40</title>
<path fill="none" stroke="black" d="M1797.98,-444.02C1734.19,-433.6 1653.8,-420.48 1588.24,-409.77"/>
<polygon fill="black" stroke="black" points="1588.94,-406.34 1578.51,-408.18 1587.81,-413.25 1588.94,-406.34"/>
</g>
<!-- node_0x5fcf43f3eb40 -->
<g id="node14" class="node">
<title>node_0x5fcf43f3eb40</title>
<polygon fill="#bdef9e" stroke="black" points="1780,-370.5 1780,-407.5 2240.25,-407.5 2240.25,-370.5 1780,-370.5"/>
<text text-anchor="middle" x="2010.12" y="-394.95" font-family="Times,serif" font-size="9.00">*</text>
<polyline fill="none" stroke="black" points="1780,-389 2240.25,-389"/>
<text text-anchor="middle" x="1812.75" y="-376.45" font-family="Times,serif" font-size="9.00">type = 3 (OP)</text>
<polyline fill="none" stroke="black" points="1845.5,-370.5 1845.5,-389"/>
<text text-anchor="middle" x="1892.5" y="-376.45" font-family="Times,serif" font-size="9.00">left = 0x5fcf43f3eb00</text>
<polyline fill="none" stroke="black" points="1939.5,-370.5 1939.5,-389"/>
<text text-anchor="middle" x="1989.5" y="-376.45" font-family="Times,serif" font-size="9.00">node = 0x5fcf43f3eb40</text>
<polyline fill="none" stroke="black" points="2039.5,-370.5 2039.5,-389"/>
<text text-anchor="middle" x="2091.38" y="-376.45" font-family="Times,serif" font-size="9.00">parent = 0x5fcf43f3ee80</text>
<polyline fill="none" stroke="black" points="2143.25,-370.5 2143.25,-389"/>
<text text-anchor="middle" x="2191.75" y="-376.45" font-family="Times,serif" font-size="9.00">right = 0x5fcf43f3eac0</text>
</g>
<!-- node_0x5fcf43f3ee80&#45;&gt;node_0x5fcf43f3eb40 -->
<g id="edge13" class="edge">
<title>node_0x5fcf43f3ee80&#45;&gt;node_0x5fcf43f3eb40</title>
<path fill="none" stroke="black" d="M1933.6,-444.02C1946.35,-435.02 1961.98,-423.99 1975.77,-414.25"/>
<polygon fill="black" stroke="black" points="1977.59,-417.25 1983.74,-408.63 1973.55,-411.53 1977.59,-417.25"/>
</g>
<!-- node_0x5fcf43f3ee00 -->
<g id="node3" class="node">
<title>node_0x5fcf43f3ee00</title>
<polygon fill="#bdef9e" stroke="black" points="663.62,-296.5 663.62,-333.5 1082.62,-333.5 1082.62,-296.5 663.62,-296.5"/>
<text text-anchor="middle" x="873.12" y="-320.95" font-family="Times,serif" font-size="9.00">cos</text>
<polyline fill="none" stroke="black" points="663.62,-315 1082.62,-315"/>
<text text-anchor="middle" x="696.38" y="-302.45" font-family="Times,serif" font-size="9.00">type = 3 (OP)</text>
<polyline fill="none" stroke="black" points="729.12,-296.5 729.12,-315"/>
<text text-anchor="middle" x="755.12" y="-302.45" font-family="Times,serif" font-size="9.00">left = (nil)</text>
<polyline fill="none" stroke="black" points="781.12,-296.5 781.12,-315"/>
<text text-anchor="middle" x="830.75" y="-302.45" font-family="Times,serif" font-size="9.00">node = 0x5fcf43f3ee00</text>
<polyline fill="none" stroke="black" points="880.38,-296.5 880.38,-315"/>
<text text-anchor="middle" x="932.25" y="-302.45" font-family="Times,serif" font-size="9.00">parent = 0x5fcf43f3ee40</text>
<polyline fill="none" stroke="black" points="984.12,-296.5 984.12,-315"/>
<text text-anchor="middle" x="1033.38" y="-302.45" font-family="Times,serif" font-size="9.00">right = 0x5fcf43f3ed40</text>
</g>
<!-- node_0x5fcf43f3ee40&#45;&gt;node_0x5fcf43f3ee00 -->
<g id="edge2" class="edge">
<title>node_0x5fcf43f3ee40&#45;&gt;node_0x5fcf43f3ee00</title>
<path fill="none" stroke="black" d="M1318.77,-370.02C1231.69,-359.46 1121.64,-346.12 1032.69,-335.34"/>
<polygon fill="black" stroke="black" points="1033.24,-331.88 1022.9,-334.15 1032.4,-338.83 1033.24,-331.88"/>
</g>
<!-- node_0x5fcf43f3ed00 -->
<g id="node7" class="node">
<title>node_0x5fcf43f3ed00</title>
<polygon fill="#bdef9e" stroke="black" points="1237.38,-296.5 1237.38,-333.5 1696.88,-333.5 1696.88,-296.5 1237.38,-296.5"/>
<text text-anchor="middle" x="1467.12" y="-320.95" font-family="Times,serif" font-size="9.00">+</text>
<polyline fill="none" stroke="black" points="1237.38,-315 1696.88,-315"/>
<text text-anchor="middle" x="1270.12" y="-302.45" font-family="Times,serif" font-size="9.00">type = 3 (OP)</text>
<polyline fill="none" stroke="black" points="1302.88,-296.5 1302.88,-315"/>
<text text-anchor="middle" x="1349.12" y="-302.45" font-family="Times,serif" font-size="9.00">left = 0x5fcf43f3ecc0</text>
<polyline fill="none" stroke="black" points="1395.38,-296.5 1395.38,-315"/>
<text text-anchor="middle" x="1445.38" y="-302.45" font-family="Times,serif" font-size="9.00">node = 0x5fcf43f3ed00</text>
<polyline fill="none" stroke="black" points="1495.38,-296.5 1495.38,-315"/>
<text text-anchor="middle" x="1547.25" y="-302.45" font-family="Times,serif" font-size="9.00">parent = 0x5fcf43f3ee40</text>
<polyline fill="none" stroke="black" points="1599.12,-296.5 1599.12,-315"/>
<text text-anchor="middle" x="1648" y="-302.45" font-family="Times,serif" font-size="9.00">right = 0x5fcf43f3ec00</text>
</g>
<!-- node_0x5fcf43f3ee40&#45;&gt;node_0x5fcf43f3ed00 -->
<g id="edge6" class="edge">
<title>node_0x5fcf43f3ee40&#45;&gt;node_0x5fcf43f3ed00</title>
<path fill="none" stroke="black" d="M1467.12,-370.2C1467.12,-362.67 1467.12,-353.7 1467.12,-345.25"/>
<polygon fill="black" stroke="black" points="1470.63,-345.36 1467.13,-335.36 1463.63,-345.36 1470.63,-345.36"/>
</g>
<!-- node_0x5fcf43f3ed40 -->
<g id="node4" class="node">
<title>node_0x5fcf43f3ed40</title>
<polygon fill="#bdef9e" stroke="black" points="367.62,-222.5 367.62,-259.5 828.62,-259.5 828.62,-222.5 367.62,-222.5"/>
<text text-anchor="middle" x="598.12" y="-246.95" font-family="Times,serif" font-size="9.00">*</text>
<polyline fill="none" stroke="black" points="367.62,-241 828.62,-241"/>
<text text-anchor="middle" x="400.38" y="-228.45" font-family="Times,serif" font-size="9.00">type = 3 (OP)</text>
<polyline fill="none" stroke="black" points="433.12,-222.5 433.12,-241"/>
<text text-anchor="middle" x="480.12" y="-228.45" font-family="Times,serif" font-size="9.00">left = 0x5fcf43f3ed80</text>
<polyline fill="none" stroke="black" points="527.12,-222.5 527.12,-241"/>
<text text-anchor="middle" x="577.12" y="-228.45" font-family="Times,serif" font-size="9.00">node = 0x5fcf43f3ed40</text>
<polyline fill="none" stroke="black" points="627.12,-222.5 627.12,-241"/>
<text text-anchor="middle" x="679" y="-228.45" font-family="Times,serif" font-size="9.00">parent = 0x5fcf43f3ee00</text>
<polyline fill="none" stroke="black" points="730.88,-222.5 730.88,-241"/>
<text text-anchor="middle" x="779.75" y="-228.45" font-family="Times,serif" font-size="9.00">right = 0x5fcf43f3edc0</text>
</g>
<!-- node_0x5fcf43f3ee00&#45;&gt;node_0x5fcf43f3ed40 -->
<g id="edge3" class="edge">
<title>node_0x5fcf43f3ee00&#45;&gt;node_0x5fcf43f3ed40</title>
<path fill="none" stroke="black" d="M804.44,-296.02C765.9,-285.93 717.65,-273.29 677.5,-262.78"/>
<polygon fill="black" stroke="black" points="678.43,-259.41 667.87,-260.26 676.66,-266.18 678.43,-259.41"/>
</g>
<!-- node_0x5fcf43f3ed80 -->
<g id="node5" class="node">
<title>node_0x5fcf43f3ed80</title>
<polygon fill="blue" stroke="black" points="0,-148.5 0,-185.5 388.25,-185.5 388.25,-148.5 0,-148.5"/>
<text text-anchor="middle" x="194.12" y="-172.95" font-family="Times,serif" font-size="9.00">2</text>
<polyline fill="none" stroke="black" points="0,-167 388.25,-167"/>
<text text-anchor="middle" x="37.62" y="-154.45" font-family="Times,serif" font-size="9.00">type = 1 (NUM)</text>
<polyline fill="none" stroke="black" points="75.25,-148.5 75.25,-167"/>
<text text-anchor="middle" x="101.25" y="-154.45" font-family="Times,serif" font-size="9.00">left = (nil)</text>
<polyline fill="none" stroke="black" points="127.25,-148.5 127.25,-167"/>
<text text-anchor="middle" x="177.25" y="-154.45" font-family="Times,serif" font-size="9.00">node = 0x5fcf43f3ed80</text>
<polyline fill="none" stroke="black" points="227.25,-148.5 227.25,-167"/>
<text text-anchor="middle" x="279.5" y="-154.45" font-family="Times,serif" font-size="9.00">parent = 0x5fcf43f3ed40</text>
<polyline fill="none" stroke="black" points="331.75,-148.5 331.75,-167"/>
<text text-anchor="middle" x="360" y="-154.45" font-family="Times,serif" font-size="9.00">right = (nil)</text>
</g>
<!-- node_0x5fcf43f3ed40&#45;&gt;node_0x5fcf43f3ed80 -->
<g id="edge4" class="edge">
<title>node_0x5fcf43f3ed40&#45;&gt;node_0x5fcf43f3ed80</title>
<path fill="none" stroke="black" d="M497.22,-222.02C439.03,-211.65 365.75,-198.59 305.82,-187.91"/>
<polygon fill="black" stroke="black" points="306.74,-184.52 296.28,-186.21 305.51,-191.41 306.74,-184.52"/>
</g>
<!-- node_0x5fcf43f3edc0 -->
<g id="node6" class="node">
<title>node_0x5fcf43f3edc0</title>
<polygon fill="yellow" stroke="black" points="405.88,-148.5 405.88,-185.5 790.38,-185.5 790.38,-148.5 405.88,-148.5"/>
<text text-anchor="middle" x="598.12" y="-172.95" font-family="Times,serif" font-size="9.00">x</text>
<polyline fill="none" stroke="black" points="405.88,-167 790.38,-167"/>
<text text-anchor="middle" x="442" y="-154.45" font-family="Times,serif" font-size="9.00">type = 2 (VAR)</text>
<polyline fill="none" stroke="black" points="478.12,-148.5 478.12,-167"/>
<text text-anchor="middle" x="504.12" y="-154.45" font-family="Times,serif" font-size="9.00">left = (nil)</text>
<polyline fill="none" stroke="black" points="530.12,-148.5 530.12,-167"/>
<text text-anchor="middle" x="579.75" y="-154.45" font-family="Times,serif" font-size="9.00">node = 0x5fcf43f3edc0</text>
<polyline fill="none" stroke="black" points="629.38,-148.5 629.38,-167"/>
<text text-anchor="middle" x="681.62" y="-154.45" font-family="Times,serif" font-size="9.00">parent = 0x5fcf43f3ed40</text>
<polyline fill="none" stroke="black" points="733.88,-148.5 733.88,-167"/>
<text text-anchor="middle" x="762.12" y="-154.45" font-family="Times,serif" font-size="9.00">right = (nil)</text>
</g>
<!-- node_0x5fcf43f3ed40&#45;&gt;node_0x5fcf43f3edc0 -->
<g id="edge5" class="edge">
<title>node_0x5fcf43f3ed40&#45;&gt;node_0x5fcf43f3edc0</title>
<path fill="none" stroke="black" d="M598.12,-222.2C598.12,-214.67 598.12,-205.7 598.12,-197.25"/>
<polygon fill="black" stroke="black" points="601.63,-197.36 598.13,-187.36 594.63,-197.36 601.63,-197.36"/>
</g>
<!-- node_0x5fcf43f3ecc0 -->
<g id="node8" class="node">
<title>node_0x5fcf43f3ecc0</title>
<polygon fill="#bdef9e" stroke="black" points="1136.38,-222.5 1136.38,-259.5 1595.88,-259.5 1595.88,-222.5 1136.38,-222.5"/>
<text text-anchor="middle" x="1366.12" y="-246.95" font-family="Times,serif" font-size="9.00">*</text>
<polyline fill="none" stroke="black" points="1136.38,-241 1595.88,-241"/>
<text text-anchor="middle" x="1169.12" y="-228.45" font-family="Times,serif" font-size="9.00">type = 3 (OP)</text>
<polyline fill="none" stroke="black" points="1201.88,-222.5 1201.88,-241"/>
<text text-anchor="middle" x="1248.5" y="-228.45" font-family="Times,serif" font-size="9.00">left = 0x5fcf43f3ec80</text>
<polyline fill="none" stroke="black" points="1295.12,-222.5 1295.12,-241"/>
<text text-anchor="middle" x="1344.38" y="-228.45" font-family="Times,serif" font-size="9.00">node = 0x5fcf43f3ecc0</text>
<polyline fill="none" stroke="black" points="1393.62,-222.5 1393.62,-241"/>
<text text-anchor="middle" x="1445.88" y="-228.45" font-family="Times,serif" font-size="9.00">parent = 0x5fcf43f3ed00</text>
<polyline fill="none" stroke="black" points="1498.12,-222.5 1498.12,-241"/>
<text text-anchor="middle" x="1547" y="-228.45" font-family="Times,serif" font-size="9.00">right = 0x5fcf43f3ec40</text>
</g>
<!-- node_0x5fcf43f3ed00&#45;&gt;node_0x5fcf43f3ecc0 -->
<g id="edge7" class="edge">
<title>node_0x5fcf43f3ed00&#45;&gt;node_0x5fcf43f3ecc0</title>
<path fill="none" stroke="black" d="M1441.9,-296.02C1429.27,-287.02 1413.8,-275.99 1400.14,-266.25"/>
<polygon fill="black" stroke="black" points="1402.44,-263.59 1392.26,-260.63 1398.37,-269.29 1402.44,-263.59"/>
</g>
<!-- node_0x5fcf43f3ec00 -->
<g id="node11" class="node">
<title>node_0x5fcf43f3ec00</title>
<polygon fill="#bdef9e" stroke="black" points="1613.62,-222.5 1613.62,-259.5 2074.62,-259.5 2074.62,-222.5 1613.62,-222.5"/>
<text text-anchor="middle" x="1844.12" y="-246.95" font-family="Times,serif" font-size="9.00">*</text>
<polyline fill="none" stroke="black" points="1613.62,-241 2074.62,-241"/>
<text text-anchor="middle" x="1646.38" y="-228.45" font-family="Times,serif" font-size="9.00">type = 3 (OP)</text>
<polyline fill="none" stroke="black" points="1679.12,-222.5 1679.12,-241"/>
<text text-anchor="middle" x="1725.75" y="-228.45" font-family="Times,serif" font-size="9.00">left = 0x5fcf43f3ebc0</text>
<polyline fill="none" stroke="black" points="1772.38,-222.5 1772.38,-241"/>
<text text-anchor="middle" x="1822" y="-228.45" font-family="Times,serif" font-size="9.00">node = 0x5fcf43f3ec00</text>
<polyline fill="none" stroke="black" points="1871.62,-222.5 1871.62,-241"/>
<text text-anchor="middle" x="1923.88" y="-228.45" font-family="Times,serif" font-size="9.00">parent = 0x5fcf43f3ed00</text>
<polyline fill="none" stroke="black" points="1976.12,-222.5 1976.12,-241"/>
<text text-anchor="middle" x="2025.38" y="-228.45" font-family="Times,serif" font-size="9.00">right = 0x5fcf43f3eb80</text>
</g>
<!-- node_0x5fcf43f3ed00&#45;&gt;node_0x5fcf43f3ec00 -->
<g id="edge10" class="edge">
<title>node_0x5fcf43f3ed00&#45;&gt;node_0x5fcf43f3ec00</title>
<path fill="none" stroke="black" d="M1561.29,-296.02C1615.37,-285.69 1683.41,-272.69 1739.2,-262.04"/>
<polygon fill="black" stroke="black" points="1739.53,-265.54 1748.7,-260.22 1738.22,-258.66 1739.53,-265.54"/>
</g>
<!-- node_0x5fcf43f3ec80 -->
<g id="node9" class="node">
<title>node_0x5fcf43f3ec80</title>
<polygon fill="blue" stroke="black" points="808.12,-148.5 808.12,-185.5 1194.12,-185.5 1194.12,-148.5 808.12,-148.5"/>
<text text-anchor="middle" x="1001.12" y="-172.95" font-family="Times,serif" font-size="9.00">0</text>
<polyline fill="none" stroke="black" points="808.12,-167 1194.12,-167"/>
<text text-anchor="middle" x="845.75" y="-154.45" font-family="Times,serif" font-size="9.00">type = 1 (NUM)</text>
<polyline fill="none" stroke="black" points="883.38,-148.5 883.38,-167"/>
<text text-anchor="middle" x="909.38" y="-154.45" font-family="Times,serif" font-size="9.00">left = (nil)</text>
<polyline fill="none" stroke="black" points="935.38,-148.5 935.38,-167"/>
<text text-anchor="middle" x="985" y="-154.45" font-family="Times,serif" font-size="9.00">node = 0x5fcf43f3ec80</text>
<polyline fill="none" stroke="black" points="1034.62,-148.5 1034.62,-167"/>
<text text-anchor="middle" x="1086.12" y="-154.45" font-family="Times,serif" font-size="9.00">parent = 0x5fcf43f3ecc0</text>
<polyline fill="none" stroke="black" points="1137.62,-148.5 1137.62,-167"/>
<text text-anchor="middle" x="1165.88" y="-154.45" font-family="Times,serif" font-size="9.00">right = (nil)</text>
</g>
<!-- node_0x5fcf43f3ecc0&#45;&gt;node_0x5fcf43f3ec80 -->
<g id="edge8" class="edge">
<title>node_0x5fcf43f3ecc0&#45;&gt;node_0x5fcf43f3ec80</title>
<path fill="none" stroke="black" d="M1274.96,-222.02C1222.71,-211.71 1157,-198.75 1103.05,-188.11"/>
<polygon fill="black" stroke="black" points="1104.05,-184.74 1093.56,-186.23 1102.69,-191.6 1104.05,-184.74"/>
</g>
<!-- node_0x5fcf43f3ec40 -->
<g id="node10" class="node">
<title>node_0x5fcf43f3ec40</title>
<polygon fill="yellow" stroke="black" points="1212.62,-148.5 1212.62,-185.5 1595.62,-185.5 1595.62,-148.5 1212.62,-148.5"/>
<text text-anchor="middle" x="1404.12" y="-172.95" font-family="Times,serif" font-size="9.00">x</text>
<polyline fill="none" stroke="black" points="1212.62,-167 1595.62,-167"/>
<text text-anchor="middle" x="1248.75" y="-154.45" font-family="Times,serif" font-size="9.00">type = 2 (VAR)</text>
<polyline fill="none" stroke="black" points="1284.88,-148.5 1284.88,-167"/>
<text text-anchor="middle" x="1310.88" y="-154.45" font-family="Times,serif" font-size="9.00">left = (nil)</text>
<polyline fill="none" stroke="black" points="1336.88,-148.5 1336.88,-167"/>
<text text-anchor="middle" x="1386.5" y="-154.45" font-family="Times,serif" font-size="9.00">node = 0x5fcf43f3ec40</text>
<polyline fill="none" stroke="black" points="1436.12,-148.5 1436.12,-167"/>
<text text-anchor="middle" x="1487.62" y="-154.45" font-family="Times,serif" font-size="9.00">parent = 0x5fcf43f3ecc0</text>
<polyline fill="none" stroke="black" points="1539.12,-148.5 1539.12,-167"/>
<text text-anchor="middle" x="1567.38" y="-154.45" font-family="Times,serif" font-size="9.00">right = (nil)</text>
</g>
<!-- node_0x5fcf43f3ecc0&#45;&gt;node_0x5fcf43f3ec40 -->
<g id="edge9" class="edge">
<title>node_0x5fcf43f3ecc0&#45;&gt;node_0x5fcf43f3ec40</title>
<path fill="none" stroke="black" d="M1375.52,-222.2C1379.72,-214.24 1384.77,-204.67 1389.46,-195.8"/>
<polygon fill="black" stroke="black" points="1392.43,-197.66 1394,-187.18 1386.24,-194.39 1392.43,-197.66"/>
</g>
<!-- node_0x5fcf43f3ebc0 -->
<g id="node12" class="node">
<title>node_0x5fcf43f3ebc0</title>
<polygon fill="blue" stroke="black" points="1613.75,-148.5 1613.75,-185.5 2000.5,-185.5 2000.5,-148.5 1613.75,-148.5"/>
<text text-anchor="middle" x="1807.12" y="-172.95" font-family="Times,serif" font-size="9.00">2</text>
<polyline fill="none" stroke="black" points="1613.75,-167 2000.5,-167"/>
<text text-anchor="middle" x="1651.38" y="-154.45" font-family="Times,serif" font-size="9.00">type = 1 (NUM)</text>
<polyline fill="none" stroke="black" points="1689,-148.5 1689,-167"/>
<text text-anchor="middle" x="1715" y="-154.45" font-family="Times,serif" font-size="9.00">left = (nil)</text>
<polyline fill="none" stroke="black" points="1741,-148.5 1741,-167"/>
<text text-anchor="middle" x="1790.62" y="-154.45" font-family="Times,serif" font-size="9.00">node = 0x5fcf43f3ebc0</text>
<polyline fill="none" stroke="black" points="1840.25,-148.5 1840.25,-167"/>
<text text-anchor="middle" x="1892.12" y="-154.45" font-family="Times,serif" font-size="9.00">parent = 0x5fcf43f3ec00</text>
<polyline fill="none" stroke="black" points="1944,-148.5 1944,-167"/>
<text text-anchor="middle" x="1972.25" y="-154.45" font-family="Times,serif" font-size="9.00">right = (nil)</text>
</g>
<!-- node_0x5fcf43f3ec00&#45;&gt;node_0x5fcf43f3ebc0 -->
<g id="edge11" class="edge">
<title>node_0x5fcf43f3ec00&#45;&gt;node_0x5fcf43f3ebc0</title>
<path fill="none" stroke="black" d="M1834.98,-222.2C1830.89,-214.24 1825.97,-204.67 1821.41,-195.8"/>
<polygon fill="black" stroke="black" points="1824.67,-194.48 1816.99,-187.19 1818.44,-197.68 1824.67,-194.48"/>
</g>
<!-- node_0x5fcf43f3eb80 -->
<g id="node13" class="node">
<title>node_0x5fcf43f3eb80</title>
<polygon fill="blue" stroke="black" points="2018.38,-148.5 2018.38,-185.5 2405.88,-185.5 2405.88,-148.5 2018.38,-148.5"/>
<text text-anchor="middle" x="2212.12" y="-172.95" font-family="Times,serif" font-size="9.00">1</text>
<polyline fill="none" stroke="black" points="2018.38,-167 2405.88,-167"/>
<text text-anchor="middle" x="2056" y="-154.45" font-family="Times,serif" font-size="9.00">type = 1 (NUM)</text>
<polyline fill="none" stroke="black" points="2093.62,-148.5 2093.62,-167"/>
<text text-anchor="middle" x="2119.62" y="-154.45" font-family="Times,serif" font-size="9.00">left = (nil)</text>
<polyline fill="none" stroke="black" points="2145.62,-148.5 2145.62,-167"/>
<text text-anchor="middle" x="2195.62" y="-154.45" font-family="Times,serif" font-size="9.00">node = 0x5fcf43f3eb80</text>
<polyline fill="none" stroke="black" points="2245.62,-148.5 2245.62,-167"/>
<text text-anchor="middle" x="2297.5" y="-154.45" font-family="Times,serif" font-size="9.00">parent = 0x5fcf43f3ec00</text>
<polyline fill="none" stroke="black" points="2349.38,-148.5 2349.38,-167"/>
<text text-anchor="middle" x="2377.62" y="-154.45" font-family="Times,serif" font-size="9.00">right = (nil)</text>
</g>
<!-- node_0x5fcf43f3ec00&#45;&gt;node_0x5fcf43f3eb80 -->
<g id="edge12" class="edge">
<title>node_0x5fcf43f3ec00&#45;&gt;node_0x5fcf43f3eb80</title>
<path fill="none" stroke="black" d="M1936.04,-222.02C1988.72,-211.71 2054.97,-198.75 2109.36,-188.11"/>
<polygon fill="black" stroke="black" points="2109.8,-191.59 2118.94,-186.23 2108.46,-184.72 2109.8,-191.59"/>
</g>
<!-- node_0x5fcf43f3eb00 -->
<g id="node15" class="node">
<title>node_0x5fcf43f3eb00</title>
<polygon fill="blue" stroke="black" points="1816,-296.5 1816,-333.5 2204.25,-333.5 2204.25,-296.5 1816,-296.5"/>
<text text-anchor="middle" x="2010.12" y="-320.95" font-family="Times,serif" font-size="9.00">&#45;1</text>
<polyline fill="none" stroke="black" points="1816,-315 2204.25,-315"/>
<text text-anchor="middle" x="1853.62" y="-302.45" font-family="Times,serif" font-size="9.00">type = 1 (NUM)</text>
<polyline fill="none" stroke="black" points="1891.25,-296.5 1891.25,-315"/>
<text text-anchor="middle" x="1917.25" y="-302.45" font-family="Times,serif" font-size="9.00">left = (nil)</text>
<polyline fill="none" stroke="black" points="1943.25,-296.5 1943.25,-315"/>
<text text-anchor="middle" x="1993.25" y="-302.45" font-family="Times,serif" font-size="9.00">node = 0x5fcf43f3eb00</text>
<polyline fill="none" stroke="black" points="2043.25,-296.5 2043.25,-315"/>
<text text-anchor="middle" x="2095.5" y="-302.45" font-family="Times,serif" font-size="9.00">parent = 0x5fcf43f3eb40</text>
<polyline fill="none" stroke="black" points="2147.75,-296.5 2147.75,-315"/>
<text text-anchor="middle" x="2176" y="-302.45" font-family="Times,serif" font-size="9.00">right = (nil)</text>
</g>
<!-- node_0x5fcf43f3eb40&#45;&gt;node_0x5fcf43f3eb00 -->
<g id="edge14" class="edge">
<title>node_0x5fcf43f3eb40&#45;&gt;node_0x5fcf43f3eb00</title>
<path fill="none" stroke="black" d="M2010.12,-370.2C2010.12,-362.67 2010.12,-353.7 2010.12,-345.25"/>
<polygon fill="black" stroke="black" points="2013.63,-345.36 2010.13,-335.36 2006.63,-345.36 2013.63,-345.36"/>
</g>
<!-- node_0x5fcf43f3eac0 -->
<g id="node16" class="node">
<title>node_0x5fcf43f3eac0</title>
<polygon fill="#bdef9e" stroke="black" points="2424,-296.5 2424,-333.5 2884.25,-333.5 2884.25,-296.5 2424,-296.5"/>
<text text-anchor="middle" x="2654.12" y="-320.95" font-family="Times,serif" font-size="9.00">*</text>
<polyline fill="none" stroke="black" points="2424,-315 2884.25,-315"/>
<text text-anchor="middle" x="2456.75" y="-302.45" font-family="Times,serif" font-size="9.00">type = 3 (OP)</text>
<polyline fill="none" stroke="black" points="2489.5,-296.5 2489.5,-315"/>
<text text-anchor="middle" x="2536.12" y="-302.45" font-family="Times,serif" font-size="9.00">left = 0x5fcf43f3ea80</text>
<polyline fill="none" stroke="black" points="2582.75,-296.5 2582.75,-315"/>
<text text-anchor="middle" x="2632" y="-302.45" font-family="Times,serif" font-size="9.00">node = 0x5fcf43f3eac0</text>
<polyline fill="none" stroke="black" points="2681.25,-296.5 2681.25,-315"/>
<text text-anchor="middle" x="2733.5" y="-302.45" font-family="Times,serif" font-size="9.00">parent = 0x5fcf43f3eb40</text>
<polyline fill="none" stroke="black" points="2785.75,-296.5 2785.75,-315"/>
<text text-anchor="middle" x="2835" y="-302.45" font-family="Times,serif" font-size="9.00">right = 0x5fcf43f3e980</text>
</g>
<!-- node_0x5fcf43f3eb40&#45;&gt;node_0x5fcf43f3eac0 -->
<g id="edge15" class="edge">
<title>node_0x5fcf43f3eb40&#45;&gt;node_0x5fcf43f3eac0</title>
<path fill="none" stroke="black" d="M2170.97,-370.02C2265.67,-359.43 2385.42,-346.04 2482.01,-335.24"/>
<polygon fill="black" stroke="black" points="2482.32,-338.73 2491.87,-334.14 2481.54,-331.77 2482.32,-338.73"/>
</g>
<!-- node_0x5fcf43f3ea80 -->
<g id="node17" class="node">
<title>node_0x5fcf43f3ea80</title>
<polygon fill="#bdef9e" stroke="black" points="2445.38,-222.5 2445.38,-259.5 2862.88,-259.5 2862.88,-222.5 2445.38,-222.5"/>
<text text-anchor="middle" x="2654.12" y="-246.95" font-family="Times,serif" font-size="9.00">sin</text>
<polyline fill="none" stroke="black" points="2445.38,-241 2862.88,-241"/>
<text text-anchor="middle" x="2478.12" y="-228.45" font-family="Times,serif" font-size="9.00">type = 3 (OP)</text>
<polyline fill="none" stroke="black" points="2510.88,-222.5 2510.88,-241"/>
<text text-anchor="middle" x="2536.88" y="-228.45" font-family="Times,serif" font-size="9.00">left = (nil)</text>
<polyline fill="none" stroke="black" points="2562.88,-222.5 2562.88,-241"/>
<text text-anchor="middle" x="2612.5" y="-228.45" font-family="Times,serif" font-size="9.00">node = 0x5fcf43f3ea80</text>
<polyline fill="none" stroke="black" points="2662.12,-222.5 2662.12,-241"/>
<text text-anchor="middle" x="2713.62" y="-228.45" font-family="Times,serif" font-size="9.00">parent = 0x5fcf43f3eac0</text>
<polyline fill="none" stroke="black" points="2765.12,-222.5 2765.12,-241"/>
<text text-anchor="middle" x="2814" y="-228.45" font-family="Times,serif" font-size="9.00">right = 0x5fcf43f3e9c0</text>
</g>
<!-- node_0x5fcf43f3eac0&#45;&gt;node_0x5fcf43f3ea80 -->
<g id="edge16" class="edge">
<title>node_0x5fcf43f3eac0&#45;&gt;node_0x5fcf43f3ea80</title>
<path fill="none" stroke="black" d="M2654.12,-296.2C2654.12,-288.67 2654.12,-279.7 2654.12,-271.25"/>
<polygon fill="black" stroke="black" points="2657.63,-271.36 2654.13,-261.36 2650.63,-271.36 2657.63,-271.36"/>
</g>
<!-- node_0x5fcf43f3e980 -->
<g id="node21" class="node">
<title>node_0x5fcf43f3e980</title>
<polygon fill="#bdef9e" stroke="black" points="3030.62,-222.5 3030.62,-259.5 3491.62,-259.5 3491.62,-222.5 3030.62,-222.5"/>
<text text-anchor="middle" x="3261.12" y="-246.95" font-family="Times,serif" font-size="9.00">*</text>
<polyline fill="none" stroke="black" points="3030.62,-241 3491.62,-241"/>
<text text-anchor="middle" x="3063.38" y="-228.45" font-family="Times,serif" font-size="9.00">type = 3 (OP)</text>
<polyline fill="none" stroke="black" points="3096.12,-222.5 3096.12,-241"/>
<text text-anchor="middle" x="3143.12" y="-228.45" font-family="Times,serif" font-size="9.00">left = 0x5fcf43f3e940</text>
<polyline fill="none" stroke="black" points="3190.12,-222.5 3190.12,-241"/>
<text text-anchor="middle" x="3240.12" y="-228.45" font-family="Times,serif" font-size="9.00">node = 0x5fcf43f3e980</text>
<polyline fill="none" stroke="black" points="3290.12,-222.5 3290.12,-241"/>
<text text-anchor="middle" x="3341.62" y="-228.45" font-family="Times,serif" font-size="9.00">parent = 0x5fcf43f3eac0</text>
<polyline fill="none" stroke="black" points="3393.12,-222.5 3393.12,-241"/>
<text text-anchor="middle" x="3442.38" y="-228.45" font-family="Times,serif" font-size="9.00">right = 0x5fcf43f3e880</text>
</g>
<!-- node_0x5fcf43f3eac0&#45;&gt;node_0x5fcf43f3e980 -->
<g id="edge20" class="edge">
<title>node_0x5fcf43f3eac0&#45;&gt;node_0x5fcf43f3e980</title>
<path fill="none" stroke="black" d="M2805.73,-296.02C2894.81,-285.45 3007.4,-272.1 3098.35,-261.31"/>
<polygon fill="black" stroke="black" points="3098.59,-264.8 3108.11,-260.15 3097.77,-257.85 3098.59,-264.8"/>
</g>
<!-- node_0x5fcf43f3e9c0 -->
<g id="node18" class="node">
<title>node_0x5fcf43f3e9c0</title>
<polygon fill="#bdef9e" stroke="black" points="2424.38,-148.5 2424.38,-185.5 2883.88,-185.5 2883.88,-148.5 2424.38,-148.5"/>
<text text-anchor="middle" x="2654.12" y="-172.95" font-family="Times,serif" font-size="9.00">^</text>
<polyline fill="none" stroke="black" points="2424.38,-167 2883.88,-167"/>
<text text-anchor="middle" x="2457.12" y="-154.45" font-family="Times,serif" font-size="9.00">type = 3 (OP)</text>
<polyline fill="none" stroke="black" points="2489.88,-148.5 2489.88,-167"/>
<text text-anchor="middle" x="2536.5" y="-154.45" font-family="Times,serif" font-size="9.00">left = 0x5fcf43f3ea00</text>
<polyline fill="none" stroke="black" points="2583.12,-148.5 2583.12,-167"/>
<text text-anchor="middle" x="2632.75" y="-154.45" font-family="Times,serif" font-size="9.00">node = 0x5fcf43f3e9c0</text>
<polyline fill="none" stroke="black" points="2682.38,-148.5 2682.38,-167"/>
<text text-anchor="middle" x="2734.25" y="-154.45" font-family="Times,serif" font-size="9.00">parent = 0x5fcf43f3ea80</text>
<polyline fill="none" stroke="black" points="2786.12,-148.5 2786.12,-167"/>
<text text-anchor="middle" x="2835" y="-154.45" font-family="Times,serif" font-size="9.00">right = 0x5fcf43f3ea40</text>
</g>
<!-- node_0x5fcf43f3ea80&#45;&gt;node_0x5fcf43f3e9c0 -->
<g id="edge17" class="edge">
<title>node_0x5fcf43f3ea80&#45;&gt;node_0x5fcf43f3e9c0</title>
<path fill="none" stroke="black" d="M2654.12,-222.2C2654.12,-214.67 2654.12,-205.7 2654.12,-197.25"/>
<polygon fill="black" stroke="black" points="2657.63,-197.36 2654.13,-187.36 2650.63,-197.36 2657.63,-197.36"/>
</g>
<!-- node_0x5fcf43f3ea00 -->
<g id="node19" class="node">
<title>node_0x5fcf43f3ea00</title>
<polygon fill="yellow" stroke="black" points="2059.25,-74.5 2059.25,-111.5 2443,-111.5 2443,-74.5 2059.25,-74.5"/>
<text text-anchor="middle" x="2251.12" y="-98.95" font-family="Times,serif" font-size="9.00">x</text>
<polyline fill="none" stroke="black" points="2059.25,-93 2443,-93"/>
<text text-anchor="middle" x="2095.38" y="-80.45" font-family="Times,serif" font-size="9.00">type = 2 (VAR)</text>
<polyline fill="none" stroke="black" points="2131.5,-74.5 2131.5,-93"/>
<text text-anchor="middle" x="2157.5" y="-80.45" font-family="Times,serif" font-size="9.00">left = (nil)</text>
<polyline fill="none" stroke="black" points="2183.5,-74.5 2183.5,-93"/>
<text text-anchor="middle" x="2233.12" y="-80.45" font-family="Times,serif" font-size="9.00">node = 0x5fcf43f3ea00</text>
<polyline fill="none" stroke="black" points="2282.75,-74.5 2282.75,-93"/>
<text text-anchor="middle" x="2334.62" y="-80.45" font-family="Times,serif" font-size="9.00">parent = 0x5fcf43f3e9c0</text>
<polyline fill="none" stroke="black" points="2386.5,-74.5 2386.5,-93"/>
<text text-anchor="middle" x="2414.75" y="-80.45" font-family="Times,serif" font-size="9.00">right = (nil)</text>
</g>
<!-- node_0x5fcf43f3e9c0&#45;&gt;node_0x5fcf43f3ea00 -->
<g id="edge18" class="edge">
<title>node_0x5fcf43f3e9c0&#45;&gt;node_0x5fcf43f3ea00</title>
<path fill="none" stroke="black" d="M2553.47,-148.02C2495.42,-137.65 2422.32,-124.59 2362.54,-113.91"/>
<polygon fill="black" stroke="black" points="2363.49,-110.52 2353.03,-112.21 2362.26,-117.41 2363.49,-110.52"/>
</g>
<!-- node_0x5fcf43f3ea40 -->
<g id="node20" class="node">
<title>node_0x5fcf43f3ea40</title>
<polygon fill="blue" stroke="black" points="2460.75,-74.5 2460.75,-111.5 2847.5,-111.5 2847.5,-74.5 2460.75,-74.5"/>
<text text-anchor="middle" x="2654.12" y="-98.95" font-family="Times,serif" font-size="9.00">2</text>
<polyline fill="none" stroke="black" points="2460.75,-93 2847.5,-93"/>
<text text-anchor="middle" x="2498.38" y="-80.45" font-family="Times,serif" font-size="9.00">type = 1 (NUM)</text>
<polyline fill="none" stroke="black" points="2536,-74.5 2536,-93"/>
<text text-anchor="middle" x="2562" y="-80.45" font-family="Times,serif" font-size="9.00">left = (nil)</text>
<polyline fill="none" stroke="black" points="2588,-74.5 2588,-93"/>
<text text-anchor="middle" x="2637.62" y="-80.45" font-family="Times,serif" font-size="9.00">node = 0x5fcf43f3ea40</text>
<polyline fill="none" stroke="black" points="2687.25,-74.5 2687.25,-93"/>
<text text-anchor="middle" x="2739.12" y="-80.45" font-family="Times,serif" font-size="9.00">parent = 0x5fcf43f3e9c0</text>
<polyline fill="none" stroke="black" points="2791,-74.5 2791,-93"/>
<text text-anchor="middle" x="2819.25" y="-80.45" font-family="Times,serif" font-size="9.00">right = (nil)</text>
</g>
<!-- node_0x5fcf43f3e9c0&#45;&gt;node_0x5fcf43f3ea40 -->
<g id="edge19" class="edge">
<title>node_0x5fcf43f3e9c0&#45;&gt;node_0x5fcf43f3ea40</title>
<path fill="none" stroke="black" d="M2654.12,-148.2C2654.12,-140.67 2654.12,-131.7 2654.12,-123.25"/>
<polygon fill="black" stroke="black" points="2657.63,-123.36 2654.13,-113.36 2650.63,-123.36 2657.63,-123.36"/>
</g>
<!-- node_0x5fcf43f3e940 -->
<g id="node22" class="node">
<title>node_0x5fcf43f3e940</title>
<polygon fill="#bdef9e" stroke="black" points="3030.25,-148.5 3030.25,-185.5 3492,-185.5 3492,-148.5 3030.25,-148.5"/>
<text text-anchor="middle" x="3261.12" y="-172.95" font-family="Times,serif" font-size="9.00">*</text>
<polyline fill="none" stroke="black" points="3030.25,-167 3492,-167"/>
<text text-anchor="middle" x="3063" y="-154.45" font-family="Times,serif" font-size="9.00">type = 3 (OP)</text>
<polyline fill="none" stroke="black" points="3095.75,-148.5 3095.75,-167"/>
<text text-anchor="middle" x="3142.75" y="-154.45" font-family="Times,serif" font-size="9.00">left = 0x5fcf43f3e900</text>
<polyline fill="none" stroke="black" points="3189.75,-148.5 3189.75,-167"/>
<text text-anchor="middle" x="3239.75" y="-154.45" font-family="Times,serif" font-size="9.00">node = 0x5fcf43f3e940</text>
<polyline fill="none" stroke="black" points="3289.75,-148.5 3289.75,-167"/>
<text text-anchor="middle" x="3342" y="-154.45" font-family="Times,serif" font-size="9.00">parent = 0x5fcf43f3e980</text>
<polyline fill="none" stroke="black" points="3394.25,-148.5 3394.25,-167"/>
<text text-anchor="middle" x="3443.12" y="-154.45" font-family="Times,serif" font-size="9.00">right = 0x5fcf43f3e8c0</text>
</g>
<!-- node_0x5fcf43f3e980&#45;&gt;node_0x5fcf43f3e940 -->
<g id="edge21" class="edge">
<title>node_0x5fcf43f3e980&#45;&gt;node_0x5fcf43f3e940</title>
<path fill="none" stroke="black" d="M3261.12,-222.2C3261.12,-214.67 3261.12,-205.7 3261.12,-197.25"/>
<polygon fill="black" stroke="black" points="3264.63,-197.36 3261.13,-187.36 3257.63,-197.36 3264.63,-197.36"/>
</g>
<!-- node_0x5fcf43f3e880 -->
<g id="node25" class="node">
<title>node_0x5fcf43f3e880</title>
<polygon fill="#bdef9e" stroke="black" points="3638.88,-148.5 3638.88,-185.5 4101.38,-185.5 4101.38,-148.5 3638.88,-148.5"/>
<text text-anchor="middle" x="3870.12" y="-172.95" font-family="Times,serif" font-size="9.00">^</text>
<polyline fill="none" stroke="black" points="3638.88,-167 4101.38,-167"/>
<text text-anchor="middle" x="3671.62" y="-154.45" font-family="Times,serif" font-size="9.00">type = 3 (OP)</text>
<polyline fill="none" stroke="black" points="3704.38,-148.5 3704.38,-167"/>
<text text-anchor="middle" x="3751.38" y="-154.45" font-family="Times,serif" font-size="9.00">left = 0x5fcf43f3e840</text>
<polyline fill="none" stroke="black" points="3798.38,-148.5 3798.38,-167"/>
<text text-anchor="middle" x="3848.38" y="-154.45" font-family="Times,serif" font-size="9.00">node = 0x5fcf43f3e880</text>
<polyline fill="none" stroke="black" points="3898.38,-148.5 3898.38,-167"/>
<text text-anchor="middle" x="3950.62" y="-154.45" font-family="Times,serif" font-size="9.00">parent = 0x5fcf43f3e980</text>
<polyline fill="none" stroke="black" points="4002.88,-148.5 4002.88,-167"/>
<text text-anchor="middle" x="4052.12" y="-154.45" font-family="Times,serif" font-size="9.00">right = 0x5fcf43f3e800</text>
</g>
<!-- node_0x5fcf43f3e980&#45;&gt;node_0x5fcf43f3e880 -->
<g id="edge24" class="edge">
<title>node_0x5fcf43f3e980&#45;&gt;node_0x5fcf43f3e880</title>
<path fill="none" stroke="black" d="M3413.23,-222.02C3502.6,-211.45 3615.57,-198.1 3706.81,-187.31"/>
<polygon fill="black" stroke="black" points="3707.09,-190.8 3716.61,-186.15 3706.27,-183.85 3707.09,-190.8"/>
</g>
<!-- node_0x5fcf43f3e900 -->
<g id="node23" class="node">
<title>node_0x5fcf43f3e900</title>
<polygon fill="blue" stroke="black" points="2866,-74.5 2866,-111.5 3254.25,-111.5 3254.25,-74.5 2866,-74.5"/>
<text text-anchor="middle" x="3060.12" y="-98.95" font-family="Times,serif" font-size="9.00">2</text>
<polyline fill="none" stroke="black" points="2866,-93 3254.25,-93"/>
<text text-anchor="middle" x="2903.62" y="-80.45" font-family="Times,serif" font-size="9.00">type = 1 (NUM)</text>
<polyline fill="none" stroke="black" points="2941.25,-74.5 2941.25,-93"/>
<text text-anchor="middle" x="2967.25" y="-80.45" font-family="Times,serif" font-size="9.00">left = (nil)</text>
<polyline fill="none" stroke="black" points="2993.25,-74.5 2993.25,-93"/>
<text text-anchor="middle" x="3043.25" y="-80.45" font-family="Times,serif" font-size="9.00">node = 0x5fcf43f3e900</text>
<polyline fill="none" stroke="black" points="3093.25,-74.5 3093.25,-93"/>
<text text-anchor="middle" x="3145.5" y="-80.45" font-family="Times,serif" font-size="9.00">parent = 0x5fcf43f3e940</text>
<polyline fill="none" stroke="black" points="3197.75,-74.5 3197.75,-93"/>
<text text-anchor="middle" x="3226" y="-80.45" font-family="Times,serif" font-size="9.00">right = (nil)</text>
</g>
<!-- node_0x5fcf43f3e940&#45;&gt;node_0x5fcf43f3e900 -->
<g id="edge22" class="edge">
<title>node_0x5fcf43f3e940&#45;&gt;node_0x5fcf43f3e900</title>
<path fill="none" stroke="black" d="M3210.92,-148.02C3183.6,-138.23 3149.59,-126.05 3120.79,-115.73"/>
<polygon fill="black" stroke="black" points="3122.05,-112.47 3111.46,-112.39 3119.69,-119.06 3122.05,-112.47"/>
</g>
<!-- node_0x5fcf43f3e8c0 -->
<g id="node24" class="node">
<title>node_0x5fcf43f3e8c0</title>
<polygon fill="blue" stroke="black" points="3272.38,-74.5 3272.38,-111.5 3659.88,-111.5 3659.88,-74.5 3272.38,-74.5"/>
<text text-anchor="middle" x="3466.12" y="-98.95" font-family="Times,serif" font-size="9.00">1</text>
<polyline fill="none" stroke="black" points="3272.38,-93 3659.88,-93"/>
<text text-anchor="middle" x="3310" y="-80.45" font-family="Times,serif" font-size="9.00">type = 1 (NUM)</text>
<polyline fill="none" stroke="black" points="3347.62,-74.5 3347.62,-93"/>
<text text-anchor="middle" x="3373.62" y="-80.45" font-family="Times,serif" font-size="9.00">left = (nil)</text>
<polyline fill="none" stroke="black" points="3399.62,-74.5 3399.62,-93"/>
<text text-anchor="middle" x="3449.25" y="-80.45" font-family="Times,serif" font-size="9.00">node = 0x5fcf43f3e8c0</text>
<polyline fill="none" stroke="black" points="3498.88,-74.5 3498.88,-93"/>
<text text-anchor="middle" x="3551.12" y="-80.45" font-family="Times,serif" font-size="9.00">parent = 0x5fcf43f3e940</text>
<polyline fill="none" stroke="black" points="3603.38,-74.5 3603.38,-93"/>
<text text-anchor="middle" x="3631.62" y="-80.45" font-family="Times,serif" font-size="9.00">right = (nil)</text>
</g>
<!-- node_0x5fcf43f3e940&#45;&gt;node_0x5fcf43f3e8c0 -->
<g id="edge23" class="edge">
<title>node_0x5fcf43f3e940&#45;&gt;node_0x5fcf43f3e8c0</title>
<path fill="none" stroke="black" d="M3312.33,-148.02C3340.32,-138.19 3375.18,-125.94 3404.64,-115.6"/>
<polygon fill="black" stroke="black" points="3405.52,-119 3413.79,-112.38 3403.2,-112.39 3405.52,-119"/>
</g>
<!-- node_0x5fcf43f3e840 -->
<g id="node26" class="node">
<title>node_0x5fcf43f3e840</title>
<polygon fill="yellow" stroke="black" points="3677.5,-74.5 3677.5,-111.5 4062.75,-111.5 4062.75,-74.5 3677.5,-74.5"/>
<text text-anchor="middle" x="3870.12" y="-98.95" font-family="Times,serif" font-size="9.00">x</text>
<polyline fill="none" stroke="black" points="3677.5,-93 4062.75,-93"/>
<text text-anchor="middle" x="3713.62" y="-80.45" font-family="Times,serif" font-size="9.00">type = 2 (VAR)</text>
<polyline fill="none" stroke="black" points="3749.75,-74.5 3749.75,-93"/>
<text text-anchor="middle" x="3775.75" y="-80.45" font-family="Times,serif" font-size="9.00">left = (nil)</text>
<polyline fill="none" stroke="black" points="3801.75,-74.5 3801.75,-93"/>
<text text-anchor="middle" x="3851.75" y="-80.45" font-family="Times,serif" font-size="9.00">node = 0x5fcf43f3e840</text>
<polyline fill="none" stroke="black" points="3901.75,-74.5 3901.75,-93"/>
<text text-anchor="middle" x="3954" y="-80.45" font-family="Times,serif" font-size="9.00">parent = 0x5fcf43f3e880</text>
<polyline fill="none" stroke="black" points="4006.25,-74.5 4006.25,-93"/>
<text text-anchor="middle" x="4034.5" y="-80.45" font-family="Times,serif" font-size="9.00">right = (nil)</text>
</g>
<!-- node_0x5fcf43f3e880&#45;&gt;node_0x5fcf43f3e840 -->
<g id="edge25" class="edge">
<title>node_0x5fcf43f3e880&#45;&gt;node_0x5fcf43f3e840</title>
<path fill="none" stroke="black" d="M3870.12,-148.2C3870.12,-140.67 3870.12,-131.7 3870.12,-123.25"/>
<polygon fill="black" stroke="black" points="3873.63,-123.36 3870.13,-113.36 3866.63,-123.36 3873.63,-123.36"/>
</g>
<!-- node_0x5fcf43f3e800 -->
<g id="node27" class="node">
<title>node_0x5fcf43f3e800</title>
<polygon fill="#bdef9e" stroke="black" points="4081.25,-74.5 4081.25,-111.5 4543,-111.5 4543,-74.5 4081.25,-74.5"/>
<text text-anchor="middle" x="4312.12" y="-98.95" font-family="Times,serif" font-size="9.00">&#45;</text>
<polyline fill="none" stroke="black" points="4081.25,-93 4543,-93"/>
<text text-anchor="middle" x="4114" y="-80.45" font-family="Times,serif" font-size="9.00">type = 3 (OP)</text>
<polyline fill="none" stroke="black" points="4146.75,-74.5 4146.75,-93"/>
<text text-anchor="middle" x="4193.38" y="-80.45" font-family="Times,serif" font-size="9.00">left = 0x5fcf43f3e7c0</text>
<polyline fill="none" stroke="black" points="4240,-74.5 4240,-93"/>
<text text-anchor="middle" x="4290" y="-80.45" font-family="Times,serif" font-size="9.00">node = 0x5fcf43f3e800</text>
<polyline fill="none" stroke="black" points="4340,-74.5 4340,-93"/>
<text text-anchor="middle" x="4392.25" y="-80.45" font-family="Times,serif" font-size="9.00">parent = 0x5fcf43f3e880</text>
<polyline fill="none" stroke="black" points="4444.5,-74.5 4444.5,-93"/>
<text text-anchor="middle" x="4493.75" y="-80.45" font-family="Times,serif" font-size="9.00">right = 0x5fcf43f3e780</text>
</g>
<!-- node_0x5fcf43f3e880&#45;&gt;node_0x5fcf43f3e800 -->
<g id="edge26" class="edge">
<title>node_0x5fcf43f3e880&#45;&gt;node_0x5fcf43f3e800</title>
<path fill="none" stroke="black" d="M3980.52,-148.02C4044.45,-137.6 4125.03,-124.48 4190.74,-113.77"/>
<polygon fill="black" stroke="black" points="4191.19,-117.25 4200.49,-112.18 4190.06,-110.34 4191.19,-117.25"/>
</g>
<!-- node_0x5fcf43f3e7c0 -->
<g id="node28" class="node">
<title>node_0x5fcf43f3e7c0</title>
<polygon fill="blue" stroke="black" points="3915.38,-0.5 3915.38,-37.5 4302.88,-37.5 4302.88,-0.5 3915.38,-0.5"/>
<text text-anchor="middle" x="4109.12" y="-24.95" font-family="Times,serif" font-size="9.00">2</text>
<polyline fill="none" stroke="black" points="3915.38,-19 4302.88,-19"/>
<text text-anchor="middle" x="3953" y="-6.45" font-family="Times,serif" font-size="9.00">type = 1 (NUM)</text>
<polyline fill="none" stroke="black" points="3990.62,-0.5 3990.62,-19"/>
<text text-anchor="middle" x="4016.62" y="-6.45" font-family="Times,serif" font-size="9.00">left = (nil)</text>
<polyline fill="none" stroke="black" points="4042.62,-0.5 4042.62,-19"/>
<text text-anchor="middle" x="4092.25" y="-6.45" font-family="Times,serif" font-size="9.00">node = 0x5fcf43f3e7c0</text>
<polyline fill="none" stroke="black" points="4141.88,-0.5 4141.88,-19"/>
<text text-anchor="middle" x="4194.12" y="-6.45" font-family="Times,serif" font-size="9.00">parent = 0x5fcf43f3e800</text>
<polyline fill="none" stroke="black" points="4246.38,-0.5 4246.38,-19"/>
<text text-anchor="middle" x="4274.62" y="-6.45" font-family="Times,serif" font-size="9.00">right = (nil)</text>
</g>
<!-- node_0x5fcf43f3e800&#45;&gt;node_0x5fcf43f3e7c0 -->
<g id="edge27" class="edge">
<title>node_0x5fcf43f3e800&#45;&gt;node_0x5fcf43f3e7c0</title>
<path fill="none" stroke="black" d="M4261.42,-74.02C4233.71,-64.19 4199.18,-51.94 4170.01,-41.6"/>
<polygon fill="black" stroke="black" points="4171.55,-38.43 4160.96,-38.38 4169.21,-45.03 4171.55,-38.43"/>
</g>
<!-- node_0x5fcf43f3e780 -->
<g id="node29" class="node">
<title>node_0x5fcf43f3e780</title>
<polygon fill="blue" stroke="black" points="4321,-0.5 4321,-37.5 4709.25,-37.5 4709.25,-0.5 4321,-0.5"/>
<text text-anchor="middle" x="4515.12" y="-24.95" font-family="Times,serif" font-size="9.00">1</text>
<polyline fill="none" stroke="black" points="4321,-19 4709.25,-19"/>
<text text-anchor="middle" x="4358.62" y="-6.45" font-family="Times,serif" font-size="9.00">type = 1 (NUM)</text>
<polyline fill="none" stroke="black" points="4396.25,-0.5 4396.25,-19"/>
<text text-anchor="middle" x="4422.25" y="-6.45" font-family="Times,serif" font-size="9.00">left = (nil)</text>
<polyline fill="none" stroke="black" points="4448.25,-0.5 4448.25,-19"/>
<text text-anchor="middle" x="4498.25" y="-6.45" font-family="Times,serif" font-size="9.00">node = 0x5fcf43f3e780</text>
<polyline fill="none" stroke="black" points="4548.25,-0.5 4548.25,-19"/>
<text text-anchor="middle" x="4600.5" y="-6.45" font-family="Times,serif" font-size="9.00">parent = 0x5fcf43f3e800</text>
<polyline fill="none" stroke="black" points="4652.75,-0.5 4652.75,-19"/>
<text text-anchor="middle" x="4681" y="-6.45" font-family="Times,serif" font-size="9.00">right = (nil)</text>
</g>
<!-- node_0x5fcf43f3e800&#45;&gt;node_0x5fcf43f3e780 -->
<g id="edge28" class="edge">
<title>node_0x5fcf43f3e800&#45;&gt;node_0x5fcf43f3e780</title>
<path fill="none" stroke="black" d="M4362.83,-74.02C4390.54,-64.19 4425.07,-51.94 4454.24,-41.6"/>
<polygon fill="black" stroke="black" points="4455.04,-45.03 4463.29,-38.38 4452.7,-38.43 4455.04,-45.03"/>
</g>
</g>
</svg>
