<?xml version="1.0" encoding="UTF-8" standalone="no"?>
<!DOCTYPE svg PUBLIC "-//W3C//DTD SVG 1.1//EN"
 "http://www.w3.org/Graphics/SVG/1.1/DTD/svg11.dtd">
<!-- Generated by graphviz version 12.1.2 (0)
 -->
<!-- Pages: 1 -->
<svg width="810pt" height="120pt"
 viewBox="0.00 0.00 810.00 120.00" xmlns="http://www.w3.org/2000/svg" xmlns:xlink="http://www.w3.org/1999/xlink">
<g id="graph0" class="graph" transform="scale(1 1) rotate(0) translate(4 116)">
<polygon fill="white" stroke="none" points="-4,4 -4,-116 806,-116 806,4 -4,4"/>
<!-- node_0x5f6ec50140a0 -->
<g id="node1" class="node">
<title>node_0x5f6ec50140a0</title>
<polygon fill="#bdef9e" stroke="black" points="187.38,-74.5 187.38,-111.5 616.12,-111.5 616.12,-74.5 187.38,-74.5"/>
<text text-anchor="middle" x="401.75" y="-98.95" font-family="Times,serif" font-size="9.00">log</text>
<polyline fill="none" stroke="black" points="187.38,-93 616.12,-93"/>
<text text-anchor="middle" x="220.12" y="-80.45" font-family="Times,serif" font-size="9.00">type = 3 (OP)</text>
<polyline fill="none" stroke="black" points="252.88,-74.5 252.88,-93"/>
<text text-anchor="middle" x="301.38" y="-80.45" font-family="Times,serif" font-size="9.00">left = 0x5f6ec5014020</text>
<polyline fill="none" stroke="black" points="349.88,-74.5 349.88,-93"/>
<text text-anchor="middle" x="401" y="-80.45" font-family="Times,serif" font-size="9.00">node = 0x5f6ec50140a0</text>
<polyline fill="none" stroke="black" points="452.12,-74.5 452.12,-93"/>
<text text-anchor="middle" x="483.38" y="-80.45" font-family="Times,serif" font-size="9.00">parent = (nil)</text>
<polyline fill="none" stroke="black" points="514.62,-74.5 514.62,-93"/>
<text text-anchor="middle" x="565.38" y="-80.45" font-family="Times,serif" font-size="9.00">right = 0x5f6ec5014060</text>
</g>
<!-- node_0x5f6ec5014020 -->
<g id="node2" class="node">
<title>node_0x5f6ec5014020</title>
<polygon fill="blue" stroke="black" points="0,-0.5 0,-37.5 393.5,-37.5 393.5,-0.5 0,-0.5"/>
<text text-anchor="middle" x="196.75" y="-24.95" font-family="Times,serif" font-size="9.00">3</text>
<polyline fill="none" stroke="black" points="0,-19 393.5,-19"/>
<text text-anchor="middle" x="37.62" y="-6.45" font-family="Times,serif" font-size="9.00">type = 1 (NUM)</text>
<polyline fill="none" stroke="black" points="75.25,-0.5 75.25,-19"/>
<text text-anchor="middle" x="101.25" y="-6.45" font-family="Times,serif" font-size="9.00">left = (nil)</text>
<polyline fill="none" stroke="black" points="127.25,-0.5 127.25,-19"/>
<text text-anchor="middle" x="178.75" y="-6.45" font-family="Times,serif" font-size="9.00">node = 0x5f6ec5014020</text>
<polyline fill="none" stroke="black" points="230.25,-0.5 230.25,-19"/>
<text text-anchor="middle" x="283.62" y="-6.45" font-family="Times,serif" font-size="9.00">parent = 0x5f6ec50140a0</text>
<polyline fill="none" stroke="black" points="337,-0.5 337,-19"/>
<text text-anchor="middle" x="365.25" y="-6.45" font-family="Times,serif" font-size="9.00">right = (nil)</text>
</g>
<!-- node_0x5f6ec50140a0&#45;&gt;node_0x5f6ec5014020 -->
<g id="edge1" class="edge">
<title>node_0x5f6ec50140a0&#45;&gt;node_0x5f6ec5014020</title>
<path fill="none" stroke="black" d="M350.55,-74.02C322.56,-64.19 287.69,-51.94 258.24,-41.6"/>
<polygon fill="black" stroke="black" points="259.68,-38.39 249.08,-38.38 257.36,-45 259.68,-38.39"/>
</g>
<!-- node_0x5f6ec5014060 -->
<g id="node3" class="node">
<title>node_0x5f6ec5014060</title>
<polygon fill="yellow" stroke="black" points="411.5,-0.5 411.5,-37.5 802,-37.5 802,-0.5 411.5,-0.5"/>
<text text-anchor="middle" x="606.75" y="-24.95" font-family="Times,serif" font-size="9.00">x</text>
<polyline fill="none" stroke="black" points="411.5,-19 802,-19"/>
<text text-anchor="middle" x="447.62" y="-6.45" font-family="Times,serif" font-size="9.00">type = 2 (VAR)</text>
<polyline fill="none" stroke="black" points="483.75,-0.5 483.75,-19"/>
<text text-anchor="middle" x="509.75" y="-6.45" font-family="Times,serif" font-size="9.00">left = (nil)</text>
<polyline fill="none" stroke="black" points="535.75,-0.5 535.75,-19"/>
<text text-anchor="middle" x="587.25" y="-6.45" font-family="Times,serif" font-size="9.00">node = 0x5f6ec5014060</text>
<polyline fill="none" stroke="black" points="638.75,-0.5 638.75,-19"/>
<text text-anchor="middle" x="692.12" y="-6.45" font-family="Times,serif" font-size="9.00">parent = 0x5f6ec50140a0</text>
<polyline fill="none" stroke="black" points="745.5,-0.5 745.5,-19"/>
<text text-anchor="middle" x="773.75" y="-6.45" font-family="Times,serif" font-size="9.00">right = (nil)</text>
</g>
<!-- node_0x5f6ec50140a0&#45;&gt;node_0x5f6ec5014060 -->
<g id="edge2" class="edge">
<title>node_0x5f6ec50140a0&#45;&gt;node_0x5f6ec5014060</title>
<path fill="none" stroke="black" d="M452.95,-74.02C480.94,-64.19 515.81,-51.94 545.26,-41.6"/>
<polygon fill="black" stroke="black" points="546.14,-45 554.42,-38.38 543.82,-38.39 546.14,-45"/>
</g>
</g>
</svg>
