<?xml version="1.0" encoding="UTF-8" standalone="no"?>
<!DOCTYPE svg PUBLIC "-//W3C//DTD SVG 1.1//EN"
 "http://www.w3.org/Graphics/SVG/1.1/DTD/svg11.dtd">
<!-- Generated by graphviz version 12.1.2 (0)
 -->
<!-- Pages: 1 -->
<svg width="4958pt" height="490pt"
 viewBox="0.00 0.00 4958.00 490.00" xmlns="http://www.w3.org/2000/svg" xmlns:xlink="http://www.w3.org/1999/xlink">
<g id="graph0" class="graph" transform="scale(1 1) rotate(0) translate(4 486)">
<polygon fill="white" stroke="none" points="-4,4 -4,-486 4954,-486 4954,4 -4,4"/>
<!-- node_0x5eb41b24cb10 -->
<g id="node1" class="node">
<title>node_0x5eb41b24cb10</title>
<polygon fill="#bdef9e" stroke="black" points="2804.25,-444.5 2804.25,-481.5 3237.5,-481.5 3237.5,-444.5 2804.25,-444.5"/>
<text text-anchor="middle" x="3020.88" y="-468.95" font-family="Times,serif" font-size="9.00">/</text>
<polyline fill="none" stroke="black" points="2804.25,-463 3237.5,-463"/>
<text text-anchor="middle" x="2837" y="-450.45" font-family="Times,serif" font-size="9.00">type = 3 (OP)</text>
<polyline fill="none" stroke="black" points="2869.75,-444.5 2869.75,-463"/>
<text text-anchor="middle" x="2918.62" y="-450.45" font-family="Times,serif" font-size="9.00">left = 0x5eb41b24cad0</text>
<polyline fill="none" stroke="black" points="2967.5,-444.5 2967.5,-463"/>
<text text-anchor="middle" x="3019.75" y="-450.45" font-family="Times,serif" font-size="9.00">node = 0x5eb41b24cb10</text>
<polyline fill="none" stroke="black" points="3072,-444.5 3072,-463"/>
<text text-anchor="middle" x="3103.25" y="-450.45" font-family="Times,serif" font-size="9.00">parent = (nil)</text>
<polyline fill="none" stroke="black" points="3134.5,-444.5 3134.5,-463"/>
<text text-anchor="middle" x="3186" y="-450.45" font-family="Times,serif" font-size="9.00">right = 0x5eb41b24c610</text>
</g>
<!-- node_0x5eb41b24cad0 -->
<g id="node2" class="node">
<title>node_0x5eb41b24cad0</title>
<polygon fill="#bdef9e" stroke="black" points="2294.38,-370.5 2294.38,-407.5 2773.38,-407.5 2773.38,-370.5 2294.38,-370.5"/>
<text text-anchor="middle" x="2533.88" y="-394.95" font-family="Times,serif" font-size="9.00">&#45;</text>
<polyline fill="none" stroke="black" points="2294.38,-389 2773.38,-389"/>
<text text-anchor="middle" x="2327.12" y="-376.45" font-family="Times,serif" font-size="9.00">type = 3 (OP)</text>
<polyline fill="none" stroke="black" points="2359.88,-370.5 2359.88,-389"/>
<text text-anchor="middle" x="2408.75" y="-376.45" font-family="Times,serif" font-size="9.00">left = 0x5eb41b24ca90</text>
<polyline fill="none" stroke="black" points="2457.62,-370.5 2457.62,-389"/>
<text text-anchor="middle" x="2509.5" y="-376.45" font-family="Times,serif" font-size="9.00">node = 0x5eb41b24cad0</text>
<polyline fill="none" stroke="black" points="2561.38,-370.5 2561.38,-389"/>
<text text-anchor="middle" x="2615.88" y="-376.45" font-family="Times,serif" font-size="9.00">parent = 0x5eb41b24cb10</text>
<polyline fill="none" stroke="black" points="2670.38,-370.5 2670.38,-389"/>
<text text-anchor="middle" x="2721.88" y="-376.45" font-family="Times,serif" font-size="9.00">right = 0x5eb41b24c890</text>
</g>
<!-- node_0x5eb41b24cb10&#45;&gt;node_0x5eb41b24cad0 -->
<g id="edge1" class="edge">
<title>node_0x5eb41b24cb10&#45;&gt;node_0x5eb41b24cad0</title>
<path fill="none" stroke="black" d="M2899.24,-444.02C2828.36,-433.54 2738.92,-420.31 2666.27,-409.57"/>
<polygon fill="black" stroke="black" points="2667.13,-406.16 2656.72,-408.16 2666.1,-413.09 2667.13,-406.16"/>
</g>
<!-- node_0x5eb41b24c610 -->
<g id="node21" class="node">
<title>node_0x5eb41b24c610</title>
<polygon fill="#bdef9e" stroke="black" points="3398.62,-370.5 3398.62,-407.5 3879.12,-407.5 3879.12,-370.5 3398.62,-370.5"/>
<text text-anchor="middle" x="3638.88" y="-394.95" font-family="Times,serif" font-size="9.00">*</text>
<polyline fill="none" stroke="black" points="3398.62,-389 3879.12,-389"/>
<text text-anchor="middle" x="3431.38" y="-376.45" font-family="Times,serif" font-size="9.00">type = 3 (OP)</text>
<polyline fill="none" stroke="black" points="3464.12,-370.5 3464.12,-389"/>
<text text-anchor="middle" x="3513.38" y="-376.45" font-family="Times,serif" font-size="9.00">left = 0x5eb41b24c510</text>
<polyline fill="none" stroke="black" points="3562.62,-370.5 3562.62,-389"/>
<text text-anchor="middle" x="3614.88" y="-376.45" font-family="Times,serif" font-size="9.00">node = 0x5eb41b24c610</text>
<polyline fill="none" stroke="black" points="3667.12,-370.5 3667.12,-389"/>
<text text-anchor="middle" x="3721.62" y="-376.45" font-family="Times,serif" font-size="9.00">parent = 0x5eb41b24cb10</text>
<polyline fill="none" stroke="black" points="3776.12,-370.5 3776.12,-389"/>
<text text-anchor="middle" x="3827.62" y="-376.45" font-family="Times,serif" font-size="9.00">right = 0x5eb41b24c410</text>
</g>
<!-- node_0x5eb41b24cb10&#45;&gt;node_0x5eb41b24c610 -->
<g id="edge20" class="edge">
<title>node_0x5eb41b24cb10&#45;&gt;node_0x5eb41b24c610</title>
<path fill="none" stroke="black" d="M3175.23,-444.02C3266.01,-433.44 3380.79,-420.07 3473.43,-409.28"/>
<polygon fill="black" stroke="black" points="3473.58,-412.78 3483.11,-408.15 3472.77,-405.83 3473.58,-412.78"/>
</g>
<!-- node_0x5eb41b24ca90 -->
<g id="node3" class="node">
<title>node_0x5eb41b24ca90</title>
<polygon fill="#bdef9e" stroke="black" points="1053.75,-296.5 1053.75,-333.5 1532,-333.5 1532,-296.5 1053.75,-296.5"/>
<text text-anchor="middle" x="1292.88" y="-320.95" font-family="Times,serif" font-size="9.00">*</text>
<polyline fill="none" stroke="black" points="1053.75,-315 1532,-315"/>
<text text-anchor="middle" x="1086.5" y="-302.45" font-family="Times,serif" font-size="9.00">type = 3 (OP)</text>
<polyline fill="none" stroke="black" points="1119.25,-296.5 1119.25,-315"/>
<text text-anchor="middle" x="1168.12" y="-302.45" font-family="Times,serif" font-size="9.00">left = 0x5eb41b24ca50</text>
<polyline fill="none" stroke="black" points="1217,-296.5 1217,-315"/>
<text text-anchor="middle" x="1268.88" y="-302.45" font-family="Times,serif" font-size="9.00">node = 0x5eb41b24ca90</text>
<polyline fill="none" stroke="black" points="1320.75,-296.5 1320.75,-315"/>
<text text-anchor="middle" x="1374.88" y="-302.45" font-family="Times,serif" font-size="9.00">parent = 0x5eb41b24cad0</text>
<polyline fill="none" stroke="black" points="1429,-296.5 1429,-315"/>
<text text-anchor="middle" x="1480.5" y="-302.45" font-family="Times,serif" font-size="9.00">right = 0x5eb41b24c8d0</text>
</g>
<!-- node_0x5eb41b24cad0&#45;&gt;node_0x5eb41b24ca90 -->
<g id="edge2" class="edge">
<title>node_0x5eb41b24cad0&#45;&gt;node_0x5eb41b24ca90</title>
<path fill="none" stroke="black" d="M2294.23,-374.1C2078.54,-361.58 1762.72,-343.26 1543.67,-330.55"/>
<polygon fill="black" stroke="black" points="1544.03,-327.07 1533.84,-329.98 1543.62,-334.05 1544.03,-327.07"/>
</g>
<!-- node_0x5eb41b24c890 -->
<g id="node11" class="node">
<title>node_0x5eb41b24c890</title>
<polygon fill="#bdef9e" stroke="black" points="2294,-296.5 2294,-333.5 2773.75,-333.5 2773.75,-296.5 2294,-296.5"/>
<text text-anchor="middle" x="2533.88" y="-320.95" font-family="Times,serif" font-size="9.00">*</text>
<polyline fill="none" stroke="black" points="2294,-315 2773.75,-315"/>
<text text-anchor="middle" x="2326.75" y="-302.45" font-family="Times,serif" font-size="9.00">type = 3 (OP)</text>
<polyline fill="none" stroke="black" points="2359.5,-296.5 2359.5,-315"/>
<text text-anchor="middle" x="2408.75" y="-302.45" font-family="Times,serif" font-size="9.00">left = 0x5eb41b24c7d0</text>
<polyline fill="none" stroke="black" points="2458,-296.5 2458,-315"/>
<text text-anchor="middle" x="2510.25" y="-302.45" font-family="Times,serif" font-size="9.00">node = 0x5eb41b24c890</text>
<polyline fill="none" stroke="black" points="2562.5,-296.5 2562.5,-315"/>
<text text-anchor="middle" x="2616.62" y="-302.45" font-family="Times,serif" font-size="9.00">parent = 0x5eb41b24cad0</text>
<polyline fill="none" stroke="black" points="2670.75,-296.5 2670.75,-315"/>
<text text-anchor="middle" x="2722.25" y="-302.45" font-family="Times,serif" font-size="9.00">right = 0x5eb41b24c790</text>
</g>
<!-- node_0x5eb41b24cad0&#45;&gt;node_0x5eb41b24c890 -->
<g id="edge10" class="edge">
<title>node_0x5eb41b24cad0&#45;&gt;node_0x5eb41b24c890</title>
<path fill="none" stroke="black" d="M2533.88,-370.2C2533.88,-362.67 2533.88,-353.7 2533.88,-345.25"/>
<polygon fill="black" stroke="black" points="2537.38,-345.36 2533.88,-335.36 2530.38,-345.36 2537.38,-345.36"/>
</g>
<!-- node_0x5eb41b24ca50 -->
<g id="node4" class="node">
<title>node_0x5eb41b24ca50</title>
<polygon fill="#bdef9e" stroke="black" points="372.75,-222.5 372.75,-259.5 851,-259.5 851,-222.5 372.75,-222.5"/>
<text text-anchor="middle" x="611.88" y="-246.95" font-family="Times,serif" font-size="9.00">+</text>
<polyline fill="none" stroke="black" points="372.75,-241 851,-241"/>
<text text-anchor="middle" x="405.5" y="-228.45" font-family="Times,serif" font-size="9.00">type = 3 (OP)</text>
<polyline fill="none" stroke="black" points="438.25,-222.5 438.25,-241"/>
<text text-anchor="middle" x="487.12" y="-228.45" font-family="Times,serif" font-size="9.00">left = 0x5eb41b24ca10</text>
<polyline fill="none" stroke="black" points="536,-222.5 536,-241"/>
<text text-anchor="middle" x="587.88" y="-228.45" font-family="Times,serif" font-size="9.00">node = 0x5eb41b24ca50</text>
<polyline fill="none" stroke="black" points="639.75,-222.5 639.75,-241"/>
<text text-anchor="middle" x="693.88" y="-228.45" font-family="Times,serif" font-size="9.00">parent = 0x5eb41b24ca90</text>
<polyline fill="none" stroke="black" points="748,-222.5 748,-241"/>
<text text-anchor="middle" x="799.5" y="-228.45" font-family="Times,serif" font-size="9.00">right = 0x5eb41b24c9d0</text>
</g>
<!-- node_0x5eb41b24ca90&#45;&gt;node_0x5eb41b24ca50 -->
<g id="edge3" class="edge">
<title>node_0x5eb41b24ca90&#45;&gt;node_0x5eb41b24ca50</title>
<path fill="none" stroke="black" d="M1122.79,-296.02C1022.44,-285.41 895.5,-271.99 793.25,-261.18"/>
<polygon fill="black" stroke="black" points="793.68,-257.7 783.36,-260.13 792.94,-264.66 793.68,-257.7"/>
</g>
<!-- node_0x5eb41b24c8d0 -->
<g id="node7" class="node">
<title>node_0x5eb41b24c8d0</title>
<polygon fill="#bdef9e" stroke="black" points="1053,-222.5 1053,-259.5 1532.75,-259.5 1532.75,-222.5 1053,-222.5"/>
<text text-anchor="middle" x="1292.88" y="-246.95" font-family="Times,serif" font-size="9.00">+</text>
<polyline fill="none" stroke="black" points="1053,-241 1532.75,-241"/>
<text text-anchor="middle" x="1085.75" y="-228.45" font-family="Times,serif" font-size="9.00">type = 3 (OP)</text>
<polyline fill="none" stroke="black" points="1118.5,-222.5 1118.5,-241"/>
<text text-anchor="middle" x="1167.75" y="-228.45" font-family="Times,serif" font-size="9.00">left = 0x5eb41b24c910</text>
<polyline fill="none" stroke="black" points="1217,-222.5 1217,-241"/>
<text text-anchor="middle" x="1269.25" y="-228.45" font-family="Times,serif" font-size="9.00">node = 0x5eb41b24c8d0</text>
<polyline fill="none" stroke="black" points="1321.5,-222.5 1321.5,-241"/>
<text text-anchor="middle" x="1375.62" y="-228.45" font-family="Times,serif" font-size="9.00">parent = 0x5eb41b24ca90</text>
<polyline fill="none" stroke="black" points="1429.75,-222.5 1429.75,-241"/>
<text text-anchor="middle" x="1481.25" y="-228.45" font-family="Times,serif" font-size="9.00">right = 0x5eb41b24c990</text>
</g>
<!-- node_0x5eb41b24ca90&#45;&gt;node_0x5eb41b24c8d0 -->
<g id="edge6" class="edge">
<title>node_0x5eb41b24ca90&#45;&gt;node_0x5eb41b24c8d0</title>
<path fill="none" stroke="black" d="M1292.88,-296.2C1292.88,-288.67 1292.88,-279.7 1292.88,-271.25"/>
<polygon fill="black" stroke="black" points="1296.38,-271.36 1292.88,-261.36 1289.38,-271.36 1296.38,-271.36"/>
</g>
<!-- node_0x5eb41b24ca10 -->
<g id="node5" class="node">
<title>node_0x5eb41b24ca10</title>
<polygon fill="blue" stroke="black" points="0,-148.5 0,-185.5 395.75,-185.5 395.75,-148.5 0,-148.5"/>
<text text-anchor="middle" x="197.88" y="-172.95" font-family="Times,serif" font-size="9.00">0</text>
<polyline fill="none" stroke="black" points="0,-167 395.75,-167"/>
<text text-anchor="middle" x="37.62" y="-154.45" font-family="Times,serif" font-size="9.00">type = 1 (NUM)</text>
<polyline fill="none" stroke="black" points="75.25,-148.5 75.25,-167"/>
<text text-anchor="middle" x="101.25" y="-154.45" font-family="Times,serif" font-size="9.00">left = (nil)</text>
<polyline fill="none" stroke="black" points="127.25,-148.5 127.25,-167"/>
<text text-anchor="middle" x="179.12" y="-154.45" font-family="Times,serif" font-size="9.00">node = 0x5eb41b24ca10</text>
<polyline fill="none" stroke="black" points="231,-148.5 231,-167"/>
<text text-anchor="middle" x="285.12" y="-154.45" font-family="Times,serif" font-size="9.00">parent = 0x5eb41b24ca50</text>
<polyline fill="none" stroke="black" points="339.25,-148.5 339.25,-167"/>
<text text-anchor="middle" x="367.5" y="-154.45" font-family="Times,serif" font-size="9.00">right = (nil)</text>
</g>
<!-- node_0x5eb41b24ca50&#45;&gt;node_0x5eb41b24ca10 -->
<g id="edge4" class="edge">
<title>node_0x5eb41b24ca50&#45;&gt;node_0x5eb41b24ca10</title>
<path fill="none" stroke="black" d="M508.47,-222.02C448.84,-211.65 373.74,-198.59 312.33,-187.91"/>
<polygon fill="black" stroke="black" points="312.98,-184.47 302.53,-186.2 311.78,-191.36 312.98,-184.47"/>
</g>
<!-- node_0x5eb41b24c9d0 -->
<g id="node6" class="node">
<title>node_0x5eb41b24c9d0</title>
<polygon fill="blue" stroke="black" points="413.62,-148.5 413.62,-185.5 810.12,-185.5 810.12,-148.5 413.62,-148.5"/>
<text text-anchor="middle" x="611.88" y="-172.95" font-family="Times,serif" font-size="9.00">0</text>
<polyline fill="none" stroke="black" points="413.62,-167 810.12,-167"/>
<text text-anchor="middle" x="451.25" y="-154.45" font-family="Times,serif" font-size="9.00">type = 1 (NUM)</text>
<polyline fill="none" stroke="black" points="488.88,-148.5 488.88,-167"/>
<text text-anchor="middle" x="514.88" y="-154.45" font-family="Times,serif" font-size="9.00">left = (nil)</text>
<polyline fill="none" stroke="black" points="540.88,-148.5 540.88,-167"/>
<text text-anchor="middle" x="593.12" y="-154.45" font-family="Times,serif" font-size="9.00">node = 0x5eb41b24c9d0</text>
<polyline fill="none" stroke="black" points="645.38,-148.5 645.38,-167"/>
<text text-anchor="middle" x="699.5" y="-154.45" font-family="Times,serif" font-size="9.00">parent = 0x5eb41b24ca50</text>
<polyline fill="none" stroke="black" points="753.62,-148.5 753.62,-167"/>
<text text-anchor="middle" x="781.88" y="-154.45" font-family="Times,serif" font-size="9.00">right = (nil)</text>
</g>
<!-- node_0x5eb41b24ca50&#45;&gt;node_0x5eb41b24c9d0 -->
<g id="edge5" class="edge">
<title>node_0x5eb41b24ca50&#45;&gt;node_0x5eb41b24c9d0</title>
<path fill="none" stroke="black" d="M611.88,-222.2C611.88,-214.67 611.88,-205.7 611.88,-197.25"/>
<polygon fill="black" stroke="black" points="615.38,-197.36 611.88,-187.36 608.38,-197.36 615.38,-197.36"/>
</g>
<!-- node_0x5eb41b24c910 -->
<g id="node8" class="node">
<title>node_0x5eb41b24c910</title>
<polygon fill="#bdef9e" stroke="black" points="827.88,-148.5 827.88,-185.5 1261.88,-185.5 1261.88,-148.5 827.88,-148.5"/>
<text text-anchor="middle" x="1044.88" y="-172.95" font-family="Times,serif" font-size="9.00">sin</text>
<polyline fill="none" stroke="black" points="827.88,-167 1261.88,-167"/>
<text text-anchor="middle" x="860.62" y="-154.45" font-family="Times,serif" font-size="9.00">type = 3 (OP)</text>
<polyline fill="none" stroke="black" points="893.38,-148.5 893.38,-167"/>
<text text-anchor="middle" x="919.38" y="-154.45" font-family="Times,serif" font-size="9.00">left = (nil)</text>
<polyline fill="none" stroke="black" points="945.38,-148.5 945.38,-167"/>
<text text-anchor="middle" x="997.62" y="-154.45" font-family="Times,serif" font-size="9.00">node = 0x5eb41b24c910</text>
<polyline fill="none" stroke="black" points="1049.88,-148.5 1049.88,-167"/>
<text text-anchor="middle" x="1104.38" y="-154.45" font-family="Times,serif" font-size="9.00">parent = 0x5eb41b24c8d0</text>
<polyline fill="none" stroke="black" points="1158.88,-148.5 1158.88,-167"/>
<text text-anchor="middle" x="1210.38" y="-154.45" font-family="Times,serif" font-size="9.00">right = 0x5eb41b24c950</text>
</g>
<!-- node_0x5eb41b24c8d0&#45;&gt;node_0x5eb41b24c910 -->
<g id="edge7" class="edge">
<title>node_0x5eb41b24c8d0&#45;&gt;node_0x5eb41b24c910</title>
<path fill="none" stroke="black" d="M1230.93,-222.02C1196.48,-212.01 1153.41,-199.51 1117.39,-189.05"/>
<polygon fill="black" stroke="black" points="1118.49,-185.73 1107.91,-186.3 1116.54,-192.45 1118.49,-185.73"/>
</g>
<!-- node_0x5eb41b24c990 -->
<g id="node10" class="node">
<title>node_0x5eb41b24c990</title>
<polygon fill="yellow" stroke="black" points="1279.75,-148.5 1279.75,-185.5 1674,-185.5 1674,-148.5 1279.75,-148.5"/>
<text text-anchor="middle" x="1476.88" y="-172.95" font-family="Times,serif" font-size="9.00">x</text>
<polyline fill="none" stroke="black" points="1279.75,-167 1674,-167"/>
<text text-anchor="middle" x="1315.88" y="-154.45" font-family="Times,serif" font-size="9.00">type = 2 (VAR)</text>
<polyline fill="none" stroke="black" points="1352,-148.5 1352,-167"/>
<text text-anchor="middle" x="1378" y="-154.45" font-family="Times,serif" font-size="9.00">left = (nil)</text>
<polyline fill="none" stroke="black" points="1404,-148.5 1404,-167"/>
<text text-anchor="middle" x="1456.25" y="-154.45" font-family="Times,serif" font-size="9.00">node = 0x5eb41b24c990</text>
<polyline fill="none" stroke="black" points="1508.5,-148.5 1508.5,-167"/>
<text text-anchor="middle" x="1563" y="-154.45" font-family="Times,serif" font-size="9.00">parent = 0x5eb41b24c8d0</text>
<polyline fill="none" stroke="black" points="1617.5,-148.5 1617.5,-167"/>
<text text-anchor="middle" x="1645.75" y="-154.45" font-family="Times,serif" font-size="9.00">right = (nil)</text>
</g>
<!-- node_0x5eb41b24c8d0&#45;&gt;node_0x5eb41b24c990 -->
<g id="edge9" class="edge">
<title>node_0x5eb41b24c8d0&#45;&gt;node_0x5eb41b24c990</title>
<path fill="none" stroke="black" d="M1338.83,-222.02C1363.62,-212.32 1394.43,-200.26 1420.64,-190.01"/>
<polygon fill="black" stroke="black" points="1421.74,-193.33 1429.78,-186.43 1419.19,-186.81 1421.74,-193.33"/>
</g>
<!-- node_0x5eb41b24c950 -->
<g id="node9" class="node">
<title>node_0x5eb41b24c950</title>
<polygon fill="yellow" stroke="black" points="847.75,-74.5 847.75,-111.5 1242,-111.5 1242,-74.5 847.75,-74.5"/>
<text text-anchor="middle" x="1044.88" y="-98.95" font-family="Times,serif" font-size="9.00">x</text>
<polyline fill="none" stroke="black" points="847.75,-93 1242,-93"/>
<text text-anchor="middle" x="883.88" y="-80.45" font-family="Times,serif" font-size="9.00">type = 2 (VAR)</text>
<polyline fill="none" stroke="black" points="920,-74.5 920,-93"/>
<text text-anchor="middle" x="946" y="-80.45" font-family="Times,serif" font-size="9.00">left = (nil)</text>
<polyline fill="none" stroke="black" points="972,-74.5 972,-93"/>
<text text-anchor="middle" x="1024.25" y="-80.45" font-family="Times,serif" font-size="9.00">node = 0x5eb41b24c950</text>
<polyline fill="none" stroke="black" points="1076.5,-74.5 1076.5,-93"/>
<text text-anchor="middle" x="1131" y="-80.45" font-family="Times,serif" font-size="9.00">parent = 0x5eb41b24c910</text>
<polyline fill="none" stroke="black" points="1185.5,-74.5 1185.5,-93"/>
<text text-anchor="middle" x="1213.75" y="-80.45" font-family="Times,serif" font-size="9.00">right = (nil)</text>
</g>
<!-- node_0x5eb41b24c910&#45;&gt;node_0x5eb41b24c950 -->
<g id="edge8" class="edge">
<title>node_0x5eb41b24c910&#45;&gt;node_0x5eb41b24c950</title>
<path fill="none" stroke="black" d="M1044.88,-148.2C1044.88,-140.67 1044.88,-131.7 1044.88,-123.25"/>
<polygon fill="black" stroke="black" points="1048.38,-123.36 1044.88,-113.36 1041.38,-123.36 1048.38,-123.36"/>
</g>
<!-- node_0x5eb41b24c7d0 -->
<g id="node12" class="node">
<title>node_0x5eb41b24c7d0</title>
<polygon fill="#bdef9e" stroke="black" points="2044.62,-222.5 2044.62,-259.5 2525.12,-259.5 2525.12,-222.5 2044.62,-222.5"/>
<text text-anchor="middle" x="2284.88" y="-246.95" font-family="Times,serif" font-size="9.00">+</text>
<polyline fill="none" stroke="black" points="2044.62,-241 2525.12,-241"/>
<text text-anchor="middle" x="2077.38" y="-228.45" font-family="Times,serif" font-size="9.00">type = 3 (OP)</text>
<polyline fill="none" stroke="black" points="2110.12,-222.5 2110.12,-241"/>
<text text-anchor="middle" x="2159.38" y="-228.45" font-family="Times,serif" font-size="9.00">left = 0x5eb41b24c810</text>
<polyline fill="none" stroke="black" points="2208.62,-222.5 2208.62,-241"/>
<text text-anchor="middle" x="2260.88" y="-228.45" font-family="Times,serif" font-size="9.00">node = 0x5eb41b24c7d0</text>
<polyline fill="none" stroke="black" points="2313.12,-222.5 2313.12,-241"/>
<text text-anchor="middle" x="2367.62" y="-228.45" font-family="Times,serif" font-size="9.00">parent = 0x5eb41b24c890</text>
<polyline fill="none" stroke="black" points="2422.12,-222.5 2422.12,-241"/>
<text text-anchor="middle" x="2473.62" y="-228.45" font-family="Times,serif" font-size="9.00">right = 0x5eb41b24c850</text>
</g>
<!-- node_0x5eb41b24c890&#45;&gt;node_0x5eb41b24c7d0 -->
<g id="edge11" class="edge">
<title>node_0x5eb41b24c890&#45;&gt;node_0x5eb41b24c7d0</title>
<path fill="none" stroke="black" d="M2471.68,-296.02C2437.09,-286.01 2393.85,-273.51 2357.68,-263.05"/>
<polygon fill="black" stroke="black" points="2358.74,-259.71 2348.16,-260.3 2356.79,-266.44 2358.74,-259.71"/>
</g>
<!-- node_0x5eb41b24c790 -->
<g id="node15" class="node">
<title>node_0x5eb41b24c790</title>
<polygon fill="#bdef9e" stroke="black" points="2543.62,-222.5 2543.62,-259.5 3024.12,-259.5 3024.12,-222.5 2543.62,-222.5"/>
<text text-anchor="middle" x="2783.88" y="-246.95" font-family="Times,serif" font-size="9.00">+</text>
<polyline fill="none" stroke="black" points="2543.62,-241 3024.12,-241"/>
<text text-anchor="middle" x="2576.38" y="-228.45" font-family="Times,serif" font-size="9.00">type = 3 (OP)</text>
<polyline fill="none" stroke="black" points="2609.12,-222.5 2609.12,-241"/>
<text text-anchor="middle" x="2658.38" y="-228.45" font-family="Times,serif" font-size="9.00">left = 0x5eb41b24c750</text>
<polyline fill="none" stroke="black" points="2707.62,-222.5 2707.62,-241"/>
<text text-anchor="middle" x="2759.88" y="-228.45" font-family="Times,serif" font-size="9.00">node = 0x5eb41b24c790</text>
<polyline fill="none" stroke="black" points="2812.12,-222.5 2812.12,-241"/>
<text text-anchor="middle" x="2866.62" y="-228.45" font-family="Times,serif" font-size="9.00">parent = 0x5eb41b24c890</text>
<polyline fill="none" stroke="black" points="2921.12,-222.5 2921.12,-241"/>
<text text-anchor="middle" x="2972.62" y="-228.45" font-family="Times,serif" font-size="9.00">right = 0x5eb41b24c650</text>
</g>
<!-- node_0x5eb41b24c890&#45;&gt;node_0x5eb41b24c790 -->
<g id="edge14" class="edge">
<title>node_0x5eb41b24c890&#45;&gt;node_0x5eb41b24c790</title>
<path fill="none" stroke="black" d="M2596.32,-296.02C2631.05,-286.01 2674.46,-273.51 2710.77,-263.05"/>
<polygon fill="black" stroke="black" points="2711.7,-266.43 2720.34,-260.3 2709.76,-259.7 2711.7,-266.43"/>
</g>
<!-- node_0x5eb41b24c810 -->
<g id="node13" class="node">
<title>node_0x5eb41b24c810</title>
<polygon fill="blue" stroke="black" points="1692.25,-148.5 1692.25,-185.5 2089.5,-185.5 2089.5,-148.5 1692.25,-148.5"/>
<text text-anchor="middle" x="1890.88" y="-172.95" font-family="Times,serif" font-size="9.00">30</text>
<polyline fill="none" stroke="black" points="1692.25,-167 2089.5,-167"/>
<text text-anchor="middle" x="1729.88" y="-154.45" font-family="Times,serif" font-size="9.00">type = 1 (NUM)</text>
<polyline fill="none" stroke="black" points="1767.5,-148.5 1767.5,-167"/>
<text text-anchor="middle" x="1793.5" y="-154.45" font-family="Times,serif" font-size="9.00">left = (nil)</text>
<polyline fill="none" stroke="black" points="1819.5,-148.5 1819.5,-167"/>
<text text-anchor="middle" x="1871.75" y="-154.45" font-family="Times,serif" font-size="9.00">node = 0x5eb41b24c810</text>
<polyline fill="none" stroke="black" points="1924,-148.5 1924,-167"/>
<text text-anchor="middle" x="1978.5" y="-154.45" font-family="Times,serif" font-size="9.00">parent = 0x5eb41b24c7d0</text>
<polyline fill="none" stroke="black" points="2033,-148.5 2033,-167"/>
<text text-anchor="middle" x="2061.25" y="-154.45" font-family="Times,serif" font-size="9.00">right = (nil)</text>
</g>
<!-- node_0x5eb41b24c7d0&#45;&gt;node_0x5eb41b24c810 -->
<g id="edge12" class="edge">
<title>node_0x5eb41b24c7d0&#45;&gt;node_0x5eb41b24c810</title>
<path fill="none" stroke="black" d="M2186.47,-222.02C2129.83,-211.67 2058.55,-198.64 2000.17,-187.97"/>
<polygon fill="black" stroke="black" points="2001.01,-184.57 1990.54,-186.21 1999.75,-191.45 2001.01,-184.57"/>
</g>
<!-- node_0x5eb41b24c850 -->
<g id="node14" class="node">
<title>node_0x5eb41b24c850</title>
<polygon fill="blue" stroke="black" points="2107.25,-148.5 2107.25,-185.5 2504.5,-185.5 2504.5,-148.5 2107.25,-148.5"/>
<text text-anchor="middle" x="2305.88" y="-172.95" font-family="Times,serif" font-size="9.00">50</text>
<polyline fill="none" stroke="black" points="2107.25,-167 2504.5,-167"/>
<text text-anchor="middle" x="2144.88" y="-154.45" font-family="Times,serif" font-size="9.00">type = 1 (NUM)</text>
<polyline fill="none" stroke="black" points="2182.5,-148.5 2182.5,-167"/>
<text text-anchor="middle" x="2208.5" y="-154.45" font-family="Times,serif" font-size="9.00">left = (nil)</text>
<polyline fill="none" stroke="black" points="2234.5,-148.5 2234.5,-167"/>
<text text-anchor="middle" x="2286.75" y="-154.45" font-family="Times,serif" font-size="9.00">node = 0x5eb41b24c850</text>
<polyline fill="none" stroke="black" points="2339,-148.5 2339,-167"/>
<text text-anchor="middle" x="2393.5" y="-154.45" font-family="Times,serif" font-size="9.00">parent = 0x5eb41b24c7d0</text>
<polyline fill="none" stroke="black" points="2448,-148.5 2448,-167"/>
<text text-anchor="middle" x="2476.25" y="-154.45" font-family="Times,serif" font-size="9.00">right = (nil)</text>
</g>
<!-- node_0x5eb41b24c7d0&#45;&gt;node_0x5eb41b24c850 -->
<g id="edge13" class="edge">
<title>node_0x5eb41b24c7d0&#45;&gt;node_0x5eb41b24c850</title>
<path fill="none" stroke="black" d="M2290.07,-222.2C2292.31,-214.5 2295,-205.29 2297.51,-196.67"/>
<polygon fill="black" stroke="black" points="2300.81,-197.88 2300.25,-187.3 2294.09,-195.92 2300.81,-197.88"/>
</g>
<!-- node_0x5eb41b24c750 -->
<g id="node16" class="node">
<title>node_0x5eb41b24c750</title>
<polygon fill="#bdef9e" stroke="black" points="2522.62,-148.5 2522.62,-185.5 3003.12,-185.5 3003.12,-148.5 2522.62,-148.5"/>
<text text-anchor="middle" x="2762.88" y="-172.95" font-family="Times,serif" font-size="9.00">*</text>
<polyline fill="none" stroke="black" points="2522.62,-167 3003.12,-167"/>
<text text-anchor="middle" x="2555.38" y="-154.45" font-family="Times,serif" font-size="9.00">type = 3 (OP)</text>
<polyline fill="none" stroke="black" points="2588.12,-148.5 2588.12,-167"/>
<text text-anchor="middle" x="2637.38" y="-154.45" font-family="Times,serif" font-size="9.00">left = 0x5eb41b24c710</text>
<polyline fill="none" stroke="black" points="2686.62,-148.5 2686.62,-167"/>
<text text-anchor="middle" x="2738.88" y="-154.45" font-family="Times,serif" font-size="9.00">node = 0x5eb41b24c750</text>
<polyline fill="none" stroke="black" points="2791.12,-148.5 2791.12,-167"/>
<text text-anchor="middle" x="2845.62" y="-154.45" font-family="Times,serif" font-size="9.00">parent = 0x5eb41b24c790</text>
<polyline fill="none" stroke="black" points="2900.12,-148.5 2900.12,-167"/>
<text text-anchor="middle" x="2951.62" y="-154.45" font-family="Times,serif" font-size="9.00">right = 0x5eb41b24c690</text>
</g>
<!-- node_0x5eb41b24c790&#45;&gt;node_0x5eb41b24c750 -->
<g id="edge15" class="edge">
<title>node_0x5eb41b24c790&#45;&gt;node_0x5eb41b24c750</title>
<path fill="none" stroke="black" d="M2778.68,-222.2C2776.44,-214.5 2773.75,-205.29 2771.24,-196.67"/>
<polygon fill="black" stroke="black" points="2774.66,-195.92 2768.5,-187.3 2767.94,-197.88 2774.66,-195.92"/>
</g>
<!-- node_0x5eb41b24c650 -->
<g id="node20" class="node">
<title>node_0x5eb41b24c650</title>
<polygon fill="blue" stroke="black" points="3021.25,-148.5 3021.25,-185.5 3418.5,-185.5 3418.5,-148.5 3021.25,-148.5"/>
<text text-anchor="middle" x="3219.88" y="-172.95" font-family="Times,serif" font-size="9.00">1</text>
<polyline fill="none" stroke="black" points="3021.25,-167 3418.5,-167"/>
<text text-anchor="middle" x="3058.88" y="-154.45" font-family="Times,serif" font-size="9.00">type = 1 (NUM)</text>
<polyline fill="none" stroke="black" points="3096.5,-148.5 3096.5,-167"/>
<text text-anchor="middle" x="3122.5" y="-154.45" font-family="Times,serif" font-size="9.00">left = (nil)</text>
<polyline fill="none" stroke="black" points="3148.5,-148.5 3148.5,-167"/>
<text text-anchor="middle" x="3200.75" y="-154.45" font-family="Times,serif" font-size="9.00">node = 0x5eb41b24c650</text>
<polyline fill="none" stroke="black" points="3253,-148.5 3253,-167"/>
<text text-anchor="middle" x="3307.5" y="-154.45" font-family="Times,serif" font-size="9.00">parent = 0x5eb41b24c790</text>
<polyline fill="none" stroke="black" points="3362,-148.5 3362,-167"/>
<text text-anchor="middle" x="3390.25" y="-154.45" font-family="Times,serif" font-size="9.00">right = (nil)</text>
</g>
<!-- node_0x5eb41b24c790&#45;&gt;node_0x5eb41b24c650 -->
<g id="edge19" class="edge">
<title>node_0x5eb41b24c790&#45;&gt;node_0x5eb41b24c650</title>
<path fill="none" stroke="black" d="M2892.77,-222.02C2955.84,-211.6 3035.32,-198.48 3100.14,-187.77"/>
<polygon fill="black" stroke="black" points="3100.44,-191.27 3109.74,-186.19 3099.3,-184.36 3100.44,-191.27"/>
</g>
<!-- node_0x5eb41b24c710 -->
<g id="node17" class="node">
<title>node_0x5eb41b24c710</title>
<polygon fill="#bdef9e" stroke="black" points="2328.88,-74.5 2328.88,-111.5 2762.88,-111.5 2762.88,-74.5 2328.88,-74.5"/>
<text text-anchor="middle" x="2545.88" y="-98.95" font-family="Times,serif" font-size="9.00">cos</text>
<polyline fill="none" stroke="black" points="2328.88,-93 2762.88,-93"/>
<text text-anchor="middle" x="2361.62" y="-80.45" font-family="Times,serif" font-size="9.00">type = 3 (OP)</text>
<polyline fill="none" stroke="black" points="2394.38,-74.5 2394.38,-93"/>
<text text-anchor="middle" x="2420.38" y="-80.45" font-family="Times,serif" font-size="9.00">left = (nil)</text>
<polyline fill="none" stroke="black" points="2446.38,-74.5 2446.38,-93"/>
<text text-anchor="middle" x="2498.62" y="-80.45" font-family="Times,serif" font-size="9.00">node = 0x5eb41b24c710</text>
<polyline fill="none" stroke="black" points="2550.88,-74.5 2550.88,-93"/>
<text text-anchor="middle" x="2605.38" y="-80.45" font-family="Times,serif" font-size="9.00">parent = 0x5eb41b24c750</text>
<polyline fill="none" stroke="black" points="2659.88,-74.5 2659.88,-93"/>
<text text-anchor="middle" x="2711.38" y="-80.45" font-family="Times,serif" font-size="9.00">right = 0x5eb41b24c6d0</text>
</g>
<!-- node_0x5eb41b24c750&#45;&gt;node_0x5eb41b24c710 -->
<g id="edge16" class="edge">
<title>node_0x5eb41b24c750&#45;&gt;node_0x5eb41b24c710</title>
<path fill="none" stroke="black" d="M2708.68,-148.02C2678.92,-138.14 2641.82,-125.83 2610.55,-115.46"/>
<polygon fill="black" stroke="black" points="2611.79,-112.18 2601.19,-112.35 2609.58,-118.83 2611.79,-112.18"/>
</g>
<!-- node_0x5eb41b24c690 -->
<g id="node19" class="node">
<title>node_0x5eb41b24c690</title>
<polygon fill="blue" stroke="black" points="2781.25,-74.5 2781.25,-111.5 3178.5,-111.5 3178.5,-74.5 2781.25,-74.5"/>
<text text-anchor="middle" x="2979.88" y="-98.95" font-family="Times,serif" font-size="9.00">1</text>
<polyline fill="none" stroke="black" points="2781.25,-93 3178.5,-93"/>
<text text-anchor="middle" x="2818.88" y="-80.45" font-family="Times,serif" font-size="9.00">type = 1 (NUM)</text>
<polyline fill="none" stroke="black" points="2856.5,-74.5 2856.5,-93"/>
<text text-anchor="middle" x="2882.5" y="-80.45" font-family="Times,serif" font-size="9.00">left = (nil)</text>
<polyline fill="none" stroke="black" points="2908.5,-74.5 2908.5,-93"/>
<text text-anchor="middle" x="2960.75" y="-80.45" font-family="Times,serif" font-size="9.00">node = 0x5eb41b24c690</text>
<polyline fill="none" stroke="black" points="3013,-74.5 3013,-93"/>
<text text-anchor="middle" x="3067.5" y="-80.45" font-family="Times,serif" font-size="9.00">parent = 0x5eb41b24c750</text>
<polyline fill="none" stroke="black" points="3122,-74.5 3122,-93"/>
<text text-anchor="middle" x="3150.25" y="-80.45" font-family="Times,serif" font-size="9.00">right = (nil)</text>
</g>
<!-- node_0x5eb41b24c750&#45;&gt;node_0x5eb41b24c690 -->
<g id="edge18" class="edge">
<title>node_0x5eb41b24c750&#45;&gt;node_0x5eb41b24c690</title>
<path fill="none" stroke="black" d="M2817.07,-148.02C2846.83,-138.14 2883.93,-125.83 2915.2,-115.46"/>
<polygon fill="black" stroke="black" points="2916.17,-118.83 2924.56,-112.35 2913.96,-112.18 2916.17,-118.83"/>
</g>
<!-- node_0x5eb41b24c6d0 -->
<g id="node18" class="node">
<title>node_0x5eb41b24c6d0</title>
<polygon fill="yellow" stroke="black" points="2348.75,-0.5 2348.75,-37.5 2743,-37.5 2743,-0.5 2348.75,-0.5"/>
<text text-anchor="middle" x="2545.88" y="-24.95" font-family="Times,serif" font-size="9.00">x</text>
<polyline fill="none" stroke="black" points="2348.75,-19 2743,-19"/>
<text text-anchor="middle" x="2384.88" y="-6.45" font-family="Times,serif" font-size="9.00">type = 2 (VAR)</text>
<polyline fill="none" stroke="black" points="2421,-0.5 2421,-19"/>
<text text-anchor="middle" x="2447" y="-6.45" font-family="Times,serif" font-size="9.00">left = (nil)</text>
<polyline fill="none" stroke="black" points="2473,-0.5 2473,-19"/>
<text text-anchor="middle" x="2525.25" y="-6.45" font-family="Times,serif" font-size="9.00">node = 0x5eb41b24c6d0</text>
<polyline fill="none" stroke="black" points="2577.5,-0.5 2577.5,-19"/>
<text text-anchor="middle" x="2632" y="-6.45" font-family="Times,serif" font-size="9.00">parent = 0x5eb41b24c710</text>
<polyline fill="none" stroke="black" points="2686.5,-0.5 2686.5,-19"/>
<text text-anchor="middle" x="2714.75" y="-6.45" font-family="Times,serif" font-size="9.00">right = (nil)</text>
</g>
<!-- node_0x5eb41b24c710&#45;&gt;node_0x5eb41b24c6d0 -->
<g id="edge17" class="edge">
<title>node_0x5eb41b24c710&#45;&gt;node_0x5eb41b24c6d0</title>
<path fill="none" stroke="black" d="M2545.88,-74.2C2545.88,-66.67 2545.88,-57.7 2545.88,-49.25"/>
<polygon fill="black" stroke="black" points="2549.38,-49.36 2545.88,-39.36 2542.38,-49.36 2549.38,-49.36"/>
</g>
<!-- node_0x5eb41b24c510 -->
<g id="node22" class="node">
<title>node_0x5eb41b24c510</title>
<polygon fill="#bdef9e" stroke="black" points="3398.62,-296.5 3398.62,-333.5 3879.12,-333.5 3879.12,-296.5 3398.62,-296.5"/>
<text text-anchor="middle" x="3638.88" y="-320.95" font-family="Times,serif" font-size="9.00">+</text>
<polyline fill="none" stroke="black" points="3398.62,-315 3879.12,-315"/>
<text text-anchor="middle" x="3431.38" y="-302.45" font-family="Times,serif" font-size="9.00">type = 3 (OP)</text>
<polyline fill="none" stroke="black" points="3464.12,-296.5 3464.12,-315"/>
<text text-anchor="middle" x="3513.38" y="-302.45" font-family="Times,serif" font-size="9.00">left = 0x5eb41b24c550</text>
<polyline fill="none" stroke="black" points="3562.62,-296.5 3562.62,-315"/>
<text text-anchor="middle" x="3614.88" y="-302.45" font-family="Times,serif" font-size="9.00">node = 0x5eb41b24c510</text>
<polyline fill="none" stroke="black" points="3667.12,-296.5 3667.12,-315"/>
<text text-anchor="middle" x="3721.62" y="-302.45" font-family="Times,serif" font-size="9.00">parent = 0x5eb41b24c610</text>
<polyline fill="none" stroke="black" points="3776.12,-296.5 3776.12,-315"/>
<text text-anchor="middle" x="3827.62" y="-302.45" font-family="Times,serif" font-size="9.00">right = 0x5eb41b24c5d0</text>
</g>
<!-- node_0x5eb41b24c610&#45;&gt;node_0x5eb41b24c510 -->
<g id="edge21" class="edge">
<title>node_0x5eb41b24c610&#45;&gt;node_0x5eb41b24c510</title>
<path fill="none" stroke="black" d="M3638.88,-370.2C3638.88,-362.67 3638.88,-353.7 3638.88,-345.25"/>
<polygon fill="black" stroke="black" points="3642.38,-345.36 3638.88,-335.36 3635.38,-345.36 3642.38,-345.36"/>
</g>
<!-- node_0x5eb41b24c410 -->
<g id="node26" class="node">
<title>node_0x5eb41b24c410</title>
<polygon fill="#bdef9e" stroke="black" points="4080.62,-296.5 4080.62,-333.5 4561.12,-333.5 4561.12,-296.5 4080.62,-296.5"/>
<text text-anchor="middle" x="4320.88" y="-320.95" font-family="Times,serif" font-size="9.00">+</text>
<polyline fill="none" stroke="black" points="4080.62,-315 4561.12,-315"/>
<text text-anchor="middle" x="4113.38" y="-302.45" font-family="Times,serif" font-size="9.00">type = 3 (OP)</text>
<polyline fill="none" stroke="black" points="4146.12,-296.5 4146.12,-315"/>
<text text-anchor="middle" x="4195.38" y="-302.45" font-family="Times,serif" font-size="9.00">left = 0x5eb41b24c450</text>
<polyline fill="none" stroke="black" points="4244.62,-296.5 4244.62,-315"/>
<text text-anchor="middle" x="4296.88" y="-302.45" font-family="Times,serif" font-size="9.00">node = 0x5eb41b24c410</text>
<polyline fill="none" stroke="black" points="4349.12,-296.5 4349.12,-315"/>
<text text-anchor="middle" x="4403.62" y="-302.45" font-family="Times,serif" font-size="9.00">parent = 0x5eb41b24c610</text>
<polyline fill="none" stroke="black" points="4458.12,-296.5 4458.12,-315"/>
<text text-anchor="middle" x="4509.62" y="-302.45" font-family="Times,serif" font-size="9.00">right = 0x5eb41b24c4d0</text>
</g>
<!-- node_0x5eb41b24c610&#45;&gt;node_0x5eb41b24c410 -->
<g id="edge25" class="edge">
<title>node_0x5eb41b24c610&#45;&gt;node_0x5eb41b24c410</title>
<path fill="none" stroke="black" d="M3809.21,-370.02C3909.7,-359.41 4036.83,-345.99 4139.23,-335.18"/>
<polygon fill="black" stroke="black" points="4139.56,-338.66 4149.14,-334.13 4138.82,-331.7 4139.56,-338.66"/>
</g>
<!-- node_0x5eb41b24c550 -->
<g id="node23" class="node">
<title>node_0x5eb41b24c550</title>
<polygon fill="#bdef9e" stroke="black" points="3239.88,-222.5 3239.88,-259.5 3673.88,-259.5 3673.88,-222.5 3239.88,-222.5"/>
<text text-anchor="middle" x="3456.88" y="-246.95" font-family="Times,serif" font-size="9.00">sin</text>
<polyline fill="none" stroke="black" points="3239.88,-241 3673.88,-241"/>
<text text-anchor="middle" x="3272.62" y="-228.45" font-family="Times,serif" font-size="9.00">type = 3 (OP)</text>
<polyline fill="none" stroke="black" points="3305.38,-222.5 3305.38,-241"/>
<text text-anchor="middle" x="3331.38" y="-228.45" font-family="Times,serif" font-size="9.00">left = (nil)</text>
<polyline fill="none" stroke="black" points="3357.38,-222.5 3357.38,-241"/>
<text text-anchor="middle" x="3409.62" y="-228.45" font-family="Times,serif" font-size="9.00">node = 0x5eb41b24c550</text>
<polyline fill="none" stroke="black" points="3461.88,-222.5 3461.88,-241"/>
<text text-anchor="middle" x="3516.38" y="-228.45" font-family="Times,serif" font-size="9.00">parent = 0x5eb41b24c510</text>
<polyline fill="none" stroke="black" points="3570.88,-222.5 3570.88,-241"/>
<text text-anchor="middle" x="3622.38" y="-228.45" font-family="Times,serif" font-size="9.00">right = 0x5eb41b24c590</text>
</g>
<!-- node_0x5eb41b24c510&#45;&gt;node_0x5eb41b24c550 -->
<g id="edge22" class="edge">
<title>node_0x5eb41b24c510&#45;&gt;node_0x5eb41b24c550</title>
<path fill="none" stroke="black" d="M3593.42,-296.02C3568.9,-286.32 3538.43,-274.26 3512.5,-264.01"/>
<polygon fill="black" stroke="black" points="3514.06,-260.86 3503.47,-260.44 3511.49,-267.37 3514.06,-260.86"/>
</g>
<!-- node_0x5eb41b24c5d0 -->
<g id="node25" class="node">
<title>node_0x5eb41b24c5d0</title>
<polygon fill="yellow" stroke="black" points="3691.75,-222.5 3691.75,-259.5 4086,-259.5 4086,-222.5 3691.75,-222.5"/>
<text text-anchor="middle" x="3888.88" y="-246.95" font-family="Times,serif" font-size="9.00">x</text>
<polyline fill="none" stroke="black" points="3691.75,-241 4086,-241"/>
<text text-anchor="middle" x="3727.88" y="-228.45" font-family="Times,serif" font-size="9.00">type = 2 (VAR)</text>
<polyline fill="none" stroke="black" points="3764,-222.5 3764,-241"/>
<text text-anchor="middle" x="3790" y="-228.45" font-family="Times,serif" font-size="9.00">left = (nil)</text>
<polyline fill="none" stroke="black" points="3816,-222.5 3816,-241"/>
<text text-anchor="middle" x="3868.25" y="-228.45" font-family="Times,serif" font-size="9.00">node = 0x5eb41b24c5d0</text>
<polyline fill="none" stroke="black" points="3920.5,-222.5 3920.5,-241"/>
<text text-anchor="middle" x="3975" y="-228.45" font-family="Times,serif" font-size="9.00">parent = 0x5eb41b24c510</text>
<polyline fill="none" stroke="black" points="4029.5,-222.5 4029.5,-241"/>
<text text-anchor="middle" x="4057.75" y="-228.45" font-family="Times,serif" font-size="9.00">right = (nil)</text>
</g>
<!-- node_0x5eb41b24c510&#45;&gt;node_0x5eb41b24c5d0 -->
<g id="edge24" class="edge">
<title>node_0x5eb41b24c510&#45;&gt;node_0x5eb41b24c5d0</title>
<path fill="none" stroke="black" d="M3701.32,-296.02C3736.05,-286.01 3779.46,-273.51 3815.77,-263.05"/>
<polygon fill="black" stroke="black" points="3816.7,-266.43 3825.34,-260.3 3814.76,-259.7 3816.7,-266.43"/>
</g>
<!-- node_0x5eb41b24c590 -->
<g id="node24" class="node">
<title>node_0x5eb41b24c590</title>
<polygon fill="yellow" stroke="black" points="3436.75,-148.5 3436.75,-185.5 3831,-185.5 3831,-148.5 3436.75,-148.5"/>
<text text-anchor="middle" x="3633.88" y="-172.95" font-family="Times,serif" font-size="9.00">x</text>
<polyline fill="none" stroke="black" points="3436.75,-167 3831,-167"/>
<text text-anchor="middle" x="3472.88" y="-154.45" font-family="Times,serif" font-size="9.00">type = 2 (VAR)</text>
<polyline fill="none" stroke="black" points="3509,-148.5 3509,-167"/>
<text text-anchor="middle" x="3535" y="-154.45" font-family="Times,serif" font-size="9.00">left = (nil)</text>
<polyline fill="none" stroke="black" points="3561,-148.5 3561,-167"/>
<text text-anchor="middle" x="3613.25" y="-154.45" font-family="Times,serif" font-size="9.00">node = 0x5eb41b24c590</text>
<polyline fill="none" stroke="black" points="3665.5,-148.5 3665.5,-167"/>
<text text-anchor="middle" x="3720" y="-154.45" font-family="Times,serif" font-size="9.00">parent = 0x5eb41b24c550</text>
<polyline fill="none" stroke="black" points="3774.5,-148.5 3774.5,-167"/>
<text text-anchor="middle" x="3802.75" y="-154.45" font-family="Times,serif" font-size="9.00">right = (nil)</text>
</g>
<!-- node_0x5eb41b24c550&#45;&gt;node_0x5eb41b24c590 -->
<g id="edge23" class="edge">
<title>node_0x5eb41b24c550&#45;&gt;node_0x5eb41b24c590</title>
<path fill="none" stroke="black" d="M3501.08,-222.02C3524.83,-212.36 3554.3,-200.37 3579.44,-190.14"/>
<polygon fill="black" stroke="black" points="3580.58,-193.46 3588.52,-186.45 3577.94,-186.97 3580.58,-193.46"/>
</g>
<!-- node_0x5eb41b24c450 -->
<g id="node27" class="node">
<title>node_0x5eb41b24c450</title>
<polygon fill="#bdef9e" stroke="black" points="4103.88,-222.5 4103.88,-259.5 4537.88,-259.5 4537.88,-222.5 4103.88,-222.5"/>
<text text-anchor="middle" x="4320.88" y="-246.95" font-family="Times,serif" font-size="9.00">sin</text>
<polyline fill="none" stroke="black" points="4103.88,-241 4537.88,-241"/>
<text text-anchor="middle" x="4136.62" y="-228.45" font-family="Times,serif" font-size="9.00">type = 3 (OP)</text>
<polyline fill="none" stroke="black" points="4169.38,-222.5 4169.38,-241"/>
<text text-anchor="middle" x="4195.38" y="-228.45" font-family="Times,serif" font-size="9.00">left = (nil)</text>
<polyline fill="none" stroke="black" points="4221.38,-222.5 4221.38,-241"/>
<text text-anchor="middle" x="4273.62" y="-228.45" font-family="Times,serif" font-size="9.00">node = 0x5eb41b24c450</text>
<polyline fill="none" stroke="black" points="4325.88,-222.5 4325.88,-241"/>
<text text-anchor="middle" x="4380.38" y="-228.45" font-family="Times,serif" font-size="9.00">parent = 0x5eb41b24c410</text>
<polyline fill="none" stroke="black" points="4434.88,-222.5 4434.88,-241"/>
<text text-anchor="middle" x="4486.38" y="-228.45" font-family="Times,serif" font-size="9.00">right = 0x5eb41b24c490</text>
</g>
<!-- node_0x5eb41b24c410&#45;&gt;node_0x5eb41b24c450 -->
<g id="edge26" class="edge">
<title>node_0x5eb41b24c410&#45;&gt;node_0x5eb41b24c450</title>
<path fill="none" stroke="black" d="M4320.88,-296.2C4320.88,-288.67 4320.88,-279.7 4320.88,-271.25"/>
<polygon fill="black" stroke="black" points="4324.38,-271.36 4320.88,-261.36 4317.38,-271.36 4324.38,-271.36"/>
</g>
<!-- node_0x5eb41b24c4d0 -->
<g id="node29" class="node">
<title>node_0x5eb41b24c4d0</title>
<polygon fill="yellow" stroke="black" points="4555.75,-222.5 4555.75,-259.5 4950,-259.5 4950,-222.5 4555.75,-222.5"/>
<text text-anchor="middle" x="4752.88" y="-246.95" font-family="Times,serif" font-size="9.00">x</text>
<polyline fill="none" stroke="black" points="4555.75,-241 4950,-241"/>
<text text-anchor="middle" x="4591.88" y="-228.45" font-family="Times,serif" font-size="9.00">type = 2 (VAR)</text>
<polyline fill="none" stroke="black" points="4628,-222.5 4628,-241"/>
<text text-anchor="middle" x="4654" y="-228.45" font-family="Times,serif" font-size="9.00">left = (nil)</text>
<polyline fill="none" stroke="black" points="4680,-222.5 4680,-241"/>
<text text-anchor="middle" x="4732.25" y="-228.45" font-family="Times,serif" font-size="9.00">node = 0x5eb41b24c4d0</text>
<polyline fill="none" stroke="black" points="4784.5,-222.5 4784.5,-241"/>
<text text-anchor="middle" x="4839" y="-228.45" font-family="Times,serif" font-size="9.00">parent = 0x5eb41b24c410</text>
<polyline fill="none" stroke="black" points="4893.5,-222.5 4893.5,-241"/>
<text text-anchor="middle" x="4921.75" y="-228.45" font-family="Times,serif" font-size="9.00">right = (nil)</text>
</g>
<!-- node_0x5eb41b24c410&#45;&gt;node_0x5eb41b24c4d0 -->
<g id="edge28" class="edge">
<title>node_0x5eb41b24c410&#45;&gt;node_0x5eb41b24c4d0</title>
<path fill="none" stroke="black" d="M4428.77,-296.02C4491.26,-285.6 4570.01,-272.48 4634.24,-261.77"/>
<polygon fill="black" stroke="black" points="4634.45,-265.29 4643.74,-260.19 4633.3,-258.38 4634.45,-265.29"/>
</g>
<!-- node_0x5eb41b24c490 -->
<g id="node28" class="node">
<title>node_0x5eb41b24c490</title>
<polygon fill="yellow" stroke="black" points="4123.75,-148.5 4123.75,-185.5 4518,-185.5 4518,-148.5 4123.75,-148.5"/>
<text text-anchor="middle" x="4320.88" y="-172.95" font-family="Times,serif" font-size="9.00">x</text>
<polyline fill="none" stroke="black" points="4123.75,-167 4518,-167"/>
<text text-anchor="middle" x="4159.88" y="-154.45" font-family="Times,serif" font-size="9.00">type = 2 (VAR)</text>
<polyline fill="none" stroke="black" points="4196,-148.5 4196,-167"/>
<text text-anchor="middle" x="4222" y="-154.45" font-family="Times,serif" font-size="9.00">left = (nil)</text>
<polyline fill="none" stroke="black" points="4248,-148.5 4248,-167"/>
<text text-anchor="middle" x="4300.25" y="-154.45" font-family="Times,serif" font-size="9.00">node = 0x5eb41b24c490</text>
<polyline fill="none" stroke="black" points="4352.5,-148.5 4352.5,-167"/>
<text text-anchor="middle" x="4407" y="-154.45" font-family="Times,serif" font-size="9.00">parent = 0x5eb41b24c450</text>
<polyline fill="none" stroke="black" points="4461.5,-148.5 4461.5,-167"/>
<text text-anchor="middle" x="4489.75" y="-154.45" font-family="Times,serif" font-size="9.00">right = (nil)</text>
</g>
<!-- node_0x5eb41b24c450&#45;&gt;node_0x5eb41b24c490 -->
<g id="edge27" class="edge">
<title>node_0x5eb41b24c450&#45;&gt;node_0x5eb41b24c490</title>
<path fill="none" stroke="black" d="M4320.88,-222.2C4320.88,-214.67 4320.88,-205.7 4320.88,-197.25"/>
<polygon fill="black" stroke="black" points="4324.38,-197.36 4320.88,-187.36 4317.38,-197.36 4324.38,-197.36"/>
</g>
</g>
</svg>
