<?xml version="1.0" encoding="UTF-8" standalone="no"?>
<!DOCTYPE svg PUBLIC "-//W3C//DTD SVG 1.1//EN"
 "http://www.w3.org/Graphics/SVG/1.1/DTD/svg11.dtd">
<!-- Generated by graphviz version 12.1.2 (0)
 -->
<!-- Pages: 1 -->
<svg width="1717pt" height="268pt"
 viewBox="0.00 0.00 1716.75 268.00" xmlns="http://www.w3.org/2000/svg" xmlns:xlink="http://www.w3.org/1999/xlink">
<g id="graph0" class="graph" transform="scale(1 1) rotate(0) translate(4 264)">
<polygon fill="white" stroke="none" points="-4,4 -4,-264 1712.75,-264 1712.75,4 -4,4"/>
<!-- node_0x5eb41b24c210 -->
<g id="node1" class="node">
<title>node_0x5eb41b24c210</title>
<polygon fill="#bdef9e" stroke="black" points="628.62,-222.5 628.62,-259.5 1062.62,-259.5 1062.62,-222.5 628.62,-222.5"/>
<text text-anchor="middle" x="845.62" y="-246.95" font-family="Times,serif" font-size="9.00">/</text>
<polyline fill="none" stroke="black" points="628.62,-241 1062.62,-241"/>
<text text-anchor="middle" x="661.38" y="-228.45" font-family="Times,serif" font-size="9.00">type = 3 (OP)</text>
<polyline fill="none" stroke="black" points="694.12,-222.5 694.12,-241"/>
<text text-anchor="middle" x="743.38" y="-228.45" font-family="Times,serif" font-size="9.00">left = 0x5eb41b24c250</text>
<polyline fill="none" stroke="black" points="792.62,-222.5 792.62,-241"/>
<text text-anchor="middle" x="844.88" y="-228.45" font-family="Times,serif" font-size="9.00">node = 0x5eb41b24c210</text>
<polyline fill="none" stroke="black" points="897.12,-222.5 897.12,-241"/>
<text text-anchor="middle" x="928.38" y="-228.45" font-family="Times,serif" font-size="9.00">parent = (nil)</text>
<polyline fill="none" stroke="black" points="959.62,-222.5 959.62,-241"/>
<text text-anchor="middle" x="1011.12" y="-228.45" font-family="Times,serif" font-size="9.00">right = 0x5eb41b24c310</text>
</g>
<!-- node_0x5eb41b24c250 -->
<g id="node2" class="node">
<title>node_0x5eb41b24c250</title>
<polygon fill="#bdef9e" stroke="black" points="356.38,-148.5 356.38,-185.5 836.88,-185.5 836.88,-148.5 356.38,-148.5"/>
<text text-anchor="middle" x="596.62" y="-172.95" font-family="Times,serif" font-size="9.00">+</text>
<polyline fill="none" stroke="black" points="356.38,-167 836.88,-167"/>
<text text-anchor="middle" x="389.12" y="-154.45" font-family="Times,serif" font-size="9.00">type = 3 (OP)</text>
<polyline fill="none" stroke="black" points="421.88,-148.5 421.88,-167"/>
<text text-anchor="middle" x="471.12" y="-154.45" font-family="Times,serif" font-size="9.00">left = 0x5eb41b24c290</text>
<polyline fill="none" stroke="black" points="520.38,-148.5 520.38,-167"/>
<text text-anchor="middle" x="572.62" y="-154.45" font-family="Times,serif" font-size="9.00">node = 0x5eb41b24c250</text>
<polyline fill="none" stroke="black" points="624.88,-148.5 624.88,-167"/>
<text text-anchor="middle" x="679.38" y="-154.45" font-family="Times,serif" font-size="9.00">parent = 0x5eb41b24c210</text>
<polyline fill="none" stroke="black" points="733.88,-148.5 733.88,-167"/>
<text text-anchor="middle" x="785.38" y="-154.45" font-family="Times,serif" font-size="9.00">right = 0x5eb41b24c2d0</text>
</g>
<!-- node_0x5eb41b24c210&#45;&gt;node_0x5eb41b24c250 -->
<g id="edge1" class="edge">
<title>node_0x5eb41b24c210&#45;&gt;node_0x5eb41b24c250</title>
<path fill="none" stroke="black" d="M783.43,-222.02C748.84,-212.01 705.6,-199.51 669.43,-189.05"/>
<polygon fill="black" stroke="black" points="670.49,-185.71 659.91,-186.3 668.54,-192.44 670.49,-185.71"/>
</g>
<!-- node_0x5eb41b24c310 -->
<g id="node5" class="node">
<title>node_0x5eb41b24c310</title>
<polygon fill="#bdef9e" stroke="black" points="855.38,-148.5 855.38,-185.5 1335.88,-185.5 1335.88,-148.5 855.38,-148.5"/>
<text text-anchor="middle" x="1095.62" y="-172.95" font-family="Times,serif" font-size="9.00">+</text>
<polyline fill="none" stroke="black" points="855.38,-167 1335.88,-167"/>
<text text-anchor="middle" x="888.12" y="-154.45" font-family="Times,serif" font-size="9.00">type = 3 (OP)</text>
<polyline fill="none" stroke="black" points="920.88,-148.5 920.88,-167"/>
<text text-anchor="middle" x="970.12" y="-154.45" font-family="Times,serif" font-size="9.00">left = 0x5eb41b24c350</text>
<polyline fill="none" stroke="black" points="1019.38,-148.5 1019.38,-167"/>
<text text-anchor="middle" x="1071.62" y="-154.45" font-family="Times,serif" font-size="9.00">node = 0x5eb41b24c310</text>
<polyline fill="none" stroke="black" points="1123.88,-148.5 1123.88,-167"/>
<text text-anchor="middle" x="1178.38" y="-154.45" font-family="Times,serif" font-size="9.00">parent = 0x5eb41b24c210</text>
<polyline fill="none" stroke="black" points="1232.88,-148.5 1232.88,-167"/>
<text text-anchor="middle" x="1284.38" y="-154.45" font-family="Times,serif" font-size="9.00">right = 0x5eb41b24c3d0</text>
</g>
<!-- node_0x5eb41b24c210&#45;&gt;node_0x5eb41b24c310 -->
<g id="edge4" class="edge">
<title>node_0x5eb41b24c210&#45;&gt;node_0x5eb41b24c310</title>
<path fill="none" stroke="black" d="M908.07,-222.02C942.8,-212.01 986.21,-199.51 1022.52,-189.05"/>
<polygon fill="black" stroke="black" points="1023.45,-192.43 1032.09,-186.3 1021.51,-185.7 1023.45,-192.43"/>
</g>
<!-- node_0x5eb41b24c290 -->
<g id="node3" class="node">
<title>node_0x5eb41b24c290</title>
<polygon fill="blue" stroke="black" points="0,-74.5 0,-111.5 397.25,-111.5 397.25,-74.5 0,-74.5"/>
<text text-anchor="middle" x="198.62" y="-98.95" font-family="Times,serif" font-size="9.00">30</text>
<polyline fill="none" stroke="black" points="0,-93 397.25,-93"/>
<text text-anchor="middle" x="37.62" y="-80.45" font-family="Times,serif" font-size="9.00">type = 1 (NUM)</text>
<polyline fill="none" stroke="black" points="75.25,-74.5 75.25,-93"/>
<text text-anchor="middle" x="101.25" y="-80.45" font-family="Times,serif" font-size="9.00">left = (nil)</text>
<polyline fill="none" stroke="black" points="127.25,-74.5 127.25,-93"/>
<text text-anchor="middle" x="179.5" y="-80.45" font-family="Times,serif" font-size="9.00">node = 0x5eb41b24c290</text>
<polyline fill="none" stroke="black" points="231.75,-74.5 231.75,-93"/>
<text text-anchor="middle" x="286.25" y="-80.45" font-family="Times,serif" font-size="9.00">parent = 0x5eb41b24c250</text>
<polyline fill="none" stroke="black" points="340.75,-74.5 340.75,-93"/>
<text text-anchor="middle" x="369" y="-80.45" font-family="Times,serif" font-size="9.00">right = (nil)</text>
</g>
<!-- node_0x5eb41b24c250&#45;&gt;node_0x5eb41b24c290 -->
<g id="edge2" class="edge">
<title>node_0x5eb41b24c250&#45;&gt;node_0x5eb41b24c290</title>
<path fill="none" stroke="black" d="M497.22,-148.02C440.01,-137.67 368,-124.64 309.03,-113.97"/>
<polygon fill="black" stroke="black" points="309.75,-110.55 299.29,-112.21 308.5,-117.43 309.75,-110.55"/>
</g>
<!-- node_0x5eb41b24c2d0 -->
<g id="node4" class="node">
<title>node_0x5eb41b24c2d0</title>
<polygon fill="blue" stroke="black" points="415,-74.5 415,-111.5 812.25,-111.5 812.25,-74.5 415,-74.5"/>
<text text-anchor="middle" x="613.62" y="-98.95" font-family="Times,serif" font-size="9.00">50</text>
<polyline fill="none" stroke="black" points="415,-93 812.25,-93"/>
<text text-anchor="middle" x="452.62" y="-80.45" font-family="Times,serif" font-size="9.00">type = 1 (NUM)</text>
<polyline fill="none" stroke="black" points="490.25,-74.5 490.25,-93"/>
<text text-anchor="middle" x="516.25" y="-80.45" font-family="Times,serif" font-size="9.00">left = (nil)</text>
<polyline fill="none" stroke="black" points="542.25,-74.5 542.25,-93"/>
<text text-anchor="middle" x="594.5" y="-80.45" font-family="Times,serif" font-size="9.00">node = 0x5eb41b24c2d0</text>
<polyline fill="none" stroke="black" points="646.75,-74.5 646.75,-93"/>
<text text-anchor="middle" x="701.25" y="-80.45" font-family="Times,serif" font-size="9.00">parent = 0x5eb41b24c250</text>
<polyline fill="none" stroke="black" points="755.75,-74.5 755.75,-93"/>
<text text-anchor="middle" x="784" y="-80.45" font-family="Times,serif" font-size="9.00">right = (nil)</text>
</g>
<!-- node_0x5eb41b24c250&#45;&gt;node_0x5eb41b24c2d0 -->
<g id="edge3" class="edge">
<title>node_0x5eb41b24c250&#45;&gt;node_0x5eb41b24c2d0</title>
<path fill="none" stroke="black" d="M600.83,-148.2C602.63,-140.59 604.77,-131.5 606.79,-122.96"/>
<polygon fill="black" stroke="black" points="610.17,-123.85 609.06,-113.32 603.36,-122.24 610.17,-123.85"/>
</g>
<!-- node_0x5eb41b24c350 -->
<g id="node6" class="node">
<title>node_0x5eb41b24c350</title>
<polygon fill="#bdef9e" stroke="black" points="862.62,-74.5 862.62,-111.5 1296.62,-111.5 1296.62,-74.5 862.62,-74.5"/>
<text text-anchor="middle" x="1079.62" y="-98.95" font-family="Times,serif" font-size="9.00">sin</text>
<polyline fill="none" stroke="black" points="862.62,-93 1296.62,-93"/>
<text text-anchor="middle" x="895.38" y="-80.45" font-family="Times,serif" font-size="9.00">type = 3 (OP)</text>
<polyline fill="none" stroke="black" points="928.12,-74.5 928.12,-93"/>
<text text-anchor="middle" x="954.12" y="-80.45" font-family="Times,serif" font-size="9.00">left = (nil)</text>
<polyline fill="none" stroke="black" points="980.12,-74.5 980.12,-93"/>
<text text-anchor="middle" x="1032.38" y="-80.45" font-family="Times,serif" font-size="9.00">node = 0x5eb41b24c350</text>
<polyline fill="none" stroke="black" points="1084.62,-74.5 1084.62,-93"/>
<text text-anchor="middle" x="1139.12" y="-80.45" font-family="Times,serif" font-size="9.00">parent = 0x5eb41b24c310</text>
<polyline fill="none" stroke="black" points="1193.62,-74.5 1193.62,-93"/>
<text text-anchor="middle" x="1245.12" y="-80.45" font-family="Times,serif" font-size="9.00">right = 0x5eb41b24c390</text>
</g>
<!-- node_0x5eb41b24c310&#45;&gt;node_0x5eb41b24c350 -->
<g id="edge5" class="edge">
<title>node_0x5eb41b24c310&#45;&gt;node_0x5eb41b24c350</title>
<path fill="none" stroke="black" d="M1091.67,-148.2C1089.98,-140.59 1087.96,-131.5 1086.06,-122.96"/>
<polygon fill="black" stroke="black" points="1089.5,-122.32 1083.92,-113.32 1082.67,-123.84 1089.5,-122.32"/>
</g>
<!-- node_0x5eb41b24c3d0 -->
<g id="node8" class="node">
<title>node_0x5eb41b24c3d0</title>
<polygon fill="yellow" stroke="black" points="1314.5,-74.5 1314.5,-111.5 1708.75,-111.5 1708.75,-74.5 1314.5,-74.5"/>
<text text-anchor="middle" x="1511.62" y="-98.95" font-family="Times,serif" font-size="9.00">x</text>
<polyline fill="none" stroke="black" points="1314.5,-93 1708.75,-93"/>
<text text-anchor="middle" x="1350.62" y="-80.45" font-family="Times,serif" font-size="9.00">type = 2 (VAR)</text>
<polyline fill="none" stroke="black" points="1386.75,-74.5 1386.75,-93"/>
<text text-anchor="middle" x="1412.75" y="-80.45" font-family="Times,serif" font-size="9.00">left = (nil)</text>
<polyline fill="none" stroke="black" points="1438.75,-74.5 1438.75,-93"/>
<text text-anchor="middle" x="1491" y="-80.45" font-family="Times,serif" font-size="9.00">node = 0x5eb41b24c3d0</text>
<polyline fill="none" stroke="black" points="1543.25,-74.5 1543.25,-93"/>
<text text-anchor="middle" x="1597.75" y="-80.45" font-family="Times,serif" font-size="9.00">parent = 0x5eb41b24c310</text>
<polyline fill="none" stroke="black" points="1652.25,-74.5 1652.25,-93"/>
<text text-anchor="middle" x="1680.5" y="-80.45" font-family="Times,serif" font-size="9.00">right = (nil)</text>
</g>
<!-- node_0x5eb41b24c310&#45;&gt;node_0x5eb41b24c3d0 -->
<g id="edge7" class="edge">
<title>node_0x5eb41b24c310&#45;&gt;node_0x5eb41b24c3d0</title>
<path fill="none" stroke="black" d="M1199.53,-148.02C1259.57,-137.62 1335.22,-124.53 1397,-113.84"/>
<polygon fill="black" stroke="black" points="1397.22,-117.35 1406.48,-112.2 1396.03,-110.46 1397.22,-117.35"/>
</g>
<!-- node_0x5eb41b24c390 -->
<g id="node7" class="node">
<title>node_0x5eb41b24c390</title>
<polygon fill="yellow" stroke="black" points="882.5,-0.5 882.5,-37.5 1276.75,-37.5 1276.75,-0.5 882.5,-0.5"/>
<text text-anchor="middle" x="1079.62" y="-24.95" font-family="Times,serif" font-size="9.00">x</text>
<polyline fill="none" stroke="black" points="882.5,-19 1276.75,-19"/>
<text text-anchor="middle" x="918.62" y="-6.45" font-family="Times,serif" font-size="9.00">type = 2 (VAR)</text>
<polyline fill="none" stroke="black" points="954.75,-0.5 954.75,-19"/>
<text text-anchor="middle" x="980.75" y="-6.45" font-family="Times,serif" font-size="9.00">left = (nil)</text>
<polyline fill="none" stroke="black" points="1006.75,-0.5 1006.75,-19"/>
<text text-anchor="middle" x="1059" y="-6.45" font-family="Times,serif" font-size="9.00">node = 0x5eb41b24c390</text>
<polyline fill="none" stroke="black" points="1111.25,-0.5 1111.25,-19"/>
<text text-anchor="middle" x="1165.75" y="-6.45" font-family="Times,serif" font-size="9.00">parent = 0x5eb41b24c350</text>
<polyline fill="none" stroke="black" points="1220.25,-0.5 1220.25,-19"/>
<text text-anchor="middle" x="1248.5" y="-6.45" font-family="Times,serif" font-size="9.00">right = (nil)</text>
</g>
<!-- node_0x5eb41b24c350&#45;&gt;node_0x5eb41b24c390 -->
<g id="edge6" class="edge">
<title>node_0x5eb41b24c350&#45;&gt;node_0x5eb41b24c390</title>
<path fill="none" stroke="black" d="M1079.62,-74.2C1079.62,-66.67 1079.62,-57.7 1079.62,-49.25"/>
<polygon fill="black" stroke="black" points="1083.13,-49.36 1079.63,-39.36 1076.13,-49.36 1083.13,-49.36"/>
</g>
</g>
</svg>
