<?xml version="1.0" encoding="UTF-8" standalone="no"?>
<!DOCTYPE svg PUBLIC "-//W3C//DTD SVG 1.1//EN"
 "http://www.w3.org/Graphics/SVG/1.1/DTD/svg11.dtd">
<!-- Generated by graphviz version 12.1.2 (0)
 -->
<!-- Pages: 1 -->
<svg width="810pt" height="120pt"
 viewBox="0.00 0.00 810.38 120.00" xmlns="http://www.w3.org/2000/svg" xmlns:xlink="http://www.w3.org/1999/xlink">
<g id="graph0" class="graph" transform="scale(1 1) rotate(0) translate(4 116)">
<polygon fill="white" stroke="none" points="-4,4 -4,-116 806.38,-116 806.38,4 -4,4"/>
<!-- node_0x60e0b165ea10 -->
<g id="node1" class="node">
<title>node_0x60e0b165ea10</title>
<polygon fill="#bdef9e" stroke="black" points="185.88,-74.5 185.88,-111.5 616.88,-111.5 616.88,-74.5 185.88,-74.5"/>
<text text-anchor="middle" x="401.38" y="-98.95" font-family="Times,serif" font-size="9.00">log</text>
<polyline fill="none" stroke="black" points="185.88,-93 616.88,-93"/>
<text text-anchor="middle" x="218.62" y="-80.45" font-family="Times,serif" font-size="9.00">type = 3 (OP)</text>
<polyline fill="none" stroke="black" points="251.38,-74.5 251.38,-93"/>
<text text-anchor="middle" x="300.25" y="-80.45" font-family="Times,serif" font-size="9.00">left = 0x60e0b165f060</text>
<polyline fill="none" stroke="black" points="349.12,-74.5 349.12,-93"/>
<text text-anchor="middle" x="401" y="-80.45" font-family="Times,serif" font-size="9.00">node = 0x60e0b165ea10</text>
<polyline fill="none" stroke="black" points="452.88,-74.5 452.88,-93"/>
<text text-anchor="middle" x="484.12" y="-80.45" font-family="Times,serif" font-size="9.00">parent = (nil)</text>
<polyline fill="none" stroke="black" points="515.38,-74.5 515.38,-93"/>
<text text-anchor="middle" x="566.12" y="-80.45" font-family="Times,serif" font-size="9.00">right = 0x60e0b165f0a0</text>
</g>
<!-- node_0x60e0b165f060 -->
<g id="node2" class="node">
<title>node_0x60e0b165f060</title>
<polygon fill="yellow" stroke="black" points="0,-0.5 0,-37.5 392.75,-37.5 392.75,-0.5 0,-0.5"/>
<text text-anchor="middle" x="196.38" y="-24.95" font-family="Times,serif" font-size="9.00">x</text>
<polyline fill="none" stroke="black" points="0,-19 392.75,-19"/>
<text text-anchor="middle" x="36.12" y="-6.45" font-family="Times,serif" font-size="9.00">type = 2 (VAR)</text>
<polyline fill="none" stroke="black" points="72.25,-0.5 72.25,-19"/>
<text text-anchor="middle" x="98.25" y="-6.45" font-family="Times,serif" font-size="9.00">left = (nil)</text>
<polyline fill="none" stroke="black" points="124.25,-0.5 124.25,-19"/>
<text text-anchor="middle" x="176.12" y="-6.45" font-family="Times,serif" font-size="9.00">node = 0x60e0b165f060</text>
<polyline fill="none" stroke="black" points="228,-0.5 228,-19"/>
<text text-anchor="middle" x="282.12" y="-6.45" font-family="Times,serif" font-size="9.00">parent = 0x60e0b165ea10</text>
<polyline fill="none" stroke="black" points="336.25,-0.5 336.25,-19"/>
<text text-anchor="middle" x="364.5" y="-6.45" font-family="Times,serif" font-size="9.00">right = (nil)</text>
</g>
<!-- node_0x60e0b165ea10&#45;&gt;node_0x60e0b165f060 -->
<g id="edge1" class="edge">
<title>node_0x60e0b165ea10&#45;&gt;node_0x60e0b165f060</title>
<path fill="none" stroke="black" d="M350.17,-74.02C322.18,-64.19 287.32,-51.94 257.86,-41.6"/>
<polygon fill="black" stroke="black" points="259.3,-38.39 248.71,-38.38 256.98,-45 259.3,-38.39"/>
</g>
<!-- node_0x60e0b165f0a0 -->
<g id="node3" class="node">
<title>node_0x60e0b165f0a0</title>
<polygon fill="yellow" stroke="black" points="410.38,-0.5 410.38,-37.5 802.38,-37.5 802.38,-0.5 410.38,-0.5"/>
<text text-anchor="middle" x="606.38" y="-24.95" font-family="Times,serif" font-size="9.00">x</text>
<polyline fill="none" stroke="black" points="410.38,-19 802.38,-19"/>
<text text-anchor="middle" x="446.5" y="-6.45" font-family="Times,serif" font-size="9.00">type = 2 (VAR)</text>
<polyline fill="none" stroke="black" points="482.62,-0.5 482.62,-19"/>
<text text-anchor="middle" x="508.62" y="-6.45" font-family="Times,serif" font-size="9.00">left = (nil)</text>
<polyline fill="none" stroke="black" points="534.62,-0.5 534.62,-19"/>
<text text-anchor="middle" x="586.12" y="-6.45" font-family="Times,serif" font-size="9.00">node = 0x60e0b165f0a0</text>
<polyline fill="none" stroke="black" points="637.62,-0.5 637.62,-19"/>
<text text-anchor="middle" x="691.75" y="-6.45" font-family="Times,serif" font-size="9.00">parent = 0x60e0b165ea10</text>
<polyline fill="none" stroke="black" points="745.88,-0.5 745.88,-19"/>
<text text-anchor="middle" x="774.12" y="-6.45" font-family="Times,serif" font-size="9.00">right = (nil)</text>
</g>
<!-- node_0x60e0b165ea10&#45;&gt;node_0x60e0b165f0a0 -->
<g id="edge2" class="edge">
<title>node_0x60e0b165ea10&#45;&gt;node_0x60e0b165f0a0</title>
<path fill="none" stroke="black" d="M452.58,-74.02C480.57,-64.19 515.43,-51.94 544.89,-41.6"/>
<polygon fill="black" stroke="black" points="545.77,-45 554.04,-38.38 543.45,-38.39 545.77,-45"/>
</g>
</g>
</svg>
