<?xml version="1.0" encoding="UTF-8" standalone="no"?>
<!DOCTYPE svg PUBLIC "-//W3C//DTD SVG 1.1//EN"
 "http://www.w3.org/Graphics/SVG/1.1/DTD/svg11.dtd">
<!-- Generated by graphviz version 12.1.2 (0)
 -->
<!-- Pages: 1 -->
<svg width="1067pt" height="268pt"
 viewBox="0.00 0.00 1066.75 268.00" xmlns="http://www.w3.org/2000/svg" xmlns:xlink="http://www.w3.org/1999/xlink">
<g id="graph0" class="graph" transform="scale(1 1) rotate(0) translate(4 264)">
<polygon fill="white" stroke="none" points="-4,4 -4,-264 1062.75,-264 1062.75,4 -4,4"/>
<!-- node_0x5f6ec50154d0 -->
<g id="node1" class="node">
<title>node_0x5f6ec50154d0</title>
<polygon fill="#bdef9e" stroke="black" points="208.38,-222.5 208.38,-259.5 637.88,-259.5 637.88,-222.5 208.38,-222.5"/>
<text text-anchor="middle" x="423.12" y="-246.95" font-family="Times,serif" font-size="9.00">/</text>
<polyline fill="none" stroke="black" points="208.38,-241 637.88,-241"/>
<text text-anchor="middle" x="241.12" y="-228.45" font-family="Times,serif" font-size="9.00">type = 3 (OP)</text>
<polyline fill="none" stroke="black" points="273.88,-222.5 273.88,-241"/>
<text text-anchor="middle" x="322.38" y="-228.45" font-family="Times,serif" font-size="9.00">left = 0x5f6ec5015490</text>
<polyline fill="none" stroke="black" points="370.88,-222.5 370.88,-241"/>
<text text-anchor="middle" x="422.38" y="-228.45" font-family="Times,serif" font-size="9.00">node = 0x5f6ec50154d0</text>
<polyline fill="none" stroke="black" points="473.88,-222.5 473.88,-241"/>
<text text-anchor="middle" x="505.12" y="-228.45" font-family="Times,serif" font-size="9.00">parent = (nil)</text>
<polyline fill="none" stroke="black" points="536.38,-222.5 536.38,-241"/>
<text text-anchor="middle" x="587.12" y="-228.45" font-family="Times,serif" font-size="9.00">right = 0x5f6ec5015450</text>
</g>
<!-- node_0x5f6ec5015490 -->
<g id="node2" class="node">
<title>node_0x5f6ec5015490</title>
<polygon fill="blue" stroke="black" points="0,-148.5 0,-185.5 394.25,-185.5 394.25,-148.5 0,-148.5"/>
<text text-anchor="middle" x="197.12" y="-172.95" font-family="Times,serif" font-size="9.00">1</text>
<polyline fill="none" stroke="black" points="0,-167 394.25,-167"/>
<text text-anchor="middle" x="37.62" y="-154.45" font-family="Times,serif" font-size="9.00">type = 1 (NUM)</text>
<polyline fill="none" stroke="black" points="75.25,-148.5 75.25,-167"/>
<text text-anchor="middle" x="101.25" y="-154.45" font-family="Times,serif" font-size="9.00">left = (nil)</text>
<polyline fill="none" stroke="black" points="127.25,-148.5 127.25,-167"/>
<text text-anchor="middle" x="178.75" y="-154.45" font-family="Times,serif" font-size="9.00">node = 0x5f6ec5015490</text>
<polyline fill="none" stroke="black" points="230.25,-148.5 230.25,-167"/>
<text text-anchor="middle" x="284" y="-154.45" font-family="Times,serif" font-size="9.00">parent = 0x5f6ec50154d0</text>
<polyline fill="none" stroke="black" points="337.75,-148.5 337.75,-167"/>
<text text-anchor="middle" x="366" y="-154.45" font-family="Times,serif" font-size="9.00">right = (nil)</text>
</g>
<!-- node_0x5f6ec50154d0&#45;&gt;node_0x5f6ec5015490 -->
<g id="edge1" class="edge">
<title>node_0x5f6ec50154d0&#45;&gt;node_0x5f6ec5015490</title>
<path fill="none" stroke="black" d="M366.68,-222.02C335.55,-212.1 296.71,-199.73 264.06,-189.32"/>
<polygon fill="black" stroke="black" points="265.28,-186.04 254.69,-186.34 263.15,-192.71 265.28,-186.04"/>
</g>
<!-- node_0x5f6ec5015450 -->
<g id="node3" class="node">
<title>node_0x5f6ec5015450</title>
<polygon fill="#bdef9e" stroke="black" points="411.88,-148.5 411.88,-185.5 886.38,-185.5 886.38,-148.5 411.88,-148.5"/>
<text text-anchor="middle" x="649.12" y="-172.95" font-family="Times,serif" font-size="9.00">*</text>
<polyline fill="none" stroke="black" points="411.88,-167 886.38,-167"/>
<text text-anchor="middle" x="444.62" y="-154.45" font-family="Times,serif" font-size="9.00">type = 3 (OP)</text>
<polyline fill="none" stroke="black" points="477.38,-148.5 477.38,-167"/>
<text text-anchor="middle" x="525.88" y="-154.45" font-family="Times,serif" font-size="9.00">left = 0x5f6ec5015410</text>
<polyline fill="none" stroke="black" points="574.38,-148.5 574.38,-167"/>
<text text-anchor="middle" x="625.88" y="-154.45" font-family="Times,serif" font-size="9.00">node = 0x5f6ec5015450</text>
<polyline fill="none" stroke="black" points="677.38,-148.5 677.38,-167"/>
<text text-anchor="middle" x="731.12" y="-154.45" font-family="Times,serif" font-size="9.00">parent = 0x5f6ec50154d0</text>
<polyline fill="none" stroke="black" points="784.88,-148.5 784.88,-167"/>
<text text-anchor="middle" x="835.62" y="-154.45" font-family="Times,serif" font-size="9.00">right = 0x5f6ec5015390</text>
</g>
<!-- node_0x5f6ec50154d0&#45;&gt;node_0x5f6ec5015450 -->
<g id="edge2" class="edge">
<title>node_0x5f6ec50154d0&#45;&gt;node_0x5f6ec5015450</title>
<path fill="none" stroke="black" d="M479.57,-222.02C510.7,-212.1 549.54,-199.73 582.19,-189.32"/>
<polygon fill="black" stroke="black" points="583.1,-192.71 591.56,-186.34 580.97,-186.04 583.1,-192.71"/>
</g>
<!-- node_0x5f6ec5015410 -->
<g id="node4" class="node">
<title>node_0x5f6ec5015410</title>
<polygon fill="#bdef9e" stroke="black" points="220.38,-74.5 220.38,-111.5 649.88,-111.5 649.88,-74.5 220.38,-74.5"/>
<text text-anchor="middle" x="435.12" y="-98.95" font-family="Times,serif" font-size="9.00">ln</text>
<polyline fill="none" stroke="black" points="220.38,-93 649.88,-93"/>
<text text-anchor="middle" x="253.12" y="-80.45" font-family="Times,serif" font-size="9.00">type = 3 (OP)</text>
<polyline fill="none" stroke="black" points="285.88,-74.5 285.88,-93"/>
<text text-anchor="middle" x="311.88" y="-80.45" font-family="Times,serif" font-size="9.00">left = (nil)</text>
<polyline fill="none" stroke="black" points="337.88,-74.5 337.88,-93"/>
<text text-anchor="middle" x="389.38" y="-80.45" font-family="Times,serif" font-size="9.00">node = 0x5f6ec5015410</text>
<polyline fill="none" stroke="black" points="440.88,-74.5 440.88,-93"/>
<text text-anchor="middle" x="494.62" y="-80.45" font-family="Times,serif" font-size="9.00">parent = 0x5f6ec5015450</text>
<polyline fill="none" stroke="black" points="548.38,-74.5 548.38,-93"/>
<text text-anchor="middle" x="599.12" y="-80.45" font-family="Times,serif" font-size="9.00">right = 0x5f6ec50153d0</text>
</g>
<!-- node_0x5f6ec5015450&#45;&gt;node_0x5f6ec5015410 -->
<g id="edge3" class="edge">
<title>node_0x5f6ec5015450&#45;&gt;node_0x5f6ec5015410</title>
<path fill="none" stroke="black" d="M595.68,-148.02C566.33,-138.14 529.74,-125.83 498.91,-115.46"/>
<polygon fill="black" stroke="black" points="500.29,-112.23 489.7,-112.36 498.06,-118.87 500.29,-112.23"/>
</g>
<!-- node_0x5f6ec5015390 -->
<g id="node6" class="node">
<title>node_0x5f6ec5015390</title>
<polygon fill="yellow" stroke="black" points="667.5,-74.5 667.5,-111.5 1058.75,-111.5 1058.75,-74.5 667.5,-74.5"/>
<text text-anchor="middle" x="863.12" y="-98.95" font-family="Times,serif" font-size="9.00">x</text>
<polyline fill="none" stroke="black" points="667.5,-93 1058.75,-93"/>
<text text-anchor="middle" x="703.62" y="-80.45" font-family="Times,serif" font-size="9.00">type = 2 (VAR)</text>
<polyline fill="none" stroke="black" points="739.75,-74.5 739.75,-93"/>
<text text-anchor="middle" x="765.75" y="-80.45" font-family="Times,serif" font-size="9.00">left = (nil)</text>
<polyline fill="none" stroke="black" points="791.75,-74.5 791.75,-93"/>
<text text-anchor="middle" x="843.25" y="-80.45" font-family="Times,serif" font-size="9.00">node = 0x5f6ec5015390</text>
<polyline fill="none" stroke="black" points="894.75,-74.5 894.75,-93"/>
<text text-anchor="middle" x="948.5" y="-80.45" font-family="Times,serif" font-size="9.00">parent = 0x5f6ec5015450</text>
<polyline fill="none" stroke="black" points="1002.25,-74.5 1002.25,-93"/>
<text text-anchor="middle" x="1030.5" y="-80.45" font-family="Times,serif" font-size="9.00">right = (nil)</text>
</g>
<!-- node_0x5f6ec5015450&#45;&gt;node_0x5f6ec5015390 -->
<g id="edge5" class="edge">
<title>node_0x5f6ec5015450&#45;&gt;node_0x5f6ec5015390</title>
<path fill="none" stroke="black" d="M702.57,-148.02C731.92,-138.14 768.51,-125.83 799.34,-115.46"/>
<polygon fill="black" stroke="black" points="800.19,-118.87 808.55,-112.36 797.96,-112.23 800.19,-118.87"/>
</g>
<!-- node_0x5f6ec50153d0 -->
<g id="node5" class="node">
<title>node_0x5f6ec50153d0</title>
<polygon fill="blue" stroke="black" points="238,-0.5 238,-37.5 632.25,-37.5 632.25,-0.5 238,-0.5"/>
<text text-anchor="middle" x="435.12" y="-24.95" font-family="Times,serif" font-size="9.00">3</text>
<polyline fill="none" stroke="black" points="238,-19 632.25,-19"/>
<text text-anchor="middle" x="275.62" y="-6.45" font-family="Times,serif" font-size="9.00">type = 1 (NUM)</text>
<polyline fill="none" stroke="black" points="313.25,-0.5 313.25,-19"/>
<text text-anchor="middle" x="339.25" y="-6.45" font-family="Times,serif" font-size="9.00">left = (nil)</text>
<polyline fill="none" stroke="black" points="365.25,-0.5 365.25,-19"/>
<text text-anchor="middle" x="416.75" y="-6.45" font-family="Times,serif" font-size="9.00">node = 0x5f6ec50153d0</text>
<polyline fill="none" stroke="black" points="468.25,-0.5 468.25,-19"/>
<text text-anchor="middle" x="522" y="-6.45" font-family="Times,serif" font-size="9.00">parent = 0x5f6ec5015410</text>
<polyline fill="none" stroke="black" points="575.75,-0.5 575.75,-19"/>
<text text-anchor="middle" x="604" y="-6.45" font-family="Times,serif" font-size="9.00">right = (nil)</text>
</g>
<!-- node_0x5f6ec5015410&#45;&gt;node_0x5f6ec50153d0 -->
<g id="edge4" class="edge">
<title>node_0x5f6ec5015410&#45;&gt;node_0x5f6ec50153d0</title>
<path fill="none" stroke="black" d="M435.12,-74.2C435.12,-66.67 435.12,-57.7 435.12,-49.25"/>
<polygon fill="black" stroke="black" points="438.63,-49.36 435.13,-39.36 431.63,-49.36 438.63,-49.36"/>
</g>
</g>
</svg>
