<?xml version="1.0" encoding="UTF-8" standalone="no"?>
<!DOCTYPE svg PUBLIC "-//W3C//DTD SVG 1.1//EN"
 "http://www.w3.org/Graphics/SVG/1.1/DTD/svg11.dtd">
<!-- Generated by graphviz version 12.1.2 (0)
 -->
<!-- Pages: 1 -->
<svg width="1682pt" height="194pt"
 viewBox="0.00 0.00 1681.88 194.00" xmlns="http://www.w3.org/2000/svg" xmlns:xlink="http://www.w3.org/1999/xlink">
<g id="graph0" class="graph" transform="scale(1 1) rotate(0) translate(4 190)">
<polygon fill="white" stroke="none" points="-4,4 -4,-190 1677.88,-190 1677.88,4 -4,4"/>
<!-- node_0x5b20ceba69c0 -->
<g id="node1" class="node">
<title>node_0x5b20ceba69c0</title>
<polygon fill="#bdef9e" stroke="black" points="623.38,-148.5 623.38,-185.5 1054.38,-185.5 1054.38,-148.5 623.38,-148.5"/>
<text text-anchor="middle" x="838.88" y="-172.95" font-family="Times,serif" font-size="9.00">/</text>
<polyline fill="none" stroke="black" points="623.38,-167 1054.38,-167"/>
<text text-anchor="middle" x="656.12" y="-154.45" font-family="Times,serif" font-size="9.00">type = 3 (OP)</text>
<polyline fill="none" stroke="black" points="688.88,-148.5 688.88,-167"/>
<text text-anchor="middle" x="737.75" y="-154.45" font-family="Times,serif" font-size="9.00">left = 0x5b20ceba6990</text>
<polyline fill="none" stroke="black" points="786.62,-148.5 786.62,-167"/>
<text text-anchor="middle" x="838.12" y="-154.45" font-family="Times,serif" font-size="9.00">node = 0x5b20ceba69c0</text>
<polyline fill="none" stroke="black" points="889.62,-148.5 889.62,-167"/>
<text text-anchor="middle" x="920.88" y="-154.45" font-family="Times,serif" font-size="9.00">parent = (nil)</text>
<polyline fill="none" stroke="black" points="952.12,-148.5 952.12,-167"/>
<text text-anchor="middle" x="1003.25" y="-154.45" font-family="Times,serif" font-size="9.00">right = 0x5b20ceba6960</text>
</g>
<!-- node_0x5b20ceba6990 -->
<g id="node2" class="node">
<title>node_0x5b20ceba6990</title>
<polygon fill="#bdef9e" stroke="black" points="353.5,-74.5 353.5,-111.5 830.25,-111.5 830.25,-74.5 353.5,-74.5"/>
<text text-anchor="middle" x="591.88" y="-98.95" font-family="Times,serif" font-size="9.00">+</text>
<polyline fill="none" stroke="black" points="353.5,-93 830.25,-93"/>
<text text-anchor="middle" x="386.25" y="-80.45" font-family="Times,serif" font-size="9.00">type = 3 (OP)</text>
<polyline fill="none" stroke="black" points="419,-74.5 419,-93"/>
<text text-anchor="middle" x="467.88" y="-80.45" font-family="Times,serif" font-size="9.00">left = 0x5b20ceba6930</text>
<polyline fill="none" stroke="black" points="516.75,-74.5 516.75,-93"/>
<text text-anchor="middle" x="568.62" y="-80.45" font-family="Times,serif" font-size="9.00">node = 0x5b20ceba6990</text>
<polyline fill="none" stroke="black" points="620.5,-74.5 620.5,-93"/>
<text text-anchor="middle" x="674.25" y="-80.45" font-family="Times,serif" font-size="9.00">parent = 0x5b20ceba69c0</text>
<polyline fill="none" stroke="black" points="728,-74.5 728,-93"/>
<text text-anchor="middle" x="779.12" y="-80.45" font-family="Times,serif" font-size="9.00">right = 0x5b20ceba6900</text>
</g>
<!-- node_0x5b20ceba69c0&#45;&gt;node_0x5b20ceba6990 -->
<g id="edge1" class="edge">
<title>node_0x5b20ceba69c0&#45;&gt;node_0x5b20ceba6990</title>
<path fill="none" stroke="black" d="M777.18,-148.02C742.87,-138.01 699.97,-125.51 664.1,-115.05"/>
<polygon fill="black" stroke="black" points="665.24,-111.74 654.66,-112.3 663.28,-118.46 665.24,-111.74"/>
</g>
<!-- node_0x5b20ceba6960 -->
<g id="node5" class="node">
<title>node_0x5b20ceba6960</title>
<polygon fill="#bdef9e" stroke="black" points="847.88,-74.5 847.88,-111.5 1323.88,-111.5 1323.88,-74.5 847.88,-74.5"/>
<text text-anchor="middle" x="1085.88" y="-98.95" font-family="Times,serif" font-size="9.00">&#45;</text>
<polyline fill="none" stroke="black" points="847.88,-93 1323.88,-93"/>
<text text-anchor="middle" x="880.62" y="-80.45" font-family="Times,serif" font-size="9.00">type = 3 (OP)</text>
<polyline fill="none" stroke="black" points="913.38,-74.5 913.38,-93"/>
<text text-anchor="middle" x="962.25" y="-80.45" font-family="Times,serif" font-size="9.00">left = 0x5b20ceba68d0</text>
<polyline fill="none" stroke="black" points="1011.12,-74.5 1011.12,-93"/>
<text text-anchor="middle" x="1063" y="-80.45" font-family="Times,serif" font-size="9.00">node = 0x5b20ceba6960</text>
<polyline fill="none" stroke="black" points="1114.88,-74.5 1114.88,-93"/>
<text text-anchor="middle" x="1168.62" y="-80.45" font-family="Times,serif" font-size="9.00">parent = 0x5b20ceba69c0</text>
<polyline fill="none" stroke="black" points="1222.38,-74.5 1222.38,-93"/>
<text text-anchor="middle" x="1273.12" y="-80.45" font-family="Times,serif" font-size="9.00">right = 0x5b20ceba68a0</text>
</g>
<!-- node_0x5b20ceba69c0&#45;&gt;node_0x5b20ceba6960 -->
<g id="edge4" class="edge">
<title>node_0x5b20ceba69c0&#45;&gt;node_0x5b20ceba6960</title>
<path fill="none" stroke="black" d="M900.57,-148.02C934.88,-138.01 977.78,-125.51 1013.65,-115.05"/>
<polygon fill="black" stroke="black" points="1014.47,-118.46 1023.09,-112.3 1012.51,-111.74 1014.47,-118.46"/>
</g>
<!-- node_0x5b20ceba6930 -->
<g id="node3" class="node">
<title>node_0x5b20ceba6930</title>
<polygon fill="blue" stroke="black" points="0,-0.5 0,-37.5 395.75,-37.5 395.75,-0.5 0,-0.5"/>
<text text-anchor="middle" x="197.88" y="-24.95" font-family="Times,serif" font-size="9.00">30</text>
<polyline fill="none" stroke="black" points="0,-19 395.75,-19"/>
<text text-anchor="middle" x="37.62" y="-6.45" font-family="Times,serif" font-size="9.00">type = 1 (NUM)</text>
<polyline fill="none" stroke="black" points="75.25,-0.5 75.25,-19"/>
<text text-anchor="middle" x="101.25" y="-6.45" font-family="Times,serif" font-size="9.00">left = (nil)</text>
<polyline fill="none" stroke="black" points="127.25,-0.5 127.25,-19"/>
<text text-anchor="middle" x="179.12" y="-6.45" font-family="Times,serif" font-size="9.00">node = 0x5b20ceba6930</text>
<polyline fill="none" stroke="black" points="231,-0.5 231,-19"/>
<text text-anchor="middle" x="285.12" y="-6.45" font-family="Times,serif" font-size="9.00">parent = 0x5b20ceba6990</text>
<polyline fill="none" stroke="black" points="339.25,-0.5 339.25,-19"/>
<text text-anchor="middle" x="367.5" y="-6.45" font-family="Times,serif" font-size="9.00">right = (nil)</text>
</g>
<!-- node_0x5b20ceba6990&#45;&gt;node_0x5b20ceba6930 -->
<g id="edge2" class="edge">
<title>node_0x5b20ceba6990&#45;&gt;node_0x5b20ceba6930</title>
<path fill="none" stroke="black" d="M493.47,-74.02C436.83,-63.67 365.55,-50.64 307.17,-39.97"/>
<polygon fill="black" stroke="black" points="308.01,-36.57 297.54,-38.21 306.75,-43.45 308.01,-36.57"/>
</g>
<!-- node_0x5b20ceba6900 -->
<g id="node4" class="node">
<title>node_0x5b20ceba6900</title>
<polygon fill="blue" stroke="black" points="414,-0.5 414,-37.5 809.75,-37.5 809.75,-0.5 414,-0.5"/>
<text text-anchor="middle" x="611.88" y="-24.95" font-family="Times,serif" font-size="9.00">50</text>
<polyline fill="none" stroke="black" points="414,-19 809.75,-19"/>
<text text-anchor="middle" x="451.62" y="-6.45" font-family="Times,serif" font-size="9.00">type = 1 (NUM)</text>
<polyline fill="none" stroke="black" points="489.25,-0.5 489.25,-19"/>
<text text-anchor="middle" x="515.25" y="-6.45" font-family="Times,serif" font-size="9.00">left = (nil)</text>
<polyline fill="none" stroke="black" points="541.25,-0.5 541.25,-19"/>
<text text-anchor="middle" x="593.12" y="-6.45" font-family="Times,serif" font-size="9.00">node = 0x5b20ceba6900</text>
<polyline fill="none" stroke="black" points="645,-0.5 645,-19"/>
<text text-anchor="middle" x="699.12" y="-6.45" font-family="Times,serif" font-size="9.00">parent = 0x5b20ceba6990</text>
<polyline fill="none" stroke="black" points="753.25,-0.5 753.25,-19"/>
<text text-anchor="middle" x="781.5" y="-6.45" font-family="Times,serif" font-size="9.00">right = (nil)</text>
</g>
<!-- node_0x5b20ceba6990&#45;&gt;node_0x5b20ceba6900 -->
<g id="edge3" class="edge">
<title>node_0x5b20ceba6990&#45;&gt;node_0x5b20ceba6900</title>
<path fill="none" stroke="black" d="M596.82,-74.2C598.96,-66.5 601.52,-57.29 603.91,-48.67"/>
<polygon fill="black" stroke="black" points="607.21,-49.87 606.51,-39.3 600.46,-48 607.21,-49.87"/>
</g>
<!-- node_0x5b20ceba68d0 -->
<g id="node6" class="node">
<title>node_0x5b20ceba68d0</title>
<polygon fill="blue" stroke="black" points="868,-0.5 868,-37.5 1263.75,-37.5 1263.75,-0.5 868,-0.5"/>
<text text-anchor="middle" x="1065.88" y="-24.95" font-family="Times,serif" font-size="9.00">12</text>
<polyline fill="none" stroke="black" points="868,-19 1263.75,-19"/>
<text text-anchor="middle" x="905.62" y="-6.45" font-family="Times,serif" font-size="9.00">type = 1 (NUM)</text>
<polyline fill="none" stroke="black" points="943.25,-0.5 943.25,-19"/>
<text text-anchor="middle" x="969.25" y="-6.45" font-family="Times,serif" font-size="9.00">left = (nil)</text>
<polyline fill="none" stroke="black" points="995.25,-0.5 995.25,-19"/>
<text text-anchor="middle" x="1047.12" y="-6.45" font-family="Times,serif" font-size="9.00">node = 0x5b20ceba68d0</text>
<polyline fill="none" stroke="black" points="1099,-0.5 1099,-19"/>
<text text-anchor="middle" x="1153.12" y="-6.45" font-family="Times,serif" font-size="9.00">parent = 0x5b20ceba6960</text>
<polyline fill="none" stroke="black" points="1207.25,-0.5 1207.25,-19"/>
<text text-anchor="middle" x="1235.5" y="-6.45" font-family="Times,serif" font-size="9.00">right = (nil)</text>
</g>
<!-- node_0x5b20ceba6960&#45;&gt;node_0x5b20ceba68d0 -->
<g id="edge5" class="edge">
<title>node_0x5b20ceba6960&#45;&gt;node_0x5b20ceba68d0</title>
<path fill="none" stroke="black" d="M1080.93,-74.2C1078.79,-66.5 1076.23,-57.29 1073.84,-48.67"/>
<polygon fill="black" stroke="black" points="1077.29,-48 1071.24,-39.3 1070.54,-49.87 1077.29,-48"/>
</g>
<!-- node_0x5b20ceba68a0 -->
<g id="node7" class="node">
<title>node_0x5b20ceba68a0</title>
<polygon fill="yellow" stroke="black" points="1281.88,-0.5 1281.88,-37.5 1673.88,-37.5 1673.88,-0.5 1281.88,-0.5"/>
<text text-anchor="middle" x="1477.88" y="-24.95" font-family="Times,serif" font-size="9.00">x</text>
<polyline fill="none" stroke="black" points="1281.88,-19 1673.88,-19"/>
<text text-anchor="middle" x="1318" y="-6.45" font-family="Times,serif" font-size="9.00">type = 2 (VAR)</text>
<polyline fill="none" stroke="black" points="1354.12,-0.5 1354.12,-19"/>
<text text-anchor="middle" x="1380.12" y="-6.45" font-family="Times,serif" font-size="9.00">left = (nil)</text>
<polyline fill="none" stroke="black" points="1406.12,-0.5 1406.12,-19"/>
<text text-anchor="middle" x="1457.62" y="-6.45" font-family="Times,serif" font-size="9.00">node = 0x5b20ceba68a0</text>
<polyline fill="none" stroke="black" points="1509.12,-0.5 1509.12,-19"/>
<text text-anchor="middle" x="1563.25" y="-6.45" font-family="Times,serif" font-size="9.00">parent = 0x5b20ceba6960</text>
<polyline fill="none" stroke="black" points="1617.38,-0.5 1617.38,-19"/>
<text text-anchor="middle" x="1645.62" y="-6.45" font-family="Times,serif" font-size="9.00">right = (nil)</text>
</g>
<!-- node_0x5b20ceba6960&#45;&gt;node_0x5b20ceba68a0 -->
<g id="edge6" class="edge">
<title>node_0x5b20ceba6960&#45;&gt;node_0x5b20ceba68a0</title>
<path fill="none" stroke="black" d="M1183.78,-74.02C1240.13,-63.67 1311.06,-50.64 1369.14,-39.97"/>
<polygon fill="black" stroke="black" points="1369.51,-43.46 1378.71,-38.21 1368.24,-36.58 1369.51,-43.46"/>
</g>
</g>
</svg>
