<?xml version="1.0" encoding="UTF-8" standalone="no"?>
<!DOCTYPE svg PUBLIC "-//W3C//DTD SVG 1.1//EN"
 "http://www.w3.org/Graphics/SVG/1.1/DTD/svg11.dtd">
<!-- Generated by graphviz version 12.1.2 (0)
 -->
<!-- Pages: 1 -->
<svg width="1683pt" height="268pt"
 viewBox="0.00 0.00 1682.62 268.00" xmlns="http://www.w3.org/2000/svg" xmlns:xlink="http://www.w3.org/1999/xlink">
<g id="graph0" class="graph" transform="scale(1 1) rotate(0) translate(4 264)">
<polygon fill="white" stroke="none" points="-4,4 -4,-264 1678.62,-264 1678.62,4 -4,4"/>
<!-- node_0x61ff5e38e8a0 -->
<g id="node1" class="node">
<title>node_0x61ff5e38e8a0</title>
<polygon fill="#bdef9e" stroke="black" points="618.5,-222.5 618.5,-259.5 1041.25,-259.5 1041.25,-222.5 618.5,-222.5"/>
<text text-anchor="middle" x="829.88" y="-246.95" font-family="Times,serif" font-size="9.00">/</text>
<polyline fill="none" stroke="black" points="618.5,-241 1041.25,-241"/>
<text text-anchor="middle" x="651.25" y="-228.45" font-family="Times,serif" font-size="9.00">type = 3 (OP)</text>
<polyline fill="none" stroke="black" points="684,-222.5 684,-241"/>
<text text-anchor="middle" x="731" y="-228.45" font-family="Times,serif" font-size="9.00">left = 0x61ff5e38ece0</text>
<polyline fill="none" stroke="black" points="778,-222.5 778,-241"/>
<text text-anchor="middle" x="828.38" y="-228.45" font-family="Times,serif" font-size="9.00">node = 0x61ff5e38e8a0</text>
<polyline fill="none" stroke="black" points="878.75,-222.5 878.75,-241"/>
<text text-anchor="middle" x="910" y="-228.45" font-family="Times,serif" font-size="9.00">parent = (nil)</text>
<polyline fill="none" stroke="black" points="941.25,-222.5 941.25,-241"/>
<text text-anchor="middle" x="991.25" y="-228.45" font-family="Times,serif" font-size="9.00">right = 0x61ff5e38ed70</text>
</g>
<!-- node_0x61ff5e38ece0 -->
<g id="node2" class="node">
<title>node_0x61ff5e38ece0</title>
<polygon fill="#bdef9e" stroke="black" points="354.75,-148.5 354.75,-185.5 821,-185.5 821,-148.5 354.75,-148.5"/>
<text text-anchor="middle" x="587.88" y="-172.95" font-family="Times,serif" font-size="9.00">+</text>
<polyline fill="none" stroke="black" points="354.75,-167 821,-167"/>
<text text-anchor="middle" x="387.5" y="-154.45" font-family="Times,serif" font-size="9.00">type = 3 (OP)</text>
<polyline fill="none" stroke="black" points="420.25,-148.5 420.25,-167"/>
<text text-anchor="middle" x="468" y="-154.45" font-family="Times,serif" font-size="9.00">left = 0x61ff5e38ed10</text>
<polyline fill="none" stroke="black" points="515.75,-148.5 515.75,-167"/>
<text text-anchor="middle" x="565.75" y="-154.45" font-family="Times,serif" font-size="9.00">node = 0x61ff5e38ece0</text>
<polyline fill="none" stroke="black" points="615.75,-148.5 615.75,-167"/>
<text text-anchor="middle" x="668.38" y="-154.45" font-family="Times,serif" font-size="9.00">parent = 0x61ff5e38e8a0</text>
<polyline fill="none" stroke="black" points="721,-148.5 721,-167"/>
<text text-anchor="middle" x="771" y="-154.45" font-family="Times,serif" font-size="9.00">right = 0x61ff5e38ed40</text>
</g>
<!-- node_0x61ff5e38e8a0&#45;&gt;node_0x61ff5e38ece0 -->
<g id="edge1" class="edge">
<title>node_0x61ff5e38e8a0&#45;&gt;node_0x61ff5e38ece0</title>
<path fill="none" stroke="black" d="M769.43,-222.02C735.81,-212.01 693.79,-199.51 658.64,-189.05"/>
<polygon fill="black" stroke="black" points="660,-185.81 649.42,-186.31 658,-192.52 660,-185.81"/>
</g>
<!-- node_0x61ff5e38ed70 -->
<g id="node5" class="node">
<title>node_0x61ff5e38ed70</title>
<polygon fill="#bdef9e" stroke="black" points="838.75,-148.5 838.75,-185.5 1305,-185.5 1305,-148.5 838.75,-148.5"/>
<text text-anchor="middle" x="1071.88" y="-172.95" font-family="Times,serif" font-size="9.00">+</text>
<polyline fill="none" stroke="black" points="838.75,-167 1305,-167"/>
<text text-anchor="middle" x="871.5" y="-154.45" font-family="Times,serif" font-size="9.00">type = 3 (OP)</text>
<polyline fill="none" stroke="black" points="904.25,-148.5 904.25,-167"/>
<text text-anchor="middle" x="951.62" y="-154.45" font-family="Times,serif" font-size="9.00">left = 0x61ff5e38eda0</text>
<polyline fill="none" stroke="black" points="999,-148.5 999,-167"/>
<text text-anchor="middle" x="1049.75" y="-154.45" font-family="Times,serif" font-size="9.00">node = 0x61ff5e38ed70</text>
<polyline fill="none" stroke="black" points="1100.5,-148.5 1100.5,-167"/>
<text text-anchor="middle" x="1153.12" y="-154.45" font-family="Times,serif" font-size="9.00">parent = 0x61ff5e38e8a0</text>
<polyline fill="none" stroke="black" points="1205.75,-148.5 1205.75,-167"/>
<text text-anchor="middle" x="1255.38" y="-154.45" font-family="Times,serif" font-size="9.00">right = 0x61ff5e38ee00</text>
</g>
<!-- node_0x61ff5e38e8a0&#45;&gt;node_0x61ff5e38ed70 -->
<g id="edge4" class="edge">
<title>node_0x61ff5e38e8a0&#45;&gt;node_0x61ff5e38ed70</title>
<path fill="none" stroke="black" d="M890.32,-222.02C923.94,-212.01 965.96,-199.51 1001.11,-189.05"/>
<polygon fill="black" stroke="black" points="1001.75,-192.52 1010.33,-186.31 999.75,-185.81 1001.75,-192.52"/>
</g>
<!-- node_0x61ff5e38ed10 -->
<g id="node3" class="node">
<title>node_0x61ff5e38ed10</title>
<polygon fill="blue" stroke="black" points="0,-74.5 0,-111.5 389.75,-111.5 389.75,-74.5 0,-74.5"/>
<text text-anchor="middle" x="194.88" y="-98.95" font-family="Times,serif" font-size="9.00">30</text>
<polyline fill="none" stroke="black" points="0,-93 389.75,-93"/>
<text text-anchor="middle" x="37.62" y="-80.45" font-family="Times,serif" font-size="9.00">type = 1 (NUM)</text>
<polyline fill="none" stroke="black" points="75.25,-74.5 75.25,-93"/>
<text text-anchor="middle" x="101.25" y="-80.45" font-family="Times,serif" font-size="9.00">left = (nil)</text>
<polyline fill="none" stroke="black" points="127.25,-74.5 127.25,-93"/>
<text text-anchor="middle" x="178" y="-80.45" font-family="Times,serif" font-size="9.00">node = 0x61ff5e38ed10</text>
<polyline fill="none" stroke="black" points="228.75,-74.5 228.75,-93"/>
<text text-anchor="middle" x="281" y="-80.45" font-family="Times,serif" font-size="9.00">parent = 0x61ff5e38ece0</text>
<polyline fill="none" stroke="black" points="333.25,-74.5 333.25,-93"/>
<text text-anchor="middle" x="361.5" y="-80.45" font-family="Times,serif" font-size="9.00">right = (nil)</text>
</g>
<!-- node_0x61ff5e38ece0&#45;&gt;node_0x61ff5e38ed10 -->
<g id="edge2" class="edge">
<title>node_0x61ff5e38ece0&#45;&gt;node_0x61ff5e38ed10</title>
<path fill="none" stroke="black" d="M489.72,-148.02C433.22,-137.67 362.12,-124.64 303.89,-113.97"/>
<polygon fill="black" stroke="black" points="304.76,-110.57 294.29,-112.21 303.5,-117.46 304.76,-110.57"/>
</g>
<!-- node_0x61ff5e38ed40 -->
<g id="node4" class="node">
<title>node_0x61ff5e38ed40</title>
<polygon fill="blue" stroke="black" points="408,-74.5 408,-111.5 797.75,-111.5 797.75,-74.5 408,-74.5"/>
<text text-anchor="middle" x="602.88" y="-98.95" font-family="Times,serif" font-size="9.00">50</text>
<polyline fill="none" stroke="black" points="408,-93 797.75,-93"/>
<text text-anchor="middle" x="445.62" y="-80.45" font-family="Times,serif" font-size="9.00">type = 1 (NUM)</text>
<polyline fill="none" stroke="black" points="483.25,-74.5 483.25,-93"/>
<text text-anchor="middle" x="509.25" y="-80.45" font-family="Times,serif" font-size="9.00">left = (nil)</text>
<polyline fill="none" stroke="black" points="535.25,-74.5 535.25,-93"/>
<text text-anchor="middle" x="586" y="-80.45" font-family="Times,serif" font-size="9.00">node = 0x61ff5e38ed40</text>
<polyline fill="none" stroke="black" points="636.75,-74.5 636.75,-93"/>
<text text-anchor="middle" x="689" y="-80.45" font-family="Times,serif" font-size="9.00">parent = 0x61ff5e38ece0</text>
<polyline fill="none" stroke="black" points="741.25,-74.5 741.25,-93"/>
<text text-anchor="middle" x="769.5" y="-80.45" font-family="Times,serif" font-size="9.00">right = (nil)</text>
</g>
<!-- node_0x61ff5e38ece0&#45;&gt;node_0x61ff5e38ed40 -->
<g id="edge3" class="edge">
<title>node_0x61ff5e38ece0&#45;&gt;node_0x61ff5e38ed40</title>
<path fill="none" stroke="black" d="M591.58,-148.2C593.17,-140.59 595.06,-131.5 596.84,-122.96"/>
<polygon fill="black" stroke="black" points="600.24,-123.83 598.85,-113.32 593.38,-122.4 600.24,-123.83"/>
</g>
<!-- node_0x61ff5e38eda0 -->
<g id="node6" class="node">
<title>node_0x61ff5e38eda0</title>
<polygon fill="#bdef9e" stroke="black" points="844.75,-74.5 844.75,-111.5 1269,-111.5 1269,-74.5 844.75,-74.5"/>
<text text-anchor="middle" x="1056.88" y="-98.95" font-family="Times,serif" font-size="9.00">sin</text>
<polyline fill="none" stroke="black" points="844.75,-93 1269,-93"/>
<text text-anchor="middle" x="877.5" y="-80.45" font-family="Times,serif" font-size="9.00">type = 3 (OP)</text>
<polyline fill="none" stroke="black" points="910.25,-74.5 910.25,-93"/>
<text text-anchor="middle" x="936.25" y="-80.45" font-family="Times,serif" font-size="9.00">left = (nil)</text>
<polyline fill="none" stroke="black" points="962.25,-74.5 962.25,-93"/>
<text text-anchor="middle" x="1012.62" y="-80.45" font-family="Times,serif" font-size="9.00">node = 0x61ff5e38eda0</text>
<polyline fill="none" stroke="black" points="1063,-74.5 1063,-93"/>
<text text-anchor="middle" x="1116" y="-80.45" font-family="Times,serif" font-size="9.00">parent = 0x61ff5e38ed70</text>
<polyline fill="none" stroke="black" points="1169,-74.5 1169,-93"/>
<text text-anchor="middle" x="1219" y="-80.45" font-family="Times,serif" font-size="9.00">right = 0x61ff5e38edd0</text>
</g>
<!-- node_0x61ff5e38ed70&#45;&gt;node_0x61ff5e38eda0 -->
<g id="edge5" class="edge">
<title>node_0x61ff5e38ed70&#45;&gt;node_0x61ff5e38eda0</title>
<path fill="none" stroke="black" d="M1068.17,-148.2C1066.58,-140.59 1064.69,-131.5 1062.91,-122.96"/>
<polygon fill="black" stroke="black" points="1066.37,-122.4 1060.9,-113.32 1059.51,-123.83 1066.37,-122.4"/>
</g>
<!-- node_0x61ff5e38ee00 -->
<g id="node8" class="node">
<title>node_0x61ff5e38ee00</title>
<polygon fill="yellow" stroke="black" points="1287.12,-74.5 1287.12,-111.5 1674.62,-111.5 1674.62,-74.5 1287.12,-74.5"/>
<text text-anchor="middle" x="1480.88" y="-98.95" font-family="Times,serif" font-size="9.00">x</text>
<polyline fill="none" stroke="black" points="1287.12,-93 1674.62,-93"/>
<text text-anchor="middle" x="1323.25" y="-80.45" font-family="Times,serif" font-size="9.00">type = 2 (VAR)</text>
<polyline fill="none" stroke="black" points="1359.38,-74.5 1359.38,-93"/>
<text text-anchor="middle" x="1385.38" y="-80.45" font-family="Times,serif" font-size="9.00">left = (nil)</text>
<polyline fill="none" stroke="black" points="1411.38,-74.5 1411.38,-93"/>
<text text-anchor="middle" x="1461.75" y="-80.45" font-family="Times,serif" font-size="9.00">node = 0x61ff5e38ee00</text>
<polyline fill="none" stroke="black" points="1512.12,-74.5 1512.12,-93"/>
<text text-anchor="middle" x="1565.12" y="-80.45" font-family="Times,serif" font-size="9.00">parent = 0x61ff5e38ed70</text>
<polyline fill="none" stroke="black" points="1618.12,-74.5 1618.12,-93"/>
<text text-anchor="middle" x="1646.38" y="-80.45" font-family="Times,serif" font-size="9.00">right = (nil)</text>
</g>
<!-- node_0x61ff5e38ed70&#45;&gt;node_0x61ff5e38ee00 -->
<g id="edge7" class="edge">
<title>node_0x61ff5e38ed70&#45;&gt;node_0x61ff5e38ee00</title>
<path fill="none" stroke="black" d="M1174.03,-148.02C1232.94,-137.65 1307.13,-124.59 1367.8,-113.91"/>
<polygon fill="black" stroke="black" points="1368.23,-117.38 1377.47,-112.2 1367.02,-110.49 1368.23,-117.38"/>
</g>
<!-- node_0x61ff5e38edd0 -->
<g id="node7" class="node">
<title>node_0x61ff5e38edd0</title>
<polygon fill="yellow" stroke="black" points="863.12,-0.5 863.12,-37.5 1250.62,-37.5 1250.62,-0.5 863.12,-0.5"/>
<text text-anchor="middle" x="1056.88" y="-24.95" font-family="Times,serif" font-size="9.00">x</text>
<polyline fill="none" stroke="black" points="863.12,-19 1250.62,-19"/>
<text text-anchor="middle" x="899.25" y="-6.45" font-family="Times,serif" font-size="9.00">type = 2 (VAR)</text>
<polyline fill="none" stroke="black" points="935.38,-0.5 935.38,-19"/>
<text text-anchor="middle" x="961.38" y="-6.45" font-family="Times,serif" font-size="9.00">left = (nil)</text>
<polyline fill="none" stroke="black" points="987.38,-0.5 987.38,-19"/>
<text text-anchor="middle" x="1038.12" y="-6.45" font-family="Times,serif" font-size="9.00">node = 0x61ff5e38edd0</text>
<polyline fill="none" stroke="black" points="1088.88,-0.5 1088.88,-19"/>
<text text-anchor="middle" x="1141.5" y="-6.45" font-family="Times,serif" font-size="9.00">parent = 0x61ff5e38eda0</text>
<polyline fill="none" stroke="black" points="1194.12,-0.5 1194.12,-19"/>
<text text-anchor="middle" x="1222.38" y="-6.45" font-family="Times,serif" font-size="9.00">right = (nil)</text>
</g>
<!-- node_0x61ff5e38eda0&#45;&gt;node_0x61ff5e38edd0 -->
<g id="edge6" class="edge">
<title>node_0x61ff5e38eda0&#45;&gt;node_0x61ff5e38edd0</title>
<path fill="none" stroke="black" d="M1056.88,-74.2C1056.88,-66.67 1056.88,-57.7 1056.88,-49.25"/>
<polygon fill="black" stroke="black" points="1060.38,-49.36 1056.88,-39.36 1053.38,-49.36 1060.38,-49.36"/>
</g>
</g>
</svg>
