<?xml version="1.0" encoding="UTF-8" standalone="no"?>
<!DOCTYPE svg PUBLIC "-//W3C//DTD SVG 1.1//EN"
 "http://www.w3.org/Graphics/SVG/1.1/DTD/svg11.dtd">
<!-- Generated by graphviz version 12.1.2 (0)
 -->
<!-- Pages: 1 -->
<svg width="804pt" height="120pt"
 viewBox="0.00 0.00 804.38 120.00" xmlns="http://www.w3.org/2000/svg" xmlns:xlink="http://www.w3.org/1999/xlink">
<g id="graph0" class="graph" transform="scale(1 1) rotate(0) translate(4 116)">
<polygon fill="white" stroke="none" points="-4,4 -4,-116 800.38,-116 800.38,4 -4,4"/>
<!-- node_0x5830f2a0ea10 -->
<g id="node1" class="node">
<title>node_0x5830f2a0ea10</title>
<polygon fill="#bdef9e" stroke="black" points="184.62,-74.5 184.62,-111.5 611.12,-111.5 611.12,-74.5 184.62,-74.5"/>
<text text-anchor="middle" x="397.88" y="-98.95" font-family="Times,serif" font-size="9.00">^</text>
<polyline fill="none" stroke="black" points="184.62,-93 611.12,-93"/>
<text text-anchor="middle" x="217.38" y="-80.45" font-family="Times,serif" font-size="9.00">type = 3 (OP)</text>
<polyline fill="none" stroke="black" points="250.12,-74.5 250.12,-93"/>
<text text-anchor="middle" x="298.25" y="-80.45" font-family="Times,serif" font-size="9.00">left = 0x5830f2a0ee60</text>
<polyline fill="none" stroke="black" points="346.38,-74.5 346.38,-93"/>
<text text-anchor="middle" x="397.5" y="-80.45" font-family="Times,serif" font-size="9.00">node = 0x5830f2a0ea10</text>
<polyline fill="none" stroke="black" points="448.62,-74.5 448.62,-93"/>
<text text-anchor="middle" x="479.88" y="-80.45" font-family="Times,serif" font-size="9.00">parent = (nil)</text>
<polyline fill="none" stroke="black" points="511.12,-74.5 511.12,-93"/>
<text text-anchor="middle" x="561.12" y="-80.45" font-family="Times,serif" font-size="9.00">right = 0x5830f2a0eea0</text>
</g>
<!-- node_0x5830f2a0ee60 -->
<g id="node2" class="node">
<title>node_0x5830f2a0ee60</title>
<polygon fill="yellow" stroke="black" points="0,-0.5 0,-37.5 389.75,-37.5 389.75,-0.5 0,-0.5"/>
<text text-anchor="middle" x="194.88" y="-24.95" font-family="Times,serif" font-size="9.00">x</text>
<polyline fill="none" stroke="black" points="0,-19 389.75,-19"/>
<text text-anchor="middle" x="36.12" y="-6.45" font-family="Times,serif" font-size="9.00">type = 2 (VAR)</text>
<polyline fill="none" stroke="black" points="72.25,-0.5 72.25,-19"/>
<text text-anchor="middle" x="98.25" y="-6.45" font-family="Times,serif" font-size="9.00">left = (nil)</text>
<polyline fill="none" stroke="black" points="124.25,-0.5 124.25,-19"/>
<text text-anchor="middle" x="175.38" y="-6.45" font-family="Times,serif" font-size="9.00">node = 0x5830f2a0ee60</text>
<polyline fill="none" stroke="black" points="226.5,-0.5 226.5,-19"/>
<text text-anchor="middle" x="279.88" y="-6.45" font-family="Times,serif" font-size="9.00">parent = 0x5830f2a0ea10</text>
<polyline fill="none" stroke="black" points="333.25,-0.5 333.25,-19"/>
<text text-anchor="middle" x="361.5" y="-6.45" font-family="Times,serif" font-size="9.00">right = (nil)</text>
</g>
<!-- node_0x5830f2a0ea10&#45;&gt;node_0x5830f2a0ee60 -->
<g id="edge1" class="edge">
<title>node_0x5830f2a0ea10&#45;&gt;node_0x5830f2a0ee60</title>
<path fill="none" stroke="black" d="M347.17,-74.02C319.46,-64.19 284.93,-51.94 255.76,-41.6"/>
<polygon fill="black" stroke="black" points="257.3,-38.43 246.71,-38.38 254.96,-45.03 257.3,-38.43"/>
</g>
<!-- node_0x5830f2a0eea0 -->
<g id="node3" class="node">
<title>node_0x5830f2a0eea0</title>
<polygon fill="yellow" stroke="black" points="407.38,-0.5 407.38,-37.5 796.38,-37.5 796.38,-0.5 407.38,-0.5"/>
<text text-anchor="middle" x="601.88" y="-24.95" font-family="Times,serif" font-size="9.00">x</text>
<polyline fill="none" stroke="black" points="407.38,-19 796.38,-19"/>
<text text-anchor="middle" x="443.5" y="-6.45" font-family="Times,serif" font-size="9.00">type = 2 (VAR)</text>
<polyline fill="none" stroke="black" points="479.62,-0.5 479.62,-19"/>
<text text-anchor="middle" x="505.62" y="-6.45" font-family="Times,serif" font-size="9.00">left = (nil)</text>
<polyline fill="none" stroke="black" points="531.62,-0.5 531.62,-19"/>
<text text-anchor="middle" x="582.38" y="-6.45" font-family="Times,serif" font-size="9.00">node = 0x5830f2a0eea0</text>
<polyline fill="none" stroke="black" points="633.12,-0.5 633.12,-19"/>
<text text-anchor="middle" x="686.5" y="-6.45" font-family="Times,serif" font-size="9.00">parent = 0x5830f2a0ea10</text>
<polyline fill="none" stroke="black" points="739.88,-0.5 739.88,-19"/>
<text text-anchor="middle" x="768.12" y="-6.45" font-family="Times,serif" font-size="9.00">right = (nil)</text>
</g>
<!-- node_0x5830f2a0ea10&#45;&gt;node_0x5830f2a0eea0 -->
<g id="edge2" class="edge">
<title>node_0x5830f2a0ea10&#45;&gt;node_0x5830f2a0eea0</title>
<path fill="none" stroke="black" d="M448.83,-74.02C476.68,-64.19 511.38,-51.94 540.69,-41.6"/>
<polygon fill="black" stroke="black" points="541.53,-45.01 549.79,-38.38 539.2,-38.41 541.53,-45.01"/>
</g>
</g>
</svg>
