<?xml version="1.0" encoding="UTF-8" standalone="no"?>
<!DOCTYPE svg PUBLIC "-//W3C//DTD SVG 1.1//EN"
 "http://www.w3.org/Graphics/SVG/1.1/DTD/svg11.dtd">
<!-- Generated by graphviz version 12.1.2 (0)
 -->
<!-- Pages: 1 -->
<svg width="1058pt" height="194pt"
 viewBox="0.00 0.00 1057.75 194.00" xmlns="http://www.w3.org/2000/svg" xmlns:xlink="http://www.w3.org/1999/xlink">
<g id="graph0" class="graph" transform="scale(1 1) rotate(0) translate(4 190)">
<polygon fill="white" stroke="none" points="-4,4 -4,-190 1053.75,-190 1053.75,4 -4,4"/>
<!-- node_0x5f6ec50154d0 -->
<g id="node1" class="node">
<title>node_0x5f6ec50154d0</title>
<polygon fill="#bdef9e" stroke="black" points="208.38,-148.5 208.38,-185.5 637.88,-185.5 637.88,-148.5 208.38,-148.5"/>
<text text-anchor="middle" x="423.12" y="-172.95" font-family="Times,serif" font-size="9.00">/</text>
<polyline fill="none" stroke="black" points="208.38,-167 637.88,-167"/>
<text text-anchor="middle" x="241.12" y="-154.45" font-family="Times,serif" font-size="9.00">type = 3 (OP)</text>
<polyline fill="none" stroke="black" points="273.88,-148.5 273.88,-167"/>
<text text-anchor="middle" x="322.38" y="-154.45" font-family="Times,serif" font-size="9.00">left = 0x5f6ec5015490</text>
<polyline fill="none" stroke="black" points="370.88,-148.5 370.88,-167"/>
<text text-anchor="middle" x="422.38" y="-154.45" font-family="Times,serif" font-size="9.00">node = 0x5f6ec50154d0</text>
<polyline fill="none" stroke="black" points="473.88,-148.5 473.88,-167"/>
<text text-anchor="middle" x="505.12" y="-154.45" font-family="Times,serif" font-size="9.00">parent = (nil)</text>
<polyline fill="none" stroke="black" points="536.38,-148.5 536.38,-167"/>
<text text-anchor="middle" x="587.12" y="-154.45" font-family="Times,serif" font-size="9.00">right = 0x5f6ec5015450</text>
</g>
<!-- node_0x5f6ec5015490 -->
<g id="node2" class="node">
<title>node_0x5f6ec5015490</title>
<polygon fill="blue" stroke="black" points="0,-74.5 0,-111.5 394.25,-111.5 394.25,-74.5 0,-74.5"/>
<text text-anchor="middle" x="197.12" y="-98.95" font-family="Times,serif" font-size="9.00">1</text>
<polyline fill="none" stroke="black" points="0,-93 394.25,-93"/>
<text text-anchor="middle" x="37.62" y="-80.45" font-family="Times,serif" font-size="9.00">type = 1 (NUM)</text>
<polyline fill="none" stroke="black" points="75.25,-74.5 75.25,-93"/>
<text text-anchor="middle" x="101.25" y="-80.45" font-family="Times,serif" font-size="9.00">left = (nil)</text>
<polyline fill="none" stroke="black" points="127.25,-74.5 127.25,-93"/>
<text text-anchor="middle" x="178.75" y="-80.45" font-family="Times,serif" font-size="9.00">node = 0x5f6ec5015490</text>
<polyline fill="none" stroke="black" points="230.25,-74.5 230.25,-93"/>
<text text-anchor="middle" x="284" y="-80.45" font-family="Times,serif" font-size="9.00">parent = 0x5f6ec50154d0</text>
<polyline fill="none" stroke="black" points="337.75,-74.5 337.75,-93"/>
<text text-anchor="middle" x="366" y="-80.45" font-family="Times,serif" font-size="9.00">right = (nil)</text>
</g>
<!-- node_0x5f6ec50154d0&#45;&gt;node_0x5f6ec5015490 -->
<g id="edge1" class="edge">
<title>node_0x5f6ec50154d0&#45;&gt;node_0x5f6ec5015490</title>
<path fill="none" stroke="black" d="M366.68,-148.02C335.55,-138.1 296.71,-125.73 264.06,-115.32"/>
<polygon fill="black" stroke="black" points="265.28,-112.04 254.69,-112.34 263.15,-118.71 265.28,-112.04"/>
</g>
<!-- node_0x5f6ec5015450 -->
<g id="node3" class="node">
<title>node_0x5f6ec5015450</title>
<polygon fill="#bdef9e" stroke="black" points="411.88,-74.5 411.88,-111.5 886.38,-111.5 886.38,-74.5 411.88,-74.5"/>
<text text-anchor="middle" x="649.12" y="-98.95" font-family="Times,serif" font-size="9.00">*</text>
<polyline fill="none" stroke="black" points="411.88,-93 886.38,-93"/>
<text text-anchor="middle" x="444.62" y="-80.45" font-family="Times,serif" font-size="9.00">type = 3 (OP)</text>
<polyline fill="none" stroke="black" points="477.38,-74.5 477.38,-93"/>
<text text-anchor="middle" x="525.88" y="-80.45" font-family="Times,serif" font-size="9.00">left = 0x5f6ec5015410</text>
<polyline fill="none" stroke="black" points="574.38,-74.5 574.38,-93"/>
<text text-anchor="middle" x="625.88" y="-80.45" font-family="Times,serif" font-size="9.00">node = 0x5f6ec5015450</text>
<polyline fill="none" stroke="black" points="677.38,-74.5 677.38,-93"/>
<text text-anchor="middle" x="731.12" y="-80.45" font-family="Times,serif" font-size="9.00">parent = 0x5f6ec50154d0</text>
<polyline fill="none" stroke="black" points="784.88,-74.5 784.88,-93"/>
<text text-anchor="middle" x="835.62" y="-80.45" font-family="Times,serif" font-size="9.00">right = 0x5f6ec5015390</text>
</g>
<!-- node_0x5f6ec50154d0&#45;&gt;node_0x5f6ec5015450 -->
<g id="edge2" class="edge">
<title>node_0x5f6ec50154d0&#45;&gt;node_0x5f6ec5015450</title>
<path fill="none" stroke="black" d="M479.57,-148.02C510.7,-138.1 549.54,-125.73 582.19,-115.32"/>
<polygon fill="black" stroke="black" points="583.1,-118.71 591.56,-112.34 580.97,-112.04 583.1,-118.71"/>
</g>
<!-- node_0x5f6ec5015410 -->
<g id="node4" class="node">
<title>node_0x5f6ec5015410</title>
<polygon fill="blue" stroke="black" points="246,-0.5 246,-37.5 640.25,-37.5 640.25,-0.5 246,-0.5"/>
<text text-anchor="middle" x="443.12" y="-24.95" font-family="Times,serif" font-size="9.00">1.09861</text>
<polyline fill="none" stroke="black" points="246,-19 640.25,-19"/>
<text text-anchor="middle" x="283.62" y="-6.45" font-family="Times,serif" font-size="9.00">type = 1 (NUM)</text>
<polyline fill="none" stroke="black" points="321.25,-0.5 321.25,-19"/>
<text text-anchor="middle" x="347.25" y="-6.45" font-family="Times,serif" font-size="9.00">left = (nil)</text>
<polyline fill="none" stroke="black" points="373.25,-0.5 373.25,-19"/>
<text text-anchor="middle" x="424.75" y="-6.45" font-family="Times,serif" font-size="9.00">node = 0x5f6ec5015410</text>
<polyline fill="none" stroke="black" points="476.25,-0.5 476.25,-19"/>
<text text-anchor="middle" x="530" y="-6.45" font-family="Times,serif" font-size="9.00">parent = 0x5f6ec5015450</text>
<polyline fill="none" stroke="black" points="583.75,-0.5 583.75,-19"/>
<text text-anchor="middle" x="612" y="-6.45" font-family="Times,serif" font-size="9.00">right = (nil)</text>
</g>
<!-- node_0x5f6ec5015450&#45;&gt;node_0x5f6ec5015410 -->
<g id="edge3" class="edge">
<title>node_0x5f6ec5015450&#45;&gt;node_0x5f6ec5015410</title>
<path fill="none" stroke="black" d="M597.67,-74.02C569.55,-64.19 534.51,-51.94 504.91,-41.6"/>
<polygon fill="black" stroke="black" points="506.3,-38.37 495.71,-38.38 503.99,-44.98 506.3,-38.37"/>
</g>
<!-- node_0x5f6ec5015390 -->
<g id="node5" class="node">
<title>node_0x5f6ec5015390</title>
<polygon fill="yellow" stroke="black" points="658.5,-0.5 658.5,-37.5 1049.75,-37.5 1049.75,-0.5 658.5,-0.5"/>
<text text-anchor="middle" x="854.12" y="-24.95" font-family="Times,serif" font-size="9.00">x</text>
<polyline fill="none" stroke="black" points="658.5,-19 1049.75,-19"/>
<text text-anchor="middle" x="694.62" y="-6.45" font-family="Times,serif" font-size="9.00">type = 2 (VAR)</text>
<polyline fill="none" stroke="black" points="730.75,-0.5 730.75,-19"/>
<text text-anchor="middle" x="756.75" y="-6.45" font-family="Times,serif" font-size="9.00">left = (nil)</text>
<polyline fill="none" stroke="black" points="782.75,-0.5 782.75,-19"/>
<text text-anchor="middle" x="834.25" y="-6.45" font-family="Times,serif" font-size="9.00">node = 0x5f6ec5015390</text>
<polyline fill="none" stroke="black" points="885.75,-0.5 885.75,-19"/>
<text text-anchor="middle" x="939.5" y="-6.45" font-family="Times,serif" font-size="9.00">parent = 0x5f6ec5015450</text>
<polyline fill="none" stroke="black" points="993.25,-0.5 993.25,-19"/>
<text text-anchor="middle" x="1021.5" y="-6.45" font-family="Times,serif" font-size="9.00">right = (nil)</text>
</g>
<!-- node_0x5f6ec5015450&#45;&gt;node_0x5f6ec5015390 -->
<g id="edge4" class="edge">
<title>node_0x5f6ec5015450&#45;&gt;node_0x5f6ec5015390</title>
<path fill="none" stroke="black" d="M700.33,-74.02C728.32,-64.19 763.18,-51.94 792.64,-41.6"/>
<polygon fill="black" stroke="black" points="793.52,-45 801.79,-38.38 791.2,-38.39 793.52,-45"/>
</g>
</g>
</svg>
