<?xml version="1.0" encoding="UTF-8" standalone="no"?>
<!DOCTYPE svg PUBLIC "-//W3C//DTD SVG 1.1//EN"
 "http://www.w3.org/Graphics/SVG/1.1/DTD/svg11.dtd">
<!-- Generated by graphviz version 12.1.2 (0)
 -->
<!-- Pages: 1 -->
<svg width="1729pt" height="268pt"
 viewBox="0.00 0.00 1729.00 268.00" xmlns="http://www.w3.org/2000/svg" xmlns:xlink="http://www.w3.org/1999/xlink">
<g id="graph0" class="graph" transform="scale(1 1) rotate(0) translate(4 264)">
<polygon fill="white" stroke="none" points="-4,4 -4,-264 1725,-264 1725,4 -4,4"/>
<!-- node_0x577b7b5979f0 -->
<g id="node1" class="node">
<title>node_0x577b7b5979f0</title>
<polygon fill="#bdef9e" stroke="black" points="633.62,-222.5 633.62,-259.5 1069.88,-259.5 1069.88,-222.5 633.62,-222.5"/>
<text text-anchor="middle" x="851.75" y="-246.95" font-family="Times,serif" font-size="9.00">/</text>
<polyline fill="none" stroke="black" points="633.62,-241 1069.88,-241"/>
<text text-anchor="middle" x="666.38" y="-228.45" font-family="Times,serif" font-size="9.00">type = 3 (OP)</text>
<polyline fill="none" stroke="black" points="699.12,-222.5 699.12,-241"/>
<text text-anchor="middle" x="748.75" y="-228.45" font-family="Times,serif" font-size="9.00">left = 0x577b7b5979c0</text>
<polyline fill="none" stroke="black" points="798.38,-222.5 798.38,-241"/>
<text text-anchor="middle" x="850.62" y="-228.45" font-family="Times,serif" font-size="9.00">node = 0x577b7b5979f0</text>
<polyline fill="none" stroke="black" points="902.88,-222.5 902.88,-241"/>
<text text-anchor="middle" x="934.12" y="-228.45" font-family="Times,serif" font-size="9.00">parent = (nil)</text>
<polyline fill="none" stroke="black" points="965.38,-222.5 965.38,-241"/>
<text text-anchor="middle" x="1017.62" y="-228.45" font-family="Times,serif" font-size="9.00">right = 0x577b7b597990</text>
</g>
<!-- node_0x577b7b5979c0 -->
<g id="node2" class="node">
<title>node_0x577b7b5979c0</title>
<polygon fill="#bdef9e" stroke="black" points="358.62,-148.5 358.62,-185.5 842.88,-185.5 842.88,-148.5 358.62,-148.5"/>
<text text-anchor="middle" x="600.75" y="-172.95" font-family="Times,serif" font-size="9.00">+</text>
<polyline fill="none" stroke="black" points="358.62,-167 842.88,-167"/>
<text text-anchor="middle" x="391.38" y="-154.45" font-family="Times,serif" font-size="9.00">type = 3 (OP)</text>
<polyline fill="none" stroke="black" points="424.12,-148.5 424.12,-167"/>
<text text-anchor="middle" x="474.12" y="-154.45" font-family="Times,serif" font-size="9.00">left = 0x577b7b597930</text>
<polyline fill="none" stroke="black" points="524.12,-148.5 524.12,-167"/>
<text text-anchor="middle" x="576.75" y="-154.45" font-family="Times,serif" font-size="9.00">node = 0x577b7b5979c0</text>
<polyline fill="none" stroke="black" points="629.38,-148.5 629.38,-167"/>
<text text-anchor="middle" x="683.88" y="-154.45" font-family="Times,serif" font-size="9.00">parent = 0x577b7b5979f0</text>
<polyline fill="none" stroke="black" points="738.38,-148.5 738.38,-167"/>
<text text-anchor="middle" x="790.62" y="-154.45" font-family="Times,serif" font-size="9.00">right = 0x577b7b597900</text>
</g>
<!-- node_0x577b7b5979f0&#45;&gt;node_0x577b7b5979c0 -->
<g id="edge1" class="edge">
<title>node_0x577b7b5979f0&#45;&gt;node_0x577b7b5979c0</title>
<path fill="none" stroke="black" d="M789.06,-222.02C754.04,-211.97 710.22,-199.4 673.67,-188.92"/>
<polygon fill="black" stroke="black" points="675.11,-185.69 664.53,-186.3 673.18,-192.42 675.11,-185.69"/>
</g>
<!-- node_0x577b7b597990 -->
<g id="node5" class="node">
<title>node_0x577b7b597990</title>
<polygon fill="#bdef9e" stroke="black" points="860.62,-148.5 860.62,-185.5 1344.88,-185.5 1344.88,-148.5 860.62,-148.5"/>
<text text-anchor="middle" x="1102.75" y="-172.95" font-family="Times,serif" font-size="9.00">+</text>
<polyline fill="none" stroke="black" points="860.62,-167 1344.88,-167"/>
<text text-anchor="middle" x="893.38" y="-154.45" font-family="Times,serif" font-size="9.00">type = 3 (OP)</text>
<polyline fill="none" stroke="black" points="926.12,-148.5 926.12,-167"/>
<text text-anchor="middle" x="976.12" y="-154.45" font-family="Times,serif" font-size="9.00">left = 0x577b7b597960</text>
<polyline fill="none" stroke="black" points="1026.12,-148.5 1026.12,-167"/>
<text text-anchor="middle" x="1079.12" y="-154.45" font-family="Times,serif" font-size="9.00">node = 0x577b7b597990</text>
<polyline fill="none" stroke="black" points="1132.12,-148.5 1132.12,-167"/>
<text text-anchor="middle" x="1186.62" y="-154.45" font-family="Times,serif" font-size="9.00">parent = 0x577b7b5979f0</text>
<polyline fill="none" stroke="black" points="1241.12,-148.5 1241.12,-167"/>
<text text-anchor="middle" x="1293" y="-154.45" font-family="Times,serif" font-size="9.00">right = 0x577b7b5978a0</text>
</g>
<!-- node_0x577b7b5979f0&#45;&gt;node_0x577b7b597990 -->
<g id="edge4" class="edge">
<title>node_0x577b7b5979f0&#45;&gt;node_0x577b7b597990</title>
<path fill="none" stroke="black" d="M914.44,-222.02C949.46,-211.97 993.28,-199.4 1029.83,-188.92"/>
<polygon fill="black" stroke="black" points="1030.32,-192.42 1038.97,-186.3 1028.39,-185.69 1030.32,-192.42"/>
</g>
<!-- node_0x577b7b597930 -->
<g id="node3" class="node">
<title>node_0x577b7b597930</title>
<polygon fill="blue" stroke="black" points="0,-74.5 0,-111.5 399.5,-111.5 399.5,-74.5 0,-74.5"/>
<text text-anchor="middle" x="199.75" y="-98.95" font-family="Times,serif" font-size="9.00">30</text>
<polyline fill="none" stroke="black" points="0,-93 399.5,-93"/>
<text text-anchor="middle" x="37.62" y="-80.45" font-family="Times,serif" font-size="9.00">type = 1 (NUM)</text>
<polyline fill="none" stroke="black" points="75.25,-74.5 75.25,-93"/>
<text text-anchor="middle" x="101.25" y="-80.45" font-family="Times,serif" font-size="9.00">left = (nil)</text>
<polyline fill="none" stroke="black" points="127.25,-74.5 127.25,-93"/>
<text text-anchor="middle" x="180.25" y="-80.45" font-family="Times,serif" font-size="9.00">node = 0x577b7b597930</text>
<polyline fill="none" stroke="black" points="233.25,-74.5 233.25,-93"/>
<text text-anchor="middle" x="288.12" y="-80.45" font-family="Times,serif" font-size="9.00">parent = 0x577b7b5979c0</text>
<polyline fill="none" stroke="black" points="343,-74.5 343,-93"/>
<text text-anchor="middle" x="371.25" y="-80.45" font-family="Times,serif" font-size="9.00">right = (nil)</text>
</g>
<!-- node_0x577b7b5979c0&#45;&gt;node_0x577b7b597930 -->
<g id="edge2" class="edge">
<title>node_0x577b7b5979c0&#45;&gt;node_0x577b7b597930</title>
<path fill="none" stroke="black" d="M500.6,-148.02C442.95,-137.67 370.4,-124.64 310.99,-113.97"/>
<polygon fill="black" stroke="black" points="311.62,-110.53 301.16,-112.21 310.38,-117.42 311.62,-110.53"/>
</g>
<!-- node_0x577b7b597900 -->
<g id="node4" class="node">
<title>node_0x577b7b597900</title>
<polygon fill="blue" stroke="black" points="418,-74.5 418,-111.5 817.5,-111.5 817.5,-74.5 418,-74.5"/>
<text text-anchor="middle" x="617.75" y="-98.95" font-family="Times,serif" font-size="9.00">50</text>
<polyline fill="none" stroke="black" points="418,-93 817.5,-93"/>
<text text-anchor="middle" x="455.62" y="-80.45" font-family="Times,serif" font-size="9.00">type = 1 (NUM)</text>
<polyline fill="none" stroke="black" points="493.25,-74.5 493.25,-93"/>
<text text-anchor="middle" x="519.25" y="-80.45" font-family="Times,serif" font-size="9.00">left = (nil)</text>
<polyline fill="none" stroke="black" points="545.25,-74.5 545.25,-93"/>
<text text-anchor="middle" x="598.25" y="-80.45" font-family="Times,serif" font-size="9.00">node = 0x577b7b597900</text>
<polyline fill="none" stroke="black" points="651.25,-74.5 651.25,-93"/>
<text text-anchor="middle" x="706.12" y="-80.45" font-family="Times,serif" font-size="9.00">parent = 0x577b7b5979c0</text>
<polyline fill="none" stroke="black" points="761,-74.5 761,-93"/>
<text text-anchor="middle" x="789.25" y="-80.45" font-family="Times,serif" font-size="9.00">right = (nil)</text>
</g>
<!-- node_0x577b7b5979c0&#45;&gt;node_0x577b7b597900 -->
<g id="edge3" class="edge">
<title>node_0x577b7b5979c0&#45;&gt;node_0x577b7b597900</title>
<path fill="none" stroke="black" d="M604.95,-148.2C606.75,-140.59 608.9,-131.5 610.91,-122.96"/>
<polygon fill="black" stroke="black" points="614.3,-123.85 613.19,-113.32 607.49,-122.24 614.3,-123.85"/>
</g>
<!-- node_0x577b7b597960 -->
<g id="node6" class="node">
<title>node_0x577b7b597960</title>
<polygon fill="#bdef9e" stroke="black" points="867.5,-74.5 867.5,-111.5 1306,-111.5 1306,-74.5 867.5,-74.5"/>
<text text-anchor="middle" x="1086.75" y="-98.95" font-family="Times,serif" font-size="9.00">sin</text>
<polyline fill="none" stroke="black" points="867.5,-93 1306,-93"/>
<text text-anchor="middle" x="900.25" y="-80.45" font-family="Times,serif" font-size="9.00">type = 3 (OP)</text>
<polyline fill="none" stroke="black" points="933,-74.5 933,-93"/>
<text text-anchor="middle" x="959" y="-80.45" font-family="Times,serif" font-size="9.00">left = (nil)</text>
<polyline fill="none" stroke="black" points="985,-74.5 985,-93"/>
<text text-anchor="middle" x="1038" y="-80.45" font-family="Times,serif" font-size="9.00">node = 0x577b7b597960</text>
<polyline fill="none" stroke="black" points="1091,-74.5 1091,-93"/>
<text text-anchor="middle" x="1146.25" y="-80.45" font-family="Times,serif" font-size="9.00">parent = 0x577b7b597990</text>
<polyline fill="none" stroke="black" points="1201.5,-74.5 1201.5,-93"/>
<text text-anchor="middle" x="1253.75" y="-80.45" font-family="Times,serif" font-size="9.00">right = 0x577b7b5978d0</text>
</g>
<!-- node_0x577b7b597990&#45;&gt;node_0x577b7b597960 -->
<g id="edge5" class="edge">
<title>node_0x577b7b597990&#45;&gt;node_0x577b7b597960</title>
<path fill="none" stroke="black" d="M1098.79,-148.2C1097.1,-140.59 1095.08,-131.5 1093.18,-122.96"/>
<polygon fill="black" stroke="black" points="1096.63,-122.32 1091.04,-113.32 1089.8,-123.84 1096.63,-122.32"/>
</g>
<!-- node_0x577b7b5978a0 -->
<g id="node8" class="node">
<title>node_0x577b7b5978a0</title>
<polygon fill="yellow" stroke="black" points="1324.5,-74.5 1324.5,-111.5 1721,-111.5 1721,-74.5 1324.5,-74.5"/>
<text text-anchor="middle" x="1522.75" y="-98.95" font-family="Times,serif" font-size="9.00">x</text>
<polyline fill="none" stroke="black" points="1324.5,-93 1721,-93"/>
<text text-anchor="middle" x="1360.62" y="-80.45" font-family="Times,serif" font-size="9.00">type = 2 (VAR)</text>
<polyline fill="none" stroke="black" points="1396.75,-74.5 1396.75,-93"/>
<text text-anchor="middle" x="1422.75" y="-80.45" font-family="Times,serif" font-size="9.00">left = (nil)</text>
<polyline fill="none" stroke="black" points="1448.75,-74.5 1448.75,-93"/>
<text text-anchor="middle" x="1501.38" y="-80.45" font-family="Times,serif" font-size="9.00">node = 0x577b7b5978a0</text>
<polyline fill="none" stroke="black" points="1554,-74.5 1554,-93"/>
<text text-anchor="middle" x="1609.25" y="-80.45" font-family="Times,serif" font-size="9.00">parent = 0x577b7b597990</text>
<polyline fill="none" stroke="black" points="1664.5,-74.5 1664.5,-93"/>
<text text-anchor="middle" x="1692.75" y="-80.45" font-family="Times,serif" font-size="9.00">right = (nil)</text>
</g>
<!-- node_0x577b7b597990&#45;&gt;node_0x577b7b5978a0 -->
<g id="edge7" class="edge">
<title>node_0x577b7b597990&#45;&gt;node_0x577b7b5978a0</title>
<path fill="none" stroke="black" d="M1207.65,-148.02C1268.28,-137.62 1344.65,-124.53 1407.02,-113.84"/>
<polygon fill="black" stroke="black" points="1407.34,-117.34 1416.6,-112.2 1406.16,-110.44 1407.34,-117.34"/>
</g>
<!-- node_0x577b7b5978d0 -->
<g id="node7" class="node">
<title>node_0x577b7b5978d0</title>
<polygon fill="yellow" stroke="black" points="888.12,-0.5 888.12,-37.5 1285.38,-37.5 1285.38,-0.5 888.12,-0.5"/>
<text text-anchor="middle" x="1086.75" y="-24.95" font-family="Times,serif" font-size="9.00">x</text>
<polyline fill="none" stroke="black" points="888.12,-19 1285.38,-19"/>
<text text-anchor="middle" x="924.25" y="-6.45" font-family="Times,serif" font-size="9.00">type = 2 (VAR)</text>
<polyline fill="none" stroke="black" points="960.38,-0.5 960.38,-19"/>
<text text-anchor="middle" x="986.38" y="-6.45" font-family="Times,serif" font-size="9.00">left = (nil)</text>
<polyline fill="none" stroke="black" points="1012.38,-0.5 1012.38,-19"/>
<text text-anchor="middle" x="1065.38" y="-6.45" font-family="Times,serif" font-size="9.00">node = 0x577b7b5978d0</text>
<polyline fill="none" stroke="black" points="1118.38,-0.5 1118.38,-19"/>
<text text-anchor="middle" x="1173.62" y="-6.45" font-family="Times,serif" font-size="9.00">parent = 0x577b7b597960</text>
<polyline fill="none" stroke="black" points="1228.88,-0.5 1228.88,-19"/>
<text text-anchor="middle" x="1257.12" y="-6.45" font-family="Times,serif" font-size="9.00">right = (nil)</text>
</g>
<!-- node_0x577b7b597960&#45;&gt;node_0x577b7b5978d0 -->
<g id="edge6" class="edge">
<title>node_0x577b7b597960&#45;&gt;node_0x577b7b5978d0</title>
<path fill="none" stroke="black" d="M1086.75,-74.2C1086.75,-66.67 1086.75,-57.7 1086.75,-49.25"/>
<polygon fill="black" stroke="black" points="1090.25,-49.36 1086.75,-39.36 1083.25,-49.36 1090.25,-49.36"/>
</g>
</g>
</svg>
