<?xml version="1.0" encoding="UTF-8" standalone="no"?>
<!DOCTYPE svg PUBLIC "-//W3C//DTD SVG 1.1//EN"
 "http://www.w3.org/Graphics/SVG/1.1/DTD/svg11.dtd">
<!-- Generated by graphviz version 12.1.2 (0)
 -->
<!-- Pages: 1 -->
<svg width="2103pt" height="268pt"
 viewBox="0.00 0.00 2102.50 268.00" xmlns="http://www.w3.org/2000/svg" xmlns:xlink="http://www.w3.org/1999/xlink">
<g id="graph0" class="graph" transform="scale(1 1) rotate(0) translate(4 264)">
<polygon fill="white" stroke="none" points="-4,4 -4,-264 2098.5,-264 2098.5,4 -4,4"/>
<!-- node_0x5dfcec130a10 -->
<g id="node1" class="node">
<title>node_0x5dfcec130a10</title>
<polygon fill="#bdef9e" stroke="black" points="619.12,-222.5 619.12,-259.5 1043.38,-259.5 1043.38,-222.5 619.12,-222.5"/>
<text text-anchor="middle" x="831.25" y="-246.95" font-family="Times,serif" font-size="9.00">/</text>
<polyline fill="none" stroke="black" points="619.12,-241 1043.38,-241"/>
<text text-anchor="middle" x="651.88" y="-228.45" font-family="Times,serif" font-size="9.00">type = 3 (OP)</text>
<polyline fill="none" stroke="black" points="684.62,-222.5 684.62,-241"/>
<text text-anchor="middle" x="732.38" y="-228.45" font-family="Times,serif" font-size="9.00">left = 0x5dfcec130e60</text>
<polyline fill="none" stroke="black" points="780.12,-222.5 780.12,-241"/>
<text text-anchor="middle" x="830.88" y="-228.45" font-family="Times,serif" font-size="9.00">node = 0x5dfcec130a10</text>
<polyline fill="none" stroke="black" points="881.62,-222.5 881.62,-241"/>
<text text-anchor="middle" x="912.88" y="-228.45" font-family="Times,serif" font-size="9.00">parent = (nil)</text>
<polyline fill="none" stroke="black" points="944.12,-222.5 944.12,-241"/>
<text text-anchor="middle" x="993.75" y="-228.45" font-family="Times,serif" font-size="9.00">right = 0x5dfcec130f20</text>
</g>
<!-- node_0x5dfcec130e60 -->
<g id="node2" class="node">
<title>node_0x5dfcec130e60</title>
<polygon fill="#bdef9e" stroke="black" points="355.75,-148.5 355.75,-185.5 822.75,-185.5 822.75,-148.5 355.75,-148.5"/>
<text text-anchor="middle" x="589.25" y="-172.95" font-family="Times,serif" font-size="9.00">+</text>
<polyline fill="none" stroke="black" points="355.75,-167 822.75,-167"/>
<text text-anchor="middle" x="388.5" y="-154.45" font-family="Times,serif" font-size="9.00">type = 3 (OP)</text>
<polyline fill="none" stroke="black" points="421.25,-148.5 421.25,-167"/>
<text text-anchor="middle" x="468.62" y="-154.45" font-family="Times,serif" font-size="9.00">left = 0x5dfcec130ea0</text>
<polyline fill="none" stroke="black" points="516,-148.5 516,-167"/>
<text text-anchor="middle" x="566.75" y="-154.45" font-family="Times,serif" font-size="9.00">node = 0x5dfcec130e60</text>
<polyline fill="none" stroke="black" points="617.5,-148.5 617.5,-167"/>
<text text-anchor="middle" x="670.5" y="-154.45" font-family="Times,serif" font-size="9.00">parent = 0x5dfcec130a10</text>
<polyline fill="none" stroke="black" points="723.5,-148.5 723.5,-167"/>
<text text-anchor="middle" x="773.12" y="-154.45" font-family="Times,serif" font-size="9.00">right = 0x5dfcec130ee0</text>
</g>
<!-- node_0x5dfcec130a10&#45;&gt;node_0x5dfcec130e60 -->
<g id="edge1" class="edge">
<title>node_0x5dfcec130a10&#45;&gt;node_0x5dfcec130e60</title>
<path fill="none" stroke="black" d="M770.81,-222.02C737.19,-212.01 695.16,-199.51 660.01,-189.05"/>
<polygon fill="black" stroke="black" points="661.37,-185.81 650.79,-186.31 659.38,-192.52 661.37,-185.81"/>
</g>
<!-- node_0x5dfcec130f20 -->
<g id="node5" class="node">
<title>node_0x5dfcec130f20</title>
<polygon fill="#bdef9e" stroke="black" points="840.5,-148.5 840.5,-185.5 1306,-185.5 1306,-148.5 840.5,-148.5"/>
<text text-anchor="middle" x="1073.25" y="-172.95" font-family="Times,serif" font-size="9.00">+</text>
<polyline fill="none" stroke="black" points="840.5,-167 1306,-167"/>
<text text-anchor="middle" x="873.25" y="-154.45" font-family="Times,serif" font-size="9.00">type = 3 (OP)</text>
<polyline fill="none" stroke="black" points="906,-148.5 906,-167"/>
<text text-anchor="middle" x="953.38" y="-154.45" font-family="Times,serif" font-size="9.00">left = 0x5dfcec130f60</text>
<polyline fill="none" stroke="black" points="1000.75,-148.5 1000.75,-167"/>
<text text-anchor="middle" x="1051.12" y="-154.45" font-family="Times,serif" font-size="9.00">node = 0x5dfcec130f20</text>
<polyline fill="none" stroke="black" points="1101.5,-148.5 1101.5,-167"/>
<text text-anchor="middle" x="1154.5" y="-154.45" font-family="Times,serif" font-size="9.00">parent = 0x5dfcec130a10</text>
<polyline fill="none" stroke="black" points="1207.5,-148.5 1207.5,-167"/>
<text text-anchor="middle" x="1256.75" y="-154.45" font-family="Times,serif" font-size="9.00">right = 0x5dfcec130fe0</text>
</g>
<!-- node_0x5dfcec130a10&#45;&gt;node_0x5dfcec130f20 -->
<g id="edge4" class="edge">
<title>node_0x5dfcec130a10&#45;&gt;node_0x5dfcec130f20</title>
<path fill="none" stroke="black" d="M891.69,-222.02C925.31,-212.01 967.34,-199.51 1002.49,-189.05"/>
<polygon fill="black" stroke="black" points="1003.12,-192.52 1011.71,-186.31 1001.13,-185.81 1003.12,-192.52"/>
</g>
<!-- node_0x5dfcec130ea0 -->
<g id="node3" class="node">
<title>node_0x5dfcec130ea0</title>
<polygon fill="blue" stroke="black" points="0,-74.5 0,-111.5 390.5,-111.5 390.5,-74.5 0,-74.5"/>
<text text-anchor="middle" x="195.25" y="-98.95" font-family="Times,serif" font-size="9.00">30</text>
<polyline fill="none" stroke="black" points="0,-93 390.5,-93"/>
<text text-anchor="middle" x="37.62" y="-80.45" font-family="Times,serif" font-size="9.00">type = 1 (NUM)</text>
<polyline fill="none" stroke="black" points="75.25,-74.5 75.25,-93"/>
<text text-anchor="middle" x="101.25" y="-80.45" font-family="Times,serif" font-size="9.00">left = (nil)</text>
<polyline fill="none" stroke="black" points="127.25,-74.5 127.25,-93"/>
<text text-anchor="middle" x="177.62" y="-80.45" font-family="Times,serif" font-size="9.00">node = 0x5dfcec130ea0</text>
<polyline fill="none" stroke="black" points="228,-74.5 228,-93"/>
<text text-anchor="middle" x="281" y="-80.45" font-family="Times,serif" font-size="9.00">parent = 0x5dfcec130e60</text>
<polyline fill="none" stroke="black" points="334,-74.5 334,-93"/>
<text text-anchor="middle" x="362.25" y="-80.45" font-family="Times,serif" font-size="9.00">right = (nil)</text>
</g>
<!-- node_0x5dfcec130e60&#45;&gt;node_0x5dfcec130ea0 -->
<g id="edge2" class="edge">
<title>node_0x5dfcec130e60&#45;&gt;node_0x5dfcec130ea0</title>
<path fill="none" stroke="black" d="M490.84,-148.02C434.21,-137.67 362.92,-124.64 304.54,-113.97"/>
<polygon fill="black" stroke="black" points="305.38,-110.57 294.91,-112.21 304.12,-117.45 305.38,-110.57"/>
</g>
<!-- node_0x5dfcec130ee0 -->
<g id="node4" class="node">
<title>node_0x5dfcec130ee0</title>
<polygon fill="blue" stroke="black" points="409,-74.5 409,-111.5 799.5,-111.5 799.5,-74.5 409,-74.5"/>
<text text-anchor="middle" x="604.25" y="-98.95" font-family="Times,serif" font-size="9.00">50</text>
<polyline fill="none" stroke="black" points="409,-93 799.5,-93"/>
<text text-anchor="middle" x="446.62" y="-80.45" font-family="Times,serif" font-size="9.00">type = 1 (NUM)</text>
<polyline fill="none" stroke="black" points="484.25,-74.5 484.25,-93"/>
<text text-anchor="middle" x="510.25" y="-80.45" font-family="Times,serif" font-size="9.00">left = (nil)</text>
<polyline fill="none" stroke="black" points="536.25,-74.5 536.25,-93"/>
<text text-anchor="middle" x="586.62" y="-80.45" font-family="Times,serif" font-size="9.00">node = 0x5dfcec130ee0</text>
<polyline fill="none" stroke="black" points="637,-74.5 637,-93"/>
<text text-anchor="middle" x="690" y="-80.45" font-family="Times,serif" font-size="9.00">parent = 0x5dfcec130e60</text>
<polyline fill="none" stroke="black" points="743,-74.5 743,-93"/>
<text text-anchor="middle" x="771.25" y="-80.45" font-family="Times,serif" font-size="9.00">right = (nil)</text>
</g>
<!-- node_0x5dfcec130e60&#45;&gt;node_0x5dfcec130ee0 -->
<g id="edge3" class="edge">
<title>node_0x5dfcec130e60&#45;&gt;node_0x5dfcec130ee0</title>
<path fill="none" stroke="black" d="M592.96,-148.2C594.54,-140.59 596.44,-131.5 598.22,-122.96"/>
<polygon fill="black" stroke="black" points="601.61,-123.83 600.22,-113.32 594.76,-122.4 601.61,-123.83"/>
</g>
<!-- node_0x5dfcec130f60 -->
<g id="node6" class="node">
<title>node_0x5dfcec130f60</title>
<polygon fill="#bdef9e" stroke="black" points="847.25,-74.5 847.25,-111.5 1269.25,-111.5 1269.25,-74.5 847.25,-74.5"/>
<text text-anchor="middle" x="1058.25" y="-98.95" font-family="Times,serif" font-size="9.00">sin</text>
<polyline fill="none" stroke="black" points="847.25,-93 1269.25,-93"/>
<text text-anchor="middle" x="880" y="-80.45" font-family="Times,serif" font-size="9.00">type = 3 (OP)</text>
<polyline fill="none" stroke="black" points="912.75,-74.5 912.75,-93"/>
<text text-anchor="middle" x="938.75" y="-80.45" font-family="Times,serif" font-size="9.00">left = (nil)</text>
<polyline fill="none" stroke="black" points="964.75,-74.5 964.75,-93"/>
<text text-anchor="middle" x="1015.12" y="-80.45" font-family="Times,serif" font-size="9.00">node = 0x5dfcec130f60</text>
<polyline fill="none" stroke="black" points="1065.5,-74.5 1065.5,-93"/>
<text text-anchor="middle" x="1118.12" y="-80.45" font-family="Times,serif" font-size="9.00">parent = 0x5dfcec130f20</text>
<polyline fill="none" stroke="black" points="1170.75,-74.5 1170.75,-93"/>
<text text-anchor="middle" x="1220" y="-80.45" font-family="Times,serif" font-size="9.00">right = 0x5dfcec130fa0</text>
</g>
<!-- node_0x5dfcec130f20&#45;&gt;node_0x5dfcec130f60 -->
<g id="edge5" class="edge">
<title>node_0x5dfcec130f20&#45;&gt;node_0x5dfcec130f60</title>
<path fill="none" stroke="black" d="M1069.54,-148.2C1067.96,-140.59 1066.06,-131.5 1064.28,-122.96"/>
<polygon fill="black" stroke="black" points="1067.74,-122.4 1062.28,-113.32 1060.89,-123.83 1067.74,-122.4"/>
</g>
<!-- node_0x5dfcec130fe0 -->
<g id="node8" class="node">
<title>node_0x5dfcec130fe0</title>
<polygon fill="#bdef9e" stroke="black" points="1287.38,-74.5 1287.38,-111.5 1755.12,-111.5 1755.12,-74.5 1287.38,-74.5"/>
<text text-anchor="middle" x="1521.25" y="-98.95" font-family="Times,serif" font-size="9.00">+</text>
<polyline fill="none" stroke="black" points="1287.38,-93 1755.12,-93"/>
<text text-anchor="middle" x="1320.12" y="-80.45" font-family="Times,serif" font-size="9.00">type = 3 (OP)</text>
<polyline fill="none" stroke="black" points="1352.88,-74.5 1352.88,-93"/>
<text text-anchor="middle" x="1401" y="-80.45" font-family="Times,serif" font-size="9.00">left = 0x5dfcec131020</text>
<polyline fill="none" stroke="black" points="1449.12,-74.5 1449.12,-93"/>
<text text-anchor="middle" x="1499.12" y="-80.45" font-family="Times,serif" font-size="9.00">node = 0x5dfcec130fe0</text>
<polyline fill="none" stroke="black" points="1549.12,-74.5 1549.12,-93"/>
<text text-anchor="middle" x="1601.75" y="-80.45" font-family="Times,serif" font-size="9.00">parent = 0x5dfcec130f20</text>
<polyline fill="none" stroke="black" points="1654.38,-74.5 1654.38,-93"/>
<text text-anchor="middle" x="1704.75" y="-80.45" font-family="Times,serif" font-size="9.00">right = 0x5dfcec131060</text>
</g>
<!-- node_0x5dfcec130f20&#45;&gt;node_0x5dfcec130fe0 -->
<g id="edge7" class="edge">
<title>node_0x5dfcec130f20&#45;&gt;node_0x5dfcec130fe0</title>
<path fill="none" stroke="black" d="M1185.14,-148.02C1250.08,-137.58 1331.95,-124.42 1398.63,-113.71"/>
<polygon fill="black" stroke="black" points="1398.81,-117.22 1408.12,-112.18 1397.7,-110.31 1398.81,-117.22"/>
</g>
<!-- node_0x5dfcec130fa0 -->
<g id="node7" class="node">
<title>node_0x5dfcec130fa0</title>
<polygon fill="yellow" stroke="black" points="865.25,-0.5 865.25,-37.5 1251.25,-37.5 1251.25,-0.5 865.25,-0.5"/>
<text text-anchor="middle" x="1058.25" y="-24.95" font-family="Times,serif" font-size="9.00">y</text>
<polyline fill="none" stroke="black" points="865.25,-19 1251.25,-19"/>
<text text-anchor="middle" x="901.38" y="-6.45" font-family="Times,serif" font-size="9.00">type = 2 (VAR)</text>
<polyline fill="none" stroke="black" points="937.5,-0.5 937.5,-19"/>
<text text-anchor="middle" x="963.5" y="-6.45" font-family="Times,serif" font-size="9.00">left = (nil)</text>
<polyline fill="none" stroke="black" points="989.5,-0.5 989.5,-19"/>
<text text-anchor="middle" x="1039.5" y="-6.45" font-family="Times,serif" font-size="9.00">node = 0x5dfcec130fa0</text>
<polyline fill="none" stroke="black" points="1089.5,-0.5 1089.5,-19"/>
<text text-anchor="middle" x="1142.12" y="-6.45" font-family="Times,serif" font-size="9.00">parent = 0x5dfcec130f60</text>
<polyline fill="none" stroke="black" points="1194.75,-0.5 1194.75,-19"/>
<text text-anchor="middle" x="1223" y="-6.45" font-family="Times,serif" font-size="9.00">right = (nil)</text>
</g>
<!-- node_0x5dfcec130f60&#45;&gt;node_0x5dfcec130fa0 -->
<g id="edge6" class="edge">
<title>node_0x5dfcec130f60&#45;&gt;node_0x5dfcec130fa0</title>
<path fill="none" stroke="black" d="M1058.25,-74.2C1058.25,-66.67 1058.25,-57.7 1058.25,-49.25"/>
<polygon fill="black" stroke="black" points="1061.75,-49.36 1058.25,-39.36 1054.75,-49.36 1061.75,-49.36"/>
</g>
<!-- node_0x5dfcec131020 -->
<g id="node9" class="node">
<title>node_0x5dfcec131020</title>
<polygon fill="yellow" stroke="black" points="1298.5,-0.5 1298.5,-37.5 1686,-37.5 1686,-0.5 1298.5,-0.5"/>
<text text-anchor="middle" x="1492.25" y="-24.95" font-family="Times,serif" font-size="9.00">x</text>
<polyline fill="none" stroke="black" points="1298.5,-19 1686,-19"/>
<text text-anchor="middle" x="1334.62" y="-6.45" font-family="Times,serif" font-size="9.00">type = 2 (VAR)</text>
<polyline fill="none" stroke="black" points="1370.75,-0.5 1370.75,-19"/>
<text text-anchor="middle" x="1396.75" y="-6.45" font-family="Times,serif" font-size="9.00">left = (nil)</text>
<polyline fill="none" stroke="black" points="1422.75,-0.5 1422.75,-19"/>
<text text-anchor="middle" x="1473.88" y="-6.45" font-family="Times,serif" font-size="9.00">node = 0x5dfcec131020</text>
<polyline fill="none" stroke="black" points="1525,-0.5 1525,-19"/>
<text text-anchor="middle" x="1577.25" y="-6.45" font-family="Times,serif" font-size="9.00">parent = 0x5dfcec130fe0</text>
<polyline fill="none" stroke="black" points="1629.5,-0.5 1629.5,-19"/>
<text text-anchor="middle" x="1657.75" y="-6.45" font-family="Times,serif" font-size="9.00">right = (nil)</text>
</g>
<!-- node_0x5dfcec130fe0&#45;&gt;node_0x5dfcec131020 -->
<g id="edge8" class="edge">
<title>node_0x5dfcec130fe0&#45;&gt;node_0x5dfcec131020</title>
<path fill="none" stroke="black" d="M1514.08,-74.2C1510.94,-66.41 1507.19,-57.08 1503.68,-48.38"/>
<polygon fill="black" stroke="black" points="1506.98,-47.21 1500,-39.25 1500.49,-49.83 1506.98,-47.21"/>
</g>
<!-- node_0x5dfcec131060 -->
<g id="node10" class="node">
<title>node_0x5dfcec131060</title>
<polygon fill="blue" stroke="black" points="1704,-0.5 1704,-37.5 2094.5,-37.5 2094.5,-0.5 1704,-0.5"/>
<text text-anchor="middle" x="1899.25" y="-24.95" font-family="Times,serif" font-size="9.00">1</text>
<polyline fill="none" stroke="black" points="1704,-19 2094.5,-19"/>
<text text-anchor="middle" x="1741.62" y="-6.45" font-family="Times,serif" font-size="9.00">type = 1 (NUM)</text>
<polyline fill="none" stroke="black" points="1779.25,-0.5 1779.25,-19"/>
<text text-anchor="middle" x="1805.25" y="-6.45" font-family="Times,serif" font-size="9.00">left = (nil)</text>
<polyline fill="none" stroke="black" points="1831.25,-0.5 1831.25,-19"/>
<text text-anchor="middle" x="1882.38" y="-6.45" font-family="Times,serif" font-size="9.00">node = 0x5dfcec131060</text>
<polyline fill="none" stroke="black" points="1933.5,-0.5 1933.5,-19"/>
<text text-anchor="middle" x="1985.75" y="-6.45" font-family="Times,serif" font-size="9.00">parent = 0x5dfcec130fe0</text>
<polyline fill="none" stroke="black" points="2038,-0.5 2038,-19"/>
<text text-anchor="middle" x="2066.25" y="-6.45" font-family="Times,serif" font-size="9.00">right = (nil)</text>
</g>
<!-- node_0x5dfcec130fe0&#45;&gt;node_0x5dfcec131060 -->
<g id="edge9" class="edge">
<title>node_0x5dfcec130fe0&#45;&gt;node_0x5dfcec131060</title>
<path fill="none" stroke="black" d="M1615.66,-74.02C1669.88,-63.69 1738.1,-50.69 1794.04,-40.04"/>
<polygon fill="black" stroke="black" points="1794.41,-43.53 1803.57,-38.22 1793.1,-36.66 1794.41,-43.53"/>
</g>
</g>
</svg>
