<?xml version="1.0" encoding="UTF-8" standalone="no"?>
<!DOCTYPE svg PUBLIC "-//W3C//DTD SVG 1.1//EN"
 "http://www.w3.org/Graphics/SVG/1.1/DTD/svg11.dtd">
<!-- Generated by graphviz version 12.1.2 (0)
 -->
<!-- Pages: 1 -->
<svg width="2632pt" height="416pt"
 viewBox="0.00 0.00 2631.75 416.00" xmlns="http://www.w3.org/2000/svg" xmlns:xlink="http://www.w3.org/1999/xlink">
<g id="graph0" class="graph" transform="scale(1 1) rotate(0) translate(4 412)">
<polygon fill="white" stroke="none" points="-4,4 -4,-412 2627.75,-412 2627.75,4 -4,4"/>
<!-- node_0x5eb41b24cb10 -->
<g id="node1" class="node">
<title>node_0x5eb41b24cb10</title>
<polygon fill="#bdef9e" stroke="black" points="688,-370.5 688,-407.5 1121.25,-407.5 1121.25,-370.5 688,-370.5"/>
<text text-anchor="middle" x="904.62" y="-394.95" font-family="Times,serif" font-size="9.00">/</text>
<polyline fill="none" stroke="black" points="688,-389 1121.25,-389"/>
<text text-anchor="middle" x="720.75" y="-376.45" font-family="Times,serif" font-size="9.00">type = 3 (OP)</text>
<polyline fill="none" stroke="black" points="753.5,-370.5 753.5,-389"/>
<text text-anchor="middle" x="802.38" y="-376.45" font-family="Times,serif" font-size="9.00">left = 0x5eb41b24cad0</text>
<polyline fill="none" stroke="black" points="851.25,-370.5 851.25,-389"/>
<text text-anchor="middle" x="903.5" y="-376.45" font-family="Times,serif" font-size="9.00">node = 0x5eb41b24cb10</text>
<polyline fill="none" stroke="black" points="955.75,-370.5 955.75,-389"/>
<text text-anchor="middle" x="987" y="-376.45" font-family="Times,serif" font-size="9.00">parent = (nil)</text>
<polyline fill="none" stroke="black" points="1018.25,-370.5 1018.25,-389"/>
<text text-anchor="middle" x="1069.75" y="-376.45" font-family="Times,serif" font-size="9.00">right = 0x5eb41b24c610</text>
</g>
<!-- node_0x5eb41b24cad0 -->
<g id="node2" class="node">
<title>node_0x5eb41b24cad0</title>
<polygon fill="#bdef9e" stroke="black" points="416.12,-296.5 416.12,-333.5 895.12,-333.5 895.12,-296.5 416.12,-296.5"/>
<text text-anchor="middle" x="655.62" y="-320.95" font-family="Times,serif" font-size="9.00">*</text>
<polyline fill="none" stroke="black" points="416.12,-315 895.12,-315"/>
<text text-anchor="middle" x="448.88" y="-302.45" font-family="Times,serif" font-size="9.00">type = 3 (OP)</text>
<polyline fill="none" stroke="black" points="481.62,-296.5 481.62,-315"/>
<text text-anchor="middle" x="530.5" y="-302.45" font-family="Times,serif" font-size="9.00">left = 0x5eb41b24ca90</text>
<polyline fill="none" stroke="black" points="579.38,-296.5 579.38,-315"/>
<text text-anchor="middle" x="631.25" y="-302.45" font-family="Times,serif" font-size="9.00">node = 0x5eb41b24cad0</text>
<polyline fill="none" stroke="black" points="683.12,-296.5 683.12,-315"/>
<text text-anchor="middle" x="737.62" y="-302.45" font-family="Times,serif" font-size="9.00">parent = 0x5eb41b24cb10</text>
<polyline fill="none" stroke="black" points="792.12,-296.5 792.12,-315"/>
<text text-anchor="middle" x="843.62" y="-302.45" font-family="Times,serif" font-size="9.00">right = 0x5eb41b24c890</text>
</g>
<!-- node_0x5eb41b24cb10&#45;&gt;node_0x5eb41b24cad0 -->
<g id="edge1" class="edge">
<title>node_0x5eb41b24cb10&#45;&gt;node_0x5eb41b24cad0</title>
<path fill="none" stroke="black" d="M842.43,-370.02C807.84,-360.01 764.6,-347.51 728.43,-337.05"/>
<polygon fill="black" stroke="black" points="729.49,-333.71 718.91,-334.3 727.54,-340.44 729.49,-333.71"/>
</g>
<!-- node_0x5eb41b24c610 -->
<g id="node10" class="node">
<title>node_0x5eb41b24c610</title>
<polygon fill="#bdef9e" stroke="black" points="1084.38,-296.5 1084.38,-333.5 1564.88,-333.5 1564.88,-296.5 1084.38,-296.5"/>
<text text-anchor="middle" x="1324.62" y="-320.95" font-family="Times,serif" font-size="9.00">*</text>
<polyline fill="none" stroke="black" points="1084.38,-315 1564.88,-315"/>
<text text-anchor="middle" x="1117.12" y="-302.45" font-family="Times,serif" font-size="9.00">type = 3 (OP)</text>
<polyline fill="none" stroke="black" points="1149.88,-296.5 1149.88,-315"/>
<text text-anchor="middle" x="1199.12" y="-302.45" font-family="Times,serif" font-size="9.00">left = 0x5eb41b24c510</text>
<polyline fill="none" stroke="black" points="1248.38,-296.5 1248.38,-315"/>
<text text-anchor="middle" x="1300.62" y="-302.45" font-family="Times,serif" font-size="9.00">node = 0x5eb41b24c610</text>
<polyline fill="none" stroke="black" points="1352.88,-296.5 1352.88,-315"/>
<text text-anchor="middle" x="1407.38" y="-302.45" font-family="Times,serif" font-size="9.00">parent = 0x5eb41b24cb10</text>
<polyline fill="none" stroke="black" points="1461.88,-296.5 1461.88,-315"/>
<text text-anchor="middle" x="1513.38" y="-302.45" font-family="Times,serif" font-size="9.00">right = 0x5eb41b24c410</text>
</g>
<!-- node_0x5eb41b24cb10&#45;&gt;node_0x5eb41b24c610 -->
<g id="edge9" class="edge">
<title>node_0x5eb41b24cb10&#45;&gt;node_0x5eb41b24c610</title>
<path fill="none" stroke="black" d="M1009.53,-370.02C1070.15,-359.62 1146.52,-346.53 1208.89,-335.84"/>
<polygon fill="black" stroke="black" points="1209.21,-339.34 1218.48,-334.2 1208.03,-332.44 1209.21,-339.34"/>
</g>
<!-- node_0x5eb41b24ca90 -->
<g id="node3" class="node">
<title>node_0x5eb41b24ca90</title>
<polygon fill="blue" stroke="black" points="1.75,-222.5 1.75,-259.5 397.5,-259.5 397.5,-222.5 1.75,-222.5"/>
<text text-anchor="middle" x="199.62" y="-246.95" font-family="Times,serif" font-size="9.00">&#45;1</text>
<polyline fill="none" stroke="black" points="1.75,-241 397.5,-241"/>
<text text-anchor="middle" x="39.38" y="-228.45" font-family="Times,serif" font-size="9.00">type = 1 (NUM)</text>
<polyline fill="none" stroke="black" points="77,-222.5 77,-241"/>
<text text-anchor="middle" x="103" y="-228.45" font-family="Times,serif" font-size="9.00">left = (nil)</text>
<polyline fill="none" stroke="black" points="129,-222.5 129,-241"/>
<text text-anchor="middle" x="180.88" y="-228.45" font-family="Times,serif" font-size="9.00">node = 0x5eb41b24ca90</text>
<polyline fill="none" stroke="black" points="232.75,-222.5 232.75,-241"/>
<text text-anchor="middle" x="286.88" y="-228.45" font-family="Times,serif" font-size="9.00">parent = 0x5eb41b24cad0</text>
<polyline fill="none" stroke="black" points="341,-222.5 341,-241"/>
<text text-anchor="middle" x="369.25" y="-228.45" font-family="Times,serif" font-size="9.00">right = (nil)</text>
</g>
<!-- node_0x5eb41b24cad0&#45;&gt;node_0x5eb41b24ca90 -->
<g id="edge2" class="edge">
<title>node_0x5eb41b24cad0&#45;&gt;node_0x5eb41b24ca90</title>
<path fill="none" stroke="black" d="M541.73,-296.02C475.64,-285.58 392.31,-272.42 324.44,-261.71"/>
<polygon fill="black" stroke="black" points="325.17,-258.28 314.74,-260.18 324.08,-265.19 325.17,-258.28"/>
</g>
<!-- node_0x5eb41b24c890 -->
<g id="node4" class="node">
<title>node_0x5eb41b24c890</title>
<polygon fill="#bdef9e" stroke="black" points="415.75,-222.5 415.75,-259.5 895.5,-259.5 895.5,-222.5 415.75,-222.5"/>
<text text-anchor="middle" x="655.62" y="-246.95" font-family="Times,serif" font-size="9.00">*</text>
<polyline fill="none" stroke="black" points="415.75,-241 895.5,-241"/>
<text text-anchor="middle" x="448.5" y="-228.45" font-family="Times,serif" font-size="9.00">type = 3 (OP)</text>
<polyline fill="none" stroke="black" points="481.25,-222.5 481.25,-241"/>
<text text-anchor="middle" x="530.5" y="-228.45" font-family="Times,serif" font-size="9.00">left = 0x5eb41b24c7d0</text>
<polyline fill="none" stroke="black" points="579.75,-222.5 579.75,-241"/>
<text text-anchor="middle" x="632" y="-228.45" font-family="Times,serif" font-size="9.00">node = 0x5eb41b24c890</text>
<polyline fill="none" stroke="black" points="684.25,-222.5 684.25,-241"/>
<text text-anchor="middle" x="738.38" y="-228.45" font-family="Times,serif" font-size="9.00">parent = 0x5eb41b24cad0</text>
<polyline fill="none" stroke="black" points="792.5,-222.5 792.5,-241"/>
<text text-anchor="middle" x="844" y="-228.45" font-family="Times,serif" font-size="9.00">right = 0x5eb41b24c790</text>
</g>
<!-- node_0x5eb41b24cad0&#45;&gt;node_0x5eb41b24c890 -->
<g id="edge3" class="edge">
<title>node_0x5eb41b24cad0&#45;&gt;node_0x5eb41b24c890</title>
<path fill="none" stroke="black" d="M655.62,-296.2C655.62,-288.67 655.62,-279.7 655.62,-271.25"/>
<polygon fill="black" stroke="black" points="659.13,-271.36 655.63,-261.36 652.13,-271.36 659.13,-271.36"/>
</g>
<!-- node_0x5eb41b24c7d0 -->
<g id="node5" class="node">
<title>node_0x5eb41b24c7d0</title>
<polygon fill="blue" stroke="black" points="0,-148.5 0,-185.5 397.25,-185.5 397.25,-148.5 0,-148.5"/>
<text text-anchor="middle" x="198.62" y="-172.95" font-family="Times,serif" font-size="9.00">80</text>
<polyline fill="none" stroke="black" points="0,-167 397.25,-167"/>
<text text-anchor="middle" x="37.62" y="-154.45" font-family="Times,serif" font-size="9.00">type = 1 (NUM)</text>
<polyline fill="none" stroke="black" points="75.25,-148.5 75.25,-167"/>
<text text-anchor="middle" x="101.25" y="-154.45" font-family="Times,serif" font-size="9.00">left = (nil)</text>
<polyline fill="none" stroke="black" points="127.25,-148.5 127.25,-167"/>
<text text-anchor="middle" x="179.5" y="-154.45" font-family="Times,serif" font-size="9.00">node = 0x5eb41b24c7d0</text>
<polyline fill="none" stroke="black" points="231.75,-148.5 231.75,-167"/>
<text text-anchor="middle" x="286.25" y="-154.45" font-family="Times,serif" font-size="9.00">parent = 0x5eb41b24c890</text>
<polyline fill="none" stroke="black" points="340.75,-148.5 340.75,-167"/>
<text text-anchor="middle" x="369" y="-154.45" font-family="Times,serif" font-size="9.00">right = (nil)</text>
</g>
<!-- node_0x5eb41b24c890&#45;&gt;node_0x5eb41b24c7d0 -->
<g id="edge4" class="edge">
<title>node_0x5eb41b24c890&#45;&gt;node_0x5eb41b24c7d0</title>
<path fill="none" stroke="black" d="M541.48,-222.02C475.24,-211.58 391.73,-198.42 323.71,-187.71"/>
<polygon fill="black" stroke="black" points="324.42,-184.28 313.99,-186.18 323.33,-191.19 324.42,-184.28"/>
</g>
<!-- node_0x5eb41b24c790 -->
<g id="node6" class="node">
<title>node_0x5eb41b24c790</title>
<polygon fill="#bdef9e" stroke="black" points="415.38,-148.5 415.38,-185.5 895.88,-185.5 895.88,-148.5 415.38,-148.5"/>
<text text-anchor="middle" x="655.62" y="-172.95" font-family="Times,serif" font-size="9.00">+</text>
<polyline fill="none" stroke="black" points="415.38,-167 895.88,-167"/>
<text text-anchor="middle" x="448.12" y="-154.45" font-family="Times,serif" font-size="9.00">type = 3 (OP)</text>
<polyline fill="none" stroke="black" points="480.88,-148.5 480.88,-167"/>
<text text-anchor="middle" x="530.12" y="-154.45" font-family="Times,serif" font-size="9.00">left = 0x5eb41b24c750</text>
<polyline fill="none" stroke="black" points="579.38,-148.5 579.38,-167"/>
<text text-anchor="middle" x="631.62" y="-154.45" font-family="Times,serif" font-size="9.00">node = 0x5eb41b24c790</text>
<polyline fill="none" stroke="black" points="683.88,-148.5 683.88,-167"/>
<text text-anchor="middle" x="738.38" y="-154.45" font-family="Times,serif" font-size="9.00">parent = 0x5eb41b24c890</text>
<polyline fill="none" stroke="black" points="792.88,-148.5 792.88,-167"/>
<text text-anchor="middle" x="844.38" y="-154.45" font-family="Times,serif" font-size="9.00">right = 0x5eb41b24c650</text>
</g>
<!-- node_0x5eb41b24c890&#45;&gt;node_0x5eb41b24c790 -->
<g id="edge5" class="edge">
<title>node_0x5eb41b24c890&#45;&gt;node_0x5eb41b24c790</title>
<path fill="none" stroke="black" d="M655.62,-222.2C655.62,-214.67 655.62,-205.7 655.62,-197.25"/>
<polygon fill="black" stroke="black" points="659.13,-197.36 655.63,-187.36 652.13,-197.36 659.13,-197.36"/>
</g>
<!-- node_0x5eb41b24c750 -->
<g id="node7" class="node">
<title>node_0x5eb41b24c750</title>
<polygon fill="#bdef9e" stroke="black" points="34.62,-74.5 34.62,-111.5 468.62,-111.5 468.62,-74.5 34.62,-74.5"/>
<text text-anchor="middle" x="251.62" y="-98.95" font-family="Times,serif" font-size="9.00">cos</text>
<polyline fill="none" stroke="black" points="34.62,-93 468.62,-93"/>
<text text-anchor="middle" x="67.38" y="-80.45" font-family="Times,serif" font-size="9.00">type = 3 (OP)</text>
<polyline fill="none" stroke="black" points="100.12,-74.5 100.12,-93"/>
<text text-anchor="middle" x="126.12" y="-80.45" font-family="Times,serif" font-size="9.00">left = (nil)</text>
<polyline fill="none" stroke="black" points="152.12,-74.5 152.12,-93"/>
<text text-anchor="middle" x="204.38" y="-80.45" font-family="Times,serif" font-size="9.00">node = 0x5eb41b24c750</text>
<polyline fill="none" stroke="black" points="256.62,-74.5 256.62,-93"/>
<text text-anchor="middle" x="311.12" y="-80.45" font-family="Times,serif" font-size="9.00">parent = 0x5eb41b24c790</text>
<polyline fill="none" stroke="black" points="365.62,-74.5 365.62,-93"/>
<text text-anchor="middle" x="417.12" y="-80.45" font-family="Times,serif" font-size="9.00">right = 0x5eb41b24c690</text>
</g>
<!-- node_0x5eb41b24c790&#45;&gt;node_0x5eb41b24c750 -->
<g id="edge6" class="edge">
<title>node_0x5eb41b24c790&#45;&gt;node_0x5eb41b24c750</title>
<path fill="none" stroke="black" d="M554.72,-148.02C496.53,-137.65 423.25,-124.59 363.32,-113.91"/>
<polygon fill="black" stroke="black" points="364.24,-110.52 353.78,-112.21 363.01,-117.41 364.24,-110.52"/>
</g>
<!-- node_0x5eb41b24c650 -->
<g id="node9" class="node">
<title>node_0x5eb41b24c650</title>
<polygon fill="blue" stroke="black" points="487,-74.5 487,-111.5 884.25,-111.5 884.25,-74.5 487,-74.5"/>
<text text-anchor="middle" x="685.62" y="-98.95" font-family="Times,serif" font-size="9.00">1</text>
<polyline fill="none" stroke="black" points="487,-93 884.25,-93"/>
<text text-anchor="middle" x="524.62" y="-80.45" font-family="Times,serif" font-size="9.00">type = 1 (NUM)</text>
<polyline fill="none" stroke="black" points="562.25,-74.5 562.25,-93"/>
<text text-anchor="middle" x="588.25" y="-80.45" font-family="Times,serif" font-size="9.00">left = (nil)</text>
<polyline fill="none" stroke="black" points="614.25,-74.5 614.25,-93"/>
<text text-anchor="middle" x="666.5" y="-80.45" font-family="Times,serif" font-size="9.00">node = 0x5eb41b24c650</text>
<polyline fill="none" stroke="black" points="718.75,-74.5 718.75,-93"/>
<text text-anchor="middle" x="773.25" y="-80.45" font-family="Times,serif" font-size="9.00">parent = 0x5eb41b24c790</text>
<polyline fill="none" stroke="black" points="827.75,-74.5 827.75,-93"/>
<text text-anchor="middle" x="856" y="-80.45" font-family="Times,serif" font-size="9.00">right = (nil)</text>
</g>
<!-- node_0x5eb41b24c790&#45;&gt;node_0x5eb41b24c650 -->
<g id="edge8" class="edge">
<title>node_0x5eb41b24c790&#45;&gt;node_0x5eb41b24c650</title>
<path fill="none" stroke="black" d="M663.04,-148.2C666.29,-140.41 670.17,-131.08 673.8,-122.38"/>
<polygon fill="black" stroke="black" points="676.99,-123.82 677.61,-113.24 670.53,-121.12 676.99,-123.82"/>
</g>
<!-- node_0x5eb41b24c690 -->
<g id="node8" class="node">
<title>node_0x5eb41b24c690</title>
<polygon fill="yellow" stroke="black" points="54.5,-0.5 54.5,-37.5 448.75,-37.5 448.75,-0.5 54.5,-0.5"/>
<text text-anchor="middle" x="251.62" y="-24.95" font-family="Times,serif" font-size="9.00">x</text>
<polyline fill="none" stroke="black" points="54.5,-19 448.75,-19"/>
<text text-anchor="middle" x="90.62" y="-6.45" font-family="Times,serif" font-size="9.00">type = 2 (VAR)</text>
<polyline fill="none" stroke="black" points="126.75,-0.5 126.75,-19"/>
<text text-anchor="middle" x="152.75" y="-6.45" font-family="Times,serif" font-size="9.00">left = (nil)</text>
<polyline fill="none" stroke="black" points="178.75,-0.5 178.75,-19"/>
<text text-anchor="middle" x="231" y="-6.45" font-family="Times,serif" font-size="9.00">node = 0x5eb41b24c690</text>
<polyline fill="none" stroke="black" points="283.25,-0.5 283.25,-19"/>
<text text-anchor="middle" x="337.75" y="-6.45" font-family="Times,serif" font-size="9.00">parent = 0x5eb41b24c750</text>
<polyline fill="none" stroke="black" points="392.25,-0.5 392.25,-19"/>
<text text-anchor="middle" x="420.5" y="-6.45" font-family="Times,serif" font-size="9.00">right = (nil)</text>
</g>
<!-- node_0x5eb41b24c750&#45;&gt;node_0x5eb41b24c690 -->
<g id="edge7" class="edge">
<title>node_0x5eb41b24c750&#45;&gt;node_0x5eb41b24c690</title>
<path fill="none" stroke="black" d="M251.62,-74.2C251.62,-66.67 251.62,-57.7 251.62,-49.25"/>
<polygon fill="black" stroke="black" points="255.13,-49.36 251.63,-39.36 248.13,-49.36 255.13,-49.36"/>
</g>
<!-- node_0x5eb41b24c510 -->
<g id="node11" class="node">
<title>node_0x5eb41b24c510</title>
<polygon fill="#bdef9e" stroke="black" points="1084.38,-222.5 1084.38,-259.5 1564.88,-259.5 1564.88,-222.5 1084.38,-222.5"/>
<text text-anchor="middle" x="1324.62" y="-246.95" font-family="Times,serif" font-size="9.00">+</text>
<polyline fill="none" stroke="black" points="1084.38,-241 1564.88,-241"/>
<text text-anchor="middle" x="1117.12" y="-228.45" font-family="Times,serif" font-size="9.00">type = 3 (OP)</text>
<polyline fill="none" stroke="black" points="1149.88,-222.5 1149.88,-241"/>
<text text-anchor="middle" x="1199.12" y="-228.45" font-family="Times,serif" font-size="9.00">left = 0x5eb41b24c550</text>
<polyline fill="none" stroke="black" points="1248.38,-222.5 1248.38,-241"/>
<text text-anchor="middle" x="1300.62" y="-228.45" font-family="Times,serif" font-size="9.00">node = 0x5eb41b24c510</text>
<polyline fill="none" stroke="black" points="1352.88,-222.5 1352.88,-241"/>
<text text-anchor="middle" x="1407.38" y="-228.45" font-family="Times,serif" font-size="9.00">parent = 0x5eb41b24c610</text>
<polyline fill="none" stroke="black" points="1461.88,-222.5 1461.88,-241"/>
<text text-anchor="middle" x="1513.38" y="-228.45" font-family="Times,serif" font-size="9.00">right = 0x5eb41b24c5d0</text>
</g>
<!-- node_0x5eb41b24c610&#45;&gt;node_0x5eb41b24c510 -->
<g id="edge10" class="edge">
<title>node_0x5eb41b24c610&#45;&gt;node_0x5eb41b24c510</title>
<path fill="none" stroke="black" d="M1324.62,-296.2C1324.62,-288.67 1324.62,-279.7 1324.62,-271.25"/>
<polygon fill="black" stroke="black" points="1328.13,-271.36 1324.63,-261.36 1321.13,-271.36 1328.13,-271.36"/>
</g>
<!-- node_0x5eb41b24c410 -->
<g id="node15" class="node">
<title>node_0x5eb41b24c410</title>
<polygon fill="#bdef9e" stroke="black" points="1754.38,-222.5 1754.38,-259.5 2234.88,-259.5 2234.88,-222.5 1754.38,-222.5"/>
<text text-anchor="middle" x="1994.62" y="-246.95" font-family="Times,serif" font-size="9.00">+</text>
<polyline fill="none" stroke="black" points="1754.38,-241 2234.88,-241"/>
<text text-anchor="middle" x="1787.12" y="-228.45" font-family="Times,serif" font-size="9.00">type = 3 (OP)</text>
<polyline fill="none" stroke="black" points="1819.88,-222.5 1819.88,-241"/>
<text text-anchor="middle" x="1869.12" y="-228.45" font-family="Times,serif" font-size="9.00">left = 0x5eb41b24c450</text>
<polyline fill="none" stroke="black" points="1918.38,-222.5 1918.38,-241"/>
<text text-anchor="middle" x="1970.62" y="-228.45" font-family="Times,serif" font-size="9.00">node = 0x5eb41b24c410</text>
<polyline fill="none" stroke="black" points="2022.88,-222.5 2022.88,-241"/>
<text text-anchor="middle" x="2077.38" y="-228.45" font-family="Times,serif" font-size="9.00">parent = 0x5eb41b24c610</text>
<polyline fill="none" stroke="black" points="2131.88,-222.5 2131.88,-241"/>
<text text-anchor="middle" x="2183.38" y="-228.45" font-family="Times,serif" font-size="9.00">right = 0x5eb41b24c4d0</text>
</g>
<!-- node_0x5eb41b24c610&#45;&gt;node_0x5eb41b24c410 -->
<g id="edge14" class="edge">
<title>node_0x5eb41b24c610&#45;&gt;node_0x5eb41b24c410</title>
<path fill="none" stroke="black" d="M1491.97,-296.02C1590.69,-285.41 1715.58,-271.99 1816.18,-261.18"/>
<polygon fill="black" stroke="black" points="1816.31,-264.68 1825.88,-260.13 1815.56,-257.72 1816.31,-264.68"/>
</g>
<!-- node_0x5eb41b24c550 -->
<g id="node12" class="node">
<title>node_0x5eb41b24c550</title>
<polygon fill="#bdef9e" stroke="black" points="913.62,-148.5 913.62,-185.5 1347.62,-185.5 1347.62,-148.5 913.62,-148.5"/>
<text text-anchor="middle" x="1130.62" y="-172.95" font-family="Times,serif" font-size="9.00">sin</text>
<polyline fill="none" stroke="black" points="913.62,-167 1347.62,-167"/>
<text text-anchor="middle" x="946.38" y="-154.45" font-family="Times,serif" font-size="9.00">type = 3 (OP)</text>
<polyline fill="none" stroke="black" points="979.12,-148.5 979.12,-167"/>
<text text-anchor="middle" x="1005.12" y="-154.45" font-family="Times,serif" font-size="9.00">left = (nil)</text>
<polyline fill="none" stroke="black" points="1031.12,-148.5 1031.12,-167"/>
<text text-anchor="middle" x="1083.38" y="-154.45" font-family="Times,serif" font-size="9.00">node = 0x5eb41b24c550</text>
<polyline fill="none" stroke="black" points="1135.62,-148.5 1135.62,-167"/>
<text text-anchor="middle" x="1190.12" y="-154.45" font-family="Times,serif" font-size="9.00">parent = 0x5eb41b24c510</text>
<polyline fill="none" stroke="black" points="1244.62,-148.5 1244.62,-167"/>
<text text-anchor="middle" x="1296.12" y="-154.45" font-family="Times,serif" font-size="9.00">right = 0x5eb41b24c590</text>
</g>
<!-- node_0x5eb41b24c510&#45;&gt;node_0x5eb41b24c550 -->
<g id="edge11" class="edge">
<title>node_0x5eb41b24c510&#45;&gt;node_0x5eb41b24c550</title>
<path fill="none" stroke="black" d="M1276.17,-222.02C1249.92,-212.27 1217.27,-200.16 1189.55,-189.87"/>
<polygon fill="black" stroke="black" points="1190.81,-186.6 1180.22,-186.4 1188.37,-193.17 1190.81,-186.6"/>
</g>
<!-- node_0x5eb41b24c5d0 -->
<g id="node14" class="node">
<title>node_0x5eb41b24c5d0</title>
<polygon fill="yellow" stroke="black" points="1365.5,-148.5 1365.5,-185.5 1759.75,-185.5 1759.75,-148.5 1365.5,-148.5"/>
<text text-anchor="middle" x="1562.62" y="-172.95" font-family="Times,serif" font-size="9.00">x</text>
<polyline fill="none" stroke="black" points="1365.5,-167 1759.75,-167"/>
<text text-anchor="middle" x="1401.62" y="-154.45" font-family="Times,serif" font-size="9.00">type = 2 (VAR)</text>
<polyline fill="none" stroke="black" points="1437.75,-148.5 1437.75,-167"/>
<text text-anchor="middle" x="1463.75" y="-154.45" font-family="Times,serif" font-size="9.00">left = (nil)</text>
<polyline fill="none" stroke="black" points="1489.75,-148.5 1489.75,-167"/>
<text text-anchor="middle" x="1542" y="-154.45" font-family="Times,serif" font-size="9.00">node = 0x5eb41b24c5d0</text>
<polyline fill="none" stroke="black" points="1594.25,-148.5 1594.25,-167"/>
<text text-anchor="middle" x="1648.75" y="-154.45" font-family="Times,serif" font-size="9.00">parent = 0x5eb41b24c510</text>
<polyline fill="none" stroke="black" points="1703.25,-148.5 1703.25,-167"/>
<text text-anchor="middle" x="1731.5" y="-154.45" font-family="Times,serif" font-size="9.00">right = (nil)</text>
</g>
<!-- node_0x5eb41b24c510&#45;&gt;node_0x5eb41b24c5d0 -->
<g id="edge13" class="edge">
<title>node_0x5eb41b24c510&#45;&gt;node_0x5eb41b24c5d0</title>
<path fill="none" stroke="black" d="M1384.07,-222.02C1416.99,-212.06 1458.11,-199.62 1492.59,-189.19"/>
<polygon fill="black" stroke="black" points="1493.52,-192.56 1502.08,-186.32 1491.49,-185.86 1493.52,-192.56"/>
</g>
<!-- node_0x5eb41b24c590 -->
<g id="node13" class="node">
<title>node_0x5eb41b24c590</title>
<polygon fill="yellow" stroke="black" points="933.5,-74.5 933.5,-111.5 1327.75,-111.5 1327.75,-74.5 933.5,-74.5"/>
<text text-anchor="middle" x="1130.62" y="-98.95" font-family="Times,serif" font-size="9.00">x</text>
<polyline fill="none" stroke="black" points="933.5,-93 1327.75,-93"/>
<text text-anchor="middle" x="969.62" y="-80.45" font-family="Times,serif" font-size="9.00">type = 2 (VAR)</text>
<polyline fill="none" stroke="black" points="1005.75,-74.5 1005.75,-93"/>
<text text-anchor="middle" x="1031.75" y="-80.45" font-family="Times,serif" font-size="9.00">left = (nil)</text>
<polyline fill="none" stroke="black" points="1057.75,-74.5 1057.75,-93"/>
<text text-anchor="middle" x="1110" y="-80.45" font-family="Times,serif" font-size="9.00">node = 0x5eb41b24c590</text>
<polyline fill="none" stroke="black" points="1162.25,-74.5 1162.25,-93"/>
<text text-anchor="middle" x="1216.75" y="-80.45" font-family="Times,serif" font-size="9.00">parent = 0x5eb41b24c550</text>
<polyline fill="none" stroke="black" points="1271.25,-74.5 1271.25,-93"/>
<text text-anchor="middle" x="1299.5" y="-80.45" font-family="Times,serif" font-size="9.00">right = (nil)</text>
</g>
<!-- node_0x5eb41b24c550&#45;&gt;node_0x5eb41b24c590 -->
<g id="edge12" class="edge">
<title>node_0x5eb41b24c550&#45;&gt;node_0x5eb41b24c590</title>
<path fill="none" stroke="black" d="M1130.62,-148.2C1130.62,-140.67 1130.62,-131.7 1130.62,-123.25"/>
<polygon fill="black" stroke="black" points="1134.13,-123.36 1130.63,-113.36 1127.13,-123.36 1134.13,-123.36"/>
</g>
<!-- node_0x5eb41b24c450 -->
<g id="node16" class="node">
<title>node_0x5eb41b24c450</title>
<polygon fill="#bdef9e" stroke="black" points="1777.62,-148.5 1777.62,-185.5 2211.62,-185.5 2211.62,-148.5 1777.62,-148.5"/>
<text text-anchor="middle" x="1994.62" y="-172.95" font-family="Times,serif" font-size="9.00">sin</text>
<polyline fill="none" stroke="black" points="1777.62,-167 2211.62,-167"/>
<text text-anchor="middle" x="1810.38" y="-154.45" font-family="Times,serif" font-size="9.00">type = 3 (OP)</text>
<polyline fill="none" stroke="black" points="1843.12,-148.5 1843.12,-167"/>
<text text-anchor="middle" x="1869.12" y="-154.45" font-family="Times,serif" font-size="9.00">left = (nil)</text>
<polyline fill="none" stroke="black" points="1895.12,-148.5 1895.12,-167"/>
<text text-anchor="middle" x="1947.38" y="-154.45" font-family="Times,serif" font-size="9.00">node = 0x5eb41b24c450</text>
<polyline fill="none" stroke="black" points="1999.62,-148.5 1999.62,-167"/>
<text text-anchor="middle" x="2054.12" y="-154.45" font-family="Times,serif" font-size="9.00">parent = 0x5eb41b24c410</text>
<polyline fill="none" stroke="black" points="2108.62,-148.5 2108.62,-167"/>
<text text-anchor="middle" x="2160.12" y="-154.45" font-family="Times,serif" font-size="9.00">right = 0x5eb41b24c490</text>
</g>
<!-- node_0x5eb41b24c410&#45;&gt;node_0x5eb41b24c450 -->
<g id="edge15" class="edge">
<title>node_0x5eb41b24c410&#45;&gt;node_0x5eb41b24c450</title>
<path fill="none" stroke="black" d="M1994.62,-222.2C1994.62,-214.67 1994.62,-205.7 1994.62,-197.25"/>
<polygon fill="black" stroke="black" points="1998.13,-197.36 1994.63,-187.36 1991.13,-197.36 1998.13,-197.36"/>
</g>
<!-- node_0x5eb41b24c4d0 -->
<g id="node18" class="node">
<title>node_0x5eb41b24c4d0</title>
<polygon fill="yellow" stroke="black" points="2229.5,-148.5 2229.5,-185.5 2623.75,-185.5 2623.75,-148.5 2229.5,-148.5"/>
<text text-anchor="middle" x="2426.62" y="-172.95" font-family="Times,serif" font-size="9.00">x</text>
<polyline fill="none" stroke="black" points="2229.5,-167 2623.75,-167"/>
<text text-anchor="middle" x="2265.62" y="-154.45" font-family="Times,serif" font-size="9.00">type = 2 (VAR)</text>
<polyline fill="none" stroke="black" points="2301.75,-148.5 2301.75,-167"/>
<text text-anchor="middle" x="2327.75" y="-154.45" font-family="Times,serif" font-size="9.00">left = (nil)</text>
<polyline fill="none" stroke="black" points="2353.75,-148.5 2353.75,-167"/>
<text text-anchor="middle" x="2406" y="-154.45" font-family="Times,serif" font-size="9.00">node = 0x5eb41b24c4d0</text>
<polyline fill="none" stroke="black" points="2458.25,-148.5 2458.25,-167"/>
<text text-anchor="middle" x="2512.75" y="-154.45" font-family="Times,serif" font-size="9.00">parent = 0x5eb41b24c410</text>
<polyline fill="none" stroke="black" points="2567.25,-148.5 2567.25,-167"/>
<text text-anchor="middle" x="2595.5" y="-154.45" font-family="Times,serif" font-size="9.00">right = (nil)</text>
</g>
<!-- node_0x5eb41b24c410&#45;&gt;node_0x5eb41b24c4d0 -->
<g id="edge17" class="edge">
<title>node_0x5eb41b24c410&#45;&gt;node_0x5eb41b24c4d0</title>
<path fill="none" stroke="black" d="M2102.52,-222.02C2165.01,-211.6 2243.76,-198.48 2307.99,-187.77"/>
<polygon fill="black" stroke="black" points="2308.2,-191.29 2317.49,-186.19 2307.05,-184.38 2308.2,-191.29"/>
</g>
<!-- node_0x5eb41b24c490 -->
<g id="node17" class="node">
<title>node_0x5eb41b24c490</title>
<polygon fill="yellow" stroke="black" points="1797.5,-74.5 1797.5,-111.5 2191.75,-111.5 2191.75,-74.5 1797.5,-74.5"/>
<text text-anchor="middle" x="1994.62" y="-98.95" font-family="Times,serif" font-size="9.00">x</text>
<polyline fill="none" stroke="black" points="1797.5,-93 2191.75,-93"/>
<text text-anchor="middle" x="1833.62" y="-80.45" font-family="Times,serif" font-size="9.00">type = 2 (VAR)</text>
<polyline fill="none" stroke="black" points="1869.75,-74.5 1869.75,-93"/>
<text text-anchor="middle" x="1895.75" y="-80.45" font-family="Times,serif" font-size="9.00">left = (nil)</text>
<polyline fill="none" stroke="black" points="1921.75,-74.5 1921.75,-93"/>
<text text-anchor="middle" x="1974" y="-80.45" font-family="Times,serif" font-size="9.00">node = 0x5eb41b24c490</text>
<polyline fill="none" stroke="black" points="2026.25,-74.5 2026.25,-93"/>
<text text-anchor="middle" x="2080.75" y="-80.45" font-family="Times,serif" font-size="9.00">parent = 0x5eb41b24c450</text>
<polyline fill="none" stroke="black" points="2135.25,-74.5 2135.25,-93"/>
<text text-anchor="middle" x="2163.5" y="-80.45" font-family="Times,serif" font-size="9.00">right = (nil)</text>
</g>
<!-- node_0x5eb41b24c450&#45;&gt;node_0x5eb41b24c490 -->
<g id="edge16" class="edge">
<title>node_0x5eb41b24c450&#45;&gt;node_0x5eb41b24c490</title>
<path fill="none" stroke="black" d="M1994.62,-148.2C1994.62,-140.67 1994.62,-131.7 1994.62,-123.25"/>
<polygon fill="black" stroke="black" points="1998.13,-123.36 1994.63,-113.36 1991.13,-123.36 1998.13,-123.36"/>
</g>
</g>
</svg>
