<?xml version="1.0" encoding="UTF-8" standalone="no"?>
<!DOCTYPE svg PUBLIC "-//W3C//DTD SVG 1.1//EN"
 "http://www.w3.org/Graphics/SVG/1.1/DTD/svg11.dtd">
<!-- Generated by graphviz version 12.1.2 (0)
 -->
<!-- Pages: 1 -->
<svg width="1645pt" height="268pt"
 viewBox="0.00 0.00 1644.50 268.00" xmlns="http://www.w3.org/2000/svg" xmlns:xlink="http://www.w3.org/1999/xlink">
<g id="graph0" class="graph" transform="scale(1 1) rotate(0) translate(4 264)">
<polygon fill="white" stroke="none" points="-4,4 -4,-264 1640.5,-264 1640.5,4 -4,4"/>
<!-- node_0x5fcf43f3e540 -->
<g id="node1" class="node">
<title>node_0x5fcf43f3e540</title>
<polygon fill="#bdef9e" stroke="black" points="607.5,-222.5 607.5,-259.5 1028,-259.5 1028,-222.5 607.5,-222.5"/>
<text text-anchor="middle" x="817.75" y="-246.95" font-family="Times,serif" font-size="9.00">+</text>
<polyline fill="none" stroke="black" points="607.5,-241 1028,-241"/>
<text text-anchor="middle" x="640.25" y="-228.45" font-family="Times,serif" font-size="9.00">type = 3 (OP)</text>
<polyline fill="none" stroke="black" points="673,-222.5 673,-241"/>
<text text-anchor="middle" x="720" y="-228.45" font-family="Times,serif" font-size="9.00">left = 0x5fcf43f3e580</text>
<polyline fill="none" stroke="black" points="767,-222.5 767,-241"/>
<text text-anchor="middle" x="817" y="-228.45" font-family="Times,serif" font-size="9.00">node = 0x5fcf43f3e540</text>
<polyline fill="none" stroke="black" points="867,-222.5 867,-241"/>
<text text-anchor="middle" x="898.25" y="-228.45" font-family="Times,serif" font-size="9.00">parent = (nil)</text>
<polyline fill="none" stroke="black" points="929.5,-222.5 929.5,-241"/>
<text text-anchor="middle" x="978.75" y="-228.45" font-family="Times,serif" font-size="9.00">right = 0x5fcf43f3e680</text>
</g>
<!-- node_0x5fcf43f3e580 -->
<g id="node2" class="node">
<title>node_0x5fcf43f3e580</title>
<polygon fill="#bdef9e" stroke="black" points="388.88,-148.5 388.88,-185.5 808.62,-185.5 808.62,-148.5 388.88,-148.5"/>
<text text-anchor="middle" x="598.75" y="-172.95" font-family="Times,serif" font-size="9.00">sin</text>
<polyline fill="none" stroke="black" points="388.88,-167 808.62,-167"/>
<text text-anchor="middle" x="421.62" y="-154.45" font-family="Times,serif" font-size="9.00">type = 3 (OP)</text>
<polyline fill="none" stroke="black" points="454.38,-148.5 454.38,-167"/>
<text text-anchor="middle" x="480.38" y="-154.45" font-family="Times,serif" font-size="9.00">left = (nil)</text>
<polyline fill="none" stroke="black" points="506.38,-148.5 506.38,-167"/>
<text text-anchor="middle" x="556.38" y="-154.45" font-family="Times,serif" font-size="9.00">node = 0x5fcf43f3e580</text>
<polyline fill="none" stroke="black" points="606.38,-148.5 606.38,-167"/>
<text text-anchor="middle" x="658.62" y="-154.45" font-family="Times,serif" font-size="9.00">parent = 0x5fcf43f3e540</text>
<polyline fill="none" stroke="black" points="710.88,-148.5 710.88,-167"/>
<text text-anchor="middle" x="759.75" y="-154.45" font-family="Times,serif" font-size="9.00">right = 0x5fcf43f3e5c0</text>
</g>
<!-- node_0x5fcf43f3e540&#45;&gt;node_0x5fcf43f3e580 -->
<g id="edge1" class="edge">
<title>node_0x5fcf43f3e540&#45;&gt;node_0x5fcf43f3e580</title>
<path fill="none" stroke="black" d="M763.05,-222.02C733.02,-212.14 695.58,-199.83 664.02,-189.46"/>
<polygon fill="black" stroke="black" points="665.16,-186.15 654.57,-186.35 662.97,-192.8 665.16,-186.15"/>
</g>
<!-- node_0x5fcf43f3e680 -->
<g id="node6" class="node">
<title>node_0x5fcf43f3e680</title>
<polygon fill="#bdef9e" stroke="black" points="836.88,-148.5 836.88,-185.5 1256.62,-185.5 1256.62,-148.5 836.88,-148.5"/>
<text text-anchor="middle" x="1046.75" y="-172.95" font-family="Times,serif" font-size="9.00">cos</text>
<polyline fill="none" stroke="black" points="836.88,-167 1256.62,-167"/>
<text text-anchor="middle" x="869.62" y="-154.45" font-family="Times,serif" font-size="9.00">type = 3 (OP)</text>
<polyline fill="none" stroke="black" points="902.38,-148.5 902.38,-167"/>
<text text-anchor="middle" x="928.38" y="-154.45" font-family="Times,serif" font-size="9.00">left = (nil)</text>
<polyline fill="none" stroke="black" points="954.38,-148.5 954.38,-167"/>
<text text-anchor="middle" x="1004.38" y="-154.45" font-family="Times,serif" font-size="9.00">node = 0x5fcf43f3e680</text>
<polyline fill="none" stroke="black" points="1054.38,-148.5 1054.38,-167"/>
<text text-anchor="middle" x="1106.62" y="-154.45" font-family="Times,serif" font-size="9.00">parent = 0x5fcf43f3e540</text>
<polyline fill="none" stroke="black" points="1158.88,-148.5 1158.88,-167"/>
<text text-anchor="middle" x="1207.75" y="-154.45" font-family="Times,serif" font-size="9.00">right = 0x5fcf43f3e6c0</text>
</g>
<!-- node_0x5fcf43f3e540&#45;&gt;node_0x5fcf43f3e680 -->
<g id="edge5" class="edge">
<title>node_0x5fcf43f3e540&#45;&gt;node_0x5fcf43f3e680</title>
<path fill="none" stroke="black" d="M874.95,-222.02C906.49,-212.1 945.84,-199.73 978.93,-189.32"/>
<polygon fill="black" stroke="black" points="979.95,-192.67 988.44,-186.33 977.85,-185.99 979.95,-192.67"/>
</g>
<!-- node_0x5fcf43f3e5c0 -->
<g id="node3" class="node">
<title>node_0x5fcf43f3e5c0</title>
<polygon fill="#bdef9e" stroke="black" points="346.88,-74.5 346.88,-111.5 808.62,-111.5 808.62,-74.5 346.88,-74.5"/>
<text text-anchor="middle" x="577.75" y="-98.95" font-family="Times,serif" font-size="9.00">*</text>
<polyline fill="none" stroke="black" points="346.88,-93 808.62,-93"/>
<text text-anchor="middle" x="379.62" y="-80.45" font-family="Times,serif" font-size="9.00">type = 3 (OP)</text>
<polyline fill="none" stroke="black" points="412.38,-74.5 412.38,-93"/>
<text text-anchor="middle" x="459.38" y="-80.45" font-family="Times,serif" font-size="9.00">left = 0x5fcf43f3e600</text>
<polyline fill="none" stroke="black" points="506.38,-74.5 506.38,-93"/>
<text text-anchor="middle" x="556" y="-80.45" font-family="Times,serif" font-size="9.00">node = 0x5fcf43f3e5c0</text>
<polyline fill="none" stroke="black" points="605.62,-74.5 605.62,-93"/>
<text text-anchor="middle" x="657.88" y="-80.45" font-family="Times,serif" font-size="9.00">parent = 0x5fcf43f3e580</text>
<polyline fill="none" stroke="black" points="710.12,-74.5 710.12,-93"/>
<text text-anchor="middle" x="759.38" y="-80.45" font-family="Times,serif" font-size="9.00">right = 0x5fcf43f3e640</text>
</g>
<!-- node_0x5fcf43f3e580&#45;&gt;node_0x5fcf43f3e5c0 -->
<g id="edge2" class="edge">
<title>node_0x5fcf43f3e580&#45;&gt;node_0x5fcf43f3e5c0</title>
<path fill="none" stroke="black" d="M593.56,-148.2C591.31,-140.5 588.63,-131.29 586.11,-122.67"/>
<polygon fill="black" stroke="black" points="589.54,-121.92 583.38,-113.3 582.82,-123.88 589.54,-121.92"/>
</g>
<!-- node_0x5fcf43f3e600 -->
<g id="node4" class="node">
<title>node_0x5fcf43f3e600</title>
<polygon fill="blue" stroke="black" points="0,-0.5 0,-37.5 387.5,-37.5 387.5,-0.5 0,-0.5"/>
<text text-anchor="middle" x="193.75" y="-24.95" font-family="Times,serif" font-size="9.00">2</text>
<polyline fill="none" stroke="black" points="0,-19 387.5,-19"/>
<text text-anchor="middle" x="37.62" y="-6.45" font-family="Times,serif" font-size="9.00">type = 1 (NUM)</text>
<polyline fill="none" stroke="black" points="75.25,-0.5 75.25,-19"/>
<text text-anchor="middle" x="101.25" y="-6.45" font-family="Times,serif" font-size="9.00">left = (nil)</text>
<polyline fill="none" stroke="black" points="127.25,-0.5 127.25,-19"/>
<text text-anchor="middle" x="177.25" y="-6.45" font-family="Times,serif" font-size="9.00">node = 0x5fcf43f3e600</text>
<polyline fill="none" stroke="black" points="227.25,-0.5 227.25,-19"/>
<text text-anchor="middle" x="279.12" y="-6.45" font-family="Times,serif" font-size="9.00">parent = 0x5fcf43f3e5c0</text>
<polyline fill="none" stroke="black" points="331,-0.5 331,-19"/>
<text text-anchor="middle" x="359.25" y="-6.45" font-family="Times,serif" font-size="9.00">right = (nil)</text>
</g>
<!-- node_0x5fcf43f3e5c0&#45;&gt;node_0x5fcf43f3e600 -->
<g id="edge3" class="edge">
<title>node_0x5fcf43f3e5c0&#45;&gt;node_0x5fcf43f3e600</title>
<path fill="none" stroke="black" d="M481.84,-74.02C426.76,-63.69 357.45,-50.69 300.63,-40.04"/>
<polygon fill="black" stroke="black" points="301.4,-36.62 290.92,-38.22 300.11,-43.5 301.4,-36.62"/>
</g>
<!-- node_0x5fcf43f3e640 -->
<g id="node5" class="node">
<title>node_0x5fcf43f3e640</title>
<polygon fill="yellow" stroke="black" points="405.5,-0.5 405.5,-37.5 790,-37.5 790,-0.5 405.5,-0.5"/>
<text text-anchor="middle" x="597.75" y="-24.95" font-family="Times,serif" font-size="9.00">x</text>
<polyline fill="none" stroke="black" points="405.5,-19 790,-19"/>
<text text-anchor="middle" x="441.62" y="-6.45" font-family="Times,serif" font-size="9.00">type = 2 (VAR)</text>
<polyline fill="none" stroke="black" points="477.75,-0.5 477.75,-19"/>
<text text-anchor="middle" x="503.75" y="-6.45" font-family="Times,serif" font-size="9.00">left = (nil)</text>
<polyline fill="none" stroke="black" points="529.75,-0.5 529.75,-19"/>
<text text-anchor="middle" x="579.75" y="-6.45" font-family="Times,serif" font-size="9.00">node = 0x5fcf43f3e640</text>
<polyline fill="none" stroke="black" points="629.75,-0.5 629.75,-19"/>
<text text-anchor="middle" x="681.62" y="-6.45" font-family="Times,serif" font-size="9.00">parent = 0x5fcf43f3e5c0</text>
<polyline fill="none" stroke="black" points="733.5,-0.5 733.5,-19"/>
<text text-anchor="middle" x="761.75" y="-6.45" font-family="Times,serif" font-size="9.00">right = (nil)</text>
</g>
<!-- node_0x5fcf43f3e5c0&#45;&gt;node_0x5fcf43f3e640 -->
<g id="edge4" class="edge">
<title>node_0x5fcf43f3e5c0&#45;&gt;node_0x5fcf43f3e640</title>
<path fill="none" stroke="black" d="M582.69,-74.2C584.83,-66.5 587.39,-57.29 589.79,-48.67"/>
<polygon fill="black" stroke="black" points="593.08,-49.87 592.39,-39.3 586.34,-48 593.08,-49.87"/>
</g>
<!-- node_0x5fcf43f3e6c0 -->
<g id="node7" class="node">
<title>node_0x5fcf43f3e6c0</title>
<polygon fill="#bdef9e" stroke="black" points="826.88,-74.5 826.88,-111.5 1288.62,-111.5 1288.62,-74.5 826.88,-74.5"/>
<text text-anchor="middle" x="1057.75" y="-98.95" font-family="Times,serif" font-size="9.00">^</text>
<polyline fill="none" stroke="black" points="826.88,-93 1288.62,-93"/>
<text text-anchor="middle" x="859.62" y="-80.45" font-family="Times,serif" font-size="9.00">type = 3 (OP)</text>
<polyline fill="none" stroke="black" points="892.38,-74.5 892.38,-93"/>
<text text-anchor="middle" x="939.38" y="-80.45" font-family="Times,serif" font-size="9.00">left = 0x5fcf43f3e700</text>
<polyline fill="none" stroke="black" points="986.38,-74.5 986.38,-93"/>
<text text-anchor="middle" x="1036" y="-80.45" font-family="Times,serif" font-size="9.00">node = 0x5fcf43f3e6c0</text>
<polyline fill="none" stroke="black" points="1085.62,-74.5 1085.62,-93"/>
<text text-anchor="middle" x="1137.88" y="-80.45" font-family="Times,serif" font-size="9.00">parent = 0x5fcf43f3e680</text>
<polyline fill="none" stroke="black" points="1190.12,-74.5 1190.12,-93"/>
<text text-anchor="middle" x="1239.38" y="-80.45" font-family="Times,serif" font-size="9.00">right = 0x5fcf43f3e740</text>
</g>
<!-- node_0x5fcf43f3e680&#45;&gt;node_0x5fcf43f3e6c0 -->
<g id="edge6" class="edge">
<title>node_0x5fcf43f3e680&#45;&gt;node_0x5fcf43f3e6c0</title>
<path fill="none" stroke="black" d="M1049.47,-148.2C1050.63,-140.59 1052.02,-131.5 1053.33,-122.96"/>
<polygon fill="black" stroke="black" points="1056.74,-123.75 1054.8,-113.34 1049.83,-122.7 1056.74,-123.75"/>
</g>
<!-- node_0x5fcf43f3e700 -->
<g id="node8" class="node">
<title>node_0x5fcf43f3e700</title>
<polygon fill="yellow" stroke="black" points="846.5,-0.5 846.5,-37.5 1231,-37.5 1231,-0.5 846.5,-0.5"/>
<text text-anchor="middle" x="1038.75" y="-24.95" font-family="Times,serif" font-size="9.00">x</text>
<polyline fill="none" stroke="black" points="846.5,-19 1231,-19"/>
<text text-anchor="middle" x="882.62" y="-6.45" font-family="Times,serif" font-size="9.00">type = 2 (VAR)</text>
<polyline fill="none" stroke="black" points="918.75,-0.5 918.75,-19"/>
<text text-anchor="middle" x="944.75" y="-6.45" font-family="Times,serif" font-size="9.00">left = (nil)</text>
<polyline fill="none" stroke="black" points="970.75,-0.5 970.75,-19"/>
<text text-anchor="middle" x="1020.75" y="-6.45" font-family="Times,serif" font-size="9.00">node = 0x5fcf43f3e700</text>
<polyline fill="none" stroke="black" points="1070.75,-0.5 1070.75,-19"/>
<text text-anchor="middle" x="1122.62" y="-6.45" font-family="Times,serif" font-size="9.00">parent = 0x5fcf43f3e6c0</text>
<polyline fill="none" stroke="black" points="1174.5,-0.5 1174.5,-19"/>
<text text-anchor="middle" x="1202.75" y="-6.45" font-family="Times,serif" font-size="9.00">right = (nil)</text>
</g>
<!-- node_0x5fcf43f3e6c0&#45;&gt;node_0x5fcf43f3e700 -->
<g id="edge7" class="edge">
<title>node_0x5fcf43f3e6c0&#45;&gt;node_0x5fcf43f3e700</title>
<path fill="none" stroke="black" d="M1053.05,-74.2C1051.04,-66.59 1048.64,-57.5 1046.39,-48.96"/>
<polygon fill="black" stroke="black" points="1049.78,-48.08 1043.84,-39.31 1043.01,-49.87 1049.78,-48.08"/>
</g>
<!-- node_0x5fcf43f3e740 -->
<g id="node9" class="node">
<title>node_0x5fcf43f3e740</title>
<polygon fill="blue" stroke="black" points="1249,-0.5 1249,-37.5 1636.5,-37.5 1636.5,-0.5 1249,-0.5"/>
<text text-anchor="middle" x="1442.75" y="-24.95" font-family="Times,serif" font-size="9.00">2</text>
<polyline fill="none" stroke="black" points="1249,-19 1636.5,-19"/>
<text text-anchor="middle" x="1286.62" y="-6.45" font-family="Times,serif" font-size="9.00">type = 1 (NUM)</text>
<polyline fill="none" stroke="black" points="1324.25,-0.5 1324.25,-19"/>
<text text-anchor="middle" x="1350.25" y="-6.45" font-family="Times,serif" font-size="9.00">left = (nil)</text>
<polyline fill="none" stroke="black" points="1376.25,-0.5 1376.25,-19"/>
<text text-anchor="middle" x="1426.25" y="-6.45" font-family="Times,serif" font-size="9.00">node = 0x5fcf43f3e740</text>
<polyline fill="none" stroke="black" points="1476.25,-0.5 1476.25,-19"/>
<text text-anchor="middle" x="1528.12" y="-6.45" font-family="Times,serif" font-size="9.00">parent = 0x5fcf43f3e6c0</text>
<polyline fill="none" stroke="black" points="1580,-0.5 1580,-19"/>
<text text-anchor="middle" x="1608.25" y="-6.45" font-family="Times,serif" font-size="9.00">right = (nil)</text>
</g>
<!-- node_0x5fcf43f3e6c0&#45;&gt;node_0x5fcf43f3e740 -->
<g id="edge8" class="edge">
<title>node_0x5fcf43f3e6c0&#45;&gt;node_0x5fcf43f3e740</title>
<path fill="none" stroke="black" d="M1153.91,-74.02C1209.14,-63.69 1278.62,-50.69 1335.6,-40.04"/>
<polygon fill="black" stroke="black" points="1336.14,-43.5 1345.33,-38.22 1334.86,-36.62 1336.14,-43.5"/>
</g>
</g>
</svg>
