<?xml version="1.0" encoding="UTF-8" standalone="no"?>
<!DOCTYPE svg PUBLIC "-//W3C//DTD SVG 1.1//EN"
 "http://www.w3.org/Graphics/SVG/1.1/DTD/svg11.dtd">
<!-- Generated by graphviz version 12.1.2 (0)
 -->
<!-- Pages: 1 -->
<svg width="5001pt" height="490pt"
 viewBox="0.00 0.00 5001.00 490.00" xmlns="http://www.w3.org/2000/svg" xmlns:xlink="http://www.w3.org/1999/xlink">
<g id="graph0" class="graph" transform="scale(1 1) rotate(0) translate(4 486)">
<polygon fill="white" stroke="none" points="-4,4 -4,-486 4997,-486 4997,4 -4,4"/>
<!-- node_0x634003848b10 -->
<g id="node1" class="node">
<title>node_0x634003848b10</title>
<polygon fill="#bdef9e" stroke="black" points="2828.5,-444.5 2828.5,-481.5 3266.25,-481.5 3266.25,-444.5 2828.5,-444.5"/>
<text text-anchor="middle" x="3047.38" y="-468.95" font-family="Times,serif" font-size="9.00">/</text>
<polyline fill="none" stroke="black" points="2828.5,-463 3266.25,-463"/>
<text text-anchor="middle" x="2861.25" y="-450.45" font-family="Times,serif" font-size="9.00">type = 3 (OP)</text>
<polyline fill="none" stroke="black" points="2894,-444.5 2894,-463"/>
<text text-anchor="middle" x="2943.62" y="-450.45" font-family="Times,serif" font-size="9.00">left = 0x634003848ad0</text>
<polyline fill="none" stroke="black" points="2993.25,-444.5 2993.25,-463"/>
<text text-anchor="middle" x="3046.25" y="-450.45" font-family="Times,serif" font-size="9.00">node = 0x634003848b10</text>
<polyline fill="none" stroke="black" points="3099.25,-444.5 3099.25,-463"/>
<text text-anchor="middle" x="3130.5" y="-450.45" font-family="Times,serif" font-size="9.00">parent = (nil)</text>
<polyline fill="none" stroke="black" points="3161.75,-444.5 3161.75,-463"/>
<text text-anchor="middle" x="3214" y="-450.45" font-family="Times,serif" font-size="9.00">right = 0x634003848610</text>
</g>
<!-- node_0x634003848ad0 -->
<g id="node2" class="node">
<title>node_0x634003848ad0</title>
<polygon fill="#bdef9e" stroke="black" points="2311.88,-370.5 2311.88,-407.5 2796.88,-407.5 2796.88,-370.5 2311.88,-370.5"/>
<text text-anchor="middle" x="2554.38" y="-394.95" font-family="Times,serif" font-size="9.00">&#45;</text>
<polyline fill="none" stroke="black" points="2311.88,-389 2796.88,-389"/>
<text text-anchor="middle" x="2344.62" y="-376.45" font-family="Times,serif" font-size="9.00">type = 3 (OP)</text>
<polyline fill="none" stroke="black" points="2377.38,-370.5 2377.38,-389"/>
<text text-anchor="middle" x="2427" y="-376.45" font-family="Times,serif" font-size="9.00">left = 0x634003848a90</text>
<polyline fill="none" stroke="black" points="2476.62,-370.5 2476.62,-389"/>
<text text-anchor="middle" x="2529.25" y="-376.45" font-family="Times,serif" font-size="9.00">node = 0x634003848ad0</text>
<polyline fill="none" stroke="black" points="2581.88,-370.5 2581.88,-389"/>
<text text-anchor="middle" x="2637.12" y="-376.45" font-family="Times,serif" font-size="9.00">parent = 0x634003848b10</text>
<polyline fill="none" stroke="black" points="2692.38,-370.5 2692.38,-389"/>
<text text-anchor="middle" x="2744.62" y="-376.45" font-family="Times,serif" font-size="9.00">right = 0x634003848890</text>
</g>
<!-- node_0x634003848b10&#45;&gt;node_0x634003848ad0 -->
<g id="edge1" class="edge">
<title>node_0x634003848b10&#45;&gt;node_0x634003848ad0</title>
<path fill="none" stroke="black" d="M2924.24,-444.02C2852.49,-433.54 2761.95,-420.31 2688.41,-409.57"/>
<polygon fill="black" stroke="black" points="2689.12,-406.14 2678.72,-408.16 2688.11,-413.07 2689.12,-406.14"/>
</g>
<!-- node_0x634003848610 -->
<g id="node21" class="node">
<title>node_0x634003848610</title>
<polygon fill="#bdef9e" stroke="black" points="3426.12,-370.5 3426.12,-407.5 3912.62,-407.5 3912.62,-370.5 3426.12,-370.5"/>
<text text-anchor="middle" x="3669.38" y="-394.95" font-family="Times,serif" font-size="9.00">*</text>
<polyline fill="none" stroke="black" points="3426.12,-389 3912.62,-389"/>
<text text-anchor="middle" x="3458.88" y="-376.45" font-family="Times,serif" font-size="9.00">type = 3 (OP)</text>
<polyline fill="none" stroke="black" points="3491.62,-370.5 3491.62,-389"/>
<text text-anchor="middle" x="3541.62" y="-376.45" font-family="Times,serif" font-size="9.00">left = 0x634003848510</text>
<polyline fill="none" stroke="black" points="3591.62,-370.5 3591.62,-389"/>
<text text-anchor="middle" x="3644.62" y="-376.45" font-family="Times,serif" font-size="9.00">node = 0x634003848610</text>
<polyline fill="none" stroke="black" points="3697.62,-370.5 3697.62,-389"/>
<text text-anchor="middle" x="3752.88" y="-376.45" font-family="Times,serif" font-size="9.00">parent = 0x634003848b10</text>
<polyline fill="none" stroke="black" points="3808.12,-370.5 3808.12,-389"/>
<text text-anchor="middle" x="3860.38" y="-376.45" font-family="Times,serif" font-size="9.00">right = 0x634003848410</text>
</g>
<!-- node_0x634003848b10&#45;&gt;node_0x634003848610 -->
<g id="edge20" class="edge">
<title>node_0x634003848b10&#45;&gt;node_0x634003848610</title>
<path fill="none" stroke="black" d="M3202.73,-444.02C3294.1,-433.44 3409.62,-420.07 3502.86,-409.28"/>
<polygon fill="black" stroke="black" points="3503.08,-412.77 3512.61,-408.15 3502.28,-405.82 3503.08,-412.77"/>
</g>
<!-- node_0x634003848a90 -->
<g id="node3" class="node">
<title>node_0x634003848a90</title>
<polygon fill="#bdef9e" stroke="black" points="1062.25,-296.5 1062.25,-333.5 1546.5,-333.5 1546.5,-296.5 1062.25,-296.5"/>
<text text-anchor="middle" x="1304.38" y="-320.95" font-family="Times,serif" font-size="9.00">*</text>
<polyline fill="none" stroke="black" points="1062.25,-315 1546.5,-315"/>
<text text-anchor="middle" x="1095" y="-302.45" font-family="Times,serif" font-size="9.00">type = 3 (OP)</text>
<polyline fill="none" stroke="black" points="1127.75,-296.5 1127.75,-315"/>
<text text-anchor="middle" x="1177.38" y="-302.45" font-family="Times,serif" font-size="9.00">left = 0x634003848a50</text>
<polyline fill="none" stroke="black" points="1227,-296.5 1227,-315"/>
<text text-anchor="middle" x="1279.62" y="-302.45" font-family="Times,serif" font-size="9.00">node = 0x634003848a90</text>
<polyline fill="none" stroke="black" points="1332.25,-296.5 1332.25,-315"/>
<text text-anchor="middle" x="1387.12" y="-302.45" font-family="Times,serif" font-size="9.00">parent = 0x634003848ad0</text>
<polyline fill="none" stroke="black" points="1442,-296.5 1442,-315"/>
<text text-anchor="middle" x="1494.25" y="-302.45" font-family="Times,serif" font-size="9.00">right = 0x6340038488d0</text>
</g>
<!-- node_0x634003848ad0&#45;&gt;node_0x634003848a90 -->
<g id="edge2" class="edge">
<title>node_0x634003848ad0&#45;&gt;node_0x634003848a90</title>
<path fill="none" stroke="black" d="M2311.51,-374.01C2094.7,-361.52 1778.33,-343.3 1558.24,-330.62"/>
<polygon fill="black" stroke="black" points="1558.54,-327.13 1548.36,-330.05 1558.14,-334.12 1558.54,-327.13"/>
</g>
<!-- node_0x634003848890 -->
<g id="node11" class="node">
<title>node_0x634003848890</title>
<polygon fill="#bdef9e" stroke="black" points="2311.5,-296.5 2311.5,-333.5 2797.25,-333.5 2797.25,-296.5 2311.5,-296.5"/>
<text text-anchor="middle" x="2554.38" y="-320.95" font-family="Times,serif" font-size="9.00">*</text>
<polyline fill="none" stroke="black" points="2311.5,-315 2797.25,-315"/>
<text text-anchor="middle" x="2344.25" y="-302.45" font-family="Times,serif" font-size="9.00">type = 3 (OP)</text>
<polyline fill="none" stroke="black" points="2377,-296.5 2377,-315"/>
<text text-anchor="middle" x="2427" y="-302.45" font-family="Times,serif" font-size="9.00">left = 0x6340038487d0</text>
<polyline fill="none" stroke="black" points="2477,-296.5 2477,-315"/>
<text text-anchor="middle" x="2530" y="-302.45" font-family="Times,serif" font-size="9.00">node = 0x634003848890</text>
<polyline fill="none" stroke="black" points="2583,-296.5 2583,-315"/>
<text text-anchor="middle" x="2637.88" y="-302.45" font-family="Times,serif" font-size="9.00">parent = 0x634003848ad0</text>
<polyline fill="none" stroke="black" points="2692.75,-296.5 2692.75,-315"/>
<text text-anchor="middle" x="2745" y="-302.45" font-family="Times,serif" font-size="9.00">right = 0x634003848790</text>
</g>
<!-- node_0x634003848ad0&#45;&gt;node_0x634003848890 -->
<g id="edge10" class="edge">
<title>node_0x634003848ad0&#45;&gt;node_0x634003848890</title>
<path fill="none" stroke="black" d="M2554.38,-370.2C2554.38,-362.67 2554.38,-353.7 2554.38,-345.25"/>
<polygon fill="black" stroke="black" points="2557.88,-345.36 2554.38,-335.36 2550.88,-345.36 2557.88,-345.36"/>
</g>
<!-- node_0x634003848a50 -->
<g id="node4" class="node">
<title>node_0x634003848a50</title>
<polygon fill="#bdef9e" stroke="black" points="374.25,-222.5 374.25,-259.5 858.5,-259.5 858.5,-222.5 374.25,-222.5"/>
<text text-anchor="middle" x="616.38" y="-246.95" font-family="Times,serif" font-size="9.00">+</text>
<polyline fill="none" stroke="black" points="374.25,-241 858.5,-241"/>
<text text-anchor="middle" x="407" y="-228.45" font-family="Times,serif" font-size="9.00">type = 3 (OP)</text>
<polyline fill="none" stroke="black" points="439.75,-222.5 439.75,-241"/>
<text text-anchor="middle" x="489.38" y="-228.45" font-family="Times,serif" font-size="9.00">left = 0x634003848a10</text>
<polyline fill="none" stroke="black" points="539,-222.5 539,-241"/>
<text text-anchor="middle" x="591.62" y="-228.45" font-family="Times,serif" font-size="9.00">node = 0x634003848a50</text>
<polyline fill="none" stroke="black" points="644.25,-222.5 644.25,-241"/>
<text text-anchor="middle" x="699.12" y="-228.45" font-family="Times,serif" font-size="9.00">parent = 0x634003848a90</text>
<polyline fill="none" stroke="black" points="754,-222.5 754,-241"/>
<text text-anchor="middle" x="806.25" y="-228.45" font-family="Times,serif" font-size="9.00">right = 0x6340038489d0</text>
</g>
<!-- node_0x634003848a90&#45;&gt;node_0x634003848a50 -->
<g id="edge3" class="edge">
<title>node_0x634003848a90&#45;&gt;node_0x634003848a50</title>
<path fill="none" stroke="black" d="M1132.54,-296.02C1031.06,-285.4 902.66,-271.96 799.3,-261.14"/>
<polygon fill="black" stroke="black" points="799.92,-257.69 789.61,-260.13 799.19,-264.65 799.92,-257.69"/>
</g>
<!-- node_0x6340038488d0 -->
<g id="node7" class="node">
<title>node_0x6340038488d0</title>
<polygon fill="#bdef9e" stroke="black" points="1061.5,-222.5 1061.5,-259.5 1547.25,-259.5 1547.25,-222.5 1061.5,-222.5"/>
<text text-anchor="middle" x="1304.38" y="-246.95" font-family="Times,serif" font-size="9.00">+</text>
<polyline fill="none" stroke="black" points="1061.5,-241 1547.25,-241"/>
<text text-anchor="middle" x="1094.25" y="-228.45" font-family="Times,serif" font-size="9.00">type = 3 (OP)</text>
<polyline fill="none" stroke="black" points="1127,-222.5 1127,-241"/>
<text text-anchor="middle" x="1177" y="-228.45" font-family="Times,serif" font-size="9.00">left = 0x634003848910</text>
<polyline fill="none" stroke="black" points="1227,-222.5 1227,-241"/>
<text text-anchor="middle" x="1280" y="-228.45" font-family="Times,serif" font-size="9.00">node = 0x6340038488d0</text>
<polyline fill="none" stroke="black" points="1333,-222.5 1333,-241"/>
<text text-anchor="middle" x="1387.88" y="-228.45" font-family="Times,serif" font-size="9.00">parent = 0x634003848a90</text>
<polyline fill="none" stroke="black" points="1442.75,-222.5 1442.75,-241"/>
<text text-anchor="middle" x="1495" y="-228.45" font-family="Times,serif" font-size="9.00">right = 0x634003848990</text>
</g>
<!-- node_0x634003848a90&#45;&gt;node_0x6340038488d0 -->
<g id="edge6" class="edge">
<title>node_0x634003848a90&#45;&gt;node_0x6340038488d0</title>
<path fill="none" stroke="black" d="M1304.38,-296.2C1304.38,-288.67 1304.38,-279.7 1304.38,-271.25"/>
<polygon fill="black" stroke="black" points="1307.88,-271.36 1304.38,-261.36 1300.88,-271.36 1307.88,-271.36"/>
</g>
<!-- node_0x634003848a10 -->
<g id="node5" class="node">
<title>node_0x634003848a10</title>
<polygon fill="blue" stroke="black" points="0,-148.5 0,-185.5 398.75,-185.5 398.75,-148.5 0,-148.5"/>
<text text-anchor="middle" x="199.38" y="-172.95" font-family="Times,serif" font-size="9.00">0</text>
<polyline fill="none" stroke="black" points="0,-167 398.75,-167"/>
<text text-anchor="middle" x="37.62" y="-154.45" font-family="Times,serif" font-size="9.00">type = 1 (NUM)</text>
<polyline fill="none" stroke="black" points="75.25,-148.5 75.25,-167"/>
<text text-anchor="middle" x="101.25" y="-154.45" font-family="Times,serif" font-size="9.00">left = (nil)</text>
<polyline fill="none" stroke="black" points="127.25,-148.5 127.25,-167"/>
<text text-anchor="middle" x="179.88" y="-154.45" font-family="Times,serif" font-size="9.00">node = 0x634003848a10</text>
<polyline fill="none" stroke="black" points="232.5,-148.5 232.5,-167"/>
<text text-anchor="middle" x="287.38" y="-154.45" font-family="Times,serif" font-size="9.00">parent = 0x634003848a50</text>
<polyline fill="none" stroke="black" points="342.25,-148.5 342.25,-167"/>
<text text-anchor="middle" x="370.5" y="-154.45" font-family="Times,serif" font-size="9.00">right = (nil)</text>
</g>
<!-- node_0x634003848a50&#45;&gt;node_0x634003848a10 -->
<g id="edge4" class="edge">
<title>node_0x634003848a50&#45;&gt;node_0x634003848a10</title>
<path fill="none" stroke="black" d="M512.22,-222.02C452.03,-211.62 376.21,-198.53 314.28,-187.84"/>
<polygon fill="black" stroke="black" points="315.22,-184.45 304.77,-186.2 314.03,-191.35 315.22,-184.45"/>
</g>
<!-- node_0x6340038489d0 -->
<g id="node6" class="node">
<title>node_0x6340038489d0</title>
<polygon fill="blue" stroke="black" points="416.62,-148.5 416.62,-185.5 816.12,-185.5 816.12,-148.5 416.62,-148.5"/>
<text text-anchor="middle" x="616.38" y="-172.95" font-family="Times,serif" font-size="9.00">0</text>
<polyline fill="none" stroke="black" points="416.62,-167 816.12,-167"/>
<text text-anchor="middle" x="454.25" y="-154.45" font-family="Times,serif" font-size="9.00">type = 1 (NUM)</text>
<polyline fill="none" stroke="black" points="491.88,-148.5 491.88,-167"/>
<text text-anchor="middle" x="517.88" y="-154.45" font-family="Times,serif" font-size="9.00">left = (nil)</text>
<polyline fill="none" stroke="black" points="543.88,-148.5 543.88,-167"/>
<text text-anchor="middle" x="596.88" y="-154.45" font-family="Times,serif" font-size="9.00">node = 0x6340038489d0</text>
<polyline fill="none" stroke="black" points="649.88,-148.5 649.88,-167"/>
<text text-anchor="middle" x="704.75" y="-154.45" font-family="Times,serif" font-size="9.00">parent = 0x634003848a50</text>
<polyline fill="none" stroke="black" points="759.62,-148.5 759.62,-167"/>
<text text-anchor="middle" x="787.88" y="-154.45" font-family="Times,serif" font-size="9.00">right = (nil)</text>
</g>
<!-- node_0x634003848a50&#45;&gt;node_0x6340038489d0 -->
<g id="edge5" class="edge">
<title>node_0x634003848a50&#45;&gt;node_0x6340038489d0</title>
<path fill="none" stroke="black" d="M616.38,-222.2C616.38,-214.67 616.38,-205.7 616.38,-197.25"/>
<polygon fill="black" stroke="black" points="619.88,-197.36 616.38,-187.36 612.88,-197.36 619.88,-197.36"/>
</g>
<!-- node_0x634003848910 -->
<g id="node8" class="node">
<title>node_0x634003848910</title>
<polygon fill="#bdef9e" stroke="black" points="834.12,-148.5 834.12,-185.5 1272.62,-185.5 1272.62,-148.5 834.12,-148.5"/>
<text text-anchor="middle" x="1053.38" y="-172.95" font-family="Times,serif" font-size="9.00">sin</text>
<polyline fill="none" stroke="black" points="834.12,-167 1272.62,-167"/>
<text text-anchor="middle" x="866.88" y="-154.45" font-family="Times,serif" font-size="9.00">type = 3 (OP)</text>
<polyline fill="none" stroke="black" points="899.62,-148.5 899.62,-167"/>
<text text-anchor="middle" x="925.62" y="-154.45" font-family="Times,serif" font-size="9.00">left = (nil)</text>
<polyline fill="none" stroke="black" points="951.62,-148.5 951.62,-167"/>
<text text-anchor="middle" x="1004.62" y="-154.45" font-family="Times,serif" font-size="9.00">node = 0x634003848910</text>
<polyline fill="none" stroke="black" points="1057.62,-148.5 1057.62,-167"/>
<text text-anchor="middle" x="1112.88" y="-154.45" font-family="Times,serif" font-size="9.00">parent = 0x6340038488d0</text>
<polyline fill="none" stroke="black" points="1168.12,-148.5 1168.12,-167"/>
<text text-anchor="middle" x="1220.38" y="-154.45" font-family="Times,serif" font-size="9.00">right = 0x634003848950</text>
</g>
<!-- node_0x6340038488d0&#45;&gt;node_0x634003848910 -->
<g id="edge7" class="edge">
<title>node_0x6340038488d0&#45;&gt;node_0x634003848910</title>
<path fill="none" stroke="black" d="M1241.68,-222.02C1206.66,-211.97 1162.85,-199.4 1126.3,-188.92"/>
<polygon fill="black" stroke="black" points="1127.73,-185.69 1117.16,-186.3 1125.8,-192.42 1127.73,-185.69"/>
</g>
<!-- node_0x634003848990 -->
<g id="node10" class="node">
<title>node_0x634003848990</title>
<polygon fill="yellow" stroke="black" points="1290.75,-148.5 1290.75,-185.5 1688,-185.5 1688,-148.5 1290.75,-148.5"/>
<text text-anchor="middle" x="1489.38" y="-172.95" font-family="Times,serif" font-size="9.00">x</text>
<polyline fill="none" stroke="black" points="1290.75,-167 1688,-167"/>
<text text-anchor="middle" x="1326.88" y="-154.45" font-family="Times,serif" font-size="9.00">type = 2 (VAR)</text>
<polyline fill="none" stroke="black" points="1363,-148.5 1363,-167"/>
<text text-anchor="middle" x="1389" y="-154.45" font-family="Times,serif" font-size="9.00">left = (nil)</text>
<polyline fill="none" stroke="black" points="1415,-148.5 1415,-167"/>
<text text-anchor="middle" x="1468" y="-154.45" font-family="Times,serif" font-size="9.00">node = 0x634003848990</text>
<polyline fill="none" stroke="black" points="1521,-148.5 1521,-167"/>
<text text-anchor="middle" x="1576.25" y="-154.45" font-family="Times,serif" font-size="9.00">parent = 0x6340038488d0</text>
<polyline fill="none" stroke="black" points="1631.5,-148.5 1631.5,-167"/>
<text text-anchor="middle" x="1659.75" y="-154.45" font-family="Times,serif" font-size="9.00">right = (nil)</text>
</g>
<!-- node_0x6340038488d0&#45;&gt;node_0x634003848990 -->
<g id="edge9" class="edge">
<title>node_0x6340038488d0&#45;&gt;node_0x634003848990</title>
<path fill="none" stroke="black" d="M1350.58,-222.02C1375.51,-212.32 1406.48,-200.26 1432.83,-190.01"/>
<polygon fill="black" stroke="black" points="1433.98,-193.32 1442.03,-186.43 1431.44,-186.79 1433.98,-193.32"/>
</g>
<!-- node_0x634003848950 -->
<g id="node9" class="node">
<title>node_0x634003848950</title>
<polygon fill="yellow" stroke="black" points="854.75,-74.5 854.75,-111.5 1252,-111.5 1252,-74.5 854.75,-74.5"/>
<text text-anchor="middle" x="1053.38" y="-98.95" font-family="Times,serif" font-size="9.00">x</text>
<polyline fill="none" stroke="black" points="854.75,-93 1252,-93"/>
<text text-anchor="middle" x="890.88" y="-80.45" font-family="Times,serif" font-size="9.00">type = 2 (VAR)</text>
<polyline fill="none" stroke="black" points="927,-74.5 927,-93"/>
<text text-anchor="middle" x="953" y="-80.45" font-family="Times,serif" font-size="9.00">left = (nil)</text>
<polyline fill="none" stroke="black" points="979,-74.5 979,-93"/>
<text text-anchor="middle" x="1032" y="-80.45" font-family="Times,serif" font-size="9.00">node = 0x634003848950</text>
<polyline fill="none" stroke="black" points="1085,-74.5 1085,-93"/>
<text text-anchor="middle" x="1140.25" y="-80.45" font-family="Times,serif" font-size="9.00">parent = 0x634003848910</text>
<polyline fill="none" stroke="black" points="1195.5,-74.5 1195.5,-93"/>
<text text-anchor="middle" x="1223.75" y="-80.45" font-family="Times,serif" font-size="9.00">right = (nil)</text>
</g>
<!-- node_0x634003848910&#45;&gt;node_0x634003848950 -->
<g id="edge8" class="edge">
<title>node_0x634003848910&#45;&gt;node_0x634003848950</title>
<path fill="none" stroke="black" d="M1053.38,-148.2C1053.38,-140.67 1053.38,-131.7 1053.38,-123.25"/>
<polygon fill="black" stroke="black" points="1056.88,-123.36 1053.38,-113.36 1049.88,-123.36 1056.88,-123.36"/>
</g>
<!-- node_0x6340038487d0 -->
<g id="node12" class="node">
<title>node_0x6340038487d0</title>
<polygon fill="#bdef9e" stroke="black" points="2059.12,-222.5 2059.12,-259.5 2545.62,-259.5 2545.62,-222.5 2059.12,-222.5"/>
<text text-anchor="middle" x="2302.38" y="-246.95" font-family="Times,serif" font-size="9.00">+</text>
<polyline fill="none" stroke="black" points="2059.12,-241 2545.62,-241"/>
<text text-anchor="middle" x="2091.88" y="-228.45" font-family="Times,serif" font-size="9.00">type = 3 (OP)</text>
<polyline fill="none" stroke="black" points="2124.62,-222.5 2124.62,-241"/>
<text text-anchor="middle" x="2174.62" y="-228.45" font-family="Times,serif" font-size="9.00">left = 0x634003848810</text>
<polyline fill="none" stroke="black" points="2224.62,-222.5 2224.62,-241"/>
<text text-anchor="middle" x="2277.62" y="-228.45" font-family="Times,serif" font-size="9.00">node = 0x6340038487d0</text>
<polyline fill="none" stroke="black" points="2330.62,-222.5 2330.62,-241"/>
<text text-anchor="middle" x="2385.88" y="-228.45" font-family="Times,serif" font-size="9.00">parent = 0x634003848890</text>
<polyline fill="none" stroke="black" points="2441.12,-222.5 2441.12,-241"/>
<text text-anchor="middle" x="2493.38" y="-228.45" font-family="Times,serif" font-size="9.00">right = 0x634003848850</text>
</g>
<!-- node_0x634003848890&#45;&gt;node_0x6340038487d0 -->
<g id="edge11" class="edge">
<title>node_0x634003848890&#45;&gt;node_0x6340038487d0</title>
<path fill="none" stroke="black" d="M2491.43,-296.02C2456.27,-285.97 2412.28,-273.4 2375.59,-262.92"/>
<polygon fill="black" stroke="black" points="2376.98,-259.68 2366.4,-260.29 2375.06,-266.41 2376.98,-259.68"/>
</g>
<!-- node_0x634003848790 -->
<g id="node15" class="node">
<title>node_0x634003848790</title>
<polygon fill="#bdef9e" stroke="black" points="2564.12,-222.5 2564.12,-259.5 3050.62,-259.5 3050.62,-222.5 2564.12,-222.5"/>
<text text-anchor="middle" x="2807.38" y="-246.95" font-family="Times,serif" font-size="9.00">+</text>
<polyline fill="none" stroke="black" points="2564.12,-241 3050.62,-241"/>
<text text-anchor="middle" x="2596.88" y="-228.45" font-family="Times,serif" font-size="9.00">type = 3 (OP)</text>
<polyline fill="none" stroke="black" points="2629.62,-222.5 2629.62,-241"/>
<text text-anchor="middle" x="2679.62" y="-228.45" font-family="Times,serif" font-size="9.00">left = 0x634003848750</text>
<polyline fill="none" stroke="black" points="2729.62,-222.5 2729.62,-241"/>
<text text-anchor="middle" x="2782.62" y="-228.45" font-family="Times,serif" font-size="9.00">node = 0x634003848790</text>
<polyline fill="none" stroke="black" points="2835.62,-222.5 2835.62,-241"/>
<text text-anchor="middle" x="2890.88" y="-228.45" font-family="Times,serif" font-size="9.00">parent = 0x634003848890</text>
<polyline fill="none" stroke="black" points="2946.12,-222.5 2946.12,-241"/>
<text text-anchor="middle" x="2998.38" y="-228.45" font-family="Times,serif" font-size="9.00">right = 0x634003848650</text>
</g>
<!-- node_0x634003848890&#45;&gt;node_0x634003848790 -->
<g id="edge14" class="edge">
<title>node_0x634003848890&#45;&gt;node_0x634003848790</title>
<path fill="none" stroke="black" d="M2617.56,-296.02C2652.87,-285.97 2697.03,-273.4 2733.87,-262.92"/>
<polygon fill="black" stroke="black" points="2734.44,-266.4 2743.1,-260.29 2732.52,-259.66 2734.44,-266.4"/>
</g>
<!-- node_0x634003848810 -->
<g id="node13" class="node">
<title>node_0x634003848810</title>
<polygon fill="blue" stroke="black" points="1706.25,-148.5 1706.25,-185.5 2106.5,-185.5 2106.5,-148.5 1706.25,-148.5"/>
<text text-anchor="middle" x="1906.38" y="-172.95" font-family="Times,serif" font-size="9.00">30</text>
<polyline fill="none" stroke="black" points="1706.25,-167 2106.5,-167"/>
<text text-anchor="middle" x="1743.88" y="-154.45" font-family="Times,serif" font-size="9.00">type = 1 (NUM)</text>
<polyline fill="none" stroke="black" points="1781.5,-148.5 1781.5,-167"/>
<text text-anchor="middle" x="1807.5" y="-154.45" font-family="Times,serif" font-size="9.00">left = (nil)</text>
<polyline fill="none" stroke="black" points="1833.5,-148.5 1833.5,-167"/>
<text text-anchor="middle" x="1886.5" y="-154.45" font-family="Times,serif" font-size="9.00">node = 0x634003848810</text>
<polyline fill="none" stroke="black" points="1939.5,-148.5 1939.5,-167"/>
<text text-anchor="middle" x="1994.75" y="-154.45" font-family="Times,serif" font-size="9.00">parent = 0x6340038487d0</text>
<polyline fill="none" stroke="black" points="2050,-148.5 2050,-167"/>
<text text-anchor="middle" x="2078.25" y="-154.45" font-family="Times,serif" font-size="9.00">right = (nil)</text>
</g>
<!-- node_0x6340038487d0&#45;&gt;node_0x634003848810 -->
<g id="edge12" class="edge">
<title>node_0x6340038487d0&#45;&gt;node_0x634003848810</title>
<path fill="none" stroke="black" d="M2203.47,-222.02C2146.54,-211.67 2074.9,-198.64 2016.22,-187.97"/>
<polygon fill="black" stroke="black" points="2017,-184.56 2006.54,-186.21 2015.75,-191.44 2017,-184.56"/>
</g>
<!-- node_0x634003848850 -->
<g id="node14" class="node">
<title>node_0x634003848850</title>
<polygon fill="blue" stroke="black" points="2124.25,-148.5 2124.25,-185.5 2524.5,-185.5 2524.5,-148.5 2124.25,-148.5"/>
<text text-anchor="middle" x="2324.38" y="-172.95" font-family="Times,serif" font-size="9.00">50</text>
<polyline fill="none" stroke="black" points="2124.25,-167 2524.5,-167"/>
<text text-anchor="middle" x="2161.88" y="-154.45" font-family="Times,serif" font-size="9.00">type = 1 (NUM)</text>
<polyline fill="none" stroke="black" points="2199.5,-148.5 2199.5,-167"/>
<text text-anchor="middle" x="2225.5" y="-154.45" font-family="Times,serif" font-size="9.00">left = (nil)</text>
<polyline fill="none" stroke="black" points="2251.5,-148.5 2251.5,-167"/>
<text text-anchor="middle" x="2304.5" y="-154.45" font-family="Times,serif" font-size="9.00">node = 0x634003848850</text>
<polyline fill="none" stroke="black" points="2357.5,-148.5 2357.5,-167"/>
<text text-anchor="middle" x="2412.75" y="-154.45" font-family="Times,serif" font-size="9.00">parent = 0x6340038487d0</text>
<polyline fill="none" stroke="black" points="2468,-148.5 2468,-167"/>
<text text-anchor="middle" x="2496.25" y="-154.45" font-family="Times,serif" font-size="9.00">right = (nil)</text>
</g>
<!-- node_0x6340038487d0&#45;&gt;node_0x634003848850 -->
<g id="edge13" class="edge">
<title>node_0x6340038487d0&#45;&gt;node_0x634003848850</title>
<path fill="none" stroke="black" d="M2307.81,-222.2C2310.17,-214.5 2312.98,-205.29 2315.62,-196.67"/>
<polygon fill="black" stroke="black" points="2318.91,-197.88 2318.48,-187.29 2312.21,-195.83 2318.91,-197.88"/>
</g>
<!-- node_0x634003848750 -->
<g id="node16" class="node">
<title>node_0x634003848750</title>
<polygon fill="#bdef9e" stroke="black" points="2542.12,-148.5 2542.12,-185.5 3028.62,-185.5 3028.62,-148.5 2542.12,-148.5"/>
<text text-anchor="middle" x="2785.38" y="-172.95" font-family="Times,serif" font-size="9.00">*</text>
<polyline fill="none" stroke="black" points="2542.12,-167 3028.62,-167"/>
<text text-anchor="middle" x="2574.88" y="-154.45" font-family="Times,serif" font-size="9.00">type = 3 (OP)</text>
<polyline fill="none" stroke="black" points="2607.62,-148.5 2607.62,-167"/>
<text text-anchor="middle" x="2657.62" y="-154.45" font-family="Times,serif" font-size="9.00">left = 0x634003848710</text>
<polyline fill="none" stroke="black" points="2707.62,-148.5 2707.62,-167"/>
<text text-anchor="middle" x="2760.62" y="-154.45" font-family="Times,serif" font-size="9.00">node = 0x634003848750</text>
<polyline fill="none" stroke="black" points="2813.62,-148.5 2813.62,-167"/>
<text text-anchor="middle" x="2868.88" y="-154.45" font-family="Times,serif" font-size="9.00">parent = 0x634003848790</text>
<polyline fill="none" stroke="black" points="2924.12,-148.5 2924.12,-167"/>
<text text-anchor="middle" x="2976.38" y="-154.45" font-family="Times,serif" font-size="9.00">right = 0x634003848690</text>
</g>
<!-- node_0x634003848790&#45;&gt;node_0x634003848750 -->
<g id="edge15" class="edge">
<title>node_0x634003848790&#45;&gt;node_0x634003848750</title>
<path fill="none" stroke="black" d="M2801.94,-222.2C2799.58,-214.5 2796.77,-205.29 2794.13,-196.67"/>
<polygon fill="black" stroke="black" points="2797.54,-195.83 2791.27,-187.29 2790.84,-197.88 2797.54,-195.83"/>
</g>
<!-- node_0x634003848650 -->
<g id="node20" class="node">
<title>node_0x634003848650</title>
<polygon fill="blue" stroke="black" points="3046.25,-148.5 3046.25,-185.5 3446.5,-185.5 3446.5,-148.5 3046.25,-148.5"/>
<text text-anchor="middle" x="3246.38" y="-172.95" font-family="Times,serif" font-size="9.00">1</text>
<polyline fill="none" stroke="black" points="3046.25,-167 3446.5,-167"/>
<text text-anchor="middle" x="3083.88" y="-154.45" font-family="Times,serif" font-size="9.00">type = 1 (NUM)</text>
<polyline fill="none" stroke="black" points="3121.5,-148.5 3121.5,-167"/>
<text text-anchor="middle" x="3147.5" y="-154.45" font-family="Times,serif" font-size="9.00">left = (nil)</text>
<polyline fill="none" stroke="black" points="3173.5,-148.5 3173.5,-167"/>
<text text-anchor="middle" x="3226.5" y="-154.45" font-family="Times,serif" font-size="9.00">node = 0x634003848650</text>
<polyline fill="none" stroke="black" points="3279.5,-148.5 3279.5,-167"/>
<text text-anchor="middle" x="3334.75" y="-154.45" font-family="Times,serif" font-size="9.00">parent = 0x634003848790</text>
<polyline fill="none" stroke="black" points="3390,-148.5 3390,-167"/>
<text text-anchor="middle" x="3418.25" y="-154.45" font-family="Times,serif" font-size="9.00">right = (nil)</text>
</g>
<!-- node_0x634003848790&#45;&gt;node_0x634003848650 -->
<g id="edge19" class="edge">
<title>node_0x634003848790&#45;&gt;node_0x634003848650</title>
<path fill="none" stroke="black" d="M2917.02,-222.02C2980.52,-211.6 3060.55,-198.48 3125.81,-187.77"/>
<polygon fill="black" stroke="black" points="3126.19,-191.26 3135.49,-186.19 3125.06,-184.35 3126.19,-191.26"/>
</g>
<!-- node_0x634003848710 -->
<g id="node17" class="node">
<title>node_0x634003848710</title>
<polygon fill="#bdef9e" stroke="black" points="2347.12,-74.5 2347.12,-111.5 2785.62,-111.5 2785.62,-74.5 2347.12,-74.5"/>
<text text-anchor="middle" x="2566.38" y="-98.95" font-family="Times,serif" font-size="9.00">cos</text>
<polyline fill="none" stroke="black" points="2347.12,-93 2785.62,-93"/>
<text text-anchor="middle" x="2379.88" y="-80.45" font-family="Times,serif" font-size="9.00">type = 3 (OP)</text>
<polyline fill="none" stroke="black" points="2412.62,-74.5 2412.62,-93"/>
<text text-anchor="middle" x="2438.62" y="-80.45" font-family="Times,serif" font-size="9.00">left = (nil)</text>
<polyline fill="none" stroke="black" points="2464.62,-74.5 2464.62,-93"/>
<text text-anchor="middle" x="2517.62" y="-80.45" font-family="Times,serif" font-size="9.00">node = 0x634003848710</text>
<polyline fill="none" stroke="black" points="2570.62,-74.5 2570.62,-93"/>
<text text-anchor="middle" x="2625.88" y="-80.45" font-family="Times,serif" font-size="9.00">parent = 0x634003848750</text>
<polyline fill="none" stroke="black" points="2681.12,-74.5 2681.12,-93"/>
<text text-anchor="middle" x="2733.38" y="-80.45" font-family="Times,serif" font-size="9.00">right = 0x6340038486d0</text>
</g>
<!-- node_0x634003848750&#45;&gt;node_0x634003848710 -->
<g id="edge16" class="edge">
<title>node_0x634003848750&#45;&gt;node_0x634003848710</title>
<path fill="none" stroke="black" d="M2730.68,-148.02C2700.64,-138.14 2663.2,-125.83 2631.65,-115.46"/>
<polygon fill="black" stroke="black" points="2632.79,-112.15 2622.19,-112.35 2630.6,-118.8 2632.79,-112.15"/>
</g>
<!-- node_0x634003848690 -->
<g id="node19" class="node">
<title>node_0x634003848690</title>
<polygon fill="blue" stroke="black" points="2803.25,-74.5 2803.25,-111.5 3203.5,-111.5 3203.5,-74.5 2803.25,-74.5"/>
<text text-anchor="middle" x="3003.38" y="-98.95" font-family="Times,serif" font-size="9.00">1</text>
<polyline fill="none" stroke="black" points="2803.25,-93 3203.5,-93"/>
<text text-anchor="middle" x="2840.88" y="-80.45" font-family="Times,serif" font-size="9.00">type = 1 (NUM)</text>
<polyline fill="none" stroke="black" points="2878.5,-74.5 2878.5,-93"/>
<text text-anchor="middle" x="2904.5" y="-80.45" font-family="Times,serif" font-size="9.00">left = (nil)</text>
<polyline fill="none" stroke="black" points="2930.5,-74.5 2930.5,-93"/>
<text text-anchor="middle" x="2983.5" y="-80.45" font-family="Times,serif" font-size="9.00">node = 0x634003848690</text>
<polyline fill="none" stroke="black" points="3036.5,-74.5 3036.5,-93"/>
<text text-anchor="middle" x="3091.75" y="-80.45" font-family="Times,serif" font-size="9.00">parent = 0x634003848750</text>
<polyline fill="none" stroke="black" points="3147,-74.5 3147,-93"/>
<text text-anchor="middle" x="3175.25" y="-80.45" font-family="Times,serif" font-size="9.00">right = (nil)</text>
</g>
<!-- node_0x634003848750&#45;&gt;node_0x634003848690 -->
<g id="edge18" class="edge">
<title>node_0x634003848750&#45;&gt;node_0x634003848690</title>
<path fill="none" stroke="black" d="M2839.82,-148.02C2869.72,-138.14 2906.99,-125.83 2938.4,-115.46"/>
<polygon fill="black" stroke="black" points="2939.41,-118.81 2947.81,-112.35 2937.21,-112.17 2939.41,-118.81"/>
</g>
<!-- node_0x6340038486d0 -->
<g id="node18" class="node">
<title>node_0x6340038486d0</title>
<polygon fill="yellow" stroke="black" points="2367.75,-0.5 2367.75,-37.5 2765,-37.5 2765,-0.5 2367.75,-0.5"/>
<text text-anchor="middle" x="2566.38" y="-24.95" font-family="Times,serif" font-size="9.00">x</text>
<polyline fill="none" stroke="black" points="2367.75,-19 2765,-19"/>
<text text-anchor="middle" x="2403.88" y="-6.45" font-family="Times,serif" font-size="9.00">type = 2 (VAR)</text>
<polyline fill="none" stroke="black" points="2440,-0.5 2440,-19"/>
<text text-anchor="middle" x="2466" y="-6.45" font-family="Times,serif" font-size="9.00">left = (nil)</text>
<polyline fill="none" stroke="black" points="2492,-0.5 2492,-19"/>
<text text-anchor="middle" x="2545" y="-6.45" font-family="Times,serif" font-size="9.00">node = 0x6340038486d0</text>
<polyline fill="none" stroke="black" points="2598,-0.5 2598,-19"/>
<text text-anchor="middle" x="2653.25" y="-6.45" font-family="Times,serif" font-size="9.00">parent = 0x634003848710</text>
<polyline fill="none" stroke="black" points="2708.5,-0.5 2708.5,-19"/>
<text text-anchor="middle" x="2736.75" y="-6.45" font-family="Times,serif" font-size="9.00">right = (nil)</text>
</g>
<!-- node_0x634003848710&#45;&gt;node_0x6340038486d0 -->
<g id="edge17" class="edge">
<title>node_0x634003848710&#45;&gt;node_0x6340038486d0</title>
<path fill="none" stroke="black" d="M2566.38,-74.2C2566.38,-66.67 2566.38,-57.7 2566.38,-49.25"/>
<polygon fill="black" stroke="black" points="2569.88,-49.36 2566.38,-39.36 2562.88,-49.36 2569.88,-49.36"/>
</g>
<!-- node_0x634003848510 -->
<g id="node22" class="node">
<title>node_0x634003848510</title>
<polygon fill="#bdef9e" stroke="black" points="3426.12,-296.5 3426.12,-333.5 3912.62,-333.5 3912.62,-296.5 3426.12,-296.5"/>
<text text-anchor="middle" x="3669.38" y="-320.95" font-family="Times,serif" font-size="9.00">+</text>
<polyline fill="none" stroke="black" points="3426.12,-315 3912.62,-315"/>
<text text-anchor="middle" x="3458.88" y="-302.45" font-family="Times,serif" font-size="9.00">type = 3 (OP)</text>
<polyline fill="none" stroke="black" points="3491.62,-296.5 3491.62,-315"/>
<text text-anchor="middle" x="3541.62" y="-302.45" font-family="Times,serif" font-size="9.00">left = 0x634003848550</text>
<polyline fill="none" stroke="black" points="3591.62,-296.5 3591.62,-315"/>
<text text-anchor="middle" x="3644.62" y="-302.45" font-family="Times,serif" font-size="9.00">node = 0x634003848510</text>
<polyline fill="none" stroke="black" points="3697.62,-296.5 3697.62,-315"/>
<text text-anchor="middle" x="3752.88" y="-302.45" font-family="Times,serif" font-size="9.00">parent = 0x634003848610</text>
<polyline fill="none" stroke="black" points="3808.12,-296.5 3808.12,-315"/>
<text text-anchor="middle" x="3860.38" y="-302.45" font-family="Times,serif" font-size="9.00">right = 0x6340038485d0</text>
</g>
<!-- node_0x634003848610&#45;&gt;node_0x634003848510 -->
<g id="edge21" class="edge">
<title>node_0x634003848610&#45;&gt;node_0x634003848510</title>
<path fill="none" stroke="black" d="M3669.38,-370.2C3669.38,-362.67 3669.38,-353.7 3669.38,-345.25"/>
<polygon fill="black" stroke="black" points="3672.88,-345.36 3669.38,-335.36 3665.88,-345.36 3672.88,-345.36"/>
</g>
<!-- node_0x634003848410 -->
<g id="node26" class="node">
<title>node_0x634003848410</title>
<polygon fill="#bdef9e" stroke="black" points="4115.12,-296.5 4115.12,-333.5 4601.62,-333.5 4601.62,-296.5 4115.12,-296.5"/>
<text text-anchor="middle" x="4358.38" y="-320.95" font-family="Times,serif" font-size="9.00">+</text>
<polyline fill="none" stroke="black" points="4115.12,-315 4601.62,-315"/>
<text text-anchor="middle" x="4147.88" y="-302.45" font-family="Times,serif" font-size="9.00">type = 3 (OP)</text>
<polyline fill="none" stroke="black" points="4180.62,-296.5 4180.62,-315"/>
<text text-anchor="middle" x="4230.62" y="-302.45" font-family="Times,serif" font-size="9.00">left = 0x634003848450</text>
<polyline fill="none" stroke="black" points="4280.62,-296.5 4280.62,-315"/>
<text text-anchor="middle" x="4333.62" y="-302.45" font-family="Times,serif" font-size="9.00">node = 0x634003848410</text>
<polyline fill="none" stroke="black" points="4386.62,-296.5 4386.62,-315"/>
<text text-anchor="middle" x="4441.88" y="-302.45" font-family="Times,serif" font-size="9.00">parent = 0x634003848610</text>
<polyline fill="none" stroke="black" points="4497.12,-296.5 4497.12,-315"/>
<text text-anchor="middle" x="4549.38" y="-302.45" font-family="Times,serif" font-size="9.00">right = 0x6340038484d0</text>
</g>
<!-- node_0x634003848610&#45;&gt;node_0x634003848410 -->
<g id="edge25" class="edge">
<title>node_0x634003848610&#45;&gt;node_0x634003848410</title>
<path fill="none" stroke="black" d="M3841.46,-370.02C3943.09,-359.4 4071.68,-345.96 4175.18,-335.14"/>
<polygon fill="black" stroke="black" points="4175.31,-338.65 4184.89,-334.13 4174.58,-331.69 4175.31,-338.65"/>
</g>
<!-- node_0x634003848550 -->
<g id="node23" class="node">
<title>node_0x634003848550</title>
<polygon fill="#bdef9e" stroke="black" points="3267.12,-222.5 3267.12,-259.5 3705.62,-259.5 3705.62,-222.5 3267.12,-222.5"/>
<text text-anchor="middle" x="3486.38" y="-246.95" font-family="Times,serif" font-size="9.00">sin</text>
<polyline fill="none" stroke="black" points="3267.12,-241 3705.62,-241"/>
<text text-anchor="middle" x="3299.88" y="-228.45" font-family="Times,serif" font-size="9.00">type = 3 (OP)</text>
<polyline fill="none" stroke="black" points="3332.62,-222.5 3332.62,-241"/>
<text text-anchor="middle" x="3358.62" y="-228.45" font-family="Times,serif" font-size="9.00">left = (nil)</text>
<polyline fill="none" stroke="black" points="3384.62,-222.5 3384.62,-241"/>
<text text-anchor="middle" x="3437.62" y="-228.45" font-family="Times,serif" font-size="9.00">node = 0x634003848550</text>
<polyline fill="none" stroke="black" points="3490.62,-222.5 3490.62,-241"/>
<text text-anchor="middle" x="3545.88" y="-228.45" font-family="Times,serif" font-size="9.00">parent = 0x634003848510</text>
<polyline fill="none" stroke="black" points="3601.12,-222.5 3601.12,-241"/>
<text text-anchor="middle" x="3653.38" y="-228.45" font-family="Times,serif" font-size="9.00">right = 0x634003848590</text>
</g>
<!-- node_0x634003848510&#45;&gt;node_0x634003848550 -->
<g id="edge22" class="edge">
<title>node_0x634003848510&#45;&gt;node_0x634003848550</title>
<path fill="none" stroke="black" d="M3623.67,-296.02C3599.01,-286.32 3568.38,-274.26 3542.3,-264.01"/>
<polygon fill="black" stroke="black" points="3543.81,-260.84 3533.22,-260.43 3541.25,-267.35 3543.81,-260.84"/>
</g>
<!-- node_0x6340038485d0 -->
<g id="node25" class="node">
<title>node_0x6340038485d0</title>
<polygon fill="yellow" stroke="black" points="3723.75,-222.5 3723.75,-259.5 4121,-259.5 4121,-222.5 3723.75,-222.5"/>
<text text-anchor="middle" x="3922.38" y="-246.95" font-family="Times,serif" font-size="9.00">x</text>
<polyline fill="none" stroke="black" points="3723.75,-241 4121,-241"/>
<text text-anchor="middle" x="3759.88" y="-228.45" font-family="Times,serif" font-size="9.00">type = 2 (VAR)</text>
<polyline fill="none" stroke="black" points="3796,-222.5 3796,-241"/>
<text text-anchor="middle" x="3822" y="-228.45" font-family="Times,serif" font-size="9.00">left = (nil)</text>
<polyline fill="none" stroke="black" points="3848,-222.5 3848,-241"/>
<text text-anchor="middle" x="3901" y="-228.45" font-family="Times,serif" font-size="9.00">node = 0x6340038485d0</text>
<polyline fill="none" stroke="black" points="3954,-222.5 3954,-241"/>
<text text-anchor="middle" x="4009.25" y="-228.45" font-family="Times,serif" font-size="9.00">parent = 0x634003848510</text>
<polyline fill="none" stroke="black" points="4064.5,-222.5 4064.5,-241"/>
<text text-anchor="middle" x="4092.75" y="-228.45" font-family="Times,serif" font-size="9.00">right = (nil)</text>
</g>
<!-- node_0x634003848510&#45;&gt;node_0x6340038485d0 -->
<g id="edge24" class="edge">
<title>node_0x634003848510&#45;&gt;node_0x6340038485d0</title>
<path fill="none" stroke="black" d="M3732.56,-296.02C3767.87,-285.97 3812.03,-273.4 3848.87,-262.92"/>
<polygon fill="black" stroke="black" points="3849.44,-266.4 3858.1,-260.29 3847.52,-259.66 3849.44,-266.4"/>
</g>
<!-- node_0x634003848590 -->
<g id="node24" class="node">
<title>node_0x634003848590</title>
<polygon fill="yellow" stroke="black" points="3464.75,-148.5 3464.75,-185.5 3862,-185.5 3862,-148.5 3464.75,-148.5"/>
<text text-anchor="middle" x="3663.38" y="-172.95" font-family="Times,serif" font-size="9.00">x</text>
<polyline fill="none" stroke="black" points="3464.75,-167 3862,-167"/>
<text text-anchor="middle" x="3500.88" y="-154.45" font-family="Times,serif" font-size="9.00">type = 2 (VAR)</text>
<polyline fill="none" stroke="black" points="3537,-148.5 3537,-167"/>
<text text-anchor="middle" x="3563" y="-154.45" font-family="Times,serif" font-size="9.00">left = (nil)</text>
<polyline fill="none" stroke="black" points="3589,-148.5 3589,-167"/>
<text text-anchor="middle" x="3642" y="-154.45" font-family="Times,serif" font-size="9.00">node = 0x634003848590</text>
<polyline fill="none" stroke="black" points="3695,-148.5 3695,-167"/>
<text text-anchor="middle" x="3750.25" y="-154.45" font-family="Times,serif" font-size="9.00">parent = 0x634003848550</text>
<polyline fill="none" stroke="black" points="3805.5,-148.5 3805.5,-167"/>
<text text-anchor="middle" x="3833.75" y="-154.45" font-family="Times,serif" font-size="9.00">right = (nil)</text>
</g>
<!-- node_0x634003848550&#45;&gt;node_0x634003848590 -->
<g id="edge23" class="edge">
<title>node_0x634003848550&#45;&gt;node_0x634003848590</title>
<path fill="none" stroke="black" d="M3530.58,-222.02C3554.33,-212.36 3583.8,-200.37 3608.94,-190.14"/>
<polygon fill="black" stroke="black" points="3610.08,-193.46 3618.02,-186.45 3607.44,-186.97 3610.08,-193.46"/>
</g>
<!-- node_0x634003848450 -->
<g id="node27" class="node">
<title>node_0x634003848450</title>
<polygon fill="#bdef9e" stroke="black" points="4139.12,-222.5 4139.12,-259.5 4577.62,-259.5 4577.62,-222.5 4139.12,-222.5"/>
<text text-anchor="middle" x="4358.38" y="-246.95" font-family="Times,serif" font-size="9.00">sin</text>
<polyline fill="none" stroke="black" points="4139.12,-241 4577.62,-241"/>
<text text-anchor="middle" x="4171.88" y="-228.45" font-family="Times,serif" font-size="9.00">type = 3 (OP)</text>
<polyline fill="none" stroke="black" points="4204.62,-222.5 4204.62,-241"/>
<text text-anchor="middle" x="4230.62" y="-228.45" font-family="Times,serif" font-size="9.00">left = (nil)</text>
<polyline fill="none" stroke="black" points="4256.62,-222.5 4256.62,-241"/>
<text text-anchor="middle" x="4309.62" y="-228.45" font-family="Times,serif" font-size="9.00">node = 0x634003848450</text>
<polyline fill="none" stroke="black" points="4362.62,-222.5 4362.62,-241"/>
<text text-anchor="middle" x="4417.88" y="-228.45" font-family="Times,serif" font-size="9.00">parent = 0x634003848410</text>
<polyline fill="none" stroke="black" points="4473.12,-222.5 4473.12,-241"/>
<text text-anchor="middle" x="4525.38" y="-228.45" font-family="Times,serif" font-size="9.00">right = 0x634003848490</text>
</g>
<!-- node_0x634003848410&#45;&gt;node_0x634003848450 -->
<g id="edge26" class="edge">
<title>node_0x634003848410&#45;&gt;node_0x634003848450</title>
<path fill="none" stroke="black" d="M4358.38,-296.2C4358.38,-288.67 4358.38,-279.7 4358.38,-271.25"/>
<polygon fill="black" stroke="black" points="4361.88,-271.36 4358.38,-261.36 4354.88,-271.36 4361.88,-271.36"/>
</g>
<!-- node_0x6340038484d0 -->
<g id="node29" class="node">
<title>node_0x6340038484d0</title>
<polygon fill="yellow" stroke="black" points="4595.75,-222.5 4595.75,-259.5 4993,-259.5 4993,-222.5 4595.75,-222.5"/>
<text text-anchor="middle" x="4794.38" y="-246.95" font-family="Times,serif" font-size="9.00">x</text>
<polyline fill="none" stroke="black" points="4595.75,-241 4993,-241"/>
<text text-anchor="middle" x="4631.88" y="-228.45" font-family="Times,serif" font-size="9.00">type = 2 (VAR)</text>
<polyline fill="none" stroke="black" points="4668,-222.5 4668,-241"/>
<text text-anchor="middle" x="4694" y="-228.45" font-family="Times,serif" font-size="9.00">left = (nil)</text>
<polyline fill="none" stroke="black" points="4720,-222.5 4720,-241"/>
<text text-anchor="middle" x="4773" y="-228.45" font-family="Times,serif" font-size="9.00">node = 0x6340038484d0</text>
<polyline fill="none" stroke="black" points="4826,-222.5 4826,-241"/>
<text text-anchor="middle" x="4881.25" y="-228.45" font-family="Times,serif" font-size="9.00">parent = 0x634003848410</text>
<polyline fill="none" stroke="black" points="4936.5,-222.5 4936.5,-241"/>
<text text-anchor="middle" x="4964.75" y="-228.45" font-family="Times,serif" font-size="9.00">right = (nil)</text>
</g>
<!-- node_0x634003848410&#45;&gt;node_0x6340038484d0 -->
<g id="edge28" class="edge">
<title>node_0x634003848410&#45;&gt;node_0x6340038484d0</title>
<path fill="none" stroke="black" d="M4467.27,-296.02C4530.34,-285.6 4609.82,-272.48 4674.64,-261.77"/>
<polygon fill="black" stroke="black" points="4674.94,-265.27 4684.24,-260.19 4673.8,-258.36 4674.94,-265.27"/>
</g>
<!-- node_0x634003848490 -->
<g id="node28" class="node">
<title>node_0x634003848490</title>
<polygon fill="yellow" stroke="black" points="4159.75,-148.5 4159.75,-185.5 4557,-185.5 4557,-148.5 4159.75,-148.5"/>
<text text-anchor="middle" x="4358.38" y="-172.95" font-family="Times,serif" font-size="9.00">x</text>
<polyline fill="none" stroke="black" points="4159.75,-167 4557,-167"/>
<text text-anchor="middle" x="4195.88" y="-154.45" font-family="Times,serif" font-size="9.00">type = 2 (VAR)</text>
<polyline fill="none" stroke="black" points="4232,-148.5 4232,-167"/>
<text text-anchor="middle" x="4258" y="-154.45" font-family="Times,serif" font-size="9.00">left = (nil)</text>
<polyline fill="none" stroke="black" points="4284,-148.5 4284,-167"/>
<text text-anchor="middle" x="4337" y="-154.45" font-family="Times,serif" font-size="9.00">node = 0x634003848490</text>
<polyline fill="none" stroke="black" points="4390,-148.5 4390,-167"/>
<text text-anchor="middle" x="4445.25" y="-154.45" font-family="Times,serif" font-size="9.00">parent = 0x634003848450</text>
<polyline fill="none" stroke="black" points="4500.5,-148.5 4500.5,-167"/>
<text text-anchor="middle" x="4528.75" y="-154.45" font-family="Times,serif" font-size="9.00">right = (nil)</text>
</g>
<!-- node_0x634003848450&#45;&gt;node_0x634003848490 -->
<g id="edge27" class="edge">
<title>node_0x634003848450&#45;&gt;node_0x634003848490</title>
<path fill="none" stroke="black" d="M4358.38,-222.2C4358.38,-214.67 4358.38,-205.7 4358.38,-197.25"/>
<polygon fill="black" stroke="black" points="4361.88,-197.36 4358.38,-187.36 4354.88,-197.36 4361.88,-197.36"/>
</g>
</g>
</svg>
