<?xml version="1.0" encoding="UTF-8" standalone="no"?>
<!DOCTYPE svg PUBLIC "-//W3C//DTD SVG 1.1//EN"
 "http://www.w3.org/Graphics/SVG/1.1/DTD/svg11.dtd">
<!-- Generated by graphviz version 12.1.2 (0)
 -->
<!-- Pages: 1 -->
<svg width="818pt" height="120pt"
 viewBox="0.00 0.00 817.75 120.00" xmlns="http://www.w3.org/2000/svg" xmlns:xlink="http://www.w3.org/1999/xlink">
<g id="graph0" class="graph" transform="scale(1 1) rotate(0) translate(4 116)">
<polygon fill="white" stroke="none" points="-4,4 -4,-116 813.75,-116 813.75,4 -4,4"/>
<!-- node_0x60e0b16602d0 -->
<g id="node1" class="node">
<title>node_0x60e0b16602d0</title>
<polygon fill="#bdef9e" stroke="black" points="186.75,-74.5 186.75,-111.5 623,-111.5 623,-74.5 186.75,-74.5"/>
<text text-anchor="middle" x="404.88" y="-98.95" font-family="Times,serif" font-size="9.00">log</text>
<polyline fill="none" stroke="black" points="186.75,-93 623,-93"/>
<text text-anchor="middle" x="219.5" y="-80.45" font-family="Times,serif" font-size="9.00">type = 3 (OP)</text>
<polyline fill="none" stroke="black" points="252.25,-74.5 252.25,-93"/>
<text text-anchor="middle" x="301.88" y="-80.45" font-family="Times,serif" font-size="9.00">left = 0x60e0b1660310</text>
<polyline fill="none" stroke="black" points="351.5,-74.5 351.5,-93"/>
<text text-anchor="middle" x="404.12" y="-80.45" font-family="Times,serif" font-size="9.00">node = 0x60e0b16602d0</text>
<polyline fill="none" stroke="black" points="456.75,-74.5 456.75,-93"/>
<text text-anchor="middle" x="488" y="-80.45" font-family="Times,serif" font-size="9.00">parent = (nil)</text>
<polyline fill="none" stroke="black" points="519.25,-74.5 519.25,-93"/>
<text text-anchor="middle" x="571.12" y="-80.45" font-family="Times,serif" font-size="9.00">right = 0x60e0b1660350</text>
</g>
<!-- node_0x60e0b1660310 -->
<g id="node2" class="node">
<title>node_0x60e0b1660310</title>
<polygon fill="yellow" stroke="black" points="0,-0.5 0,-37.5 395.75,-37.5 395.75,-0.5 0,-0.5"/>
<text text-anchor="middle" x="197.88" y="-24.95" font-family="Times,serif" font-size="9.00">x</text>
<polyline fill="none" stroke="black" points="0,-19 395.75,-19"/>
<text text-anchor="middle" x="36.12" y="-6.45" font-family="Times,serif" font-size="9.00">type = 2 (VAR)</text>
<polyline fill="none" stroke="black" points="72.25,-0.5 72.25,-19"/>
<text text-anchor="middle" x="98.25" y="-6.45" font-family="Times,serif" font-size="9.00">left = (nil)</text>
<polyline fill="none" stroke="black" points="124.25,-0.5 124.25,-19"/>
<text text-anchor="middle" x="176.88" y="-6.45" font-family="Times,serif" font-size="9.00">node = 0x60e0b1660310</text>
<polyline fill="none" stroke="black" points="229.5,-0.5 229.5,-19"/>
<text text-anchor="middle" x="284.38" y="-6.45" font-family="Times,serif" font-size="9.00">parent = 0x60e0b16602d0</text>
<polyline fill="none" stroke="black" points="339.25,-0.5 339.25,-19"/>
<text text-anchor="middle" x="367.5" y="-6.45" font-family="Times,serif" font-size="9.00">right = (nil)</text>
</g>
<!-- node_0x60e0b16602d0&#45;&gt;node_0x60e0b1660310 -->
<g id="edge1" class="edge">
<title>node_0x60e0b16602d0&#45;&gt;node_0x60e0b1660310</title>
<path fill="none" stroke="black" d="M353.17,-74.02C324.91,-64.19 289.71,-51.94 259.96,-41.6"/>
<polygon fill="black" stroke="black" points="261.3,-38.36 250.7,-38.38 259,-44.97 261.3,-38.36"/>
</g>
<!-- node_0x60e0b1660350 -->
<g id="node3" class="node">
<title>node_0x60e0b1660350</title>
<polygon fill="yellow" stroke="black" points="414,-0.5 414,-37.5 809.75,-37.5 809.75,-0.5 414,-0.5"/>
<text text-anchor="middle" x="611.88" y="-24.95" font-family="Times,serif" font-size="9.00">x</text>
<polyline fill="none" stroke="black" points="414,-19 809.75,-19"/>
<text text-anchor="middle" x="450.12" y="-6.45" font-family="Times,serif" font-size="9.00">type = 2 (VAR)</text>
<polyline fill="none" stroke="black" points="486.25,-0.5 486.25,-19"/>
<text text-anchor="middle" x="512.25" y="-6.45" font-family="Times,serif" font-size="9.00">left = (nil)</text>
<polyline fill="none" stroke="black" points="538.25,-0.5 538.25,-19"/>
<text text-anchor="middle" x="590.88" y="-6.45" font-family="Times,serif" font-size="9.00">node = 0x60e0b1660350</text>
<polyline fill="none" stroke="black" points="643.5,-0.5 643.5,-19"/>
<text text-anchor="middle" x="698.38" y="-6.45" font-family="Times,serif" font-size="9.00">parent = 0x60e0b16602d0</text>
<polyline fill="none" stroke="black" points="753.25,-0.5 753.25,-19"/>
<text text-anchor="middle" x="781.5" y="-6.45" font-family="Times,serif" font-size="9.00">right = (nil)</text>
</g>
<!-- node_0x60e0b16602d0&#45;&gt;node_0x60e0b1660350 -->
<g id="edge2" class="edge">
<title>node_0x60e0b16602d0&#45;&gt;node_0x60e0b1660350</title>
<path fill="none" stroke="black" d="M456.58,-74.02C484.84,-64.19 520.04,-51.94 549.79,-41.6"/>
<polygon fill="black" stroke="black" points="550.75,-44.97 559.05,-38.38 548.45,-38.36 550.75,-44.97"/>
</g>
</g>
</svg>
