<?xml version="1.0" encoding="UTF-8" standalone="no"?>
<!DOCTYPE svg PUBLIC "-//W3C//DTD SVG 1.1//EN"
 "http://www.w3.org/Graphics/SVG/1.1/DTD/svg11.dtd">
<!-- Generated by graphviz version 12.1.2 (0)
 -->
<!-- Pages: 1 -->
<svg width="2376pt" height="342pt"
 viewBox="0.00 0.00 2375.75 342.00" xmlns="http://www.w3.org/2000/svg" xmlns:xlink="http://www.w3.org/1999/xlink">
<g id="graph0" class="graph" transform="scale(1 1) rotate(0) translate(4 338)">
<polygon fill="white" stroke="none" points="-4,4 -4,-338 2371.75,-338 2371.75,4 -4,4"/>
<!-- node_0x5830f2a104d0 -->
<g id="node1" class="node">
<title>node_0x5830f2a104d0</title>
<polygon fill="#bdef9e" stroke="black" points="622.5,-296.5 622.5,-333.5 1054.25,-333.5 1054.25,-296.5 622.5,-296.5"/>
<text text-anchor="middle" x="838.38" y="-320.95" font-family="Times,serif" font-size="9.00">*</text>
<polyline fill="none" stroke="black" points="622.5,-315 1054.25,-315"/>
<text text-anchor="middle" x="655.25" y="-302.45" font-family="Times,serif" font-size="9.00">type = 3 (OP)</text>
<polyline fill="none" stroke="black" points="688,-296.5 688,-315"/>
<text text-anchor="middle" x="736.88" y="-302.45" font-family="Times,serif" font-size="9.00">left = 0x5830f2a10490</text>
<polyline fill="none" stroke="black" points="785.75,-296.5 785.75,-315"/>
<text text-anchor="middle" x="837.62" y="-302.45" font-family="Times,serif" font-size="9.00">node = 0x5830f2a104d0</text>
<polyline fill="none" stroke="black" points="889.5,-296.5 889.5,-315"/>
<text text-anchor="middle" x="920.75" y="-302.45" font-family="Times,serif" font-size="9.00">parent = (nil)</text>
<polyline fill="none" stroke="black" points="952,-296.5 952,-315"/>
<text text-anchor="middle" x="1003.12" y="-302.45" font-family="Times,serif" font-size="9.00">right = 0x5830f2a103d0</text>
</g>
<!-- node_0x5830f2a10490 -->
<g id="node2" class="node">
<title>node_0x5830f2a10490</title>
<polygon fill="#bdef9e" stroke="black" points="351.62,-222.5 351.62,-259.5 829.12,-259.5 829.12,-222.5 351.62,-222.5"/>
<text text-anchor="middle" x="590.38" y="-246.95" font-family="Times,serif" font-size="9.00">^</text>
<polyline fill="none" stroke="black" points="351.62,-241 829.12,-241"/>
<text text-anchor="middle" x="384.38" y="-228.45" font-family="Times,serif" font-size="9.00">type = 3 (OP)</text>
<polyline fill="none" stroke="black" points="417.12,-222.5 417.12,-241"/>
<text text-anchor="middle" x="466" y="-228.45" font-family="Times,serif" font-size="9.00">left = 0x5830f2a10450</text>
<polyline fill="none" stroke="black" points="514.88,-222.5 514.88,-241"/>
<text text-anchor="middle" x="566.75" y="-228.45" font-family="Times,serif" font-size="9.00">node = 0x5830f2a10490</text>
<polyline fill="none" stroke="black" points="618.62,-222.5 618.62,-241"/>
<text text-anchor="middle" x="672.75" y="-228.45" font-family="Times,serif" font-size="9.00">parent = 0x5830f2a104d0</text>
<polyline fill="none" stroke="black" points="726.88,-222.5 726.88,-241"/>
<text text-anchor="middle" x="778" y="-228.45" font-family="Times,serif" font-size="9.00">right = 0x5830f2a10410</text>
</g>
<!-- node_0x5830f2a104d0&#45;&gt;node_0x5830f2a10490 -->
<g id="edge1" class="edge">
<title>node_0x5830f2a104d0&#45;&gt;node_0x5830f2a10490</title>
<path fill="none" stroke="black" d="M776.43,-296.02C741.98,-286.01 698.91,-273.51 662.89,-263.05"/>
<polygon fill="black" stroke="black" points="663.99,-259.73 653.41,-260.3 662.04,-266.45 663.99,-259.73"/>
</g>
<!-- node_0x5830f2a103d0 -->
<g id="node5" class="node">
<title>node_0x5830f2a103d0</title>
<polygon fill="#bdef9e" stroke="black" points="847.62,-222.5 847.62,-259.5 1325.12,-259.5 1325.12,-222.5 847.62,-222.5"/>
<text text-anchor="middle" x="1086.38" y="-246.95" font-family="Times,serif" font-size="9.00">+</text>
<polyline fill="none" stroke="black" points="847.62,-241 1325.12,-241"/>
<text text-anchor="middle" x="880.38" y="-228.45" font-family="Times,serif" font-size="9.00">type = 3 (OP)</text>
<polyline fill="none" stroke="black" points="913.12,-222.5 913.12,-241"/>
<text text-anchor="middle" x="962" y="-228.45" font-family="Times,serif" font-size="9.00">left = 0x5830f2a10390</text>
<polyline fill="none" stroke="black" points="1010.88,-222.5 1010.88,-241"/>
<text text-anchor="middle" x="1062.75" y="-228.45" font-family="Times,serif" font-size="9.00">node = 0x5830f2a103d0</text>
<polyline fill="none" stroke="black" points="1114.62,-222.5 1114.62,-241"/>
<text text-anchor="middle" x="1168.75" y="-228.45" font-family="Times,serif" font-size="9.00">parent = 0x5830f2a104d0</text>
<polyline fill="none" stroke="black" points="1222.88,-222.5 1222.88,-241"/>
<text text-anchor="middle" x="1274" y="-228.45" font-family="Times,serif" font-size="9.00">right = 0x5830f2a10290</text>
</g>
<!-- node_0x5830f2a104d0&#45;&gt;node_0x5830f2a103d0 -->
<g id="edge4" class="edge">
<title>node_0x5830f2a104d0&#45;&gt;node_0x5830f2a103d0</title>
<path fill="none" stroke="black" d="M900.32,-296.02C934.77,-286.01 977.84,-273.51 1013.86,-263.05"/>
<polygon fill="black" stroke="black" points="1014.71,-266.45 1023.34,-260.3 1012.76,-259.73 1014.71,-266.45"/>
</g>
<!-- node_0x5830f2a10450 -->
<g id="node3" class="node">
<title>node_0x5830f2a10450</title>
<polygon fill="yellow" stroke="black" points="0,-148.5 0,-185.5 392.75,-185.5 392.75,-148.5 0,-148.5"/>
<text text-anchor="middle" x="196.38" y="-172.95" font-family="Times,serif" font-size="9.00">x</text>
<polyline fill="none" stroke="black" points="0,-167 392.75,-167"/>
<text text-anchor="middle" x="36.12" y="-154.45" font-family="Times,serif" font-size="9.00">type = 2 (VAR)</text>
<polyline fill="none" stroke="black" points="72.25,-148.5 72.25,-167"/>
<text text-anchor="middle" x="98.25" y="-154.45" font-family="Times,serif" font-size="9.00">left = (nil)</text>
<polyline fill="none" stroke="black" points="124.25,-148.5 124.25,-167"/>
<text text-anchor="middle" x="176.12" y="-154.45" font-family="Times,serif" font-size="9.00">node = 0x5830f2a10450</text>
<polyline fill="none" stroke="black" points="228,-148.5 228,-167"/>
<text text-anchor="middle" x="282.12" y="-154.45" font-family="Times,serif" font-size="9.00">parent = 0x5830f2a10490</text>
<polyline fill="none" stroke="black" points="336.25,-148.5 336.25,-167"/>
<text text-anchor="middle" x="364.5" y="-154.45" font-family="Times,serif" font-size="9.00">right = (nil)</text>
</g>
<!-- node_0x5830f2a10490&#45;&gt;node_0x5830f2a10450 -->
<g id="edge2" class="edge">
<title>node_0x5830f2a10490&#45;&gt;node_0x5830f2a10450</title>
<path fill="none" stroke="black" d="M491.97,-222.02C435.33,-211.67 364.05,-198.64 305.67,-187.97"/>
<polygon fill="black" stroke="black" points="306.51,-184.57 296.04,-186.21 305.25,-191.45 306.51,-184.57"/>
</g>
<!-- node_0x5830f2a10410 -->
<g id="node4" class="node">
<title>node_0x5830f2a10410</title>
<polygon fill="yellow" stroke="black" points="411,-148.5 411,-185.5 803.75,-185.5 803.75,-148.5 411,-148.5"/>
<text text-anchor="middle" x="607.38" y="-172.95" font-family="Times,serif" font-size="9.00">x</text>
<polyline fill="none" stroke="black" points="411,-167 803.75,-167"/>
<text text-anchor="middle" x="447.12" y="-154.45" font-family="Times,serif" font-size="9.00">type = 2 (VAR)</text>
<polyline fill="none" stroke="black" points="483.25,-148.5 483.25,-167"/>
<text text-anchor="middle" x="509.25" y="-154.45" font-family="Times,serif" font-size="9.00">left = (nil)</text>
<polyline fill="none" stroke="black" points="535.25,-148.5 535.25,-167"/>
<text text-anchor="middle" x="587.12" y="-154.45" font-family="Times,serif" font-size="9.00">node = 0x5830f2a10410</text>
<polyline fill="none" stroke="black" points="639,-148.5 639,-167"/>
<text text-anchor="middle" x="693.12" y="-154.45" font-family="Times,serif" font-size="9.00">parent = 0x5830f2a10490</text>
<polyline fill="none" stroke="black" points="747.25,-148.5 747.25,-167"/>
<text text-anchor="middle" x="775.5" y="-154.45" font-family="Times,serif" font-size="9.00">right = (nil)</text>
</g>
<!-- node_0x5830f2a10490&#45;&gt;node_0x5830f2a10410 -->
<g id="edge3" class="edge">
<title>node_0x5830f2a10490&#45;&gt;node_0x5830f2a10410</title>
<path fill="none" stroke="black" d="M594.58,-222.2C596.38,-214.59 598.52,-205.5 600.54,-196.96"/>
<polygon fill="black" stroke="black" points="603.92,-197.85 602.81,-187.32 597.11,-196.24 603.92,-197.85"/>
</g>
<!-- node_0x5830f2a10390 -->
<g id="node6" class="node">
<title>node_0x5830f2a10390</title>
<polygon fill="#bdef9e" stroke="black" points="854.5,-148.5 854.5,-185.5 1286.25,-185.5 1286.25,-148.5 854.5,-148.5"/>
<text text-anchor="middle" x="1070.38" y="-172.95" font-family="Times,serif" font-size="9.00">ln</text>
<polyline fill="none" stroke="black" points="854.5,-167 1286.25,-167"/>
<text text-anchor="middle" x="887.25" y="-154.45" font-family="Times,serif" font-size="9.00">type = 3 (OP)</text>
<polyline fill="none" stroke="black" points="920,-148.5 920,-167"/>
<text text-anchor="middle" x="946" y="-154.45" font-family="Times,serif" font-size="9.00">left = (nil)</text>
<polyline fill="none" stroke="black" points="972,-148.5 972,-167"/>
<text text-anchor="middle" x="1023.88" y="-154.45" font-family="Times,serif" font-size="9.00">node = 0x5830f2a10390</text>
<polyline fill="none" stroke="black" points="1075.75,-148.5 1075.75,-167"/>
<text text-anchor="middle" x="1129.88" y="-154.45" font-family="Times,serif" font-size="9.00">parent = 0x5830f2a103d0</text>
<polyline fill="none" stroke="black" points="1184,-148.5 1184,-167"/>
<text text-anchor="middle" x="1235.12" y="-154.45" font-family="Times,serif" font-size="9.00">right = 0x5830f2a10510</text>
</g>
<!-- node_0x5830f2a103d0&#45;&gt;node_0x5830f2a10390 -->
<g id="edge5" class="edge">
<title>node_0x5830f2a103d0&#45;&gt;node_0x5830f2a10390</title>
<path fill="none" stroke="black" d="M1082.42,-222.2C1080.73,-214.59 1078.71,-205.5 1076.81,-196.96"/>
<polygon fill="black" stroke="black" points="1080.25,-196.32 1074.67,-187.32 1073.42,-197.84 1080.25,-196.32"/>
</g>
<!-- node_0x5830f2a10290 -->
<g id="node8" class="node">
<title>node_0x5830f2a10290</title>
<polygon fill="#bdef9e" stroke="black" points="1304.62,-148.5 1304.62,-185.5 1782.12,-185.5 1782.12,-148.5 1304.62,-148.5"/>
<text text-anchor="middle" x="1543.38" y="-172.95" font-family="Times,serif" font-size="9.00">*</text>
<polyline fill="none" stroke="black" points="1304.62,-167 1782.12,-167"/>
<text text-anchor="middle" x="1337.38" y="-154.45" font-family="Times,serif" font-size="9.00">type = 3 (OP)</text>
<polyline fill="none" stroke="black" points="1370.12,-148.5 1370.12,-167"/>
<text text-anchor="middle" x="1419" y="-154.45" font-family="Times,serif" font-size="9.00">left = 0x5830f2a10250</text>
<polyline fill="none" stroke="black" points="1467.88,-148.5 1467.88,-167"/>
<text text-anchor="middle" x="1519.75" y="-154.45" font-family="Times,serif" font-size="9.00">node = 0x5830f2a10290</text>
<polyline fill="none" stroke="black" points="1571.62,-148.5 1571.62,-167"/>
<text text-anchor="middle" x="1625.75" y="-154.45" font-family="Times,serif" font-size="9.00">parent = 0x5830f2a103d0</text>
<polyline fill="none" stroke="black" points="1679.88,-148.5 1679.88,-167"/>
<text text-anchor="middle" x="1731" y="-154.45" font-family="Times,serif" font-size="9.00">right = 0x5830f2a10210</text>
</g>
<!-- node_0x5830f2a103d0&#45;&gt;node_0x5830f2a10290 -->
<g id="edge7" class="edge">
<title>node_0x5830f2a103d0&#45;&gt;node_0x5830f2a10290</title>
<path fill="none" stroke="black" d="M1200.52,-222.02C1266.76,-211.58 1350.27,-198.42 1418.29,-187.71"/>
<polygon fill="black" stroke="black" points="1418.67,-191.19 1428.01,-186.18 1417.58,-184.28 1418.67,-191.19"/>
</g>
<!-- node_0x5830f2a10510 -->
<g id="node7" class="node">
<title>node_0x5830f2a10510</title>
<polygon fill="yellow" stroke="black" points="874,-74.5 874,-111.5 1266.75,-111.5 1266.75,-74.5 874,-74.5"/>
<text text-anchor="middle" x="1070.38" y="-98.95" font-family="Times,serif" font-size="9.00">x</text>
<polyline fill="none" stroke="black" points="874,-93 1266.75,-93"/>
<text text-anchor="middle" x="910.12" y="-80.45" font-family="Times,serif" font-size="9.00">type = 2 (VAR)</text>
<polyline fill="none" stroke="black" points="946.25,-74.5 946.25,-93"/>
<text text-anchor="middle" x="972.25" y="-80.45" font-family="Times,serif" font-size="9.00">left = (nil)</text>
<polyline fill="none" stroke="black" points="998.25,-74.5 998.25,-93"/>
<text text-anchor="middle" x="1050.12" y="-80.45" font-family="Times,serif" font-size="9.00">node = 0x5830f2a10510</text>
<polyline fill="none" stroke="black" points="1102,-74.5 1102,-93"/>
<text text-anchor="middle" x="1156.12" y="-80.45" font-family="Times,serif" font-size="9.00">parent = 0x5830f2a10390</text>
<polyline fill="none" stroke="black" points="1210.25,-74.5 1210.25,-93"/>
<text text-anchor="middle" x="1238.5" y="-80.45" font-family="Times,serif" font-size="9.00">right = (nil)</text>
</g>
<!-- node_0x5830f2a10390&#45;&gt;node_0x5830f2a10510 -->
<g id="edge6" class="edge">
<title>node_0x5830f2a10390&#45;&gt;node_0x5830f2a10510</title>
<path fill="none" stroke="black" d="M1070.38,-148.2C1070.38,-140.67 1070.38,-131.7 1070.38,-123.25"/>
<polygon fill="black" stroke="black" points="1073.88,-123.36 1070.38,-113.36 1066.88,-123.36 1073.88,-123.36"/>
</g>
<!-- node_0x5830f2a10250 -->
<g id="node9" class="node">
<title>node_0x5830f2a10250</title>
<polygon fill="yellow" stroke="black" points="1316,-74.5 1316,-111.5 1708.75,-111.5 1708.75,-74.5 1316,-74.5"/>
<text text-anchor="middle" x="1512.38" y="-98.95" font-family="Times,serif" font-size="9.00">x</text>
<polyline fill="none" stroke="black" points="1316,-93 1708.75,-93"/>
<text text-anchor="middle" x="1352.12" y="-80.45" font-family="Times,serif" font-size="9.00">type = 2 (VAR)</text>
<polyline fill="none" stroke="black" points="1388.25,-74.5 1388.25,-93"/>
<text text-anchor="middle" x="1414.25" y="-80.45" font-family="Times,serif" font-size="9.00">left = (nil)</text>
<polyline fill="none" stroke="black" points="1440.25,-74.5 1440.25,-93"/>
<text text-anchor="middle" x="1492.12" y="-80.45" font-family="Times,serif" font-size="9.00">node = 0x5830f2a10250</text>
<polyline fill="none" stroke="black" points="1544,-74.5 1544,-93"/>
<text text-anchor="middle" x="1598.12" y="-80.45" font-family="Times,serif" font-size="9.00">parent = 0x5830f2a10290</text>
<polyline fill="none" stroke="black" points="1652.25,-74.5 1652.25,-93"/>
<text text-anchor="middle" x="1680.5" y="-80.45" font-family="Times,serif" font-size="9.00">right = (nil)</text>
</g>
<!-- node_0x5830f2a10290&#45;&gt;node_0x5830f2a10250 -->
<g id="edge8" class="edge">
<title>node_0x5830f2a10290&#45;&gt;node_0x5830f2a10250</title>
<path fill="none" stroke="black" d="M1535.71,-148.2C1532.36,-140.41 1528.34,-131.08 1524.59,-122.38"/>
<polygon fill="black" stroke="black" points="1527.83,-121.03 1520.66,-113.23 1521.4,-123.8 1527.83,-121.03"/>
</g>
<!-- node_0x5830f2a10210 -->
<g id="node10" class="node">
<title>node_0x5830f2a10210</title>
<polygon fill="#bdef9e" stroke="black" points="1726.62,-74.5 1726.62,-111.5 2204.12,-111.5 2204.12,-74.5 1726.62,-74.5"/>
<text text-anchor="middle" x="1965.38" y="-98.95" font-family="Times,serif" font-size="9.00">/</text>
<polyline fill="none" stroke="black" points="1726.62,-93 2204.12,-93"/>
<text text-anchor="middle" x="1759.38" y="-80.45" font-family="Times,serif" font-size="9.00">type = 3 (OP)</text>
<polyline fill="none" stroke="black" points="1792.12,-74.5 1792.12,-93"/>
<text text-anchor="middle" x="1841" y="-80.45" font-family="Times,serif" font-size="9.00">left = 0x5830f2a101d0</text>
<polyline fill="none" stroke="black" points="1889.88,-74.5 1889.88,-93"/>
<text text-anchor="middle" x="1941.75" y="-80.45" font-family="Times,serif" font-size="9.00">node = 0x5830f2a10210</text>
<polyline fill="none" stroke="black" points="1993.62,-74.5 1993.62,-93"/>
<text text-anchor="middle" x="2047.75" y="-80.45" font-family="Times,serif" font-size="9.00">parent = 0x5830f2a10290</text>
<polyline fill="none" stroke="black" points="2101.88,-74.5 2101.88,-93"/>
<text text-anchor="middle" x="2153" y="-80.45" font-family="Times,serif" font-size="9.00">right = 0x5830f2a10190</text>
</g>
<!-- node_0x5830f2a10290&#45;&gt;node_0x5830f2a10210 -->
<g id="edge9" class="edge">
<title>node_0x5830f2a10290&#45;&gt;node_0x5830f2a10210</title>
<path fill="none" stroke="black" d="M1648.77,-148.02C1709.69,-137.62 1786.42,-124.53 1849.09,-113.84"/>
<polygon fill="black" stroke="black" points="1849.46,-117.33 1858.73,-112.2 1848.28,-110.43 1849.46,-117.33"/>
</g>
<!-- node_0x5830f2a101d0 -->
<g id="node11" class="node">
<title>node_0x5830f2a101d0</title>
<polygon fill="blue" stroke="black" points="1561.5,-0.5 1561.5,-37.5 1957.25,-37.5 1957.25,-0.5 1561.5,-0.5"/>
<text text-anchor="middle" x="1759.38" y="-24.95" font-family="Times,serif" font-size="9.00">1</text>
<polyline fill="none" stroke="black" points="1561.5,-19 1957.25,-19"/>
<text text-anchor="middle" x="1599.12" y="-6.45" font-family="Times,serif" font-size="9.00">type = 1 (NUM)</text>
<polyline fill="none" stroke="black" points="1636.75,-0.5 1636.75,-19"/>
<text text-anchor="middle" x="1662.75" y="-6.45" font-family="Times,serif" font-size="9.00">left = (nil)</text>
<polyline fill="none" stroke="black" points="1688.75,-0.5 1688.75,-19"/>
<text text-anchor="middle" x="1740.62" y="-6.45" font-family="Times,serif" font-size="9.00">node = 0x5830f2a101d0</text>
<polyline fill="none" stroke="black" points="1792.5,-0.5 1792.5,-19"/>
<text text-anchor="middle" x="1846.62" y="-6.45" font-family="Times,serif" font-size="9.00">parent = 0x5830f2a10210</text>
<polyline fill="none" stroke="black" points="1900.75,-0.5 1900.75,-19"/>
<text text-anchor="middle" x="1929" y="-6.45" font-family="Times,serif" font-size="9.00">right = (nil)</text>
</g>
<!-- node_0x5830f2a10210&#45;&gt;node_0x5830f2a101d0 -->
<g id="edge10" class="edge">
<title>node_0x5830f2a10210&#45;&gt;node_0x5830f2a101d0</title>
<path fill="none" stroke="black" d="M1913.92,-74.02C1885.8,-64.19 1850.76,-51.94 1821.16,-41.6"/>
<polygon fill="black" stroke="black" points="1822.55,-38.37 1811.96,-38.38 1820.24,-44.98 1822.55,-38.37"/>
</g>
<!-- node_0x5830f2a10190 -->
<g id="node12" class="node">
<title>node_0x5830f2a10190</title>
<polygon fill="yellow" stroke="black" points="1975,-0.5 1975,-37.5 2367.75,-37.5 2367.75,-0.5 1975,-0.5"/>
<text text-anchor="middle" x="2171.38" y="-24.95" font-family="Times,serif" font-size="9.00">x</text>
<polyline fill="none" stroke="black" points="1975,-19 2367.75,-19"/>
<text text-anchor="middle" x="2011.12" y="-6.45" font-family="Times,serif" font-size="9.00">type = 2 (VAR)</text>
<polyline fill="none" stroke="black" points="2047.25,-0.5 2047.25,-19"/>
<text text-anchor="middle" x="2073.25" y="-6.45" font-family="Times,serif" font-size="9.00">left = (nil)</text>
<polyline fill="none" stroke="black" points="2099.25,-0.5 2099.25,-19"/>
<text text-anchor="middle" x="2151.12" y="-6.45" font-family="Times,serif" font-size="9.00">node = 0x5830f2a10190</text>
<polyline fill="none" stroke="black" points="2203,-0.5 2203,-19"/>
<text text-anchor="middle" x="2257.12" y="-6.45" font-family="Times,serif" font-size="9.00">parent = 0x5830f2a10210</text>
<polyline fill="none" stroke="black" points="2311.25,-0.5 2311.25,-19"/>
<text text-anchor="middle" x="2339.5" y="-6.45" font-family="Times,serif" font-size="9.00">right = (nil)</text>
</g>
<!-- node_0x5830f2a10210&#45;&gt;node_0x5830f2a10190 -->
<g id="edge11" class="edge">
<title>node_0x5830f2a10210&#45;&gt;node_0x5830f2a10190</title>
<path fill="none" stroke="black" d="M2016.83,-74.02C2044.95,-64.19 2079.99,-51.94 2109.59,-41.6"/>
<polygon fill="black" stroke="black" points="2110.51,-44.98 2118.79,-38.38 2108.2,-38.37 2110.51,-44.98"/>
</g>
</g>
</svg>
