<?xml version="1.0" encoding="UTF-8" standalone="no"?>
<!DOCTYPE svg PUBLIC "-//W3C//DTD SVG 1.1//EN"
 "http://www.w3.org/Graphics/SVG/1.1/DTD/svg11.dtd">
<!-- Generated by graphviz version 12.1.2 (0)
 -->
<!-- Pages: 1 -->
<svg width="812pt" height="120pt"
 viewBox="0.00 0.00 811.75 120.00" xmlns="http://www.w3.org/2000/svg" xmlns:xlink="http://www.w3.org/1999/xlink">
<g id="graph0" class="graph" transform="scale(1 1) rotate(0) translate(4 116)">
<polygon fill="white" stroke="none" points="-4,4 -4,-116 807.75,-116 807.75,4 -4,4"/>
<!-- node_0x5830f2a100d0 -->
<g id="node1" class="node">
<title>node_0x5830f2a100d0</title>
<polygon fill="#bdef9e" stroke="black" points="185.5,-74.5 185.5,-111.5 617.25,-111.5 617.25,-74.5 185.5,-74.5"/>
<text text-anchor="middle" x="401.38" y="-98.95" font-family="Times,serif" font-size="9.00">^</text>
<polyline fill="none" stroke="black" points="185.5,-93 617.25,-93"/>
<text text-anchor="middle" x="218.25" y="-80.45" font-family="Times,serif" font-size="9.00">type = 3 (OP)</text>
<polyline fill="none" stroke="black" points="251,-74.5 251,-93"/>
<text text-anchor="middle" x="299.88" y="-80.45" font-family="Times,serif" font-size="9.00">left = 0x5830f2a10110</text>
<polyline fill="none" stroke="black" points="348.75,-74.5 348.75,-93"/>
<text text-anchor="middle" x="400.62" y="-80.45" font-family="Times,serif" font-size="9.00">node = 0x5830f2a100d0</text>
<polyline fill="none" stroke="black" points="452.5,-74.5 452.5,-93"/>
<text text-anchor="middle" x="483.75" y="-80.45" font-family="Times,serif" font-size="9.00">parent = (nil)</text>
<polyline fill="none" stroke="black" points="515,-74.5 515,-93"/>
<text text-anchor="middle" x="566.12" y="-80.45" font-family="Times,serif" font-size="9.00">right = 0x5830f2a10150</text>
</g>
<!-- node_0x5830f2a10110 -->
<g id="node2" class="node">
<title>node_0x5830f2a10110</title>
<polygon fill="yellow" stroke="black" points="0,-0.5 0,-37.5 392.75,-37.5 392.75,-0.5 0,-0.5"/>
<text text-anchor="middle" x="196.38" y="-24.95" font-family="Times,serif" font-size="9.00">x</text>
<polyline fill="none" stroke="black" points="0,-19 392.75,-19"/>
<text text-anchor="middle" x="36.12" y="-6.45" font-family="Times,serif" font-size="9.00">type = 2 (VAR)</text>
<polyline fill="none" stroke="black" points="72.25,-0.5 72.25,-19"/>
<text text-anchor="middle" x="98.25" y="-6.45" font-family="Times,serif" font-size="9.00">left = (nil)</text>
<polyline fill="none" stroke="black" points="124.25,-0.5 124.25,-19"/>
<text text-anchor="middle" x="176.12" y="-6.45" font-family="Times,serif" font-size="9.00">node = 0x5830f2a10110</text>
<polyline fill="none" stroke="black" points="228,-0.5 228,-19"/>
<text text-anchor="middle" x="282.12" y="-6.45" font-family="Times,serif" font-size="9.00">parent = 0x5830f2a100d0</text>
<polyline fill="none" stroke="black" points="336.25,-0.5 336.25,-19"/>
<text text-anchor="middle" x="364.5" y="-6.45" font-family="Times,serif" font-size="9.00">right = (nil)</text>
</g>
<!-- node_0x5830f2a100d0&#45;&gt;node_0x5830f2a10110 -->
<g id="edge1" class="edge">
<title>node_0x5830f2a100d0&#45;&gt;node_0x5830f2a10110</title>
<path fill="none" stroke="black" d="M350.17,-74.02C322.18,-64.19 287.32,-51.94 257.86,-41.6"/>
<polygon fill="black" stroke="black" points="259.3,-38.39 248.71,-38.38 256.98,-45 259.3,-38.39"/>
</g>
<!-- node_0x5830f2a10150 -->
<g id="node3" class="node">
<title>node_0x5830f2a10150</title>
<polygon fill="yellow" stroke="black" points="411,-0.5 411,-37.5 803.75,-37.5 803.75,-0.5 411,-0.5"/>
<text text-anchor="middle" x="607.38" y="-24.95" font-family="Times,serif" font-size="9.00">x</text>
<polyline fill="none" stroke="black" points="411,-19 803.75,-19"/>
<text text-anchor="middle" x="447.12" y="-6.45" font-family="Times,serif" font-size="9.00">type = 2 (VAR)</text>
<polyline fill="none" stroke="black" points="483.25,-0.5 483.25,-19"/>
<text text-anchor="middle" x="509.25" y="-6.45" font-family="Times,serif" font-size="9.00">left = (nil)</text>
<polyline fill="none" stroke="black" points="535.25,-0.5 535.25,-19"/>
<text text-anchor="middle" x="587.12" y="-6.45" font-family="Times,serif" font-size="9.00">node = 0x5830f2a10150</text>
<polyline fill="none" stroke="black" points="639,-0.5 639,-19"/>
<text text-anchor="middle" x="693.12" y="-6.45" font-family="Times,serif" font-size="9.00">parent = 0x5830f2a100d0</text>
<polyline fill="none" stroke="black" points="747.25,-0.5 747.25,-19"/>
<text text-anchor="middle" x="775.5" y="-6.45" font-family="Times,serif" font-size="9.00">right = (nil)</text>
</g>
<!-- node_0x5830f2a100d0&#45;&gt;node_0x5830f2a10150 -->
<g id="edge2" class="edge">
<title>node_0x5830f2a100d0&#45;&gt;node_0x5830f2a10150</title>
<path fill="none" stroke="black" d="M452.83,-74.02C480.95,-64.19 515.99,-51.94 545.59,-41.6"/>
<polygon fill="black" stroke="black" points="546.51,-44.98 554.79,-38.38 544.2,-38.37 546.51,-44.98"/>
</g>
</g>
</svg>
