<?xml version="1.0" encoding="UTF-8" standalone="no"?>
<!DOCTYPE svg PUBLIC "-//W3C//DTD SVG 1.1//EN"
 "http://www.w3.org/Graphics/SVG/1.1/DTD/svg11.dtd">
<!-- Generated by graphviz version 12.1.2 (0)
 -->
<!-- Pages: 1 -->
<svg width="2529pt" height="416pt"
 viewBox="0.00 0.00 2529.25 416.00" xmlns="http://www.w3.org/2000/svg" xmlns:xlink="http://www.w3.org/1999/xlink">
<g id="graph0" class="graph" transform="scale(1 1) rotate(0) translate(4 412)">
<polygon fill="white" stroke="none" points="-4,4 -4,-412 2525.25,-412 2525.25,4 -4,4"/>
<!-- node_0x5fcf43f3ee80 -->
<g id="node1" class="node">
<title>node_0x5fcf43f3ee80</title>
<polygon fill="#bdef9e" stroke="black" points="721.62,-370.5 721.62,-407.5 1140.62,-407.5 1140.62,-370.5 721.62,-370.5"/>
<text text-anchor="middle" x="931.12" y="-394.95" font-family="Times,serif" font-size="9.00">+</text>
<polyline fill="none" stroke="black" points="721.62,-389 1140.62,-389"/>
<text text-anchor="middle" x="754.38" y="-376.45" font-family="Times,serif" font-size="9.00">type = 3 (OP)</text>
<polyline fill="none" stroke="black" points="787.12,-370.5 787.12,-389"/>
<text text-anchor="middle" x="833.75" y="-376.45" font-family="Times,serif" font-size="9.00">left = 0x5fcf43f3ee40</text>
<polyline fill="none" stroke="black" points="880.38,-370.5 880.38,-389"/>
<text text-anchor="middle" x="930" y="-376.45" font-family="Times,serif" font-size="9.00">node = 0x5fcf43f3ee80</text>
<polyline fill="none" stroke="black" points="979.62,-370.5 979.62,-389"/>
<text text-anchor="middle" x="1010.88" y="-376.45" font-family="Times,serif" font-size="9.00">parent = (nil)</text>
<polyline fill="none" stroke="black" points="1042.12,-370.5 1042.12,-389"/>
<text text-anchor="middle" x="1091.38" y="-376.45" font-family="Times,serif" font-size="9.00">right = 0x5fcf43f3eb40</text>
</g>
<!-- node_0x5fcf43f3ee40 -->
<g id="node2" class="node">
<title>node_0x5fcf43f3ee40</title>
<polygon fill="#bdef9e" stroke="black" points="462,-296.5 462,-333.5 922.25,-333.5 922.25,-296.5 462,-296.5"/>
<text text-anchor="middle" x="692.12" y="-320.95" font-family="Times,serif" font-size="9.00">*</text>
<polyline fill="none" stroke="black" points="462,-315 922.25,-315"/>
<text text-anchor="middle" x="494.75" y="-302.45" font-family="Times,serif" font-size="9.00">type = 3 (OP)</text>
<polyline fill="none" stroke="black" points="527.5,-296.5 527.5,-315"/>
<text text-anchor="middle" x="574.12" y="-302.45" font-family="Times,serif" font-size="9.00">left = 0x5fcf43f3ee00</text>
<polyline fill="none" stroke="black" points="620.75,-296.5 620.75,-315"/>
<text text-anchor="middle" x="670.38" y="-302.45" font-family="Times,serif" font-size="9.00">node = 0x5fcf43f3ee40</text>
<polyline fill="none" stroke="black" points="720,-296.5 720,-315"/>
<text text-anchor="middle" x="771.88" y="-302.45" font-family="Times,serif" font-size="9.00">parent = 0x5fcf43f3ee80</text>
<polyline fill="none" stroke="black" points="823.75,-296.5 823.75,-315"/>
<text text-anchor="middle" x="873" y="-302.45" font-family="Times,serif" font-size="9.00">right = 0x5fcf43f3ed00</text>
</g>
<!-- node_0x5fcf43f3ee80&#45;&gt;node_0x5fcf43f3ee40 -->
<g id="edge1" class="edge">
<title>node_0x5fcf43f3ee80&#45;&gt;node_0x5fcf43f3ee40</title>
<path fill="none" stroke="black" d="M871.43,-370.02C838.37,-360.06 797.08,-347.62 762.46,-337.19"/>
<polygon fill="black" stroke="black" points="763.5,-333.85 752.92,-334.31 761.49,-340.55 763.5,-333.85"/>
</g>
<!-- node_0x5fcf43f3eb40 -->
<g id="node8" class="node">
<title>node_0x5fcf43f3eb40</title>
<polygon fill="#bdef9e" stroke="black" points="940,-296.5 940,-333.5 1400.25,-333.5 1400.25,-296.5 940,-296.5"/>
<text text-anchor="middle" x="1170.12" y="-320.95" font-family="Times,serif" font-size="9.00">*</text>
<polyline fill="none" stroke="black" points="940,-315 1400.25,-315"/>
<text text-anchor="middle" x="972.75" y="-302.45" font-family="Times,serif" font-size="9.00">type = 3 (OP)</text>
<polyline fill="none" stroke="black" points="1005.5,-296.5 1005.5,-315"/>
<text text-anchor="middle" x="1052.5" y="-302.45" font-family="Times,serif" font-size="9.00">left = 0x5fcf43f3eb00</text>
<polyline fill="none" stroke="black" points="1099.5,-296.5 1099.5,-315"/>
<text text-anchor="middle" x="1149.5" y="-302.45" font-family="Times,serif" font-size="9.00">node = 0x5fcf43f3eb40</text>
<polyline fill="none" stroke="black" points="1199.5,-296.5 1199.5,-315"/>
<text text-anchor="middle" x="1251.38" y="-302.45" font-family="Times,serif" font-size="9.00">parent = 0x5fcf43f3ee80</text>
<polyline fill="none" stroke="black" points="1303.25,-296.5 1303.25,-315"/>
<text text-anchor="middle" x="1351.75" y="-302.45" font-family="Times,serif" font-size="9.00">right = 0x5fcf43f3eac0</text>
</g>
<!-- node_0x5fcf43f3ee80&#45;&gt;node_0x5fcf43f3eb40 -->
<g id="edge7" class="edge">
<title>node_0x5fcf43f3ee80&#45;&gt;node_0x5fcf43f3eb40</title>
<path fill="none" stroke="black" d="M990.82,-370.02C1023.88,-360.06 1065.17,-347.62 1099.79,-337.19"/>
<polygon fill="black" stroke="black" points="1100.76,-340.55 1109.33,-334.31 1098.75,-333.85 1100.76,-340.55"/>
</g>
<!-- node_0x5fcf43f3ee00 -->
<g id="node3" class="node">
<title>node_0x5fcf43f3ee00</title>
<polygon fill="#bdef9e" stroke="black" points="89.62,-222.5 89.62,-259.5 508.62,-259.5 508.62,-222.5 89.62,-222.5"/>
<text text-anchor="middle" x="299.12" y="-246.95" font-family="Times,serif" font-size="9.00">cos</text>
<polyline fill="none" stroke="black" points="89.62,-241 508.62,-241"/>
<text text-anchor="middle" x="122.38" y="-228.45" font-family="Times,serif" font-size="9.00">type = 3 (OP)</text>
<polyline fill="none" stroke="black" points="155.12,-222.5 155.12,-241"/>
<text text-anchor="middle" x="181.12" y="-228.45" font-family="Times,serif" font-size="9.00">left = (nil)</text>
<polyline fill="none" stroke="black" points="207.12,-222.5 207.12,-241"/>
<text text-anchor="middle" x="256.75" y="-228.45" font-family="Times,serif" font-size="9.00">node = 0x5fcf43f3ee00</text>
<polyline fill="none" stroke="black" points="306.38,-222.5 306.38,-241"/>
<text text-anchor="middle" x="358.25" y="-228.45" font-family="Times,serif" font-size="9.00">parent = 0x5fcf43f3ee40</text>
<polyline fill="none" stroke="black" points="410.12,-222.5 410.12,-241"/>
<text text-anchor="middle" x="459.38" y="-228.45" font-family="Times,serif" font-size="9.00">right = 0x5fcf43f3ed40</text>
</g>
<!-- node_0x5fcf43f3ee40&#45;&gt;node_0x5fcf43f3ee00 -->
<g id="edge2" class="edge">
<title>node_0x5fcf43f3ee40&#45;&gt;node_0x5fcf43f3ee00</title>
<path fill="none" stroke="black" d="M593.97,-296.02C537.47,-285.67 466.37,-272.64 408.14,-261.97"/>
<polygon fill="black" stroke="black" points="409.01,-258.57 398.54,-260.21 407.75,-265.46 409.01,-258.57"/>
</g>
<!-- node_0x5fcf43f3ed00 -->
<g id="node7" class="node">
<title>node_0x5fcf43f3ed00</title>
<polygon fill="blue" stroke="black" points="526.38,-222.5 526.38,-259.5 913.88,-259.5 913.88,-222.5 526.38,-222.5"/>
<text text-anchor="middle" x="720.12" y="-246.95" font-family="Times,serif" font-size="9.00">2</text>
<polyline fill="none" stroke="black" points="526.38,-241 913.88,-241"/>
<text text-anchor="middle" x="564" y="-228.45" font-family="Times,serif" font-size="9.00">type = 1 (NUM)</text>
<polyline fill="none" stroke="black" points="601.62,-222.5 601.62,-241"/>
<text text-anchor="middle" x="627.62" y="-228.45" font-family="Times,serif" font-size="9.00">left = (nil)</text>
<polyline fill="none" stroke="black" points="653.62,-222.5 653.62,-241"/>
<text text-anchor="middle" x="703.62" y="-228.45" font-family="Times,serif" font-size="9.00">node = 0x5fcf43f3ed00</text>
<polyline fill="none" stroke="black" points="753.62,-222.5 753.62,-241"/>
<text text-anchor="middle" x="805.5" y="-228.45" font-family="Times,serif" font-size="9.00">parent = 0x5fcf43f3ee40</text>
<polyline fill="none" stroke="black" points="857.38,-222.5 857.38,-241"/>
<text text-anchor="middle" x="885.62" y="-228.45" font-family="Times,serif" font-size="9.00">right = (nil)</text>
</g>
<!-- node_0x5fcf43f3ee40&#45;&gt;node_0x5fcf43f3ed00 -->
<g id="edge6" class="edge">
<title>node_0x5fcf43f3ee40&#45;&gt;node_0x5fcf43f3ed00</title>
<path fill="none" stroke="black" d="M699.05,-296.2C702.08,-288.41 705.7,-279.08 709.09,-270.38"/>
<polygon fill="black" stroke="black" points="712.28,-271.84 712.64,-261.25 705.75,-269.3 712.28,-271.84"/>
</g>
<!-- node_0x5fcf43f3ed40 -->
<g id="node4" class="node">
<title>node_0x5fcf43f3ed40</title>
<polygon fill="#bdef9e" stroke="black" points="68.62,-148.5 68.62,-185.5 529.62,-185.5 529.62,-148.5 68.62,-148.5"/>
<text text-anchor="middle" x="299.12" y="-172.95" font-family="Times,serif" font-size="9.00">*</text>
<polyline fill="none" stroke="black" points="68.62,-167 529.62,-167"/>
<text text-anchor="middle" x="101.38" y="-154.45" font-family="Times,serif" font-size="9.00">type = 3 (OP)</text>
<polyline fill="none" stroke="black" points="134.12,-148.5 134.12,-167"/>
<text text-anchor="middle" x="181.12" y="-154.45" font-family="Times,serif" font-size="9.00">left = 0x5fcf43f3ed80</text>
<polyline fill="none" stroke="black" points="228.12,-148.5 228.12,-167"/>
<text text-anchor="middle" x="278.12" y="-154.45" font-family="Times,serif" font-size="9.00">node = 0x5fcf43f3ed40</text>
<polyline fill="none" stroke="black" points="328.12,-148.5 328.12,-167"/>
<text text-anchor="middle" x="380" y="-154.45" font-family="Times,serif" font-size="9.00">parent = 0x5fcf43f3ee00</text>
<polyline fill="none" stroke="black" points="431.88,-148.5 431.88,-167"/>
<text text-anchor="middle" x="480.75" y="-154.45" font-family="Times,serif" font-size="9.00">right = 0x5fcf43f3edc0</text>
</g>
<!-- node_0x5fcf43f3ee00&#45;&gt;node_0x5fcf43f3ed40 -->
<g id="edge3" class="edge">
<title>node_0x5fcf43f3ee00&#45;&gt;node_0x5fcf43f3ed40</title>
<path fill="none" stroke="black" d="M299.12,-222.2C299.12,-214.67 299.12,-205.7 299.12,-197.25"/>
<polygon fill="black" stroke="black" points="302.63,-197.36 299.13,-187.36 295.63,-197.36 302.63,-197.36"/>
</g>
<!-- node_0x5fcf43f3ed80 -->
<g id="node5" class="node">
<title>node_0x5fcf43f3ed80</title>
<polygon fill="blue" stroke="black" points="0,-74.5 0,-111.5 388.25,-111.5 388.25,-74.5 0,-74.5"/>
<text text-anchor="middle" x="194.12" y="-98.95" font-family="Times,serif" font-size="9.00">2</text>
<polyline fill="none" stroke="black" points="0,-93 388.25,-93"/>
<text text-anchor="middle" x="37.62" y="-80.45" font-family="Times,serif" font-size="9.00">type = 1 (NUM)</text>
<polyline fill="none" stroke="black" points="75.25,-74.5 75.25,-93"/>
<text text-anchor="middle" x="101.25" y="-80.45" font-family="Times,serif" font-size="9.00">left = (nil)</text>
<polyline fill="none" stroke="black" points="127.25,-74.5 127.25,-93"/>
<text text-anchor="middle" x="177.25" y="-80.45" font-family="Times,serif" font-size="9.00">node = 0x5fcf43f3ed80</text>
<polyline fill="none" stroke="black" points="227.25,-74.5 227.25,-93"/>
<text text-anchor="middle" x="279.5" y="-80.45" font-family="Times,serif" font-size="9.00">parent = 0x5fcf43f3ed40</text>
<polyline fill="none" stroke="black" points="331.75,-74.5 331.75,-93"/>
<text text-anchor="middle" x="360" y="-80.45" font-family="Times,serif" font-size="9.00">right = (nil)</text>
</g>
<!-- node_0x5fcf43f3ed40&#45;&gt;node_0x5fcf43f3ed80 -->
<g id="edge4" class="edge">
<title>node_0x5fcf43f3ed40&#45;&gt;node_0x5fcf43f3ed80</title>
<path fill="none" stroke="black" d="M272.9,-148.02C259.77,-139.02 243.69,-127.99 229.49,-118.25"/>
<polygon fill="black" stroke="black" points="231.49,-115.38 221.26,-112.61 227.53,-121.15 231.49,-115.38"/>
</g>
<!-- node_0x5fcf43f3edc0 -->
<g id="node6" class="node">
<title>node_0x5fcf43f3edc0</title>
<polygon fill="yellow" stroke="black" points="405.88,-74.5 405.88,-111.5 790.38,-111.5 790.38,-74.5 405.88,-74.5"/>
<text text-anchor="middle" x="598.12" y="-98.95" font-family="Times,serif" font-size="9.00">x</text>
<polyline fill="none" stroke="black" points="405.88,-93 790.38,-93"/>
<text text-anchor="middle" x="442" y="-80.45" font-family="Times,serif" font-size="9.00">type = 2 (VAR)</text>
<polyline fill="none" stroke="black" points="478.12,-74.5 478.12,-93"/>
<text text-anchor="middle" x="504.12" y="-80.45" font-family="Times,serif" font-size="9.00">left = (nil)</text>
<polyline fill="none" stroke="black" points="530.12,-74.5 530.12,-93"/>
<text text-anchor="middle" x="579.75" y="-80.45" font-family="Times,serif" font-size="9.00">node = 0x5fcf43f3edc0</text>
<polyline fill="none" stroke="black" points="629.38,-74.5 629.38,-93"/>
<text text-anchor="middle" x="681.62" y="-80.45" font-family="Times,serif" font-size="9.00">parent = 0x5fcf43f3ed40</text>
<polyline fill="none" stroke="black" points="733.88,-74.5 733.88,-93"/>
<text text-anchor="middle" x="762.12" y="-80.45" font-family="Times,serif" font-size="9.00">right = (nil)</text>
</g>
<!-- node_0x5fcf43f3ed40&#45;&gt;node_0x5fcf43f3edc0 -->
<g id="edge5" class="edge">
<title>node_0x5fcf43f3ed40&#45;&gt;node_0x5fcf43f3edc0</title>
<path fill="none" stroke="black" d="M373.8,-148.02C415.98,-137.86 468.86,-125.13 512.69,-114.57"/>
<polygon fill="black" stroke="black" points="513.25,-118.04 522.15,-112.3 511.61,-111.23 513.25,-118.04"/>
</g>
<!-- node_0x5fcf43f3eb00 -->
<g id="node9" class="node">
<title>node_0x5fcf43f3eb00</title>
<polygon fill="blue" stroke="black" points="948,-222.5 948,-259.5 1336.25,-259.5 1336.25,-222.5 948,-222.5"/>
<text text-anchor="middle" x="1142.12" y="-246.95" font-family="Times,serif" font-size="9.00">&#45;1</text>
<polyline fill="none" stroke="black" points="948,-241 1336.25,-241"/>
<text text-anchor="middle" x="985.62" y="-228.45" font-family="Times,serif" font-size="9.00">type = 1 (NUM)</text>
<polyline fill="none" stroke="black" points="1023.25,-222.5 1023.25,-241"/>
<text text-anchor="middle" x="1049.25" y="-228.45" font-family="Times,serif" font-size="9.00">left = (nil)</text>
<polyline fill="none" stroke="black" points="1075.25,-222.5 1075.25,-241"/>
<text text-anchor="middle" x="1125.25" y="-228.45" font-family="Times,serif" font-size="9.00">node = 0x5fcf43f3eb00</text>
<polyline fill="none" stroke="black" points="1175.25,-222.5 1175.25,-241"/>
<text text-anchor="middle" x="1227.5" y="-228.45" font-family="Times,serif" font-size="9.00">parent = 0x5fcf43f3eb40</text>
<polyline fill="none" stroke="black" points="1279.75,-222.5 1279.75,-241"/>
<text text-anchor="middle" x="1308" y="-228.45" font-family="Times,serif" font-size="9.00">right = (nil)</text>
</g>
<!-- node_0x5fcf43f3eb40&#45;&gt;node_0x5fcf43f3eb00 -->
<g id="edge8" class="edge">
<title>node_0x5fcf43f3eb40&#45;&gt;node_0x5fcf43f3eb00</title>
<path fill="none" stroke="black" d="M1163.2,-296.2C1160.17,-288.41 1156.55,-279.08 1153.16,-270.38"/>
<polygon fill="black" stroke="black" points="1156.5,-269.3 1149.61,-261.25 1149.97,-271.84 1156.5,-269.3"/>
</g>
<!-- node_0x5fcf43f3eac0 -->
<g id="node10" class="node">
<title>node_0x5fcf43f3eac0</title>
<polygon fill="#bdef9e" stroke="black" points="1354,-222.5 1354,-259.5 1814.25,-259.5 1814.25,-222.5 1354,-222.5"/>
<text text-anchor="middle" x="1584.12" y="-246.95" font-family="Times,serif" font-size="9.00">*</text>
<polyline fill="none" stroke="black" points="1354,-241 1814.25,-241"/>
<text text-anchor="middle" x="1386.75" y="-228.45" font-family="Times,serif" font-size="9.00">type = 3 (OP)</text>
<polyline fill="none" stroke="black" points="1419.5,-222.5 1419.5,-241"/>
<text text-anchor="middle" x="1466.12" y="-228.45" font-family="Times,serif" font-size="9.00">left = 0x5fcf43f3ea80</text>
<polyline fill="none" stroke="black" points="1512.75,-222.5 1512.75,-241"/>
<text text-anchor="middle" x="1562" y="-228.45" font-family="Times,serif" font-size="9.00">node = 0x5fcf43f3eac0</text>
<polyline fill="none" stroke="black" points="1611.25,-222.5 1611.25,-241"/>
<text text-anchor="middle" x="1663.5" y="-228.45" font-family="Times,serif" font-size="9.00">parent = 0x5fcf43f3eb40</text>
<polyline fill="none" stroke="black" points="1715.75,-222.5 1715.75,-241"/>
<text text-anchor="middle" x="1765" y="-228.45" font-family="Times,serif" font-size="9.00">right = 0x5fcf43f3e980</text>
</g>
<!-- node_0x5fcf43f3eb40&#45;&gt;node_0x5fcf43f3eac0 -->
<g id="edge9" class="edge">
<title>node_0x5fcf43f3eb40&#45;&gt;node_0x5fcf43f3eac0</title>
<path fill="none" stroke="black" d="M1273.53,-296.02C1333.16,-285.65 1408.26,-272.59 1469.67,-261.91"/>
<polygon fill="black" stroke="black" points="1470.22,-265.36 1479.47,-260.2 1469.02,-258.47 1470.22,-265.36"/>
</g>
<!-- node_0x5fcf43f3ea80 -->
<g id="node11" class="node">
<title>node_0x5fcf43f3ea80</title>
<polygon fill="#bdef9e" stroke="black" points="1023.38,-148.5 1023.38,-185.5 1440.88,-185.5 1440.88,-148.5 1023.38,-148.5"/>
<text text-anchor="middle" x="1232.12" y="-172.95" font-family="Times,serif" font-size="9.00">sin</text>
<polyline fill="none" stroke="black" points="1023.38,-167 1440.88,-167"/>
<text text-anchor="middle" x="1056.12" y="-154.45" font-family="Times,serif" font-size="9.00">type = 3 (OP)</text>
<polyline fill="none" stroke="black" points="1088.88,-148.5 1088.88,-167"/>
<text text-anchor="middle" x="1114.88" y="-154.45" font-family="Times,serif" font-size="9.00">left = (nil)</text>
<polyline fill="none" stroke="black" points="1140.88,-148.5 1140.88,-167"/>
<text text-anchor="middle" x="1190.5" y="-154.45" font-family="Times,serif" font-size="9.00">node = 0x5fcf43f3ea80</text>
<polyline fill="none" stroke="black" points="1240.12,-148.5 1240.12,-167"/>
<text text-anchor="middle" x="1291.62" y="-154.45" font-family="Times,serif" font-size="9.00">parent = 0x5fcf43f3eac0</text>
<polyline fill="none" stroke="black" points="1343.12,-148.5 1343.12,-167"/>
<text text-anchor="middle" x="1392" y="-154.45" font-family="Times,serif" font-size="9.00">right = 0x5fcf43f3e9c0</text>
</g>
<!-- node_0x5fcf43f3eac0&#45;&gt;node_0x5fcf43f3ea80 -->
<g id="edge10" class="edge">
<title>node_0x5fcf43f3eac0&#45;&gt;node_0x5fcf43f3ea80</title>
<path fill="none" stroke="black" d="M1496.21,-222.02C1446.03,-211.75 1382.98,-198.86 1331.07,-188.24"/>
<polygon fill="black" stroke="black" points="1331.82,-184.82 1321.32,-186.24 1330.41,-191.68 1331.82,-184.82"/>
</g>
<!-- node_0x5fcf43f3e980 -->
<g id="node15" class="node">
<title>node_0x5fcf43f3e980</title>
<polygon fill="#bdef9e" stroke="black" points="1458.62,-148.5 1458.62,-185.5 1919.62,-185.5 1919.62,-148.5 1458.62,-148.5"/>
<text text-anchor="middle" x="1689.12" y="-172.95" font-family="Times,serif" font-size="9.00">*</text>
<polyline fill="none" stroke="black" points="1458.62,-167 1919.62,-167"/>
<text text-anchor="middle" x="1491.38" y="-154.45" font-family="Times,serif" font-size="9.00">type = 3 (OP)</text>
<polyline fill="none" stroke="black" points="1524.12,-148.5 1524.12,-167"/>
<text text-anchor="middle" x="1571.12" y="-154.45" font-family="Times,serif" font-size="9.00">left = 0x5fcf43f3e940</text>
<polyline fill="none" stroke="black" points="1618.12,-148.5 1618.12,-167"/>
<text text-anchor="middle" x="1668.12" y="-154.45" font-family="Times,serif" font-size="9.00">node = 0x5fcf43f3e980</text>
<polyline fill="none" stroke="black" points="1718.12,-148.5 1718.12,-167"/>
<text text-anchor="middle" x="1769.62" y="-154.45" font-family="Times,serif" font-size="9.00">parent = 0x5fcf43f3eac0</text>
<polyline fill="none" stroke="black" points="1821.12,-148.5 1821.12,-167"/>
<text text-anchor="middle" x="1870.38" y="-154.45" font-family="Times,serif" font-size="9.00">right = 0x5fcf43f3e880</text>
</g>
<!-- node_0x5fcf43f3eac0&#45;&gt;node_0x5fcf43f3e980 -->
<g id="edge14" class="edge">
<title>node_0x5fcf43f3eac0&#45;&gt;node_0x5fcf43f3e980</title>
<path fill="none" stroke="black" d="M1610.35,-222.02C1623.48,-213.02 1639.56,-201.99 1653.76,-192.25"/>
<polygon fill="black" stroke="black" points="1655.72,-195.15 1661.99,-186.61 1651.76,-189.38 1655.72,-195.15"/>
</g>
<!-- node_0x5fcf43f3e9c0 -->
<g id="node12" class="node">
<title>node_0x5fcf43f3e9c0</title>
<polygon fill="#bdef9e" stroke="black" points="1002.38,-74.5 1002.38,-111.5 1461.88,-111.5 1461.88,-74.5 1002.38,-74.5"/>
<text text-anchor="middle" x="1232.12" y="-98.95" font-family="Times,serif" font-size="9.00">^</text>
<polyline fill="none" stroke="black" points="1002.38,-93 1461.88,-93"/>
<text text-anchor="middle" x="1035.12" y="-80.45" font-family="Times,serif" font-size="9.00">type = 3 (OP)</text>
<polyline fill="none" stroke="black" points="1067.88,-74.5 1067.88,-93"/>
<text text-anchor="middle" x="1114.5" y="-80.45" font-family="Times,serif" font-size="9.00">left = 0x5fcf43f3ea00</text>
<polyline fill="none" stroke="black" points="1161.12,-74.5 1161.12,-93"/>
<text text-anchor="middle" x="1210.75" y="-80.45" font-family="Times,serif" font-size="9.00">node = 0x5fcf43f3e9c0</text>
<polyline fill="none" stroke="black" points="1260.38,-74.5 1260.38,-93"/>
<text text-anchor="middle" x="1312.25" y="-80.45" font-family="Times,serif" font-size="9.00">parent = 0x5fcf43f3ea80</text>
<polyline fill="none" stroke="black" points="1364.12,-74.5 1364.12,-93"/>
<text text-anchor="middle" x="1413" y="-80.45" font-family="Times,serif" font-size="9.00">right = 0x5fcf43f3ea40</text>
</g>
<!-- node_0x5fcf43f3ea80&#45;&gt;node_0x5fcf43f3e9c0 -->
<g id="edge11" class="edge">
<title>node_0x5fcf43f3ea80&#45;&gt;node_0x5fcf43f3e9c0</title>
<path fill="none" stroke="black" d="M1232.12,-148.2C1232.12,-140.67 1232.12,-131.7 1232.12,-123.25"/>
<polygon fill="black" stroke="black" points="1235.63,-123.36 1232.13,-113.36 1228.63,-123.36 1235.63,-123.36"/>
</g>
<!-- node_0x5fcf43f3ea00 -->
<g id="node13" class="node">
<title>node_0x5fcf43f3ea00</title>
<polygon fill="yellow" stroke="black" points="780.25,-0.5 780.25,-37.5 1164,-37.5 1164,-0.5 780.25,-0.5"/>
<text text-anchor="middle" x="972.12" y="-24.95" font-family="Times,serif" font-size="9.00">x</text>
<polyline fill="none" stroke="black" points="780.25,-19 1164,-19"/>
<text text-anchor="middle" x="816.38" y="-6.45" font-family="Times,serif" font-size="9.00">type = 2 (VAR)</text>
<polyline fill="none" stroke="black" points="852.5,-0.5 852.5,-19"/>
<text text-anchor="middle" x="878.5" y="-6.45" font-family="Times,serif" font-size="9.00">left = (nil)</text>
<polyline fill="none" stroke="black" points="904.5,-0.5 904.5,-19"/>
<text text-anchor="middle" x="954.12" y="-6.45" font-family="Times,serif" font-size="9.00">node = 0x5fcf43f3ea00</text>
<polyline fill="none" stroke="black" points="1003.75,-0.5 1003.75,-19"/>
<text text-anchor="middle" x="1055.62" y="-6.45" font-family="Times,serif" font-size="9.00">parent = 0x5fcf43f3e9c0</text>
<polyline fill="none" stroke="black" points="1107.5,-0.5 1107.5,-19"/>
<text text-anchor="middle" x="1135.75" y="-6.45" font-family="Times,serif" font-size="9.00">right = (nil)</text>
</g>
<!-- node_0x5fcf43f3e9c0&#45;&gt;node_0x5fcf43f3ea00 -->
<g id="edge12" class="edge">
<title>node_0x5fcf43f3e9c0&#45;&gt;node_0x5fcf43f3ea00</title>
<path fill="none" stroke="black" d="M1167.19,-74.02C1130.91,-63.97 1085.52,-51.4 1047.66,-40.92"/>
<polygon fill="black" stroke="black" points="1048.72,-37.58 1038.14,-38.28 1046.85,-44.32 1048.72,-37.58"/>
</g>
<!-- node_0x5fcf43f3ea40 -->
<g id="node14" class="node">
<title>node_0x5fcf43f3ea40</title>
<polygon fill="blue" stroke="black" points="1181.75,-0.5 1181.75,-37.5 1568.5,-37.5 1568.5,-0.5 1181.75,-0.5"/>
<text text-anchor="middle" x="1375.12" y="-24.95" font-family="Times,serif" font-size="9.00">2</text>
<polyline fill="none" stroke="black" points="1181.75,-19 1568.5,-19"/>
<text text-anchor="middle" x="1219.38" y="-6.45" font-family="Times,serif" font-size="9.00">type = 1 (NUM)</text>
<polyline fill="none" stroke="black" points="1257,-0.5 1257,-19"/>
<text text-anchor="middle" x="1283" y="-6.45" font-family="Times,serif" font-size="9.00">left = (nil)</text>
<polyline fill="none" stroke="black" points="1309,-0.5 1309,-19"/>
<text text-anchor="middle" x="1358.62" y="-6.45" font-family="Times,serif" font-size="9.00">node = 0x5fcf43f3ea40</text>
<polyline fill="none" stroke="black" points="1408.25,-0.5 1408.25,-19"/>
<text text-anchor="middle" x="1460.12" y="-6.45" font-family="Times,serif" font-size="9.00">parent = 0x5fcf43f3e9c0</text>
<polyline fill="none" stroke="black" points="1512,-0.5 1512,-19"/>
<text text-anchor="middle" x="1540.25" y="-6.45" font-family="Times,serif" font-size="9.00">right = (nil)</text>
</g>
<!-- node_0x5fcf43f3e9c0&#45;&gt;node_0x5fcf43f3ea40 -->
<g id="edge13" class="edge">
<title>node_0x5fcf43f3e9c0&#45;&gt;node_0x5fcf43f3ea40</title>
<path fill="none" stroke="black" d="M1267.84,-74.02C1286.58,-64.58 1309.74,-52.92 1329.73,-42.85"/>
<polygon fill="black" stroke="black" points="1331.15,-46.06 1338.51,-38.43 1328.01,-39.81 1331.15,-46.06"/>
</g>
<!-- node_0x5fcf43f3e940 -->
<g id="node16" class="node">
<title>node_0x5fcf43f3e940</title>
<polygon fill="blue" stroke="black" points="1488,-74.5 1488,-111.5 1876.25,-111.5 1876.25,-74.5 1488,-74.5"/>
<text text-anchor="middle" x="1682.12" y="-98.95" font-family="Times,serif" font-size="9.00">2</text>
<polyline fill="none" stroke="black" points="1488,-93 1876.25,-93"/>
<text text-anchor="middle" x="1525.62" y="-80.45" font-family="Times,serif" font-size="9.00">type = 1 (NUM)</text>
<polyline fill="none" stroke="black" points="1563.25,-74.5 1563.25,-93"/>
<text text-anchor="middle" x="1589.25" y="-80.45" font-family="Times,serif" font-size="9.00">left = (nil)</text>
<polyline fill="none" stroke="black" points="1615.25,-74.5 1615.25,-93"/>
<text text-anchor="middle" x="1665.25" y="-80.45" font-family="Times,serif" font-size="9.00">node = 0x5fcf43f3e940</text>
<polyline fill="none" stroke="black" points="1715.25,-74.5 1715.25,-93"/>
<text text-anchor="middle" x="1767.5" y="-80.45" font-family="Times,serif" font-size="9.00">parent = 0x5fcf43f3e980</text>
<polyline fill="none" stroke="black" points="1819.75,-74.5 1819.75,-93"/>
<text text-anchor="middle" x="1848" y="-80.45" font-family="Times,serif" font-size="9.00">right = (nil)</text>
</g>
<!-- node_0x5fcf43f3e980&#45;&gt;node_0x5fcf43f3e940 -->
<g id="edge15" class="edge">
<title>node_0x5fcf43f3e980&#45;&gt;node_0x5fcf43f3e940</title>
<path fill="none" stroke="black" d="M1687.39,-148.2C1686.66,-140.67 1685.79,-131.7 1684.97,-123.25"/>
<polygon fill="black" stroke="black" points="1688.46,-122.96 1684.01,-113.35 1681.49,-123.64 1688.46,-122.96"/>
</g>
<!-- node_0x5fcf43f3e880 -->
<g id="node17" class="node">
<title>node_0x5fcf43f3e880</title>
<polygon fill="#bdef9e" stroke="black" points="1893.88,-74.5 1893.88,-111.5 2356.38,-111.5 2356.38,-74.5 1893.88,-74.5"/>
<text text-anchor="middle" x="2125.12" y="-98.95" font-family="Times,serif" font-size="9.00">^</text>
<polyline fill="none" stroke="black" points="1893.88,-93 2356.38,-93"/>
<text text-anchor="middle" x="1926.62" y="-80.45" font-family="Times,serif" font-size="9.00">type = 3 (OP)</text>
<polyline fill="none" stroke="black" points="1959.38,-74.5 1959.38,-93"/>
<text text-anchor="middle" x="2006.38" y="-80.45" font-family="Times,serif" font-size="9.00">left = 0x5fcf43f3e840</text>
<polyline fill="none" stroke="black" points="2053.38,-74.5 2053.38,-93"/>
<text text-anchor="middle" x="2103.38" y="-80.45" font-family="Times,serif" font-size="9.00">node = 0x5fcf43f3e880</text>
<polyline fill="none" stroke="black" points="2153.38,-74.5 2153.38,-93"/>
<text text-anchor="middle" x="2205.62" y="-80.45" font-family="Times,serif" font-size="9.00">parent = 0x5fcf43f3e980</text>
<polyline fill="none" stroke="black" points="2257.88,-74.5 2257.88,-93"/>
<text text-anchor="middle" x="2307.12" y="-80.45" font-family="Times,serif" font-size="9.00">right = 0x5fcf43f3e800</text>
</g>
<!-- node_0x5fcf43f3e980&#45;&gt;node_0x5fcf43f3e880 -->
<g id="edge16" class="edge">
<title>node_0x5fcf43f3e980&#45;&gt;node_0x5fcf43f3e880</title>
<path fill="none" stroke="black" d="M1798.02,-148.02C1861.09,-137.6 1940.57,-124.48 2005.39,-113.77"/>
<polygon fill="black" stroke="black" points="2005.69,-117.27 2014.99,-112.19 2004.55,-110.36 2005.69,-117.27"/>
</g>
<!-- node_0x5fcf43f3e840 -->
<g id="node18" class="node">
<title>node_0x5fcf43f3e840</title>
<polygon fill="yellow" stroke="black" points="1729.5,-0.5 1729.5,-37.5 2114.75,-37.5 2114.75,-0.5 1729.5,-0.5"/>
<text text-anchor="middle" x="1922.12" y="-24.95" font-family="Times,serif" font-size="9.00">x</text>
<polyline fill="none" stroke="black" points="1729.5,-19 2114.75,-19"/>
<text text-anchor="middle" x="1765.62" y="-6.45" font-family="Times,serif" font-size="9.00">type = 2 (VAR)</text>
<polyline fill="none" stroke="black" points="1801.75,-0.5 1801.75,-19"/>
<text text-anchor="middle" x="1827.75" y="-6.45" font-family="Times,serif" font-size="9.00">left = (nil)</text>
<polyline fill="none" stroke="black" points="1853.75,-0.5 1853.75,-19"/>
<text text-anchor="middle" x="1903.75" y="-6.45" font-family="Times,serif" font-size="9.00">node = 0x5fcf43f3e840</text>
<polyline fill="none" stroke="black" points="1953.75,-0.5 1953.75,-19"/>
<text text-anchor="middle" x="2006" y="-6.45" font-family="Times,serif" font-size="9.00">parent = 0x5fcf43f3e880</text>
<polyline fill="none" stroke="black" points="2058.25,-0.5 2058.25,-19"/>
<text text-anchor="middle" x="2086.5" y="-6.45" font-family="Times,serif" font-size="9.00">right = (nil)</text>
</g>
<!-- node_0x5fcf43f3e880&#45;&gt;node_0x5fcf43f3e840 -->
<g id="edge17" class="edge">
<title>node_0x5fcf43f3e880&#45;&gt;node_0x5fcf43f3e840</title>
<path fill="none" stroke="black" d="M2074.42,-74.02C2046.71,-64.19 2012.18,-51.94 1983.01,-41.6"/>
<polygon fill="black" stroke="black" points="1984.55,-38.43 1973.96,-38.38 1982.21,-45.03 1984.55,-38.43"/>
</g>
<!-- node_0x5fcf43f3e800 -->
<g id="node19" class="node">
<title>node_0x5fcf43f3e800</title>
<polygon fill="blue" stroke="black" points="2133,-0.5 2133,-37.5 2521.25,-37.5 2521.25,-0.5 2133,-0.5"/>
<text text-anchor="middle" x="2327.12" y="-24.95" font-family="Times,serif" font-size="9.00">1</text>
<polyline fill="none" stroke="black" points="2133,-19 2521.25,-19"/>
<text text-anchor="middle" x="2170.62" y="-6.45" font-family="Times,serif" font-size="9.00">type = 1 (NUM)</text>
<polyline fill="none" stroke="black" points="2208.25,-0.5 2208.25,-19"/>
<text text-anchor="middle" x="2234.25" y="-6.45" font-family="Times,serif" font-size="9.00">left = (nil)</text>
<polyline fill="none" stroke="black" points="2260.25,-0.5 2260.25,-19"/>
<text text-anchor="middle" x="2310.25" y="-6.45" font-family="Times,serif" font-size="9.00">node = 0x5fcf43f3e800</text>
<polyline fill="none" stroke="black" points="2360.25,-0.5 2360.25,-19"/>
<text text-anchor="middle" x="2412.5" y="-6.45" font-family="Times,serif" font-size="9.00">parent = 0x5fcf43f3e880</text>
<polyline fill="none" stroke="black" points="2464.75,-0.5 2464.75,-19"/>
<text text-anchor="middle" x="2493" y="-6.45" font-family="Times,serif" font-size="9.00">right = (nil)</text>
</g>
<!-- node_0x5fcf43f3e880&#45;&gt;node_0x5fcf43f3e800 -->
<g id="edge18" class="edge">
<title>node_0x5fcf43f3e880&#45;&gt;node_0x5fcf43f3e800</title>
<path fill="none" stroke="black" d="M2175.58,-74.02C2203.04,-64.23 2237.21,-52.05 2266.15,-41.73"/>
<polygon fill="black" stroke="black" points="2267.3,-45.04 2275.54,-38.39 2264.95,-38.45 2267.3,-45.04"/>
</g>
</g>
</svg>
