<?xml version="1.0" encoding="UTF-8" standalone="no"?>
<!DOCTYPE svg PUBLIC "-//W3C//DTD SVG 1.1//EN"
 "http://www.w3.org/Graphics/SVG/1.1/DTD/svg11.dtd">
<!-- Generated by graphviz version 12.1.2 (0)
 -->
<!-- Pages: 1 -->
<svg width="1799pt" height="268pt"
 viewBox="0.00 0.00 1798.50 268.00" xmlns="http://www.w3.org/2000/svg" xmlns:xlink="http://www.w3.org/1999/xlink">
<g id="graph0" class="graph" transform="scale(1 1) rotate(0) translate(4 264)">
<polygon fill="white" stroke="none" points="-4,4 -4,-264 1794.5,-264 1794.5,4 -4,4"/>
<!-- node_0x6289b99cb290 -->
<g id="node1" class="node">
<title>node_0x6289b99cb290</title>
<polygon fill="#bdef9e" stroke="black" points="718,-222.5 718,-259.5 1154.25,-259.5 1154.25,-222.5 718,-222.5"/>
<text text-anchor="middle" x="936.12" y="-246.95" font-family="Times,serif" font-size="9.00">^</text>
<polyline fill="none" stroke="black" points="718,-241 1154.25,-241"/>
<text text-anchor="middle" x="750.75" y="-228.45" font-family="Times,serif" font-size="9.00">type = 3 (OP)</text>
<polyline fill="none" stroke="black" points="783.5,-222.5 783.5,-241"/>
<text text-anchor="middle" x="833.12" y="-228.45" font-family="Times,serif" font-size="9.00">left = 0x6289b99cb2d0</text>
<polyline fill="none" stroke="black" points="882.75,-222.5 882.75,-241"/>
<text text-anchor="middle" x="935.38" y="-228.45" font-family="Times,serif" font-size="9.00">node = 0x6289b99cb290</text>
<polyline fill="none" stroke="black" points="988,-222.5 988,-241"/>
<text text-anchor="middle" x="1019.25" y="-228.45" font-family="Times,serif" font-size="9.00">parent = (nil)</text>
<polyline fill="none" stroke="black" points="1050.5,-222.5 1050.5,-241"/>
<text text-anchor="middle" x="1102.38" y="-228.45" font-family="Times,serif" font-size="9.00">right = 0x6289b99cb450</text>
</g>
<!-- node_0x6289b99cb2d0 -->
<g id="node2" class="node">
<title>node_0x6289b99cb2d0</title>
<polygon fill="#bdef9e" stroke="black" points="443.38,-148.5 443.38,-185.5 926.88,-185.5 926.88,-148.5 443.38,-148.5"/>
<text text-anchor="middle" x="685.12" y="-172.95" font-family="Times,serif" font-size="9.00">+</text>
<polyline fill="none" stroke="black" points="443.38,-167 926.88,-167"/>
<text text-anchor="middle" x="476.12" y="-154.45" font-family="Times,serif" font-size="9.00">type = 3 (OP)</text>
<polyline fill="none" stroke="black" points="508.88,-148.5 508.88,-167"/>
<text text-anchor="middle" x="558.5" y="-154.45" font-family="Times,serif" font-size="9.00">left = 0x6289b99cb310</text>
<polyline fill="none" stroke="black" points="608.12,-148.5 608.12,-167"/>
<text text-anchor="middle" x="660.75" y="-154.45" font-family="Times,serif" font-size="9.00">node = 0x6289b99cb2d0</text>
<polyline fill="none" stroke="black" points="713.38,-148.5 713.38,-167"/>
<text text-anchor="middle" x="768.25" y="-154.45" font-family="Times,serif" font-size="9.00">parent = 0x6289b99cb290</text>
<polyline fill="none" stroke="black" points="823.12,-148.5 823.12,-167"/>
<text text-anchor="middle" x="875" y="-154.45" font-family="Times,serif" font-size="9.00">right = 0x6289b99cb390</text>
</g>
<!-- node_0x6289b99cb290&#45;&gt;node_0x6289b99cb2d0 -->
<g id="edge1" class="edge">
<title>node_0x6289b99cb290&#45;&gt;node_0x6289b99cb2d0</title>
<path fill="none" stroke="black" d="M873.43,-222.02C838.41,-211.97 794.6,-199.4 758.05,-188.92"/>
<polygon fill="black" stroke="black" points="759.48,-185.69 748.91,-186.3 757.55,-192.42 759.48,-185.69"/>
</g>
<!-- node_0x6289b99cb450 -->
<g id="node8" class="node">
<title>node_0x6289b99cb450</title>
<polygon fill="#bdef9e" stroke="black" points="945.38,-148.5 945.38,-185.5 1428.88,-185.5 1428.88,-148.5 945.38,-148.5"/>
<text text-anchor="middle" x="1187.12" y="-172.95" font-family="Times,serif" font-size="9.00">+</text>
<polyline fill="none" stroke="black" points="945.38,-167 1428.88,-167"/>
<text text-anchor="middle" x="978.12" y="-154.45" font-family="Times,serif" font-size="9.00">type = 3 (OP)</text>
<polyline fill="none" stroke="black" points="1010.88,-148.5 1010.88,-167"/>
<text text-anchor="middle" x="1060.5" y="-154.45" font-family="Times,serif" font-size="9.00">left = 0x6289b99cb490</text>
<polyline fill="none" stroke="black" points="1110.12,-148.5 1110.12,-167"/>
<text text-anchor="middle" x="1162.75" y="-154.45" font-family="Times,serif" font-size="9.00">node = 0x6289b99cb450</text>
<polyline fill="none" stroke="black" points="1215.38,-148.5 1215.38,-167"/>
<text text-anchor="middle" x="1270.25" y="-154.45" font-family="Times,serif" font-size="9.00">parent = 0x6289b99cb290</text>
<polyline fill="none" stroke="black" points="1325.12,-148.5 1325.12,-167"/>
<text text-anchor="middle" x="1377" y="-154.45" font-family="Times,serif" font-size="9.00">right = 0x6289b99cb4d0</text>
</g>
<!-- node_0x6289b99cb290&#45;&gt;node_0x6289b99cb450 -->
<g id="edge7" class="edge">
<title>node_0x6289b99cb290&#45;&gt;node_0x6289b99cb450</title>
<path fill="none" stroke="black" d="M998.82,-222.02C1033.84,-211.97 1077.65,-199.4 1114.2,-188.92"/>
<polygon fill="black" stroke="black" points="1114.7,-192.42 1123.34,-186.3 1112.77,-185.69 1114.7,-192.42"/>
</g>
<!-- node_0x6289b99cb310 -->
<g id="node3" class="node">
<title>node_0x6289b99cb310</title>
<polygon fill="#bdef9e" stroke="black" points="0,-74.5 0,-111.5 436.25,-111.5 436.25,-74.5 0,-74.5"/>
<text text-anchor="middle" x="218.12" y="-98.95" font-family="Times,serif" font-size="9.00">sin</text>
<polyline fill="none" stroke="black" points="0,-93 436.25,-93"/>
<text text-anchor="middle" x="32.75" y="-80.45" font-family="Times,serif" font-size="9.00">type = 3 (OP)</text>
<polyline fill="none" stroke="black" points="65.5,-74.5 65.5,-93"/>
<text text-anchor="middle" x="91.5" y="-80.45" font-family="Times,serif" font-size="9.00">left = (nil)</text>
<polyline fill="none" stroke="black" points="117.5,-74.5 117.5,-93"/>
<text text-anchor="middle" x="170.12" y="-80.45" font-family="Times,serif" font-size="9.00">node = 0x6289b99cb310</text>
<polyline fill="none" stroke="black" points="222.75,-74.5 222.75,-93"/>
<text text-anchor="middle" x="277.62" y="-80.45" font-family="Times,serif" font-size="9.00">parent = 0x6289b99cb2d0</text>
<polyline fill="none" stroke="black" points="332.5,-74.5 332.5,-93"/>
<text text-anchor="middle" x="384.38" y="-80.45" font-family="Times,serif" font-size="9.00">right = 0x6289b99cb350</text>
</g>
<!-- node_0x6289b99cb2d0&#45;&gt;node_0x6289b99cb310 -->
<g id="edge2" class="edge">
<title>node_0x6289b99cb2d0&#45;&gt;node_0x6289b99cb310</title>
<path fill="none" stroke="black" d="M568.49,-148.02C500.66,-137.56 415.1,-124.37 345.52,-113.64"/>
<polygon fill="black" stroke="black" points="346.4,-110.24 335.99,-112.17 345.34,-117.15 346.4,-110.24"/>
</g>
<!-- node_0x6289b99cb390 -->
<g id="node5" class="node">
<title>node_0x6289b99cb390</title>
<polygon fill="#bdef9e" stroke="black" points="454.38,-74.5 454.38,-111.5 937.88,-111.5 937.88,-74.5 454.38,-74.5"/>
<text text-anchor="middle" x="696.12" y="-98.95" font-family="Times,serif" font-size="9.00">+</text>
<polyline fill="none" stroke="black" points="454.38,-93 937.88,-93"/>
<text text-anchor="middle" x="487.12" y="-80.45" font-family="Times,serif" font-size="9.00">type = 3 (OP)</text>
<polyline fill="none" stroke="black" points="519.88,-74.5 519.88,-93"/>
<text text-anchor="middle" x="569.5" y="-80.45" font-family="Times,serif" font-size="9.00">left = 0x6289b99cb3d0</text>
<polyline fill="none" stroke="black" points="619.12,-74.5 619.12,-93"/>
<text text-anchor="middle" x="671.75" y="-80.45" font-family="Times,serif" font-size="9.00">node = 0x6289b99cb390</text>
<polyline fill="none" stroke="black" points="724.38,-74.5 724.38,-93"/>
<text text-anchor="middle" x="779.25" y="-80.45" font-family="Times,serif" font-size="9.00">parent = 0x6289b99cb2d0</text>
<polyline fill="none" stroke="black" points="834.12,-74.5 834.12,-93"/>
<text text-anchor="middle" x="886" y="-80.45" font-family="Times,serif" font-size="9.00">right = 0x6289b99cb410</text>
</g>
<!-- node_0x6289b99cb2d0&#45;&gt;node_0x6289b99cb390 -->
<g id="edge4" class="edge">
<title>node_0x6289b99cb2d0&#45;&gt;node_0x6289b99cb390</title>
<path fill="none" stroke="black" d="M687.84,-148.2C689.01,-140.59 690.4,-131.5 691.7,-122.96"/>
<polygon fill="black" stroke="black" points="695.12,-123.75 693.17,-113.34 688.2,-122.7 695.12,-123.75"/>
</g>
<!-- node_0x6289b99cb350 -->
<g id="node4" class="node">
<title>node_0x6289b99cb350</title>
<polygon fill="yellow" stroke="black" points="20.25,-0.5 20.25,-37.5 416,-37.5 416,-0.5 20.25,-0.5"/>
<text text-anchor="middle" x="218.12" y="-24.95" font-family="Times,serif" font-size="9.00">x</text>
<polyline fill="none" stroke="black" points="20.25,-19 416,-19"/>
<text text-anchor="middle" x="56.38" y="-6.45" font-family="Times,serif" font-size="9.00">type = 2 (VAR)</text>
<polyline fill="none" stroke="black" points="92.5,-0.5 92.5,-19"/>
<text text-anchor="middle" x="118.5" y="-6.45" font-family="Times,serif" font-size="9.00">left = (nil)</text>
<polyline fill="none" stroke="black" points="144.5,-0.5 144.5,-19"/>
<text text-anchor="middle" x="197.12" y="-6.45" font-family="Times,serif" font-size="9.00">node = 0x6289b99cb350</text>
<polyline fill="none" stroke="black" points="249.75,-0.5 249.75,-19"/>
<text text-anchor="middle" x="304.62" y="-6.45" font-family="Times,serif" font-size="9.00">parent = 0x6289b99cb310</text>
<polyline fill="none" stroke="black" points="359.5,-0.5 359.5,-19"/>
<text text-anchor="middle" x="387.75" y="-6.45" font-family="Times,serif" font-size="9.00">right = (nil)</text>
</g>
<!-- node_0x6289b99cb310&#45;&gt;node_0x6289b99cb350 -->
<g id="edge3" class="edge">
<title>node_0x6289b99cb310&#45;&gt;node_0x6289b99cb350</title>
<path fill="none" stroke="black" d="M218.12,-74.2C218.12,-66.67 218.12,-57.7 218.12,-49.25"/>
<polygon fill="black" stroke="black" points="221.63,-49.36 218.13,-39.36 214.63,-49.36 221.63,-49.36"/>
</g>
<!-- node_0x6289b99cb3d0 -->
<g id="node6" class="node">
<title>node_0x6289b99cb3d0</title>
<polygon fill="yellow" stroke="black" points="466.25,-0.5 466.25,-37.5 862,-37.5 862,-0.5 466.25,-0.5"/>
<text text-anchor="middle" x="664.12" y="-24.95" font-family="Times,serif" font-size="9.00">x</text>
<polyline fill="none" stroke="black" points="466.25,-19 862,-19"/>
<text text-anchor="middle" x="502.38" y="-6.45" font-family="Times,serif" font-size="9.00">type = 2 (VAR)</text>
<polyline fill="none" stroke="black" points="538.5,-0.5 538.5,-19"/>
<text text-anchor="middle" x="564.5" y="-6.45" font-family="Times,serif" font-size="9.00">left = (nil)</text>
<polyline fill="none" stroke="black" points="590.5,-0.5 590.5,-19"/>
<text text-anchor="middle" x="643.12" y="-6.45" font-family="Times,serif" font-size="9.00">node = 0x6289b99cb3d0</text>
<polyline fill="none" stroke="black" points="695.75,-0.5 695.75,-19"/>
<text text-anchor="middle" x="750.62" y="-6.45" font-family="Times,serif" font-size="9.00">parent = 0x6289b99cb390</text>
<polyline fill="none" stroke="black" points="805.5,-0.5 805.5,-19"/>
<text text-anchor="middle" x="833.75" y="-6.45" font-family="Times,serif" font-size="9.00">right = (nil)</text>
</g>
<!-- node_0x6289b99cb390&#45;&gt;node_0x6289b99cb3d0 -->
<g id="edge5" class="edge">
<title>node_0x6289b99cb390&#45;&gt;node_0x6289b99cb3d0</title>
<path fill="none" stroke="black" d="M688.21,-74.2C684.71,-66.33 680.51,-56.88 676.61,-48.09"/>
<polygon fill="black" stroke="black" points="679.93,-46.94 672.67,-39.23 673.53,-49.79 679.93,-46.94"/>
</g>
<!-- node_0x6289b99cb410 -->
<g id="node7" class="node">
<title>node_0x6289b99cb410</title>
<polygon fill="blue" stroke="black" points="879.75,-0.5 879.75,-37.5 1278.5,-37.5 1278.5,-0.5 879.75,-0.5"/>
<text text-anchor="middle" x="1079.12" y="-24.95" font-family="Times,serif" font-size="9.00">1</text>
<polyline fill="none" stroke="black" points="879.75,-19 1278.5,-19"/>
<text text-anchor="middle" x="917.38" y="-6.45" font-family="Times,serif" font-size="9.00">type = 1 (NUM)</text>
<polyline fill="none" stroke="black" points="955,-0.5 955,-19"/>
<text text-anchor="middle" x="981" y="-6.45" font-family="Times,serif" font-size="9.00">left = (nil)</text>
<polyline fill="none" stroke="black" points="1007,-0.5 1007,-19"/>
<text text-anchor="middle" x="1059.62" y="-6.45" font-family="Times,serif" font-size="9.00">node = 0x6289b99cb410</text>
<polyline fill="none" stroke="black" points="1112.25,-0.5 1112.25,-19"/>
<text text-anchor="middle" x="1167.12" y="-6.45" font-family="Times,serif" font-size="9.00">parent = 0x6289b99cb390</text>
<polyline fill="none" stroke="black" points="1222,-0.5 1222,-19"/>
<text text-anchor="middle" x="1250.25" y="-6.45" font-family="Times,serif" font-size="9.00">right = (nil)</text>
</g>
<!-- node_0x6289b99cb390&#45;&gt;node_0x6289b99cb410 -->
<g id="edge6" class="edge">
<title>node_0x6289b99cb390&#45;&gt;node_0x6289b99cb410</title>
<path fill="none" stroke="black" d="M791.78,-74.02C846.73,-63.69 915.85,-50.69 972.53,-40.04"/>
<polygon fill="black" stroke="black" points="973.02,-43.51 982.2,-38.22 971.73,-36.63 973.02,-43.51"/>
</g>
<!-- node_0x6289b99cb490 -->
<g id="node9" class="node">
<title>node_0x6289b99cb490</title>
<polygon fill="yellow" stroke="black" points="978.25,-74.5 978.25,-111.5 1374,-111.5 1374,-74.5 978.25,-74.5"/>
<text text-anchor="middle" x="1176.12" y="-98.95" font-family="Times,serif" font-size="9.00">x</text>
<polyline fill="none" stroke="black" points="978.25,-93 1374,-93"/>
<text text-anchor="middle" x="1014.38" y="-80.45" font-family="Times,serif" font-size="9.00">type = 2 (VAR)</text>
<polyline fill="none" stroke="black" points="1050.5,-74.5 1050.5,-93"/>
<text text-anchor="middle" x="1076.5" y="-80.45" font-family="Times,serif" font-size="9.00">left = (nil)</text>
<polyline fill="none" stroke="black" points="1102.5,-74.5 1102.5,-93"/>
<text text-anchor="middle" x="1155.12" y="-80.45" font-family="Times,serif" font-size="9.00">node = 0x6289b99cb490</text>
<polyline fill="none" stroke="black" points="1207.75,-74.5 1207.75,-93"/>
<text text-anchor="middle" x="1262.62" y="-80.45" font-family="Times,serif" font-size="9.00">parent = 0x6289b99cb450</text>
<polyline fill="none" stroke="black" points="1317.5,-74.5 1317.5,-93"/>
<text text-anchor="middle" x="1345.75" y="-80.45" font-family="Times,serif" font-size="9.00">right = (nil)</text>
</g>
<!-- node_0x6289b99cb450&#45;&gt;node_0x6289b99cb490 -->
<g id="edge8" class="edge">
<title>node_0x6289b99cb450&#45;&gt;node_0x6289b99cb490</title>
<path fill="none" stroke="black" d="M1184.41,-148.2C1183.24,-140.59 1181.85,-131.5 1180.55,-122.96"/>
<polygon fill="black" stroke="black" points="1184.05,-122.7 1179.08,-113.34 1177.13,-123.75 1184.05,-122.7"/>
</g>
<!-- node_0x6289b99cb4d0 -->
<g id="node10" class="node">
<title>node_0x6289b99cb4d0</title>
<polygon fill="blue" stroke="black" points="1391.75,-74.5 1391.75,-111.5 1790.5,-111.5 1790.5,-74.5 1391.75,-74.5"/>
<text text-anchor="middle" x="1591.12" y="-98.95" font-family="Times,serif" font-size="9.00">50</text>
<polyline fill="none" stroke="black" points="1391.75,-93 1790.5,-93"/>
<text text-anchor="middle" x="1429.38" y="-80.45" font-family="Times,serif" font-size="9.00">type = 1 (NUM)</text>
<polyline fill="none" stroke="black" points="1467,-74.5 1467,-93"/>
<text text-anchor="middle" x="1493" y="-80.45" font-family="Times,serif" font-size="9.00">left = (nil)</text>
<polyline fill="none" stroke="black" points="1519,-74.5 1519,-93"/>
<text text-anchor="middle" x="1571.62" y="-80.45" font-family="Times,serif" font-size="9.00">node = 0x6289b99cb4d0</text>
<polyline fill="none" stroke="black" points="1624.25,-74.5 1624.25,-93"/>
<text text-anchor="middle" x="1679.12" y="-80.45" font-family="Times,serif" font-size="9.00">parent = 0x6289b99cb450</text>
<polyline fill="none" stroke="black" points="1734,-74.5 1734,-93"/>
<text text-anchor="middle" x="1762.25" y="-80.45" font-family="Times,serif" font-size="9.00">right = (nil)</text>
</g>
<!-- node_0x6289b99cb450&#45;&gt;node_0x6289b99cb4d0 -->
<g id="edge9" class="edge">
<title>node_0x6289b99cb450&#45;&gt;node_0x6289b99cb4d0</title>
<path fill="none" stroke="black" d="M1288.03,-148.02C1346.22,-137.65 1419.5,-124.59 1479.43,-113.91"/>
<polygon fill="black" stroke="black" points="1479.74,-117.41 1488.97,-112.21 1478.51,-110.52 1479.74,-117.41"/>
</g>
</g>
</svg>
