<?xml version="1.0" encoding="UTF-8" standalone="no"?>
<!DOCTYPE svg PUBLIC "-//W3C//DTD SVG 1.1//EN"
 "http://www.w3.org/Graphics/SVG/1.1/DTD/svg11.dtd">
<!-- Generated by graphviz version 12.1.2 (0)
 -->
<!-- Pages: 1 -->
<svg width="1703pt" height="268pt"
 viewBox="0.00 0.00 1702.75 268.00" xmlns="http://www.w3.org/2000/svg" xmlns:xlink="http://www.w3.org/1999/xlink">
<g id="graph0" class="graph" transform="scale(1 1) rotate(0) translate(4 264)">
<polygon fill="white" stroke="none" points="-4,4 -4,-264 1698.75,-264 1698.75,4 -4,4"/>
<!-- node_0x5eb41b24aa10 -->
<g id="node1" class="node">
<title>node_0x5eb41b24aa10</title>
<polygon fill="#bdef9e" stroke="black" points="625,-222.5 625,-259.5 1056,-259.5 1056,-222.5 625,-222.5"/>
<text text-anchor="middle" x="840.5" y="-246.95" font-family="Times,serif" font-size="9.00">/</text>
<polyline fill="none" stroke="black" points="625,-241 1056,-241"/>
<text text-anchor="middle" x="657.75" y="-228.45" font-family="Times,serif" font-size="9.00">type = 3 (OP)</text>
<polyline fill="none" stroke="black" points="690.5,-222.5 690.5,-241"/>
<text text-anchor="middle" x="739.38" y="-228.45" font-family="Times,serif" font-size="9.00">left = 0x5eb41b24ae60</text>
<polyline fill="none" stroke="black" points="788.25,-222.5 788.25,-241"/>
<text text-anchor="middle" x="840.12" y="-228.45" font-family="Times,serif" font-size="9.00">node = 0x5eb41b24aa10</text>
<polyline fill="none" stroke="black" points="892,-222.5 892,-241"/>
<text text-anchor="middle" x="923.25" y="-228.45" font-family="Times,serif" font-size="9.00">parent = (nil)</text>
<polyline fill="none" stroke="black" points="954.5,-222.5 954.5,-241"/>
<text text-anchor="middle" x="1005.25" y="-228.45" font-family="Times,serif" font-size="9.00">right = 0x5eb41b24af20</text>
</g>
<!-- node_0x5eb41b24ae60 -->
<g id="node2" class="node">
<title>node_0x5eb41b24ae60</title>
<polygon fill="#bdef9e" stroke="black" points="356.5,-148.5 356.5,-185.5 832.5,-185.5 832.5,-148.5 356.5,-148.5"/>
<text text-anchor="middle" x="594.5" y="-172.95" font-family="Times,serif" font-size="9.00">+</text>
<polyline fill="none" stroke="black" points="356.5,-167 832.5,-167"/>
<text text-anchor="middle" x="389.25" y="-154.45" font-family="Times,serif" font-size="9.00">type = 3 (OP)</text>
<polyline fill="none" stroke="black" points="422,-148.5 422,-167"/>
<text text-anchor="middle" x="470.5" y="-154.45" font-family="Times,serif" font-size="9.00">left = 0x5eb41b24aea0</text>
<polyline fill="none" stroke="black" points="519,-148.5 519,-167"/>
<text text-anchor="middle" x="570.88" y="-154.45" font-family="Times,serif" font-size="9.00">node = 0x5eb41b24ae60</text>
<polyline fill="none" stroke="black" points="622.75,-148.5 622.75,-167"/>
<text text-anchor="middle" x="676.88" y="-154.45" font-family="Times,serif" font-size="9.00">parent = 0x5eb41b24aa10</text>
<polyline fill="none" stroke="black" points="731,-148.5 731,-167"/>
<text text-anchor="middle" x="781.75" y="-154.45" font-family="Times,serif" font-size="9.00">right = 0x5eb41b24aee0</text>
</g>
<!-- node_0x5eb41b24aa10&#45;&gt;node_0x5eb41b24ae60 -->
<g id="edge1" class="edge">
<title>node_0x5eb41b24aa10&#45;&gt;node_0x5eb41b24ae60</title>
<path fill="none" stroke="black" d="M779.06,-222.02C744.88,-212.01 702.16,-199.51 666.43,-189.05"/>
<polygon fill="black" stroke="black" points="667.62,-185.75 657.04,-186.3 665.65,-192.47 667.62,-185.75"/>
</g>
<!-- node_0x5eb41b24af20 -->
<g id="node5" class="node">
<title>node_0x5eb41b24af20</title>
<polygon fill="#bdef9e" stroke="black" points="850.25,-148.5 850.25,-185.5 1324.75,-185.5 1324.75,-148.5 850.25,-148.5"/>
<text text-anchor="middle" x="1087.5" y="-172.95" font-family="Times,serif" font-size="9.00">+</text>
<polyline fill="none" stroke="black" points="850.25,-167 1324.75,-167"/>
<text text-anchor="middle" x="883" y="-154.45" font-family="Times,serif" font-size="9.00">type = 3 (OP)</text>
<polyline fill="none" stroke="black" points="915.75,-148.5 915.75,-167"/>
<text text-anchor="middle" x="964.25" y="-154.45" font-family="Times,serif" font-size="9.00">left = 0x5eb41b24af60</text>
<polyline fill="none" stroke="black" points="1012.75,-148.5 1012.75,-167"/>
<text text-anchor="middle" x="1064.25" y="-154.45" font-family="Times,serif" font-size="9.00">node = 0x5eb41b24af20</text>
<polyline fill="none" stroke="black" points="1115.75,-148.5 1115.75,-167"/>
<text text-anchor="middle" x="1169.88" y="-154.45" font-family="Times,serif" font-size="9.00">parent = 0x5eb41b24aa10</text>
<polyline fill="none" stroke="black" points="1224,-148.5 1224,-167"/>
<text text-anchor="middle" x="1274.38" y="-154.45" font-family="Times,serif" font-size="9.00">right = 0x5eb41b24afe0</text>
</g>
<!-- node_0x5eb41b24aa10&#45;&gt;node_0x5eb41b24af20 -->
<g id="edge4" class="edge">
<title>node_0x5eb41b24aa10&#45;&gt;node_0x5eb41b24af20</title>
<path fill="none" stroke="black" d="M902.19,-222.02C936.51,-212.01 979.4,-199.51 1015.28,-189.05"/>
<polygon fill="black" stroke="black" points="1016.09,-192.46 1024.71,-186.3 1014.13,-185.74 1016.09,-192.46"/>
</g>
<!-- node_0x5eb41b24aea0 -->
<g id="node3" class="node">
<title>node_0x5eb41b24aea0</title>
<polygon fill="blue" stroke="black" points="0,-74.5 0,-111.5 395,-111.5 395,-74.5 0,-74.5"/>
<text text-anchor="middle" x="197.5" y="-98.95" font-family="Times,serif" font-size="9.00">30</text>
<polyline fill="none" stroke="black" points="0,-93 395,-93"/>
<text text-anchor="middle" x="37.62" y="-80.45" font-family="Times,serif" font-size="9.00">type = 1 (NUM)</text>
<polyline fill="none" stroke="black" points="75.25,-74.5 75.25,-93"/>
<text text-anchor="middle" x="101.25" y="-80.45" font-family="Times,serif" font-size="9.00">left = (nil)</text>
<polyline fill="none" stroke="black" points="127.25,-74.5 127.25,-93"/>
<text text-anchor="middle" x="178.75" y="-80.45" font-family="Times,serif" font-size="9.00">node = 0x5eb41b24aea0</text>
<polyline fill="none" stroke="black" points="230.25,-74.5 230.25,-93"/>
<text text-anchor="middle" x="284.38" y="-80.45" font-family="Times,serif" font-size="9.00">parent = 0x5eb41b24ae60</text>
<polyline fill="none" stroke="black" points="338.5,-74.5 338.5,-93"/>
<text text-anchor="middle" x="366.75" y="-80.45" font-family="Times,serif" font-size="9.00">right = (nil)</text>
</g>
<!-- node_0x5eb41b24ae60&#45;&gt;node_0x5eb41b24aea0 -->
<g id="edge2" class="edge">
<title>node_0x5eb41b24ae60&#45;&gt;node_0x5eb41b24aea0</title>
<path fill="none" stroke="black" d="M495.34,-148.02C438.28,-137.67 366.45,-124.64 307.63,-113.97"/>
<polygon fill="black" stroke="black" points="308.38,-110.55 297.91,-112.21 307.13,-117.44 308.38,-110.55"/>
</g>
<!-- node_0x5eb41b24aee0 -->
<g id="node4" class="node">
<title>node_0x5eb41b24aee0</title>
<polygon fill="blue" stroke="black" points="413,-74.5 413,-111.5 808,-111.5 808,-74.5 413,-74.5"/>
<text text-anchor="middle" x="610.5" y="-98.95" font-family="Times,serif" font-size="9.00">50</text>
<polyline fill="none" stroke="black" points="413,-93 808,-93"/>
<text text-anchor="middle" x="450.62" y="-80.45" font-family="Times,serif" font-size="9.00">type = 1 (NUM)</text>
<polyline fill="none" stroke="black" points="488.25,-74.5 488.25,-93"/>
<text text-anchor="middle" x="514.25" y="-80.45" font-family="Times,serif" font-size="9.00">left = (nil)</text>
<polyline fill="none" stroke="black" points="540.25,-74.5 540.25,-93"/>
<text text-anchor="middle" x="591.75" y="-80.45" font-family="Times,serif" font-size="9.00">node = 0x5eb41b24aee0</text>
<polyline fill="none" stroke="black" points="643.25,-74.5 643.25,-93"/>
<text text-anchor="middle" x="697.38" y="-80.45" font-family="Times,serif" font-size="9.00">parent = 0x5eb41b24ae60</text>
<polyline fill="none" stroke="black" points="751.5,-74.5 751.5,-93"/>
<text text-anchor="middle" x="779.75" y="-80.45" font-family="Times,serif" font-size="9.00">right = (nil)</text>
</g>
<!-- node_0x5eb41b24ae60&#45;&gt;node_0x5eb41b24aee0 -->
<g id="edge3" class="edge">
<title>node_0x5eb41b24ae60&#45;&gt;node_0x5eb41b24aee0</title>
<path fill="none" stroke="black" d="M598.46,-148.2C600.15,-140.59 602.17,-131.5 604.07,-122.96"/>
<polygon fill="black" stroke="black" points="607.45,-123.84 606.21,-113.32 600.62,-122.32 607.45,-123.84"/>
</g>
<!-- node_0x5eb41b24af60 -->
<g id="node6" class="node">
<title>node_0x5eb41b24af60</title>
<polygon fill="#bdef9e" stroke="black" points="857.12,-74.5 857.12,-111.5 1285.88,-111.5 1285.88,-74.5 857.12,-74.5"/>
<text text-anchor="middle" x="1071.5" y="-98.95" font-family="Times,serif" font-size="9.00">sin</text>
<polyline fill="none" stroke="black" points="857.12,-93 1285.88,-93"/>
<text text-anchor="middle" x="889.88" y="-80.45" font-family="Times,serif" font-size="9.00">type = 3 (OP)</text>
<polyline fill="none" stroke="black" points="922.62,-74.5 922.62,-93"/>
<text text-anchor="middle" x="948.62" y="-80.45" font-family="Times,serif" font-size="9.00">left = (nil)</text>
<polyline fill="none" stroke="black" points="974.62,-74.5 974.62,-93"/>
<text text-anchor="middle" x="1026.12" y="-80.45" font-family="Times,serif" font-size="9.00">node = 0x5eb41b24af60</text>
<polyline fill="none" stroke="black" points="1077.62,-74.5 1077.62,-93"/>
<text text-anchor="middle" x="1131.38" y="-80.45" font-family="Times,serif" font-size="9.00">parent = 0x5eb41b24af20</text>
<polyline fill="none" stroke="black" points="1185.12,-74.5 1185.12,-93"/>
<text text-anchor="middle" x="1235.5" y="-80.45" font-family="Times,serif" font-size="9.00">right = 0x5eb41b24afa0</text>
</g>
<!-- node_0x5eb41b24af20&#45;&gt;node_0x5eb41b24af60 -->
<g id="edge5" class="edge">
<title>node_0x5eb41b24af20&#45;&gt;node_0x5eb41b24af60</title>
<path fill="none" stroke="black" d="M1083.54,-148.2C1081.85,-140.59 1079.83,-131.5 1077.93,-122.96"/>
<polygon fill="black" stroke="black" points="1081.38,-122.32 1075.79,-113.32 1074.55,-123.84 1081.38,-122.32"/>
</g>
<!-- node_0x5eb41b24afe0 -->
<g id="node8" class="node">
<title>node_0x5eb41b24afe0</title>
<polygon fill="yellow" stroke="black" points="1304.25,-74.5 1304.25,-111.5 1694.75,-111.5 1694.75,-74.5 1304.25,-74.5"/>
<text text-anchor="middle" x="1499.5" y="-98.95" font-family="Times,serif" font-size="9.00">x</text>
<polyline fill="none" stroke="black" points="1304.25,-93 1694.75,-93"/>
<text text-anchor="middle" x="1340.38" y="-80.45" font-family="Times,serif" font-size="9.00">type = 2 (VAR)</text>
<polyline fill="none" stroke="black" points="1376.5,-74.5 1376.5,-93"/>
<text text-anchor="middle" x="1402.5" y="-80.45" font-family="Times,serif" font-size="9.00">left = (nil)</text>
<polyline fill="none" stroke="black" points="1428.5,-74.5 1428.5,-93"/>
<text text-anchor="middle" x="1479.62" y="-80.45" font-family="Times,serif" font-size="9.00">node = 0x5eb41b24afe0</text>
<polyline fill="none" stroke="black" points="1530.75,-74.5 1530.75,-93"/>
<text text-anchor="middle" x="1584.5" y="-80.45" font-family="Times,serif" font-size="9.00">parent = 0x5eb41b24af20</text>
<polyline fill="none" stroke="black" points="1638.25,-74.5 1638.25,-93"/>
<text text-anchor="middle" x="1666.5" y="-80.45" font-family="Times,serif" font-size="9.00">right = (nil)</text>
</g>
<!-- node_0x5eb41b24af20&#45;&gt;node_0x5eb41b24afe0 -->
<g id="edge7" class="edge">
<title>node_0x5eb41b24af20&#45;&gt;node_0x5eb41b24afe0</title>
<path fill="none" stroke="black" d="M1190.4,-148.02C1249.75,-137.65 1324.48,-124.59 1385.59,-113.91"/>
<polygon fill="black" stroke="black" points="1386.1,-117.37 1395.35,-112.2 1384.89,-110.48 1386.1,-117.37"/>
</g>
<!-- node_0x5eb41b24afa0 -->
<g id="node7" class="node">
<title>node_0x5eb41b24afa0</title>
<polygon fill="yellow" stroke="black" points="876.25,-0.5 876.25,-37.5 1266.75,-37.5 1266.75,-0.5 876.25,-0.5"/>
<text text-anchor="middle" x="1071.5" y="-24.95" font-family="Times,serif" font-size="9.00">x</text>
<polyline fill="none" stroke="black" points="876.25,-19 1266.75,-19"/>
<text text-anchor="middle" x="912.38" y="-6.45" font-family="Times,serif" font-size="9.00">type = 2 (VAR)</text>
<polyline fill="none" stroke="black" points="948.5,-0.5 948.5,-19"/>
<text text-anchor="middle" x="974.5" y="-6.45" font-family="Times,serif" font-size="9.00">left = (nil)</text>
<polyline fill="none" stroke="black" points="1000.5,-0.5 1000.5,-19"/>
<text text-anchor="middle" x="1051.62" y="-6.45" font-family="Times,serif" font-size="9.00">node = 0x5eb41b24afa0</text>
<polyline fill="none" stroke="black" points="1102.75,-0.5 1102.75,-19"/>
<text text-anchor="middle" x="1156.5" y="-6.45" font-family="Times,serif" font-size="9.00">parent = 0x5eb41b24af60</text>
<polyline fill="none" stroke="black" points="1210.25,-0.5 1210.25,-19"/>
<text text-anchor="middle" x="1238.5" y="-6.45" font-family="Times,serif" font-size="9.00">right = (nil)</text>
</g>
<!-- node_0x5eb41b24af60&#45;&gt;node_0x5eb41b24afa0 -->
<g id="edge6" class="edge">
<title>node_0x5eb41b24af60&#45;&gt;node_0x5eb41b24afa0</title>
<path fill="none" stroke="black" d="M1071.5,-74.2C1071.5,-66.67 1071.5,-57.7 1071.5,-49.25"/>
<polygon fill="black" stroke="black" points="1075,-49.36 1071.5,-39.36 1068,-49.36 1075,-49.36"/>
</g>
</g>
</svg>
