<?xml version="1.0" encoding="UTF-8" standalone="no"?>
<!DOCTYPE svg PUBLIC "-//W3C//DTD SVG 1.1//EN"
 "http://www.w3.org/Graphics/SVG/1.1/DTD/svg11.dtd">
<!-- Generated by graphviz version 12.1.2 (0)
 -->
<!-- Pages: 1 -->
<svg width="1782pt" height="268pt"
 viewBox="0.00 0.00 1782.12 268.00" xmlns="http://www.w3.org/2000/svg" xmlns:xlink="http://www.w3.org/1999/xlink">
<g id="graph0" class="graph" transform="scale(1 1) rotate(0) translate(4 264)">
<polygon fill="white" stroke="none" points="-4,4 -4,-264 1778.12,-264 1778.12,4 -4,4"/>
<!-- node_0x6289b99c9a10 -->
<g id="node1" class="node">
<title>node_0x6289b99c9a10</title>
<polygon fill="#bdef9e" stroke="black" points="710,-222.5 710,-259.5 1142.5,-259.5 1142.5,-222.5 710,-222.5"/>
<text text-anchor="middle" x="926.25" y="-246.95" font-family="Times,serif" font-size="9.00">^</text>
<polyline fill="none" stroke="black" points="710,-241 1142.5,-241"/>
<text text-anchor="middle" x="742.75" y="-228.45" font-family="Times,serif" font-size="9.00">type = 3 (OP)</text>
<polyline fill="none" stroke="black" points="775.5,-222.5 775.5,-241"/>
<text text-anchor="middle" x="824.75" y="-228.45" font-family="Times,serif" font-size="9.00">left = 0x6289b99c9e60</text>
<polyline fill="none" stroke="black" points="874,-222.5 874,-241"/>
<text text-anchor="middle" x="926.25" y="-228.45" font-family="Times,serif" font-size="9.00">node = 0x6289b99c9a10</text>
<polyline fill="none" stroke="black" points="978.5,-222.5 978.5,-241"/>
<text text-anchor="middle" x="1009.75" y="-228.45" font-family="Times,serif" font-size="9.00">parent = (nil)</text>
<polyline fill="none" stroke="black" points="1041,-222.5 1041,-241"/>
<text text-anchor="middle" x="1091.75" y="-228.45" font-family="Times,serif" font-size="9.00">right = 0x6289b99c9fe0</text>
</g>
<!-- node_0x6289b99c9e60 -->
<g id="node2" class="node">
<title>node_0x6289b99c9e60</title>
<polygon fill="#bdef9e" stroke="black" points="438.75,-148.5 438.75,-185.5 917.75,-185.5 917.75,-148.5 438.75,-148.5"/>
<text text-anchor="middle" x="678.25" y="-172.95" font-family="Times,serif" font-size="9.00">+</text>
<polyline fill="none" stroke="black" points="438.75,-167 917.75,-167"/>
<text text-anchor="middle" x="471.5" y="-154.45" font-family="Times,serif" font-size="9.00">type = 3 (OP)</text>
<polyline fill="none" stroke="black" points="504.25,-148.5 504.25,-167"/>
<text text-anchor="middle" x="553.12" y="-154.45" font-family="Times,serif" font-size="9.00">left = 0x6289b99c9ea0</text>
<polyline fill="none" stroke="black" points="602,-148.5 602,-167"/>
<text text-anchor="middle" x="654.25" y="-154.45" font-family="Times,serif" font-size="9.00">node = 0x6289b99c9e60</text>
<polyline fill="none" stroke="black" points="706.5,-148.5 706.5,-167"/>
<text text-anchor="middle" x="761" y="-154.45" font-family="Times,serif" font-size="9.00">parent = 0x6289b99c9a10</text>
<polyline fill="none" stroke="black" points="815.5,-148.5 815.5,-167"/>
<text text-anchor="middle" x="866.62" y="-154.45" font-family="Times,serif" font-size="9.00">right = 0x6289b99c9f20</text>
</g>
<!-- node_0x6289b99c9a10&#45;&gt;node_0x6289b99c9e60 -->
<g id="edge1" class="edge">
<title>node_0x6289b99c9a10&#45;&gt;node_0x6289b99c9e60</title>
<path fill="none" stroke="black" d="M864.31,-222.02C829.85,-212.01 786.79,-199.51 750.77,-189.05"/>
<polygon fill="black" stroke="black" points="751.86,-185.73 741.28,-186.3 749.91,-192.45 751.86,-185.73"/>
</g>
<!-- node_0x6289b99c9fe0 -->
<g id="node8" class="node">
<title>node_0x6289b99c9fe0</title>
<polygon fill="#bdef9e" stroke="black" points="935.75,-148.5 935.75,-185.5 1414.75,-185.5 1414.75,-148.5 935.75,-148.5"/>
<text text-anchor="middle" x="1175.25" y="-172.95" font-family="Times,serif" font-size="9.00">+</text>
<polyline fill="none" stroke="black" points="935.75,-167 1414.75,-167"/>
<text text-anchor="middle" x="968.5" y="-154.45" font-family="Times,serif" font-size="9.00">type = 3 (OP)</text>
<polyline fill="none" stroke="black" points="1001.25,-148.5 1001.25,-167"/>
<text text-anchor="middle" x="1050.5" y="-154.45" font-family="Times,serif" font-size="9.00">left = 0x6289b99ca020</text>
<polyline fill="none" stroke="black" points="1099.75,-148.5 1099.75,-167"/>
<text text-anchor="middle" x="1151.25" y="-154.45" font-family="Times,serif" font-size="9.00">node = 0x6289b99c9fe0</text>
<polyline fill="none" stroke="black" points="1202.75,-148.5 1202.75,-167"/>
<text text-anchor="middle" x="1257.25" y="-154.45" font-family="Times,serif" font-size="9.00">parent = 0x6289b99c9a10</text>
<polyline fill="none" stroke="black" points="1311.75,-148.5 1311.75,-167"/>
<text text-anchor="middle" x="1363.25" y="-154.45" font-family="Times,serif" font-size="9.00">right = 0x6289b99ca060</text>
</g>
<!-- node_0x6289b99c9a10&#45;&gt;node_0x6289b99c9fe0 -->
<g id="edge7" class="edge">
<title>node_0x6289b99c9a10&#45;&gt;node_0x6289b99c9fe0</title>
<path fill="none" stroke="black" d="M988.44,-222.02C1023.03,-212.01 1066.28,-199.51 1102.44,-189.05"/>
<polygon fill="black" stroke="black" points="1103.33,-192.44 1111.97,-186.3 1101.39,-185.71 1103.33,-192.44"/>
</g>
<!-- node_0x6289b99c9ea0 -->
<g id="node3" class="node">
<title>node_0x6289b99c9ea0</title>
<polygon fill="#bdef9e" stroke="black" points="0,-74.5 0,-111.5 432.5,-111.5 432.5,-74.5 0,-74.5"/>
<text text-anchor="middle" x="216.25" y="-98.95" font-family="Times,serif" font-size="9.00">sin</text>
<polyline fill="none" stroke="black" points="0,-93 432.5,-93"/>
<text text-anchor="middle" x="32.75" y="-80.45" font-family="Times,serif" font-size="9.00">type = 3 (OP)</text>
<polyline fill="none" stroke="black" points="65.5,-74.5 65.5,-93"/>
<text text-anchor="middle" x="91.5" y="-80.45" font-family="Times,serif" font-size="9.00">left = (nil)</text>
<polyline fill="none" stroke="black" points="117.5,-74.5 117.5,-93"/>
<text text-anchor="middle" x="169.38" y="-80.45" font-family="Times,serif" font-size="9.00">node = 0x6289b99c9ea0</text>
<polyline fill="none" stroke="black" points="221.25,-74.5 221.25,-93"/>
<text text-anchor="middle" x="275.75" y="-80.45" font-family="Times,serif" font-size="9.00">parent = 0x6289b99c9e60</text>
<polyline fill="none" stroke="black" points="330.25,-74.5 330.25,-93"/>
<text text-anchor="middle" x="381.38" y="-80.45" font-family="Times,serif" font-size="9.00">right = 0x6289b99c9ee0</text>
</g>
<!-- node_0x6289b99c9e60&#45;&gt;node_0x6289b99c9ea0 -->
<g id="edge2" class="edge">
<title>node_0x6289b99c9e60&#45;&gt;node_0x6289b99c9ea0</title>
<path fill="none" stroke="black" d="M562.86,-148.02C495.9,-137.58 411.47,-124.42 342.7,-113.71"/>
<polygon fill="black" stroke="black" points="343.28,-110.26 332.87,-112.17 342.21,-117.17 343.28,-110.26"/>
</g>
<!-- node_0x6289b99c9f20 -->
<g id="node5" class="node">
<title>node_0x6289b99c9f20</title>
<polygon fill="#bdef9e" stroke="black" points="450.5,-74.5 450.5,-111.5 928,-111.5 928,-74.5 450.5,-74.5"/>
<text text-anchor="middle" x="689.25" y="-98.95" font-family="Times,serif" font-size="9.00">+</text>
<polyline fill="none" stroke="black" points="450.5,-93 928,-93"/>
<text text-anchor="middle" x="483.25" y="-80.45" font-family="Times,serif" font-size="9.00">type = 3 (OP)</text>
<polyline fill="none" stroke="black" points="516,-74.5 516,-93"/>
<text text-anchor="middle" x="564.88" y="-80.45" font-family="Times,serif" font-size="9.00">left = 0x6289b99c9f60</text>
<polyline fill="none" stroke="black" points="613.75,-74.5 613.75,-93"/>
<text text-anchor="middle" x="665.62" y="-80.45" font-family="Times,serif" font-size="9.00">node = 0x6289b99c9f20</text>
<polyline fill="none" stroke="black" points="717.5,-74.5 717.5,-93"/>
<text text-anchor="middle" x="772" y="-80.45" font-family="Times,serif" font-size="9.00">parent = 0x6289b99c9e60</text>
<polyline fill="none" stroke="black" points="826.5,-74.5 826.5,-93"/>
<text text-anchor="middle" x="877.25" y="-80.45" font-family="Times,serif" font-size="9.00">right = 0x6289b99c9fa0</text>
</g>
<!-- node_0x6289b99c9e60&#45;&gt;node_0x6289b99c9f20 -->
<g id="edge4" class="edge">
<title>node_0x6289b99c9e60&#45;&gt;node_0x6289b99c9f20</title>
<path fill="none" stroke="black" d="M680.97,-148.2C682.13,-140.59 683.52,-131.5 684.83,-122.96"/>
<polygon fill="black" stroke="black" points="688.24,-123.75 686.3,-113.34 681.33,-122.7 688.24,-123.75"/>
</g>
<!-- node_0x6289b99c9ee0 -->
<g id="node4" class="node">
<title>node_0x6289b99c9ee0</title>
<polygon fill="yellow" stroke="black" points="19.88,-0.5 19.88,-37.5 412.62,-37.5 412.62,-0.5 19.88,-0.5"/>
<text text-anchor="middle" x="216.25" y="-24.95" font-family="Times,serif" font-size="9.00">x</text>
<polyline fill="none" stroke="black" points="19.88,-19 412.62,-19"/>
<text text-anchor="middle" x="56" y="-6.45" font-family="Times,serif" font-size="9.00">type = 2 (VAR)</text>
<polyline fill="none" stroke="black" points="92.12,-0.5 92.12,-19"/>
<text text-anchor="middle" x="118.12" y="-6.45" font-family="Times,serif" font-size="9.00">left = (nil)</text>
<polyline fill="none" stroke="black" points="144.12,-0.5 144.12,-19"/>
<text text-anchor="middle" x="196" y="-6.45" font-family="Times,serif" font-size="9.00">node = 0x6289b99c9ee0</text>
<polyline fill="none" stroke="black" points="247.88,-0.5 247.88,-19"/>
<text text-anchor="middle" x="302" y="-6.45" font-family="Times,serif" font-size="9.00">parent = 0x6289b99c9ea0</text>
<polyline fill="none" stroke="black" points="356.12,-0.5 356.12,-19"/>
<text text-anchor="middle" x="384.38" y="-6.45" font-family="Times,serif" font-size="9.00">right = (nil)</text>
</g>
<!-- node_0x6289b99c9ea0&#45;&gt;node_0x6289b99c9ee0 -->
<g id="edge3" class="edge">
<title>node_0x6289b99c9ea0&#45;&gt;node_0x6289b99c9ee0</title>
<path fill="none" stroke="black" d="M216.25,-74.2C216.25,-66.67 216.25,-57.7 216.25,-49.25"/>
<polygon fill="black" stroke="black" points="219.75,-49.36 216.25,-39.36 212.75,-49.36 219.75,-49.36"/>
</g>
<!-- node_0x6289b99c9f60 -->
<g id="node6" class="node">
<title>node_0x6289b99c9f60</title>
<polygon fill="yellow" stroke="black" points="461.88,-0.5 461.88,-37.5 854.62,-37.5 854.62,-0.5 461.88,-0.5"/>
<text text-anchor="middle" x="658.25" y="-24.95" font-family="Times,serif" font-size="9.00">x</text>
<polyline fill="none" stroke="black" points="461.88,-19 854.62,-19"/>
<text text-anchor="middle" x="498" y="-6.45" font-family="Times,serif" font-size="9.00">type = 2 (VAR)</text>
<polyline fill="none" stroke="black" points="534.12,-0.5 534.12,-19"/>
<text text-anchor="middle" x="560.12" y="-6.45" font-family="Times,serif" font-size="9.00">left = (nil)</text>
<polyline fill="none" stroke="black" points="586.12,-0.5 586.12,-19"/>
<text text-anchor="middle" x="638" y="-6.45" font-family="Times,serif" font-size="9.00">node = 0x6289b99c9f60</text>
<polyline fill="none" stroke="black" points="689.88,-0.5 689.88,-19"/>
<text text-anchor="middle" x="744" y="-6.45" font-family="Times,serif" font-size="9.00">parent = 0x6289b99c9f20</text>
<polyline fill="none" stroke="black" points="798.12,-0.5 798.12,-19"/>
<text text-anchor="middle" x="826.38" y="-6.45" font-family="Times,serif" font-size="9.00">right = (nil)</text>
</g>
<!-- node_0x6289b99c9f20&#45;&gt;node_0x6289b99c9f60 -->
<g id="edge5" class="edge">
<title>node_0x6289b99c9f20&#45;&gt;node_0x6289b99c9f60</title>
<path fill="none" stroke="black" d="M681.59,-74.2C678.23,-66.41 674.22,-57.08 670.47,-48.38"/>
<polygon fill="black" stroke="black" points="673.7,-47.03 666.53,-39.23 667.27,-49.8 673.7,-47.03"/>
</g>
<!-- node_0x6289b99c9fa0 -->
<g id="node7" class="node">
<title>node_0x6289b99c9fa0</title>
<polygon fill="blue" stroke="black" points="872.75,-0.5 872.75,-37.5 1267.75,-37.5 1267.75,-0.5 872.75,-0.5"/>
<text text-anchor="middle" x="1070.25" y="-24.95" font-family="Times,serif" font-size="9.00">1</text>
<polyline fill="none" stroke="black" points="872.75,-19 1267.75,-19"/>
<text text-anchor="middle" x="910.38" y="-6.45" font-family="Times,serif" font-size="9.00">type = 1 (NUM)</text>
<polyline fill="none" stroke="black" points="948,-0.5 948,-19"/>
<text text-anchor="middle" x="974" y="-6.45" font-family="Times,serif" font-size="9.00">left = (nil)</text>
<polyline fill="none" stroke="black" points="1000,-0.5 1000,-19"/>
<text text-anchor="middle" x="1051.5" y="-6.45" font-family="Times,serif" font-size="9.00">node = 0x6289b99c9fa0</text>
<polyline fill="none" stroke="black" points="1103,-0.5 1103,-19"/>
<text text-anchor="middle" x="1157.12" y="-6.45" font-family="Times,serif" font-size="9.00">parent = 0x6289b99c9f20</text>
<polyline fill="none" stroke="black" points="1211.25,-0.5 1211.25,-19"/>
<text text-anchor="middle" x="1239.5" y="-6.45" font-family="Times,serif" font-size="9.00">right = (nil)</text>
</g>
<!-- node_0x6289b99c9f20&#45;&gt;node_0x6289b99c9fa0 -->
<g id="edge6" class="edge">
<title>node_0x6289b99c9f20&#45;&gt;node_0x6289b99c9fa0</title>
<path fill="none" stroke="black" d="M784.41,-74.02C839.06,-63.69 907.83,-50.69 964.21,-40.04"/>
<polygon fill="black" stroke="black" points="964.65,-43.52 973.83,-38.22 963.35,-36.64 964.65,-43.52"/>
</g>
<!-- node_0x6289b99ca020 -->
<g id="node9" class="node">
<title>node_0x6289b99ca020</title>
<polygon fill="yellow" stroke="black" points="967.88,-74.5 967.88,-111.5 1360.62,-111.5 1360.62,-74.5 967.88,-74.5"/>
<text text-anchor="middle" x="1164.25" y="-98.95" font-family="Times,serif" font-size="9.00">x</text>
<polyline fill="none" stroke="black" points="967.88,-93 1360.62,-93"/>
<text text-anchor="middle" x="1004" y="-80.45" font-family="Times,serif" font-size="9.00">type = 2 (VAR)</text>
<polyline fill="none" stroke="black" points="1040.12,-74.5 1040.12,-93"/>
<text text-anchor="middle" x="1066.12" y="-80.45" font-family="Times,serif" font-size="9.00">left = (nil)</text>
<polyline fill="none" stroke="black" points="1092.12,-74.5 1092.12,-93"/>
<text text-anchor="middle" x="1144.38" y="-80.45" font-family="Times,serif" font-size="9.00">node = 0x6289b99ca020</text>
<polyline fill="none" stroke="black" points="1196.62,-74.5 1196.62,-93"/>
<text text-anchor="middle" x="1250.38" y="-80.45" font-family="Times,serif" font-size="9.00">parent = 0x6289b99c9fe0</text>
<polyline fill="none" stroke="black" points="1304.12,-74.5 1304.12,-93"/>
<text text-anchor="middle" x="1332.38" y="-80.45" font-family="Times,serif" font-size="9.00">right = (nil)</text>
</g>
<!-- node_0x6289b99c9fe0&#45;&gt;node_0x6289b99ca020 -->
<g id="edge8" class="edge">
<title>node_0x6289b99c9fe0&#45;&gt;node_0x6289b99ca020</title>
<path fill="none" stroke="black" d="M1172.53,-148.2C1171.37,-140.59 1169.98,-131.5 1168.67,-122.96"/>
<polygon fill="black" stroke="black" points="1172.17,-122.7 1167.2,-113.34 1165.26,-123.75 1172.17,-122.7"/>
</g>
<!-- node_0x6289b99ca060 -->
<g id="node10" class="node">
<title>node_0x6289b99ca060</title>
<polygon fill="blue" stroke="black" points="1378.38,-74.5 1378.38,-111.5 1774.12,-111.5 1774.12,-74.5 1378.38,-74.5"/>
<text text-anchor="middle" x="1576.25" y="-98.95" font-family="Times,serif" font-size="9.00">50</text>
<polyline fill="none" stroke="black" points="1378.38,-93 1774.12,-93"/>
<text text-anchor="middle" x="1416" y="-80.45" font-family="Times,serif" font-size="9.00">type = 1 (NUM)</text>
<polyline fill="none" stroke="black" points="1453.62,-74.5 1453.62,-93"/>
<text text-anchor="middle" x="1479.62" y="-80.45" font-family="Times,serif" font-size="9.00">left = (nil)</text>
<polyline fill="none" stroke="black" points="1505.62,-74.5 1505.62,-93"/>
<text text-anchor="middle" x="1557.88" y="-80.45" font-family="Times,serif" font-size="9.00">node = 0x6289b99ca060</text>
<polyline fill="none" stroke="black" points="1610.12,-74.5 1610.12,-93"/>
<text text-anchor="middle" x="1663.88" y="-80.45" font-family="Times,serif" font-size="9.00">parent = 0x6289b99c9fe0</text>
<polyline fill="none" stroke="black" points="1717.62,-74.5 1717.62,-93"/>
<text text-anchor="middle" x="1745.88" y="-80.45" font-family="Times,serif" font-size="9.00">right = (nil)</text>
</g>
<!-- node_0x6289b99c9fe0&#45;&gt;node_0x6289b99ca060 -->
<g id="edge9" class="edge">
<title>node_0x6289b99c9fe0&#45;&gt;node_0x6289b99ca060</title>
<path fill="none" stroke="black" d="M1275.4,-148.02C1333.05,-137.67 1405.6,-124.64 1465.01,-113.97"/>
<polygon fill="black" stroke="black" points="1465.62,-117.42 1474.84,-112.21 1464.38,-110.53 1465.62,-117.42"/>
</g>
</g>
</svg>
