<?xml version="1.0" encoding="UTF-8" standalone="no"?>
<!DOCTYPE svg PUBLIC "-//W3C//DTD SVG 1.1//EN"
 "http://www.w3.org/Graphics/SVG/1.1/DTD/svg11.dtd">
<!-- Generated by graphviz version 12.1.2 (0)
 -->
<!-- Pages: 1 -->
<svg width="2117pt" height="268pt"
 viewBox="0.00 0.00 2116.75 268.00" xmlns="http://www.w3.org/2000/svg" xmlns:xlink="http://www.w3.org/1999/xlink">
<g id="graph0" class="graph" transform="scale(1 1) rotate(0) translate(4 264)">
<polygon fill="white" stroke="none" points="-4,4 -4,-264 2112.75,-264 2112.75,4 -4,4"/>
<!-- node_0x5dfcec132290 -->
<g id="node1" class="node">
<title>node_0x5dfcec132290</title>
<polygon fill="#bdef9e" stroke="black" points="622.75,-222.5 622.75,-259.5 1050,-259.5 1050,-222.5 622.75,-222.5"/>
<text text-anchor="middle" x="836.38" y="-246.95" font-family="Times,serif" font-size="9.00">/</text>
<polyline fill="none" stroke="black" points="622.75,-241 1050,-241"/>
<text text-anchor="middle" x="655.5" y="-228.45" font-family="Times,serif" font-size="9.00">type = 3 (OP)</text>
<polyline fill="none" stroke="black" points="688.25,-222.5 688.25,-241"/>
<text text-anchor="middle" x="736.38" y="-228.45" font-family="Times,serif" font-size="9.00">left = 0x5dfcec1322d0</text>
<polyline fill="none" stroke="black" points="784.5,-222.5 784.5,-241"/>
<text text-anchor="middle" x="835.62" y="-228.45" font-family="Times,serif" font-size="9.00">node = 0x5dfcec132290</text>
<polyline fill="none" stroke="black" points="886.75,-222.5 886.75,-241"/>
<text text-anchor="middle" x="918" y="-228.45" font-family="Times,serif" font-size="9.00">parent = (nil)</text>
<polyline fill="none" stroke="black" points="949.25,-222.5 949.25,-241"/>
<text text-anchor="middle" x="999.62" y="-228.45" font-family="Times,serif" font-size="9.00">right = 0x5dfcec132390</text>
</g>
<!-- node_0x5dfcec1322d0 -->
<g id="node2" class="node">
<title>node_0x5dfcec1322d0</title>
<polygon fill="#bdef9e" stroke="black" points="355.62,-148.5 355.62,-185.5 827.12,-185.5 827.12,-148.5 355.62,-148.5"/>
<text text-anchor="middle" x="591.38" y="-172.95" font-family="Times,serif" font-size="9.00">+</text>
<polyline fill="none" stroke="black" points="355.62,-167 827.12,-167"/>
<text text-anchor="middle" x="388.38" y="-154.45" font-family="Times,serif" font-size="9.00">type = 3 (OP)</text>
<polyline fill="none" stroke="black" points="421.12,-148.5 421.12,-167"/>
<text text-anchor="middle" x="469.25" y="-154.45" font-family="Times,serif" font-size="9.00">left = 0x5dfcec132310</text>
<polyline fill="none" stroke="black" points="517.38,-148.5 517.38,-167"/>
<text text-anchor="middle" x="568.5" y="-154.45" font-family="Times,serif" font-size="9.00">node = 0x5dfcec1322d0</text>
<polyline fill="none" stroke="black" points="619.62,-148.5 619.62,-167"/>
<text text-anchor="middle" x="673" y="-154.45" font-family="Times,serif" font-size="9.00">parent = 0x5dfcec132290</text>
<polyline fill="none" stroke="black" points="726.38,-148.5 726.38,-167"/>
<text text-anchor="middle" x="776.75" y="-154.45" font-family="Times,serif" font-size="9.00">right = 0x5dfcec132350</text>
</g>
<!-- node_0x5dfcec132290&#45;&gt;node_0x5dfcec1322d0 -->
<g id="edge1" class="edge">
<title>node_0x5dfcec132290&#45;&gt;node_0x5dfcec1322d0</title>
<path fill="none" stroke="black" d="M775.18,-222.02C741.15,-212.01 698.6,-199.51 663.01,-189.05"/>
<polygon fill="black" stroke="black" points="664.24,-185.77 653.66,-186.31 662.27,-192.48 664.24,-185.77"/>
</g>
<!-- node_0x5dfcec132390 -->
<g id="node5" class="node">
<title>node_0x5dfcec132390</title>
<polygon fill="#bdef9e" stroke="black" points="845.62,-148.5 845.62,-185.5 1317.12,-185.5 1317.12,-148.5 845.62,-148.5"/>
<text text-anchor="middle" x="1081.38" y="-172.95" font-family="Times,serif" font-size="9.00">+</text>
<polyline fill="none" stroke="black" points="845.62,-167 1317.12,-167"/>
<text text-anchor="middle" x="878.38" y="-154.45" font-family="Times,serif" font-size="9.00">type = 3 (OP)</text>
<polyline fill="none" stroke="black" points="911.12,-148.5 911.12,-167"/>
<text text-anchor="middle" x="959.25" y="-154.45" font-family="Times,serif" font-size="9.00">left = 0x5dfcec1323d0</text>
<polyline fill="none" stroke="black" points="1007.38,-148.5 1007.38,-167"/>
<text text-anchor="middle" x="1058.5" y="-154.45" font-family="Times,serif" font-size="9.00">node = 0x5dfcec132390</text>
<polyline fill="none" stroke="black" points="1109.62,-148.5 1109.62,-167"/>
<text text-anchor="middle" x="1163" y="-154.45" font-family="Times,serif" font-size="9.00">parent = 0x5dfcec132290</text>
<polyline fill="none" stroke="black" points="1216.38,-148.5 1216.38,-167"/>
<text text-anchor="middle" x="1266.75" y="-154.45" font-family="Times,serif" font-size="9.00">right = 0x5dfcec132450</text>
</g>
<!-- node_0x5dfcec132290&#45;&gt;node_0x5dfcec132390 -->
<g id="edge4" class="edge">
<title>node_0x5dfcec132290&#45;&gt;node_0x5dfcec132390</title>
<path fill="none" stroke="black" d="M897.57,-222.02C931.6,-212.01 974.15,-199.51 1009.74,-189.05"/>
<polygon fill="black" stroke="black" points="1010.48,-192.48 1019.09,-186.31 1008.51,-185.77 1010.48,-192.48"/>
</g>
<!-- node_0x5dfcec132310 -->
<g id="node3" class="node">
<title>node_0x5dfcec132310</title>
<polygon fill="blue" stroke="black" points="0,-74.5 0,-111.5 392.75,-111.5 392.75,-74.5 0,-74.5"/>
<text text-anchor="middle" x="196.38" y="-98.95" font-family="Times,serif" font-size="9.00">30</text>
<polyline fill="none" stroke="black" points="0,-93 392.75,-93"/>
<text text-anchor="middle" x="37.62" y="-80.45" font-family="Times,serif" font-size="9.00">type = 1 (NUM)</text>
<polyline fill="none" stroke="black" points="75.25,-74.5 75.25,-93"/>
<text text-anchor="middle" x="101.25" y="-80.45" font-family="Times,serif" font-size="9.00">left = (nil)</text>
<polyline fill="none" stroke="black" points="127.25,-74.5 127.25,-93"/>
<text text-anchor="middle" x="178.38" y="-80.45" font-family="Times,serif" font-size="9.00">node = 0x5dfcec132310</text>
<polyline fill="none" stroke="black" points="229.5,-74.5 229.5,-93"/>
<text text-anchor="middle" x="282.88" y="-80.45" font-family="Times,serif" font-size="9.00">parent = 0x5dfcec1322d0</text>
<polyline fill="none" stroke="black" points="336.25,-74.5 336.25,-93"/>
<text text-anchor="middle" x="364.5" y="-80.45" font-family="Times,serif" font-size="9.00">right = (nil)</text>
</g>
<!-- node_0x5dfcec1322d0&#45;&gt;node_0x5dfcec132310 -->
<g id="edge2" class="edge">
<title>node_0x5dfcec1322d0&#45;&gt;node_0x5dfcec132310</title>
<path fill="none" stroke="black" d="M492.72,-148.02C435.94,-137.67 364.47,-124.64 305.95,-113.97"/>
<polygon fill="black" stroke="black" points="306.75,-110.56 296.29,-112.21 305.5,-117.45 306.75,-110.56"/>
</g>
<!-- node_0x5dfcec132350 -->
<g id="node4" class="node">
<title>node_0x5dfcec132350</title>
<polygon fill="blue" stroke="black" points="411,-74.5 411,-111.5 803.75,-111.5 803.75,-74.5 411,-74.5"/>
<text text-anchor="middle" x="607.38" y="-98.95" font-family="Times,serif" font-size="9.00">50</text>
<polyline fill="none" stroke="black" points="411,-93 803.75,-93"/>
<text text-anchor="middle" x="448.62" y="-80.45" font-family="Times,serif" font-size="9.00">type = 1 (NUM)</text>
<polyline fill="none" stroke="black" points="486.25,-74.5 486.25,-93"/>
<text text-anchor="middle" x="512.25" y="-80.45" font-family="Times,serif" font-size="9.00">left = (nil)</text>
<polyline fill="none" stroke="black" points="538.25,-74.5 538.25,-93"/>
<text text-anchor="middle" x="589.38" y="-80.45" font-family="Times,serif" font-size="9.00">node = 0x5dfcec132350</text>
<polyline fill="none" stroke="black" points="640.5,-74.5 640.5,-93"/>
<text text-anchor="middle" x="693.88" y="-80.45" font-family="Times,serif" font-size="9.00">parent = 0x5dfcec1322d0</text>
<polyline fill="none" stroke="black" points="747.25,-74.5 747.25,-93"/>
<text text-anchor="middle" x="775.5" y="-80.45" font-family="Times,serif" font-size="9.00">right = (nil)</text>
</g>
<!-- node_0x5dfcec1322d0&#45;&gt;node_0x5dfcec132350 -->
<g id="edge3" class="edge">
<title>node_0x5dfcec1322d0&#45;&gt;node_0x5dfcec132350</title>
<path fill="none" stroke="black" d="M595.33,-148.2C597.02,-140.59 599.04,-131.5 600.94,-122.96"/>
<polygon fill="black" stroke="black" points="604.33,-123.84 603.08,-113.32 597.5,-122.32 604.33,-123.84"/>
</g>
<!-- node_0x5dfcec1323d0 -->
<g id="node6" class="node">
<title>node_0x5dfcec1323d0</title>
<polygon fill="#bdef9e" stroke="black" points="852.75,-74.5 852.75,-111.5 1280,-111.5 1280,-74.5 852.75,-74.5"/>
<text text-anchor="middle" x="1066.38" y="-98.95" font-family="Times,serif" font-size="9.00">sin</text>
<polyline fill="none" stroke="black" points="852.75,-93 1280,-93"/>
<text text-anchor="middle" x="885.5" y="-80.45" font-family="Times,serif" font-size="9.00">type = 3 (OP)</text>
<polyline fill="none" stroke="black" points="918.25,-74.5 918.25,-93"/>
<text text-anchor="middle" x="944.25" y="-80.45" font-family="Times,serif" font-size="9.00">left = (nil)</text>
<polyline fill="none" stroke="black" points="970.25,-74.5 970.25,-93"/>
<text text-anchor="middle" x="1021.38" y="-80.45" font-family="Times,serif" font-size="9.00">node = 0x5dfcec1323d0</text>
<polyline fill="none" stroke="black" points="1072.5,-74.5 1072.5,-93"/>
<text text-anchor="middle" x="1125.88" y="-80.45" font-family="Times,serif" font-size="9.00">parent = 0x5dfcec132390</text>
<polyline fill="none" stroke="black" points="1179.25,-74.5 1179.25,-93"/>
<text text-anchor="middle" x="1229.62" y="-80.45" font-family="Times,serif" font-size="9.00">right = 0x5dfcec132410</text>
</g>
<!-- node_0x5dfcec132390&#45;&gt;node_0x5dfcec1323d0 -->
<g id="edge5" class="edge">
<title>node_0x5dfcec132390&#45;&gt;node_0x5dfcec1323d0</title>
<path fill="none" stroke="black" d="M1077.67,-148.2C1076.08,-140.59 1074.19,-131.5 1072.41,-122.96"/>
<polygon fill="black" stroke="black" points="1075.87,-122.4 1070.4,-113.32 1069.01,-123.83 1075.87,-122.4"/>
</g>
<!-- node_0x5dfcec132450 -->
<g id="node8" class="node">
<title>node_0x5dfcec132450</title>
<polygon fill="#bdef9e" stroke="black" points="1297.62,-74.5 1297.62,-111.5 1769.12,-111.5 1769.12,-74.5 1297.62,-74.5"/>
<text text-anchor="middle" x="1533.38" y="-98.95" font-family="Times,serif" font-size="9.00">+</text>
<polyline fill="none" stroke="black" points="1297.62,-93 1769.12,-93"/>
<text text-anchor="middle" x="1330.38" y="-80.45" font-family="Times,serif" font-size="9.00">type = 3 (OP)</text>
<polyline fill="none" stroke="black" points="1363.12,-74.5 1363.12,-93"/>
<text text-anchor="middle" x="1411.25" y="-80.45" font-family="Times,serif" font-size="9.00">left = 0x5dfcec132490</text>
<polyline fill="none" stroke="black" points="1459.38,-74.5 1459.38,-93"/>
<text text-anchor="middle" x="1510.5" y="-80.45" font-family="Times,serif" font-size="9.00">node = 0x5dfcec132450</text>
<polyline fill="none" stroke="black" points="1561.62,-74.5 1561.62,-93"/>
<text text-anchor="middle" x="1615" y="-80.45" font-family="Times,serif" font-size="9.00">parent = 0x5dfcec132390</text>
<polyline fill="none" stroke="black" points="1668.38,-74.5 1668.38,-93"/>
<text text-anchor="middle" x="1718.75" y="-80.45" font-family="Times,serif" font-size="9.00">right = 0x5dfcec1324d0</text>
</g>
<!-- node_0x5dfcec132390&#45;&gt;node_0x5dfcec132450 -->
<g id="edge7" class="edge">
<title>node_0x5dfcec132390&#45;&gt;node_0x5dfcec132450</title>
<path fill="none" stroke="black" d="M1194.27,-148.02C1259.78,-137.58 1342.38,-124.42 1409.66,-113.71"/>
<polygon fill="black" stroke="black" points="1409.93,-117.21 1419.25,-112.18 1408.83,-110.3 1409.93,-117.21"/>
</g>
<!-- node_0x5dfcec132410 -->
<g id="node7" class="node">
<title>node_0x5dfcec132410</title>
<polygon fill="yellow" stroke="black" points="871.5,-0.5 871.5,-37.5 1261.25,-37.5 1261.25,-0.5 871.5,-0.5"/>
<text text-anchor="middle" x="1066.38" y="-24.95" font-family="Times,serif" font-size="9.00">y</text>
<polyline fill="none" stroke="black" points="871.5,-19 1261.25,-19"/>
<text text-anchor="middle" x="907.62" y="-6.45" font-family="Times,serif" font-size="9.00">type = 2 (VAR)</text>
<polyline fill="none" stroke="black" points="943.75,-0.5 943.75,-19"/>
<text text-anchor="middle" x="969.75" y="-6.45" font-family="Times,serif" font-size="9.00">left = (nil)</text>
<polyline fill="none" stroke="black" points="995.75,-0.5 995.75,-19"/>
<text text-anchor="middle" x="1046.88" y="-6.45" font-family="Times,serif" font-size="9.00">node = 0x5dfcec132410</text>
<polyline fill="none" stroke="black" points="1098,-0.5 1098,-19"/>
<text text-anchor="middle" x="1151.38" y="-6.45" font-family="Times,serif" font-size="9.00">parent = 0x5dfcec1323d0</text>
<polyline fill="none" stroke="black" points="1204.75,-0.5 1204.75,-19"/>
<text text-anchor="middle" x="1233" y="-6.45" font-family="Times,serif" font-size="9.00">right = (nil)</text>
</g>
<!-- node_0x5dfcec1323d0&#45;&gt;node_0x5dfcec132410 -->
<g id="edge6" class="edge">
<title>node_0x5dfcec1323d0&#45;&gt;node_0x5dfcec132410</title>
<path fill="none" stroke="black" d="M1066.38,-74.2C1066.38,-66.67 1066.38,-57.7 1066.38,-49.25"/>
<polygon fill="black" stroke="black" points="1069.88,-49.36 1066.38,-39.36 1062.88,-49.36 1069.88,-49.36"/>
</g>
<!-- node_0x5dfcec132490 -->
<g id="node9" class="node">
<title>node_0x5dfcec132490</title>
<polygon fill="yellow" stroke="black" points="1308.5,-0.5 1308.5,-37.5 1698.25,-37.5 1698.25,-0.5 1308.5,-0.5"/>
<text text-anchor="middle" x="1503.38" y="-24.95" font-family="Times,serif" font-size="9.00">x</text>
<polyline fill="none" stroke="black" points="1308.5,-19 1698.25,-19"/>
<text text-anchor="middle" x="1344.62" y="-6.45" font-family="Times,serif" font-size="9.00">type = 2 (VAR)</text>
<polyline fill="none" stroke="black" points="1380.75,-0.5 1380.75,-19"/>
<text text-anchor="middle" x="1406.75" y="-6.45" font-family="Times,serif" font-size="9.00">left = (nil)</text>
<polyline fill="none" stroke="black" points="1432.75,-0.5 1432.75,-19"/>
<text text-anchor="middle" x="1483.88" y="-6.45" font-family="Times,serif" font-size="9.00">node = 0x5dfcec132490</text>
<polyline fill="none" stroke="black" points="1535,-0.5 1535,-19"/>
<text text-anchor="middle" x="1588.38" y="-6.45" font-family="Times,serif" font-size="9.00">parent = 0x5dfcec132450</text>
<polyline fill="none" stroke="black" points="1641.75,-0.5 1641.75,-19"/>
<text text-anchor="middle" x="1670" y="-6.45" font-family="Times,serif" font-size="9.00">right = (nil)</text>
</g>
<!-- node_0x5dfcec132450&#45;&gt;node_0x5dfcec132490 -->
<g id="edge8" class="edge">
<title>node_0x5dfcec132450&#45;&gt;node_0x5dfcec132490</title>
<path fill="none" stroke="black" d="M1525.96,-74.2C1522.71,-66.41 1518.83,-57.08 1515.2,-48.38"/>
<polygon fill="black" stroke="black" points="1518.47,-47.12 1511.39,-39.24 1512.01,-49.82 1518.47,-47.12"/>
</g>
<!-- node_0x5dfcec1324d0 -->
<g id="node10" class="node">
<title>node_0x5dfcec1324d0</title>
<polygon fill="blue" stroke="black" points="1716,-0.5 1716,-37.5 2108.75,-37.5 2108.75,-0.5 1716,-0.5"/>
<text text-anchor="middle" x="1912.38" y="-24.95" font-family="Times,serif" font-size="9.00">1</text>
<polyline fill="none" stroke="black" points="1716,-19 2108.75,-19"/>
<text text-anchor="middle" x="1753.62" y="-6.45" font-family="Times,serif" font-size="9.00">type = 1 (NUM)</text>
<polyline fill="none" stroke="black" points="1791.25,-0.5 1791.25,-19"/>
<text text-anchor="middle" x="1817.25" y="-6.45" font-family="Times,serif" font-size="9.00">left = (nil)</text>
<polyline fill="none" stroke="black" points="1843.25,-0.5 1843.25,-19"/>
<text text-anchor="middle" x="1894.38" y="-6.45" font-family="Times,serif" font-size="9.00">node = 0x5dfcec1324d0</text>
<polyline fill="none" stroke="black" points="1945.5,-0.5 1945.5,-19"/>
<text text-anchor="middle" x="1998.88" y="-6.45" font-family="Times,serif" font-size="9.00">parent = 0x5dfcec132450</text>
<polyline fill="none" stroke="black" points="2052.25,-0.5 2052.25,-19"/>
<text text-anchor="middle" x="2080.5" y="-6.45" font-family="Times,serif" font-size="9.00">right = (nil)</text>
</g>
<!-- node_0x5dfcec132450&#45;&gt;node_0x5dfcec1324d0 -->
<g id="edge9" class="edge">
<title>node_0x5dfcec132450&#45;&gt;node_0x5dfcec1324d0</title>
<path fill="none" stroke="black" d="M1628.04,-74.02C1682.4,-63.69 1750.8,-50.69 1806.89,-40.04"/>
<polygon fill="black" stroke="black" points="1807.28,-43.53 1816.45,-38.22 1805.97,-36.65 1807.28,-43.53"/>
</g>
</g>
</svg>
