<?xml version="1.0" encoding="UTF-8" standalone="no"?>
<!DOCTYPE svg PUBLIC "-//W3C//DTD SVG 1.1//EN"
 "http://www.w3.org/Graphics/SVG/1.1/DTD/svg11.dtd">
<!-- Generated by graphviz version 12.1.2 (0)
 -->
<!-- Pages: 1 -->
<svg width="2745pt" height="416pt"
 viewBox="0.00 0.00 2744.75 416.00" xmlns="http://www.w3.org/2000/svg" xmlns:xlink="http://www.w3.org/1999/xlink">
<g id="graph0" class="graph" transform="scale(1 1) rotate(0) translate(4 412)">
<polygon fill="white" stroke="none" points="-4,4 -4,-412 2740.75,-412 2740.75,4 -4,4"/>
<!-- node_0x60e0b16607d0 -->
<g id="node1" class="node">
<title>node_0x60e0b16607d0</title>
<polygon fill="#bdef9e" stroke="black" points="1469.25,-370.5 1469.25,-407.5 1905.5,-407.5 1905.5,-370.5 1469.25,-370.5"/>
<text text-anchor="middle" x="1687.38" y="-394.95" font-family="Times,serif" font-size="9.00">/</text>
<polyline fill="none" stroke="black" points="1469.25,-389 1905.5,-389"/>
<text text-anchor="middle" x="1502" y="-376.45" font-family="Times,serif" font-size="9.00">type = 3 (OP)</text>
<polyline fill="none" stroke="black" points="1534.75,-370.5 1534.75,-389"/>
<text text-anchor="middle" x="1584.38" y="-376.45" font-family="Times,serif" font-size="9.00">left = 0x60e0b1660790</text>
<polyline fill="none" stroke="black" points="1634,-370.5 1634,-389"/>
<text text-anchor="middle" x="1686.62" y="-376.45" font-family="Times,serif" font-size="9.00">node = 0x60e0b16607d0</text>
<polyline fill="none" stroke="black" points="1739.25,-370.5 1739.25,-389"/>
<text text-anchor="middle" x="1770.5" y="-376.45" font-family="Times,serif" font-size="9.00">parent = (nil)</text>
<polyline fill="none" stroke="black" points="1801.75,-370.5 1801.75,-389"/>
<text text-anchor="middle" x="1853.62" y="-376.45" font-family="Times,serif" font-size="9.00">right = 0x60e0b1660450</text>
</g>
<!-- node_0x60e0b1660790 -->
<g id="node2" class="node">
<title>node_0x60e0b1660790</title>
<polygon fill="#bdef9e" stroke="black" points="1194.62,-296.5 1194.62,-333.5 1678.12,-333.5 1678.12,-296.5 1194.62,-296.5"/>
<text text-anchor="middle" x="1436.38" y="-320.95" font-family="Times,serif" font-size="9.00">&#45;</text>
<polyline fill="none" stroke="black" points="1194.62,-315 1678.12,-315"/>
<text text-anchor="middle" x="1227.38" y="-302.45" font-family="Times,serif" font-size="9.00">type = 3 (OP)</text>
<polyline fill="none" stroke="black" points="1260.12,-296.5 1260.12,-315"/>
<text text-anchor="middle" x="1309.75" y="-302.45" font-family="Times,serif" font-size="9.00">left = 0x60e0b1660750</text>
<polyline fill="none" stroke="black" points="1359.38,-296.5 1359.38,-315"/>
<text text-anchor="middle" x="1412" y="-302.45" font-family="Times,serif" font-size="9.00">node = 0x60e0b1660790</text>
<polyline fill="none" stroke="black" points="1464.62,-296.5 1464.62,-315"/>
<text text-anchor="middle" x="1519.5" y="-302.45" font-family="Times,serif" font-size="9.00">parent = 0x60e0b16607d0</text>
<polyline fill="none" stroke="black" points="1574.38,-296.5 1574.38,-315"/>
<text text-anchor="middle" x="1626.25" y="-302.45" font-family="Times,serif" font-size="9.00">right = 0x60e0b16605d0</text>
</g>
<!-- node_0x60e0b16607d0&#45;&gt;node_0x60e0b1660790 -->
<g id="edge1" class="edge">
<title>node_0x60e0b16607d0&#45;&gt;node_0x60e0b1660790</title>
<path fill="none" stroke="black" d="M1624.68,-370.02C1589.66,-359.97 1545.85,-347.4 1509.3,-336.92"/>
<polygon fill="black" stroke="black" points="1510.73,-333.69 1500.16,-334.3 1508.8,-340.42 1510.73,-333.69"/>
</g>
<!-- node_0x60e0b1660450 -->
<g id="node15" class="node">
<title>node_0x60e0b1660450</title>
<polygon fill="#bdef9e" stroke="black" points="1859.62,-296.5 1859.62,-333.5 2343.12,-333.5 2343.12,-296.5 1859.62,-296.5"/>
<text text-anchor="middle" x="2101.38" y="-320.95" font-family="Times,serif" font-size="9.00">^</text>
<polyline fill="none" stroke="black" points="1859.62,-315 2343.12,-315"/>
<text text-anchor="middle" x="1892.38" y="-302.45" font-family="Times,serif" font-size="9.00">type = 3 (OP)</text>
<polyline fill="none" stroke="black" points="1925.12,-296.5 1925.12,-315"/>
<text text-anchor="middle" x="1974.75" y="-302.45" font-family="Times,serif" font-size="9.00">left = 0x60e0b1660410</text>
<polyline fill="none" stroke="black" points="2024.38,-296.5 2024.38,-315"/>
<text text-anchor="middle" x="2077" y="-302.45" font-family="Times,serif" font-size="9.00">node = 0x60e0b1660450</text>
<polyline fill="none" stroke="black" points="2129.62,-296.5 2129.62,-315"/>
<text text-anchor="middle" x="2184.5" y="-302.45" font-family="Times,serif" font-size="9.00">parent = 0x60e0b16607d0</text>
<polyline fill="none" stroke="black" points="2239.38,-296.5 2239.38,-315"/>
<text text-anchor="middle" x="2291.25" y="-302.45" font-family="Times,serif" font-size="9.00">right = 0x60e0b1660390</text>
</g>
<!-- node_0x60e0b16607d0&#45;&gt;node_0x60e0b1660450 -->
<g id="edge14" class="edge">
<title>node_0x60e0b16607d0&#45;&gt;node_0x60e0b1660450</title>
<path fill="none" stroke="black" d="M1790.78,-370.02C1850.41,-359.65 1925.51,-346.59 1986.92,-335.91"/>
<polygon fill="black" stroke="black" points="1987.47,-339.36 1996.72,-334.2 1986.27,-332.47 1987.47,-339.36"/>
</g>
<!-- node_0x60e0b1660750 -->
<g id="node3" class="node">
<title>node_0x60e0b1660750</title>
<polygon fill="#bdef9e" stroke="black" points="611.62,-222.5 611.62,-259.5 1095.12,-259.5 1095.12,-222.5 611.62,-222.5"/>
<text text-anchor="middle" x="853.38" y="-246.95" font-family="Times,serif" font-size="9.00">/</text>
<polyline fill="none" stroke="black" points="611.62,-241 1095.12,-241"/>
<text text-anchor="middle" x="644.38" y="-228.45" font-family="Times,serif" font-size="9.00">type = 3 (OP)</text>
<polyline fill="none" stroke="black" points="677.12,-222.5 677.12,-241"/>
<text text-anchor="middle" x="726.75" y="-228.45" font-family="Times,serif" font-size="9.00">left = 0x60e0b1660710</text>
<polyline fill="none" stroke="black" points="776.38,-222.5 776.38,-241"/>
<text text-anchor="middle" x="829" y="-228.45" font-family="Times,serif" font-size="9.00">node = 0x60e0b1660750</text>
<polyline fill="none" stroke="black" points="881.62,-222.5 881.62,-241"/>
<text text-anchor="middle" x="936.5" y="-228.45" font-family="Times,serif" font-size="9.00">parent = 0x60e0b1660790</text>
<polyline fill="none" stroke="black" points="991.38,-222.5 991.38,-241"/>
<text text-anchor="middle" x="1043.25" y="-228.45" font-family="Times,serif" font-size="9.00">right = 0x60e0b1660610</text>
</g>
<!-- node_0x60e0b1660790&#45;&gt;node_0x60e0b1660750 -->
<g id="edge2" class="edge">
<title>node_0x60e0b1660790&#45;&gt;node_0x60e0b1660750</title>
<path fill="none" stroke="black" d="M1290.76,-296.02C1205.38,-285.47 1097.5,-272.15 1010.25,-261.37"/>
<polygon fill="black" stroke="black" points="1010.75,-257.91 1000.4,-260.16 1009.9,-264.86 1010.75,-257.91"/>
</g>
<!-- node_0x60e0b16605d0 -->
<g id="node9" class="node">
<title>node_0x60e0b16605d0</title>
<polygon fill="#bdef9e" stroke="black" points="1194.62,-222.5 1194.62,-259.5 1678.12,-259.5 1678.12,-222.5 1194.62,-222.5"/>
<text text-anchor="middle" x="1436.38" y="-246.95" font-family="Times,serif" font-size="9.00">/</text>
<polyline fill="none" stroke="black" points="1194.62,-241 1678.12,-241"/>
<text text-anchor="middle" x="1227.38" y="-228.45" font-family="Times,serif" font-size="9.00">type = 3 (OP)</text>
<polyline fill="none" stroke="black" points="1260.12,-222.5 1260.12,-241"/>
<text text-anchor="middle" x="1309.75" y="-228.45" font-family="Times,serif" font-size="9.00">left = 0x60e0b1660590</text>
<polyline fill="none" stroke="black" points="1359.38,-222.5 1359.38,-241"/>
<text text-anchor="middle" x="1412" y="-228.45" font-family="Times,serif" font-size="9.00">node = 0x60e0b16605d0</text>
<polyline fill="none" stroke="black" points="1464.62,-222.5 1464.62,-241"/>
<text text-anchor="middle" x="1519.5" y="-228.45" font-family="Times,serif" font-size="9.00">parent = 0x60e0b1660790</text>
<polyline fill="none" stroke="black" points="1574.38,-222.5 1574.38,-241"/>
<text text-anchor="middle" x="1626.25" y="-228.45" font-family="Times,serif" font-size="9.00">right = 0x60e0b1660490</text>
</g>
<!-- node_0x60e0b1660790&#45;&gt;node_0x60e0b16605d0 -->
<g id="edge8" class="edge">
<title>node_0x60e0b1660790&#45;&gt;node_0x60e0b16605d0</title>
<path fill="none" stroke="black" d="M1436.38,-296.2C1436.38,-288.67 1436.38,-279.7 1436.38,-271.25"/>
<polygon fill="black" stroke="black" points="1439.88,-271.36 1436.38,-261.36 1432.88,-271.36 1439.88,-271.36"/>
</g>
<!-- node_0x60e0b1660710 -->
<g id="node4" class="node">
<title>node_0x60e0b1660710</title>
<polygon fill="#bdef9e" stroke="black" points="153.62,-148.5 153.62,-185.5 637.12,-185.5 637.12,-148.5 153.62,-148.5"/>
<text text-anchor="middle" x="395.38" y="-172.95" font-family="Times,serif" font-size="9.00">*</text>
<polyline fill="none" stroke="black" points="153.62,-167 637.12,-167"/>
<text text-anchor="middle" x="186.38" y="-154.45" font-family="Times,serif" font-size="9.00">type = 3 (OP)</text>
<polyline fill="none" stroke="black" points="219.12,-148.5 219.12,-167"/>
<text text-anchor="middle" x="268.75" y="-154.45" font-family="Times,serif" font-size="9.00">left = 0x60e0b16606d0</text>
<polyline fill="none" stroke="black" points="318.38,-148.5 318.38,-167"/>
<text text-anchor="middle" x="371" y="-154.45" font-family="Times,serif" font-size="9.00">node = 0x60e0b1660710</text>
<polyline fill="none" stroke="black" points="423.62,-148.5 423.62,-167"/>
<text text-anchor="middle" x="478.5" y="-154.45" font-family="Times,serif" font-size="9.00">parent = 0x60e0b1660750</text>
<polyline fill="none" stroke="black" points="533.38,-148.5 533.38,-167"/>
<text text-anchor="middle" x="585.25" y="-154.45" font-family="Times,serif" font-size="9.00">right = 0x60e0b1660690</text>
</g>
<!-- node_0x60e0b1660750&#45;&gt;node_0x60e0b1660710 -->
<g id="edge3" class="edge">
<title>node_0x60e0b1660750&#45;&gt;node_0x60e0b1660710</title>
<path fill="none" stroke="black" d="M738.98,-222.02C672.6,-211.58 588.9,-198.42 520.73,-187.71"/>
<polygon fill="black" stroke="black" points="521.42,-184.27 510.99,-186.18 520.33,-191.19 521.42,-184.27"/>
</g>
<!-- node_0x60e0b1660610 -->
<g id="node8" class="node">
<title>node_0x60e0b1660610</title>
<polygon fill="yellow" stroke="black" points="655.5,-148.5 655.5,-185.5 1051.25,-185.5 1051.25,-148.5 655.5,-148.5"/>
<text text-anchor="middle" x="853.38" y="-172.95" font-family="Times,serif" font-size="9.00">x</text>
<polyline fill="none" stroke="black" points="655.5,-167 1051.25,-167"/>
<text text-anchor="middle" x="691.62" y="-154.45" font-family="Times,serif" font-size="9.00">type = 2 (VAR)</text>
<polyline fill="none" stroke="black" points="727.75,-148.5 727.75,-167"/>
<text text-anchor="middle" x="753.75" y="-154.45" font-family="Times,serif" font-size="9.00">left = (nil)</text>
<polyline fill="none" stroke="black" points="779.75,-148.5 779.75,-167"/>
<text text-anchor="middle" x="832.38" y="-154.45" font-family="Times,serif" font-size="9.00">node = 0x60e0b1660610</text>
<polyline fill="none" stroke="black" points="885,-148.5 885,-167"/>
<text text-anchor="middle" x="939.88" y="-154.45" font-family="Times,serif" font-size="9.00">parent = 0x60e0b1660750</text>
<polyline fill="none" stroke="black" points="994.75,-148.5 994.75,-167"/>
<text text-anchor="middle" x="1023" y="-154.45" font-family="Times,serif" font-size="9.00">right = (nil)</text>
</g>
<!-- node_0x60e0b1660750&#45;&gt;node_0x60e0b1660610 -->
<g id="edge7" class="edge">
<title>node_0x60e0b1660750&#45;&gt;node_0x60e0b1660610</title>
<path fill="none" stroke="black" d="M853.38,-222.2C853.38,-214.67 853.38,-205.7 853.38,-197.25"/>
<polygon fill="black" stroke="black" points="856.88,-197.36 853.38,-187.36 849.88,-197.36 856.88,-197.36"/>
</g>
<!-- node_0x60e0b16606d0 -->
<g id="node5" class="node">
<title>node_0x60e0b16606d0</title>
<polygon fill="blue" stroke="black" points="0,-74.5 0,-111.5 398.75,-111.5 398.75,-74.5 0,-74.5"/>
<text text-anchor="middle" x="199.38" y="-98.95" font-family="Times,serif" font-size="9.00">1</text>
<polyline fill="none" stroke="black" points="0,-93 398.75,-93"/>
<text text-anchor="middle" x="37.62" y="-80.45" font-family="Times,serif" font-size="9.00">type = 1 (NUM)</text>
<polyline fill="none" stroke="black" points="75.25,-74.5 75.25,-93"/>
<text text-anchor="middle" x="101.25" y="-80.45" font-family="Times,serif" font-size="9.00">left = (nil)</text>
<polyline fill="none" stroke="black" points="127.25,-74.5 127.25,-93"/>
<text text-anchor="middle" x="179.88" y="-80.45" font-family="Times,serif" font-size="9.00">node = 0x60e0b16606d0</text>
<polyline fill="none" stroke="black" points="232.5,-74.5 232.5,-93"/>
<text text-anchor="middle" x="287.38" y="-80.45" font-family="Times,serif" font-size="9.00">parent = 0x60e0b1660710</text>
<polyline fill="none" stroke="black" points="342.25,-74.5 342.25,-93"/>
<text text-anchor="middle" x="370.5" y="-80.45" font-family="Times,serif" font-size="9.00">right = (nil)</text>
</g>
<!-- node_0x60e0b1660710&#45;&gt;node_0x60e0b16606d0 -->
<g id="edge4" class="edge">
<title>node_0x60e0b1660710&#45;&gt;node_0x60e0b16606d0</title>
<path fill="none" stroke="black" d="M346.42,-148.02C319.78,-138.23 286.62,-126.05 258.53,-115.73"/>
<polygon fill="black" stroke="black" points="260.06,-112.56 249.46,-112.4 257.64,-119.13 260.06,-112.56"/>
</g>
<!-- node_0x60e0b1660690 -->
<g id="node6" class="node">
<title>node_0x60e0b1660690</title>
<polygon fill="#bdef9e" stroke="black" points="417.25,-74.5 417.25,-111.5 853.5,-111.5 853.5,-74.5 417.25,-74.5"/>
<text text-anchor="middle" x="635.38" y="-98.95" font-family="Times,serif" font-size="9.00">ln</text>
<polyline fill="none" stroke="black" points="417.25,-93 853.5,-93"/>
<text text-anchor="middle" x="450" y="-80.45" font-family="Times,serif" font-size="9.00">type = 3 (OP)</text>
<polyline fill="none" stroke="black" points="482.75,-74.5 482.75,-93"/>
<text text-anchor="middle" x="508.75" y="-80.45" font-family="Times,serif" font-size="9.00">left = (nil)</text>
<polyline fill="none" stroke="black" points="534.75,-74.5 534.75,-93"/>
<text text-anchor="middle" x="587.38" y="-80.45" font-family="Times,serif" font-size="9.00">node = 0x60e0b1660690</text>
<polyline fill="none" stroke="black" points="640,-74.5 640,-93"/>
<text text-anchor="middle" x="694.88" y="-80.45" font-family="Times,serif" font-size="9.00">parent = 0x60e0b1660710</text>
<polyline fill="none" stroke="black" points="749.75,-74.5 749.75,-93"/>
<text text-anchor="middle" x="801.62" y="-80.45" font-family="Times,serif" font-size="9.00">right = 0x60e0b1660650</text>
</g>
<!-- node_0x60e0b1660710&#45;&gt;node_0x60e0b1660690 -->
<g id="edge5" class="edge">
<title>node_0x60e0b1660710&#45;&gt;node_0x60e0b1660690</title>
<path fill="none" stroke="black" d="M455.32,-148.02C488.66,-138.01 530.34,-125.51 565.2,-115.05"/>
<polygon fill="black" stroke="black" points="565.76,-118.54 574.33,-112.31 563.75,-111.83 565.76,-118.54"/>
</g>
<!-- node_0x60e0b1660650 -->
<g id="node7" class="node">
<title>node_0x60e0b1660650</title>
<polygon fill="yellow" stroke="black" points="437.5,-0.5 437.5,-37.5 833.25,-37.5 833.25,-0.5 437.5,-0.5"/>
<text text-anchor="middle" x="635.38" y="-24.95" font-family="Times,serif" font-size="9.00">x</text>
<polyline fill="none" stroke="black" points="437.5,-19 833.25,-19"/>
<text text-anchor="middle" x="473.62" y="-6.45" font-family="Times,serif" font-size="9.00">type = 2 (VAR)</text>
<polyline fill="none" stroke="black" points="509.75,-0.5 509.75,-19"/>
<text text-anchor="middle" x="535.75" y="-6.45" font-family="Times,serif" font-size="9.00">left = (nil)</text>
<polyline fill="none" stroke="black" points="561.75,-0.5 561.75,-19"/>
<text text-anchor="middle" x="614.38" y="-6.45" font-family="Times,serif" font-size="9.00">node = 0x60e0b1660650</text>
<polyline fill="none" stroke="black" points="667,-0.5 667,-19"/>
<text text-anchor="middle" x="721.88" y="-6.45" font-family="Times,serif" font-size="9.00">parent = 0x60e0b1660690</text>
<polyline fill="none" stroke="black" points="776.75,-0.5 776.75,-19"/>
<text text-anchor="middle" x="805" y="-6.45" font-family="Times,serif" font-size="9.00">right = (nil)</text>
</g>
<!-- node_0x60e0b1660690&#45;&gt;node_0x60e0b1660650 -->
<g id="edge6" class="edge">
<title>node_0x60e0b1660690&#45;&gt;node_0x60e0b1660650</title>
<path fill="none" stroke="black" d="M635.38,-74.2C635.38,-66.67 635.38,-57.7 635.38,-49.25"/>
<polygon fill="black" stroke="black" points="638.88,-49.36 635.38,-39.36 631.88,-49.36 638.88,-49.36"/>
</g>
<!-- node_0x60e0b1660590 -->
<g id="node10" class="node">
<title>node_0x60e0b1660590</title>
<polygon fill="#bdef9e" stroke="black" points="1069.62,-148.5 1069.62,-185.5 1553.12,-185.5 1553.12,-148.5 1069.62,-148.5"/>
<text text-anchor="middle" x="1311.38" y="-172.95" font-family="Times,serif" font-size="9.00">*</text>
<polyline fill="none" stroke="black" points="1069.62,-167 1553.12,-167"/>
<text text-anchor="middle" x="1102.38" y="-154.45" font-family="Times,serif" font-size="9.00">type = 3 (OP)</text>
<polyline fill="none" stroke="black" points="1135.12,-148.5 1135.12,-167"/>
<text text-anchor="middle" x="1184.75" y="-154.45" font-family="Times,serif" font-size="9.00">left = 0x60e0b1660550</text>
<polyline fill="none" stroke="black" points="1234.38,-148.5 1234.38,-167"/>
<text text-anchor="middle" x="1287" y="-154.45" font-family="Times,serif" font-size="9.00">node = 0x60e0b1660590</text>
<polyline fill="none" stroke="black" points="1339.62,-148.5 1339.62,-167"/>
<text text-anchor="middle" x="1394.5" y="-154.45" font-family="Times,serif" font-size="9.00">parent = 0x60e0b16605d0</text>
<polyline fill="none" stroke="black" points="1449.38,-148.5 1449.38,-167"/>
<text text-anchor="middle" x="1501.25" y="-154.45" font-family="Times,serif" font-size="9.00">right = 0x60e0b1660510</text>
</g>
<!-- node_0x60e0b16605d0&#45;&gt;node_0x60e0b1660590 -->
<g id="edge9" class="edge">
<title>node_0x60e0b16605d0&#45;&gt;node_0x60e0b1660590</title>
<path fill="none" stroke="black" d="M1405.15,-222.02C1389.08,-212.76 1369.27,-201.35 1352.02,-191.41"/>
<polygon fill="black" stroke="black" points="1353.92,-188.47 1343.51,-186.51 1350.43,-194.53 1353.92,-188.47"/>
</g>
<!-- node_0x60e0b1660490 -->
<g id="node14" class="node">
<title>node_0x60e0b1660490</title>
<polygon fill="yellow" stroke="black" points="1571.5,-148.5 1571.5,-185.5 1967.25,-185.5 1967.25,-148.5 1571.5,-148.5"/>
<text text-anchor="middle" x="1769.38" y="-172.95" font-family="Times,serif" font-size="9.00">x</text>
<polyline fill="none" stroke="black" points="1571.5,-167 1967.25,-167"/>
<text text-anchor="middle" x="1607.62" y="-154.45" font-family="Times,serif" font-size="9.00">type = 2 (VAR)</text>
<polyline fill="none" stroke="black" points="1643.75,-148.5 1643.75,-167"/>
<text text-anchor="middle" x="1669.75" y="-154.45" font-family="Times,serif" font-size="9.00">left = (nil)</text>
<polyline fill="none" stroke="black" points="1695.75,-148.5 1695.75,-167"/>
<text text-anchor="middle" x="1748.38" y="-154.45" font-family="Times,serif" font-size="9.00">node = 0x60e0b1660490</text>
<polyline fill="none" stroke="black" points="1801,-148.5 1801,-167"/>
<text text-anchor="middle" x="1855.88" y="-154.45" font-family="Times,serif" font-size="9.00">parent = 0x60e0b16605d0</text>
<polyline fill="none" stroke="black" points="1910.75,-148.5 1910.75,-167"/>
<text text-anchor="middle" x="1939" y="-154.45" font-family="Times,serif" font-size="9.00">right = (nil)</text>
</g>
<!-- node_0x60e0b16605d0&#45;&gt;node_0x60e0b1660490 -->
<g id="edge13" class="edge">
<title>node_0x60e0b16605d0&#45;&gt;node_0x60e0b1660490</title>
<path fill="none" stroke="black" d="M1519.55,-222.02C1566.82,-211.8 1626.16,-198.96 1675.15,-188.37"/>
<polygon fill="black" stroke="black" points="1675.89,-191.79 1684.92,-186.26 1674.41,-184.95 1675.89,-191.79"/>
</g>
<!-- node_0x60e0b1660550 -->
<g id="node11" class="node">
<title>node_0x60e0b1660550</title>
<polygon fill="blue" stroke="black" points="992,-74.5 992,-111.5 1390.75,-111.5 1390.75,-74.5 992,-74.5"/>
<text text-anchor="middle" x="1191.38" y="-98.95" font-family="Times,serif" font-size="9.00">1</text>
<polyline fill="none" stroke="black" points="992,-93 1390.75,-93"/>
<text text-anchor="middle" x="1029.62" y="-80.45" font-family="Times,serif" font-size="9.00">type = 1 (NUM)</text>
<polyline fill="none" stroke="black" points="1067.25,-74.5 1067.25,-93"/>
<text text-anchor="middle" x="1093.25" y="-80.45" font-family="Times,serif" font-size="9.00">left = (nil)</text>
<polyline fill="none" stroke="black" points="1119.25,-74.5 1119.25,-93"/>
<text text-anchor="middle" x="1171.88" y="-80.45" font-family="Times,serif" font-size="9.00">node = 0x60e0b1660550</text>
<polyline fill="none" stroke="black" points="1224.5,-74.5 1224.5,-93"/>
<text text-anchor="middle" x="1279.38" y="-80.45" font-family="Times,serif" font-size="9.00">parent = 0x60e0b1660590</text>
<polyline fill="none" stroke="black" points="1334.25,-74.5 1334.25,-93"/>
<text text-anchor="middle" x="1362.5" y="-80.45" font-family="Times,serif" font-size="9.00">right = (nil)</text>
</g>
<!-- node_0x60e0b1660590&#45;&gt;node_0x60e0b1660550 -->
<g id="edge10" class="edge">
<title>node_0x60e0b1660590&#45;&gt;node_0x60e0b1660550</title>
<path fill="none" stroke="black" d="M1281.4,-148.02C1265.97,-138.76 1246.96,-127.35 1230.39,-117.41"/>
<polygon fill="black" stroke="black" points="1232.64,-114.68 1222.26,-112.53 1229.04,-120.68 1232.64,-114.68"/>
</g>
<!-- node_0x60e0b1660510 -->
<g id="node12" class="node">
<title>node_0x60e0b1660510</title>
<polygon fill="#bdef9e" stroke="black" points="1409.25,-74.5 1409.25,-111.5 1845.5,-111.5 1845.5,-74.5 1409.25,-74.5"/>
<text text-anchor="middle" x="1627.38" y="-98.95" font-family="Times,serif" font-size="9.00">ln</text>
<polyline fill="none" stroke="black" points="1409.25,-93 1845.5,-93"/>
<text text-anchor="middle" x="1442" y="-80.45" font-family="Times,serif" font-size="9.00">type = 3 (OP)</text>
<polyline fill="none" stroke="black" points="1474.75,-74.5 1474.75,-93"/>
<text text-anchor="middle" x="1500.75" y="-80.45" font-family="Times,serif" font-size="9.00">left = (nil)</text>
<polyline fill="none" stroke="black" points="1526.75,-74.5 1526.75,-93"/>
<text text-anchor="middle" x="1579.38" y="-80.45" font-family="Times,serif" font-size="9.00">node = 0x60e0b1660510</text>
<polyline fill="none" stroke="black" points="1632,-74.5 1632,-93"/>
<text text-anchor="middle" x="1686.88" y="-80.45" font-family="Times,serif" font-size="9.00">parent = 0x60e0b1660590</text>
<polyline fill="none" stroke="black" points="1741.75,-74.5 1741.75,-93"/>
<text text-anchor="middle" x="1793.62" y="-80.45" font-family="Times,serif" font-size="9.00">right = 0x60e0b16604d0</text>
</g>
<!-- node_0x60e0b1660590&#45;&gt;node_0x60e0b1660510 -->
<g id="edge11" class="edge">
<title>node_0x60e0b1660590&#45;&gt;node_0x60e0b1660510</title>
<path fill="none" stroke="black" d="M1390.3,-148.02C1435.06,-137.82 1491.24,-125.02 1537.67,-114.44"/>
<polygon fill="black" stroke="black" points="1538.19,-117.91 1547.16,-112.28 1536.63,-111.09 1538.19,-117.91"/>
</g>
<!-- node_0x60e0b16604d0 -->
<g id="node13" class="node">
<title>node_0x60e0b16604d0</title>
<polygon fill="yellow" stroke="black" points="1429.5,-0.5 1429.5,-37.5 1825.25,-37.5 1825.25,-0.5 1429.5,-0.5"/>
<text text-anchor="middle" x="1627.38" y="-24.95" font-family="Times,serif" font-size="9.00">x</text>
<polyline fill="none" stroke="black" points="1429.5,-19 1825.25,-19"/>
<text text-anchor="middle" x="1465.62" y="-6.45" font-family="Times,serif" font-size="9.00">type = 2 (VAR)</text>
<polyline fill="none" stroke="black" points="1501.75,-0.5 1501.75,-19"/>
<text text-anchor="middle" x="1527.75" y="-6.45" font-family="Times,serif" font-size="9.00">left = (nil)</text>
<polyline fill="none" stroke="black" points="1553.75,-0.5 1553.75,-19"/>
<text text-anchor="middle" x="1606.38" y="-6.45" font-family="Times,serif" font-size="9.00">node = 0x60e0b16604d0</text>
<polyline fill="none" stroke="black" points="1659,-0.5 1659,-19"/>
<text text-anchor="middle" x="1713.88" y="-6.45" font-family="Times,serif" font-size="9.00">parent = 0x60e0b1660510</text>
<polyline fill="none" stroke="black" points="1768.75,-0.5 1768.75,-19"/>
<text text-anchor="middle" x="1797" y="-6.45" font-family="Times,serif" font-size="9.00">right = (nil)</text>
</g>
<!-- node_0x60e0b1660510&#45;&gt;node_0x60e0b16604d0 -->
<g id="edge12" class="edge">
<title>node_0x60e0b1660510&#45;&gt;node_0x60e0b16604d0</title>
<path fill="none" stroke="black" d="M1627.38,-74.2C1627.38,-66.67 1627.38,-57.7 1627.38,-49.25"/>
<polygon fill="black" stroke="black" points="1630.88,-49.36 1627.38,-39.36 1623.88,-49.36 1630.88,-49.36"/>
</g>
<!-- node_0x60e0b1660410 -->
<g id="node16" class="node">
<title>node_0x60e0b1660410</title>
<polygon fill="#bdef9e" stroke="black" points="1883.25,-222.5 1883.25,-259.5 2319.5,-259.5 2319.5,-222.5 1883.25,-222.5"/>
<text text-anchor="middle" x="2101.38" y="-246.95" font-family="Times,serif" font-size="9.00">ln</text>
<polyline fill="none" stroke="black" points="1883.25,-241 2319.5,-241"/>
<text text-anchor="middle" x="1916" y="-228.45" font-family="Times,serif" font-size="9.00">type = 3 (OP)</text>
<polyline fill="none" stroke="black" points="1948.75,-222.5 1948.75,-241"/>
<text text-anchor="middle" x="1974.75" y="-228.45" font-family="Times,serif" font-size="9.00">left = (nil)</text>
<polyline fill="none" stroke="black" points="2000.75,-222.5 2000.75,-241"/>
<text text-anchor="middle" x="2053.38" y="-228.45" font-family="Times,serif" font-size="9.00">node = 0x60e0b1660410</text>
<polyline fill="none" stroke="black" points="2106,-222.5 2106,-241"/>
<text text-anchor="middle" x="2160.88" y="-228.45" font-family="Times,serif" font-size="9.00">parent = 0x60e0b1660450</text>
<polyline fill="none" stroke="black" points="2215.75,-222.5 2215.75,-241"/>
<text text-anchor="middle" x="2267.62" y="-228.45" font-family="Times,serif" font-size="9.00">right = 0x60e0b16603d0</text>
</g>
<!-- node_0x60e0b1660450&#45;&gt;node_0x60e0b1660410 -->
<g id="edge15" class="edge">
<title>node_0x60e0b1660450&#45;&gt;node_0x60e0b1660410</title>
<path fill="none" stroke="black" d="M2101.38,-296.2C2101.38,-288.67 2101.38,-279.7 2101.38,-271.25"/>
<polygon fill="black" stroke="black" points="2104.88,-271.36 2101.38,-261.36 2097.88,-271.36 2104.88,-271.36"/>
</g>
<!-- node_0x60e0b1660390 -->
<g id="node18" class="node">
<title>node_0x60e0b1660390</title>
<polygon fill="blue" stroke="black" points="2338,-222.5 2338,-259.5 2736.75,-259.5 2736.75,-222.5 2338,-222.5"/>
<text text-anchor="middle" x="2537.38" y="-246.95" font-family="Times,serif" font-size="9.00">2</text>
<polyline fill="none" stroke="black" points="2338,-241 2736.75,-241"/>
<text text-anchor="middle" x="2375.62" y="-228.45" font-family="Times,serif" font-size="9.00">type = 1 (NUM)</text>
<polyline fill="none" stroke="black" points="2413.25,-222.5 2413.25,-241"/>
<text text-anchor="middle" x="2439.25" y="-228.45" font-family="Times,serif" font-size="9.00">left = (nil)</text>
<polyline fill="none" stroke="black" points="2465.25,-222.5 2465.25,-241"/>
<text text-anchor="middle" x="2517.88" y="-228.45" font-family="Times,serif" font-size="9.00">node = 0x60e0b1660390</text>
<polyline fill="none" stroke="black" points="2570.5,-222.5 2570.5,-241"/>
<text text-anchor="middle" x="2625.38" y="-228.45" font-family="Times,serif" font-size="9.00">parent = 0x60e0b1660450</text>
<polyline fill="none" stroke="black" points="2680.25,-222.5 2680.25,-241"/>
<text text-anchor="middle" x="2708.5" y="-228.45" font-family="Times,serif" font-size="9.00">right = (nil)</text>
</g>
<!-- node_0x60e0b1660450&#45;&gt;node_0x60e0b1660390 -->
<g id="edge17" class="edge">
<title>node_0x60e0b1660450&#45;&gt;node_0x60e0b1660390</title>
<path fill="none" stroke="black" d="M2210.27,-296.02C2273.34,-285.6 2352.82,-272.48 2417.64,-261.77"/>
<polygon fill="black" stroke="black" points="2417.94,-265.27 2427.24,-260.19 2416.8,-258.36 2417.94,-265.27"/>
</g>
<!-- node_0x60e0b16603d0 -->
<g id="node17" class="node">
<title>node_0x60e0b16603d0</title>
<polygon fill="yellow" stroke="black" points="1985.5,-148.5 1985.5,-185.5 2381.25,-185.5 2381.25,-148.5 1985.5,-148.5"/>
<text text-anchor="middle" x="2183.38" y="-172.95" font-family="Times,serif" font-size="9.00">x</text>
<polyline fill="none" stroke="black" points="1985.5,-167 2381.25,-167"/>
<text text-anchor="middle" x="2021.62" y="-154.45" font-family="Times,serif" font-size="9.00">type = 2 (VAR)</text>
<polyline fill="none" stroke="black" points="2057.75,-148.5 2057.75,-167"/>
<text text-anchor="middle" x="2083.75" y="-154.45" font-family="Times,serif" font-size="9.00">left = (nil)</text>
<polyline fill="none" stroke="black" points="2109.75,-148.5 2109.75,-167"/>
<text text-anchor="middle" x="2162.38" y="-154.45" font-family="Times,serif" font-size="9.00">node = 0x60e0b16603d0</text>
<polyline fill="none" stroke="black" points="2215,-148.5 2215,-167"/>
<text text-anchor="middle" x="2269.88" y="-154.45" font-family="Times,serif" font-size="9.00">parent = 0x60e0b1660410</text>
<polyline fill="none" stroke="black" points="2324.75,-148.5 2324.75,-167"/>
<text text-anchor="middle" x="2353" y="-154.45" font-family="Times,serif" font-size="9.00">right = (nil)</text>
</g>
<!-- node_0x60e0b1660410&#45;&gt;node_0x60e0b16603d0 -->
<g id="edge16" class="edge">
<title>node_0x60e0b1660410&#45;&gt;node_0x60e0b16603d0</title>
<path fill="none" stroke="black" d="M2121.64,-222.2C2131.6,-213.46 2143.77,-202.78 2154.66,-193.21"/>
<polygon fill="black" stroke="black" points="2156.71,-196.07 2161.92,-186.84 2152.09,-190.81 2156.71,-196.07"/>
</g>
</g>
</svg>
